<svg width="80" height="80" viewBox="0 0 80 80" fill="none" xmlns="http://www.w3.org/2000/svg">
<mask id="path-1-inside-1_2216_32313" fill="white">
<path d="M40 0L68.2843 11.7157L80 40L68.2843 68.2843L40 80L11.7158 68.2843L0 40L11.7158 11.7157L40 0Z"/>
</mask>
<path d="M40 0L68.2843 11.7157L80 40L68.2843 68.2843L40 80L11.7158 68.2843L0 40L11.7158 11.7157L40 0Z" stroke="#0B6AB7" stroke-width="3" mask="url(#path-1-inside-1_2216_32313)"/>
<path d="M40.0001 6L64.0418 15.9584L74.0002 40.0001M40.0001 74.0002L15.9584 64.0418L6 40.0001" stroke="#00E0E0" stroke-width="2"/>
<path d="M56.0938 49.0625V49.8125C56.508 49.8125 56.8438 49.4767 56.8438 49.0625H56.0938ZM23.75 56.25H23C23 56.6184 23.2676 56.9323 23.6314 56.9906C23.9952 57.0488 24.3474 56.8342 24.4625 56.4842L23.75 56.25ZM23.75 27.5V26.75C23.3358 26.75 23 27.0858 23 27.5H23.75ZM56.0938 27.5H56.8438C56.8438 27.0858 56.508 26.75 56.0938 26.75V27.5ZM56.0938 49.0625C56.0938 48.3125 56.0937 48.3125 56.0936 48.3125C56.0934 48.3125 56.0932 48.3125 56.093 48.3125C56.0927 48.3125 56.0924 48.3125 56.092 48.3125C56.0916 48.3125 56.0911 48.3125 56.0906 48.3125C56.0901 48.3125 56.0895 48.3125 56.0889 48.3125C56.0882 48.3125 56.0875 48.3125 56.0867 48.3125C56.0859 48.3125 56.0851 48.3125 56.0842 48.3125C56.0833 48.3125 56.0823 48.3125 56.0812 48.3125C56.0802 48.3125 56.0791 48.3125 56.0779 48.3125C56.0768 48.3125 56.0755 48.3125 56.0743 48.3125C56.073 48.3125 56.0716 48.3125 56.0702 48.3125C56.0688 48.3125 56.0673 48.3125 56.0657 48.3125C56.0642 48.3125 56.0626 48.3125 56.0609 48.3125C56.0592 48.3125 56.0575 48.3125 56.0557 48.3125C56.0539 48.3125 56.052 48.3125 56.0501 48.3125C56.0482 48.3125 56.0462 48.3125 56.0441 48.3125C56.0421 48.3125 56.04 48.3125 56.0378 48.3125C56.0356 48.3125 56.0334 48.3125 56.0311 48.3125C56.0288 48.3125 56.0264 48.3125 56.024 48.3125C56.0216 48.3125 56.0191 48.3125 56.0166 48.3125C56.014 48.3125 56.0114 48.3125 56.0087 48.3125C56.0061 48.3125 56.0033 48.3125 56.0006 48.3125C55.9978 48.3125 55.9949 48.3125 55.992 48.3125C55.9891 48.3125 55.9861 48.3125 55.9831 48.3125C55.98 48.3125 55.9769 48.3125 55.9738 48.3125C55.9706 48.3125 55.9674 48.3125 55.9641 48.3125C55.9608 48.3125 55.9575 48.3125 55.9541 48.3125C55.9507 48.3125 55.9473 48.3125 55.9437 48.3125C55.9402 48.3125 55.9366 48.3125 55.933 48.3125C55.9294 48.3125 55.9257 48.3125 55.9219 48.3125C55.9181 48.3125 55.9143 48.3125 55.9104 48.3125C55.9066 48.3125 55.9026 48.3125 55.8986 48.3125C55.8946 48.3125 55.8906 48.3125 55.8865 48.3125C55.8824 48.3125 55.8782 48.3125 55.874 48.3125C55.8697 48.3125 55.8654 48.3125 55.8611 48.3125C55.8567 48.3125 55.8523 48.3125 55.8479 48.3125C55.8434 48.3125 55.8389 48.3125 55.8343 48.3125C55.8297 48.3125 55.8251 48.3125 55.8204 48.3125C55.8157 48.3125 55.8109 48.3125 55.8061 48.3125C55.8013 48.3125 55.7964 48.3125 55.7915 48.3125C55.7865 48.3125 55.7816 48.3125 55.7765 48.3125C55.7715 48.3125 55.7664 48.3125 55.7612 48.3125C55.756 48.3125 55.7508 48.3125 55.7455 48.3125C55.7403 48.3125 55.7349 48.3125 55.7296 48.3125C55.7242 48.3125 55.7187 48.3125 55.7132 48.3125C55.7077 48.3125 55.7022 48.3125 55.6965 48.3125C55.6909 48.3125 55.6853 48.3125 55.6795 48.3125C55.6738 48.3125 55.668 48.3125 55.6622 48.3125C55.6564 48.3125 55.6505 48.3125 55.6445 48.3125C55.6386 48.3125 55.6325 48.3125 55.6265 48.3125C55.6204 48.3125 55.6143 48.3125 55.6081 48.3125C55.602 48.3125 55.5957 48.3125 55.5895 48.3125C55.5832 48.3125 55.5768 48.3125 55.5704 48.3125C55.564 48.3125 55.5576 48.3125 55.5511 48.3125C55.5446 48.3125 55.538 48.3125 55.5314 48.3125C55.5248 48.3125 55.5181 48.3125 55.5114 48.3125C55.5047 48.3125 55.4979 48.3125 55.4911 48.3125C55.4843 48.3125 55.4774 48.3125 55.4704 48.3125C55.4635 48.3125 55.4565 48.3125 55.4495 48.3125C55.4424 48.3125 55.4353 48.3125 55.4282 48.3125C55.421 48.3125 55.4138 48.3125 55.4065 48.3125C55.3993 48.3125 55.392 48.3125 55.3846 48.3125C55.3772 48.3125 55.3698 48.3125 55.3623 48.3125C55.3549 48.3125 55.3474 48.3125 55.3398 48.3125C55.3322 48.3125 55.3246 48.3125 55.3169 48.3125C55.3092 48.3125 55.3015 48.3125 55.2937 48.3125C55.2859 48.3125 55.278 48.3125 55.2702 48.3125C55.2623 48.3125 55.2543 48.3125 55.2463 48.3125C55.2383 48.3125 55.2303 48.3125 55.2222 48.3125C55.2141 48.3125 55.2059 48.3125 55.1977 48.3125C55.1895 48.3125 55.1813 48.3125 55.173 48.3125C55.1646 48.3125 55.1563 48.3125 55.1479 48.3125C55.1395 48.3125 55.131 48.3125 55.1225 48.3125C55.114 48.3125 55.1054 48.3125 55.0968 48.3125C55.0882 48.3125 55.0795 48.3125 55.0708 48.3125C55.0621 48.3125 55.0533 48.3125 55.0445 48.3125C55.0357 48.3125 55.0269 48.3125 55.0179 48.3125C55.009 48.3125 55.0001 48.3125 54.991 48.3125C54.982 48.3125 54.973 48.3125 54.9638 48.3125C54.9547 48.3125 54.9456 48.3125 54.9364 48.3125C54.9271 48.3125 54.9179 48.3125 54.9086 48.3125C54.8993 48.3125 54.8899 48.3125 54.8805 48.3125C54.8711 48.3125 54.8616 48.3125 54.8521 48.3125C54.8426 48.3125 54.833 48.3125 54.8234 48.3125C54.8138 48.3125 54.8042 48.3125 54.7945 48.3125C54.7848 48.3125 54.775 48.3125 54.7652 48.3125C54.7554 48.3125 54.7456 48.3125 54.7357 48.3125C54.7258 48.3125 54.7158 48.3125 54.7058 48.3125C54.6958 48.3125 54.6858 48.3125 54.6757 48.3125C54.6656 48.3125 54.6555 48.3125 54.6453 48.3125C54.6351 48.3125 54.6249 48.3125 54.6146 48.3125C54.6043 48.3125 54.594 48.3125 54.5836 48.3125C54.5732 48.3125 54.5628 48.3125 54.5524 48.3125C54.5419 48.3125 54.5314 48.3125 54.5208 48.3125C54.5103 48.3125 54.4997 48.3125 54.489 48.3125C54.4783 48.3125 54.4676 48.3125 54.4569 48.3125C54.4462 48.3125 54.4354 48.3125 54.4245 48.3125C54.4137 48.3125 54.4028 48.3125 54.3919 48.3125C54.3809 48.3125 54.37 48.3125 54.3589 48.3125C54.3479 48.3125 54.3369 48.3125 54.3257 48.3125C54.3146 48.3125 54.3035 48.3125 54.2923 48.3125C54.2811 48.3125 54.2698 48.3125 54.2585 48.3125C54.2472 48.3125 54.2359 48.3125 54.2245 48.3125C54.2131 48.3125 54.2017 48.3125 54.1902 48.3125C54.1787 48.3125 54.1672 48.3125 54.1557 48.3125C54.1441 48.3125 54.1325 48.3125 54.1208 48.3125C54.1092 48.3125 54.0975 48.3125 54.0858 48.3125C54.074 48.3125 54.0622 48.3125 54.0504 48.3125C54.0386 48.3125 54.0267 48.3125 54.0148 48.3125C54.0029 48.3125 53.9909 48.3125 53.9789 48.3125C53.9669 48.3125 53.9549 48.3125 53.9428 48.3125C53.9307 48.3125 53.9186 48.3125 53.9064 48.3125C53.8942 48.3125 53.882 48.3125 53.8697 48.3125C53.8575 48.3125 53.8452 48.3125 53.8328 48.3125C53.8205 48.3125 53.8081 48.3125 53.7957 48.3125C53.7832 48.3125 53.7707 48.3125 53.7582 48.3125C53.7457 48.3125 53.7332 48.3125 53.7206 48.3125C53.708 48.3125 53.6953 48.3125 53.6826 48.3125C53.6699 48.3125 53.6572 48.3125 53.6445 48.3125C53.6317 48.3125 53.6189 48.3125 53.606 48.3125C53.5932 48.3125 53.5803 48.3125 53.5673 48.3125C53.5544 48.3125 53.5414 48.3125 53.5284 48.3125C53.5154 48.3125 53.5024 48.3125 53.4893 48.3125C53.4762 48.3125 53.463 48.3125 53.4498 48.3125C53.4367 48.3125 53.4234 48.3125 53.4102 48.3125C53.3969 48.3125 53.3836 48.3125 53.3703 48.3125C53.3569 48.3125 53.3436 48.3125 53.3301 48.3125C53.3167 48.3125 53.3033 48.3125 53.2898 48.3125C53.2763 48.3125 53.2627 48.3125 53.2491 48.3125C53.2356 48.3125 53.2219 48.3125 53.2083 48.3125C53.1946 48.3125 53.1809 48.3125 53.1672 48.3125C53.1535 48.3125 53.1397 48.3125 53.1259 48.3125C53.112 48.3125 53.0982 48.3125 53.0843 48.3125C53.0704 48.3125 53.0565 48.3125 53.0425 48.3125C53.0285 48.3125 53.0145 48.3125 53.0005 48.3125C52.9864 48.3125 52.9723 48.3125 52.9582 48.3125C52.9441 48.3125 52.9299 48.3125 52.9157 48.3125C52.9015 48.3125 52.8873 48.3125 52.873 48.3125C52.8587 48.3125 52.8444 48.3125 52.8301 48.3125C52.8157 48.3125 52.8013 48.3125 52.7869 48.3125C52.7725 48.3125 52.758 48.3125 52.7435 48.3125C52.729 48.3125 52.7145 48.3125 52.6999 48.3125C52.6853 48.3125 52.6707 48.3125 52.6561 48.3125C52.6414 48.3125 52.6267 48.3125 52.612 48.3125C52.5973 48.3125 52.5825 48.3125 52.5677 48.3125C52.5529 48.3125 52.5381 48.3125 52.5232 48.3125C52.5084 48.3125 52.4935 48.3125 52.4785 48.3125C52.4636 48.3125 52.4486 48.3125 52.4336 48.3125C52.4186 48.3125 52.4035 48.3125 52.3885 48.3125C52.3734 48.3125 52.3583 48.3125 52.3431 48.3125C52.3279 48.3125 52.3128 48.3125 52.2975 48.3125C52.2823 48.3125 52.267 48.3125 52.2518 48.3125C52.2365 48.3125 52.2211 48.3125 52.2058 48.3125C52.1904 48.3125 52.175 48.3125 52.1596 48.3125C52.1441 48.3125 52.1287 48.3125 52.1132 48.3125C52.0977 48.3125 52.0821 48.3125 52.0666 48.3125C52.051 48.3125 52.0354 48.3125 52.0197 48.3125C52.0041 48.3125 51.9884 48.3125 51.9727 48.3125C51.957 48.3125 51.9413 48.3125 51.9255 48.3125C51.9097 48.3125 51.8939 48.3125 51.8781 48.3125C51.8622 48.3125 51.8464 48.3125 51.8305 48.3125C51.8146 48.3125 51.7986 48.3125 51.7826 48.3125C51.7667 48.3125 51.7507 48.3125 51.7346 48.3125C51.7186 48.3125 51.7025 48.3125 51.6864 48.3125C51.6703 48.3125 51.6542 48.3125 51.638 48.3125C51.6218 48.3125 51.6056 48.3125 51.5894 48.3125C51.5732 48.3125 51.5569 48.3125 51.5406 48.3125C51.5243 48.3125 51.508 48.3125 51.4916 48.3125C51.4753 48.3125 51.4589 48.3125 51.4424 48.3125C51.426 48.3125 51.4096 48.3125 51.3931 48.3125C51.3766 48.3125 51.3601 48.3125 51.3435 48.3125C51.327 48.3125 51.3104 48.3125 51.2938 48.3125C51.2772 48.3125 51.2605 48.3125 51.2438 48.3125C51.2272 48.3125 51.2105 48.3125 51.1937 48.3125C51.177 48.3125 51.1602 48.3125 51.1434 48.3125C51.1266 48.3125 51.1098 48.3125 51.093 48.3125C51.0761 48.3125 51.0592 48.3125 51.0423 48.3125C51.0254 48.3125 51.0084 48.3125 50.9915 48.3125C50.9745 48.3125 50.9575 48.3125 50.9405 48.3125C50.9234 48.3125 50.9064 48.3125 50.8893 48.3125C50.8722 48.3125 50.855 48.3125 50.8379 48.3125C50.8207 48.3125 50.8036 48.3125 50.7864 48.3125C50.7691 48.3125 50.7519 48.3125 50.7346 48.3125C50.7174 48.3125 50.7001 48.3125 50.6828 48.3125C50.6654 48.3125 50.6481 48.3125 50.6307 48.3125C50.6133 48.3125 50.5959 48.3125 50.5785 48.3125C50.561 48.3125 50.5436 48.3125 50.5261 48.3125C50.5086 48.3125 50.4911 48.3125 50.4735 48.3125C50.456 48.3125 50.4384 48.3125 50.4208 48.3125C50.4032 48.3125 50.3855 48.3125 50.3679 48.3125C50.3502 48.3125 50.3325 48.3125 50.3148 48.3125C50.2971 48.3125 50.2794 48.3125 50.2616 48.3125C50.2438 48.3125 50.226 48.3125 50.2082 48.3125C50.1904 48.3125 50.1726 48.3125 50.1547 48.3125C50.1368 48.3125 50.1189 48.3125 50.101 48.3125C50.0831 48.3125 50.0651 48.3125 50.0471 48.3125C50.0292 48.3125 50.0111 48.3125 49.9931 48.3125C49.9751 48.3125 49.957 48.3125 49.9389 48.3125C49.9209 48.3125 49.9028 48.3125 49.8846 48.3125C49.8665 48.3125 49.8483 48.3125 49.8301 48.3125C49.812 48.3125 49.7938 48.3125 49.7755 48.3125C49.7573 48.3125 49.739 48.3125 49.7207 48.3125C49.7025 48.3125 49.6841 48.3125 49.6658 48.3125C49.6475 48.3125 49.6291 48.3125 49.6107 48.3125C49.5924 48.3125 49.574 48.3125 49.5555 48.3125C49.5371 48.3125 49.5186 48.3125 49.5002 48.3125C49.4817 48.3125 49.4632 48.3125 49.4446 48.3125C49.4261 48.3125 49.4076 48.3125 49.389 48.3125C49.3704 48.3125 49.3518 48.3125 49.3332 48.3125C49.3146 48.3125 49.2959 48.3125 49.2773 48.3125C49.2586 48.3125 49.2399 48.3125 49.2212 48.3125C49.2025 48.3125 49.1837 48.3125 49.165 48.3125C49.1462 48.3125 49.1274 48.3125 49.1086 48.3125C49.0898 48.3125 49.071 48.3125 49.0521 48.3125C49.0333 48.3125 49.0144 48.3125 48.9955 48.3125C48.9766 48.3125 48.9577 48.3125 48.9388 48.3125C48.9198 48.3125 48.9009 48.3125 48.8819 48.3125C48.8629 48.3125 48.8439 48.3125 48.8249 48.3125C48.8058 48.3125 48.7868 48.3125 48.7677 48.3125C48.7486 48.3125 48.7295 48.3125 48.7104 48.3125C48.6913 48.3125 48.6722 48.3125 48.653 48.3125C48.6339 48.3125 48.6147 48.3125 48.5955 48.3125C48.5763 48.3125 48.5571 48.3125 48.5379 48.3125C48.5186 48.3125 48.4994 48.3125 48.4801 48.3125C48.4608 48.3125 48.4415 48.3125 48.4222 48.3125C48.4029 48.3125 48.3835 48.3125 48.3642 48.3125C48.3448 48.3125 48.3254 48.3125 48.306 48.3125C48.2866 48.3125 48.2672 48.3125 48.2478 48.3125C48.2283 48.3125 48.2089 48.3125 48.1894 48.3125C48.1699 48.3125 48.1504 48.3125 48.1309 48.3125C48.1114 48.3125 48.0918 48.3125 48.0723 48.3125C48.0527 48.3125 48.0331 48.3125 48.0136 48.3125C47.994 48.3125 47.9744 48.3125 47.9547 48.3125C47.9351 48.3125 47.9154 48.3125 47.8958 48.3125C47.8761 48.3125 47.8564 48.3125 47.8367 48.3125C47.817 48.3125 47.7973 48.3125 47.7776 48.3125C47.7578 48.3125 47.7381 48.3125 47.7183 48.3125C47.6985 48.3125 47.6787 48.3125 47.6589 48.3125C47.6391 48.3125 47.6193 48.3125 47.5994 48.3125C47.5796 48.3125 47.5597 48.3125 47.5398 48.3125C47.5199 48.3125 47.5 48.3125 47.4801 48.3125C47.4602 48.3125 47.4403 48.3125 47.4203 48.3125C47.4004 48.3125 47.3804 48.3125 47.3604 48.3125C47.3405 48.3125 47.3205 48.3125 47.3005 48.3125C47.2804 48.3125 47.2604 48.3125 47.2404 48.3125C47.2203 48.3125 47.2002 48.3125 47.1802 48.3125C47.1601 48.3125 47.14 48.3125 47.1199 48.3125C47.0998 48.3125 47.0796 48.3125 47.0595 48.3125C47.0394 48.3125 47.0192 48.3125 46.999 48.3125C46.9789 48.3125 46.9587 48.3125 46.9385 48.3125C46.9183 48.3125 46.898 48.3125 46.8778 48.3125C46.8576 48.3125 46.8373 48.3125 46.8171 48.3125C46.7968 48.3125 46.7765 48.3125 46.7562 48.3125C46.7359 48.3125 46.7156 48.3125 46.6953 48.3125C46.675 48.3125 46.6547 48.3125 46.6343 48.3125C46.614 48.3125 46.5936 48.3125 46.5732 48.3125C46.5528 48.3125 46.5324 48.3125 46.512 48.3125C46.4916 48.3125 46.4712 48.3125 46.4508 48.3125C46.4303 48.3125 46.4099 48.3125 46.3894 48.3125C46.369 48.3125 46.3485 48.3125 46.328 48.3125C46.3075 48.3125 46.287 48.3125 46.2665 48.3125C46.246 48.3125 46.2255 48.3125 46.205 48.3125C46.1844 48.3125 46.1639 48.3125 46.1433 48.3125C46.1227 48.3125 46.1022 48.3125 46.0816 48.3125C46.061 48.3125 46.0404 48.3125 46.0198 48.3125C45.9992 48.3125 45.9785 48.3125 45.9579 48.3125C45.9373 48.3125 45.9166 48.3125 45.896 48.3125C45.8753 48.3125 45.8546 48.3125 45.8339 48.3125C45.8133 48.3125 45.7926 48.3125 45.7719 48.3125C45.7512 48.3125 45.7304 48.3125 45.7097 48.3125C45.689 48.3125 45.6682 48.3125 45.6475 48.3125C45.6267 48.3125 45.606 48.3125 45.5852 48.3125C45.5644 48.3125 45.5437 48.3125 45.5229 48.3125C45.5021 48.3125 45.4813 48.3125 45.4604 48.3125C45.4396 48.3125 45.4188 48.3125 45.398 48.3125C45.3771 48.3125 45.3563 48.3125 45.3354 48.3125C45.3146 48.3125 45.2937 48.3125 45.2729 48.3125C45.252 48.3125 45.2311 48.3125 45.2102 48.3125C45.1893 48.3125 45.1684 48.3125 45.1475 48.3125C45.1266 48.3125 45.1057 48.3125 45.0847 48.3125C45.0638 48.3125 45.0429 48.3125 45.0219 48.3125C45.001 48.3125 44.98 48.3125 44.959 48.3125C44.9381 48.3125 44.9171 48.3125 44.8961 48.3125C44.8751 48.3125 44.8541 48.3125 44.8331 48.3125C44.8121 48.3125 44.7911 48.3125 44.7701 48.3125C44.7491 48.3125 44.7281 48.3125 44.7071 48.3125C44.686 48.3125 44.665 48.3125 44.6439 48.3125C44.6229 48.3125 44.6018 48.3125 44.5808 48.3125C44.5597 48.3125 44.5386 48.3125 44.5176 48.3125C44.4965 48.3125 44.4754 48.3125 44.4543 48.3125C44.4332 48.3125 44.4121 48.3125 44.391 48.3125C44.3699 48.3125 44.3488 48.3125 44.3277 48.3125C44.3066 48.3125 44.2854 48.3125 44.2643 48.3125C44.2432 48.3125 44.222 48.3125 44.2009 48.3125C44.1797 48.3125 44.1586 48.3125 44.1374 48.3125C44.1163 48.3125 44.0951 48.3125 44.0739 48.3125C44.0528 48.3125 44.0316 48.3125 44.0104 48.3125C43.9892 48.3125 43.968 48.3125 43.9469 48.3125C43.9257 48.3125 43.9045 48.3125 43.8833 48.3125C43.8621 48.3125 43.8409 48.3125 43.8196 48.3125C43.7984 48.3125 43.7772 48.3125 43.756 48.3125C43.7348 48.3125 43.7135 48.3125 43.6923 48.3125C43.6711 48.3125 43.6498 48.3125 43.6286 48.3125C43.6074 48.3125 43.5861 48.3125 43.5649 48.3125C43.5436 48.3125 43.5224 48.3125 43.5011 48.3125C43.4798 48.3125 43.4586 48.3125 43.4373 48.3125C43.4161 48.3125 43.3948 48.3125 43.3735 48.3125C43.3522 48.3125 43.331 48.3125 43.3097 48.3125C43.2884 48.3125 43.2671 48.3125 43.2458 48.3125C43.2245 48.3125 43.2033 48.3125 43.182 48.3125C43.1607 48.3125 43.1394 48.3125 43.1181 48.3125C43.0968 48.3125 43.0755 48.3125 43.0542 48.3125C43.0329 48.3125 43.0116 48.3125 42.9903 48.3125C42.9689 48.3125 42.9476 48.3125 42.9263 48.3125C42.905 48.3125 42.8837 48.3125 42.8624 48.3125C42.841 48.3125 42.8197 48.3125 42.7984 48.3125C42.7771 48.3125 42.7558 48.3125 42.7344 48.3125C42.7131 48.3125 42.6918 48.3125 42.6705 48.3125C42.6491 48.3125 42.6278 48.3125 42.6065 48.3125C42.5851 48.3125 42.5638 48.3125 42.5425 48.3125C42.5211 48.3125 42.4998 48.3125 42.4785 48.3125C42.4571 48.3125 42.4358 48.3125 42.4145 48.3125C42.3931 48.3125 42.3718 48.3125 42.3505 48.3125C42.3291 48.3125 42.3078 48.3125 42.2864 48.3125C42.2651 48.3125 42.2438 48.3125 42.2224 48.3125C42.2011 48.3125 42.1798 48.3125 42.1584 48.3125C42.1371 48.3125 42.1157 48.3125 42.0944 48.3125C42.0731 48.3125 42.0517 48.3125 42.0304 48.3125C42.0091 48.3125 41.9877 48.3125 41.9664 48.3125C41.945 48.3125 41.9237 48.3125 41.9024 48.3125C41.8811 48.3125 41.8597 48.3125 41.8384 48.3125C41.8171 48.3125 41.7957 48.3125 41.7744 48.3125C41.7531 48.3125 41.7317 48.3125 41.7104 48.3125C41.6891 48.3125 41.6678 48.3125 41.6465 48.3125C41.6251 48.3125 41.6038 48.3125 41.5825 48.3125C41.5612 48.3125 41.5399 48.3125 41.5185 48.3125C41.4972 48.3125 41.4759 48.3125 41.4546 48.3125C41.4333 48.3125 41.412 48.3125 41.3907 48.3125C41.3694 48.3125 41.3481 48.3125 41.3268 48.3125C41.3055 48.3125 41.2842 48.3125 41.2629 48.3125C41.2416 48.3125 41.2203 48.3125 41.199 48.3125C41.1778 48.3125 41.1565 48.3125 41.1352 48.3125C41.1139 48.3125 41.0926 48.3125 41.0714 48.3125C41.0501 48.3125 41.0288 48.3125 41.0076 48.3125C40.9863 48.3125 40.965 48.3125 40.9438 48.3125C40.9225 48.3125 40.9013 48.3125 40.88 48.3125C40.8588 48.3125 40.8375 48.3125 40.8163 48.3125C40.7951 48.3125 40.7738 48.3125 40.7526 48.3125C40.7314 48.3125 40.7101 48.3125 40.6889 48.3125C40.6677 48.3125 40.6465 48.3125 40.6253 48.3125C40.6041 48.3125 40.5828 48.3125 40.5616 48.3125C40.5404 48.3125 40.5193 48.3125 40.4981 48.3125C40.4769 48.3125 40.4557 48.3125 40.4345 48.3125C40.4133 48.3125 40.3922 48.3125 40.371 48.3125C40.3498 48.3125 40.3287 48.3125 40.3075 48.3125C40.2864 48.3125 40.2652 48.3125 40.2441 48.3125C40.2229 48.3125 40.2018 48.3125 40.1807 48.3125C40.1595 48.3125 40.1384 48.3125 40.1173 48.3125C40.0962 48.3125 40.0751 48.3125 40.0539 48.3125C40.0328 48.3125 40.0118 48.3125 39.9907 48.3125C39.9696 48.3125 39.9485 48.3125 39.9274 48.3125C39.9063 48.3125 39.8853 48.3125 39.8642 48.3125C39.8432 48.3125 39.8221 48.3125 39.8011 48.3125C39.78 48.3125 39.759 48.3125 39.7379 48.3125C39.7169 48.3125 39.6959 48.3125 39.6749 48.3125C39.6539 48.3125 39.6329 48.3125 39.6119 48.3125C39.5909 48.3125 39.5699 48.3125 39.5489 48.3125C39.5279 48.3125 39.5069 48.3125 39.486 48.3125C39.465 48.3125 39.4441 48.3125 39.4231 48.3125C39.4022 48.3125 39.3812 48.3125 39.3603 48.3125C39.3394 48.3125 39.3185 48.3125 39.2976 48.3125C39.2766 48.3125 39.2557 48.3125 39.2349 48.3125C39.214 48.3125 39.1931 48.3125 39.1722 48.3125C39.1513 48.3125 39.1305 48.3125 39.1096 48.3125C39.0888 48.3125 39.0679 48.3125 39.0471 48.3125C39.0263 48.3125 39.0055 48.3125 38.9846 48.3125C38.9638 48.3125 38.943 48.3125 38.9222 48.3125C38.9015 48.3125 38.8807 48.3125 38.8599 48.3125C38.8391 48.3125 38.8184 48.3125 38.7976 48.3125C38.7769 48.3125 38.7562 48.3125 38.7354 48.3125C38.7147 48.3125 38.694 48.3125 38.6733 48.3125C38.6526 48.3125 38.6319 48.3125 38.6112 48.3125C38.5905 48.3125 38.5699 48.3125 38.5492 48.3125C38.5286 48.3125 38.5079 48.3125 38.4873 48.3125C38.4666 48.3125 38.446 48.3125 38.4254 48.3125C38.4048 48.3125 38.3842 48.3125 38.3636 48.3125C38.343 48.3125 38.3225 48.3125 38.3019 48.3125C38.2814 48.3125 38.2608 48.3125 38.2403 48.3125C38.2197 48.3125 38.1992 48.3125 38.1787 48.3125C38.1582 48.3125 38.1377 48.3125 38.1172 48.3125C38.0967 48.3125 38.0763 48.3125 38.0558 48.3125C38.0354 48.3125 38.0149 48.3125 37.9945 48.3125C37.9741 48.3125 37.9536 48.3125 37.9332 48.3125C37.9128 48.3125 37.8925 48.3125 37.8721 48.3125C37.8517 48.3125 37.8313 48.3125 37.811 48.3125C37.7907 48.3125 37.7703 48.3125 37.75 48.3125C37.7297 48.3125 37.7094 48.3125 37.6891 48.3125C37.6688 48.3125 37.6485 48.3125 37.6283 48.3125C37.608 48.3125 37.5878 48.3125 37.5676 48.3125C37.5473 48.3125 37.5271 48.3125 37.5069 48.3125C37.4867 48.3125 37.4665 48.3125 37.4464 48.3125C37.4262 48.3125 37.406 48.3125 37.3859 48.3125C37.3658 48.3125 37.3456 48.3125 37.3255 48.3125C37.3054 48.3125 37.2853 48.3125 37.2653 48.3125C37.2452 48.3125 37.2251 48.3125 37.2051 48.3125C37.185 48.3125 37.165 48.3125 37.145 48.3125C37.125 48.3125 37.105 48.3125 37.085 48.3125C37.0651 48.3125 37.0451 48.3125 37.0252 48.3125C37.0052 48.3125 36.9853 48.3125 36.9654 48.3125C36.9455 48.3125 36.9256 48.3125 36.9057 48.3125C36.8858 48.3125 36.866 48.3125 36.8461 48.3125C36.8263 48.3125 36.8065 48.3125 36.7867 48.3125C36.7669 48.3125 36.7471 48.3125 36.7273 48.3125C36.7075 48.3125 36.6878 48.3125 36.668 48.3125C36.6483 48.3125 36.6286 48.3125 36.6089 48.3125C36.5892 48.3125 36.5695 48.3125 36.5498 48.3125C36.5302 48.3125 36.5105 48.3125 36.4909 48.3125C36.4713 48.3125 36.4517 48.3125 36.4321 48.3125C36.4125 48.3125 36.3929 48.3125 36.3734 48.3125C36.3538 48.3125 36.3343 48.3125 36.3148 48.3125C36.2953 48.3125 36.2758 48.3125 36.2563 48.3125C36.2369 48.3125 36.2174 48.3125 36.198 48.3125C36.1785 48.3125 36.1591 48.3125 36.1397 48.3125C36.1203 48.3125 36.101 48.3125 36.0816 48.3125C36.0623 48.3125 36.0429 48.3125 36.0236 48.3125C36.0043 48.3125 35.985 48.3125 35.9657 48.3125C35.9465 48.3125 35.9272 48.3125 35.908 48.3125C35.8887 48.3125 35.8695 48.3125 35.8503 48.3125C35.8311 48.3125 35.812 48.3125 35.7928 48.3125C35.7737 48.3125 35.7546 48.3125 35.7354 48.3125C35.7163 48.3125 35.6973 48.3125 35.6782 48.3125C35.6591 48.3125 35.6401 48.3125 35.6211 48.3125C35.602 48.3125 35.583 48.3125 35.5641 48.3125C35.5451 48.3125 35.5261 48.3125 35.5072 48.3125C35.4883 48.3125 35.4694 48.3125 35.4505 48.3125C35.4316 48.3125 35.4127 48.3125 35.3939 48.3125C35.375 48.3125 35.3562 48.3125 35.3374 48.3125C35.3186 48.3125 35.2998 48.3125 35.2811 48.3125C35.2623 48.3125 35.2436 48.3125 35.2249 48.3125C35.2062 48.3125 35.1875 48.3125 35.1688 48.3125C35.1502 48.3125 35.1315 48.3125 35.1129 48.3125C35.0943 48.3125 35.0757 48.3125 35.0571 48.3125C35.0386 48.3125 35.02 48.3125 35.0015 48.3125C34.983 48.3125 34.9645 48.3125 34.946 48.3125C34.9275 48.3125 34.9091 48.3125 34.8907 48.3125C34.8723 48.3125 34.8539 48.3125 34.8355 48.3125C34.8171 48.3125 34.7988 48.3125 34.7804 48.3125C34.7621 48.3125 34.7438 48.3125 34.7255 48.3125C34.7072 48.3125 34.689 48.3125 34.6708 48.3125C34.6525 48.3125 34.6343 48.3125 34.6162 48.3125C34.598 48.3125 34.5798 48.3125 34.5617 48.3125C34.5436 48.3125 34.5255 48.3125 34.5074 48.3125C34.4893 48.3125 34.4713 48.3125 34.4533 48.3125C34.4352 48.3125 34.4172 48.3125 34.3993 48.3125C34.3813 48.3125 34.3634 48.3125 34.3454 48.3125C34.3275 48.3125 34.3096 48.3125 34.2918 48.3125C34.2739 48.3125 34.2561 48.3125 34.2382 48.3125C34.2204 48.3125 34.2027 48.3125 34.1849 48.3125C34.1671 48.3125 34.1494 48.3125 34.1317 48.3125C34.114 48.3125 34.0963 48.3125 34.0787 48.3125C34.061 48.3125 34.0434 48.3125 34.0258 48.3125C34.0082 48.3125 33.9906 48.3125 33.9731 48.3125C33.9556 48.3125 33.938 48.3125 33.9206 48.3125C33.9031 48.3125 33.8856 48.3125 33.8682 48.3125C33.8508 48.3125 33.8334 48.3125 33.816 48.3125C33.7986 48.3125 33.7813 48.3125 33.764 48.3125C33.7466 48.3125 33.7294 48.3125 33.7121 48.3125C33.6948 48.3125 33.6776 48.3125 33.6604 48.3125C33.6432 48.3125 33.626 48.3125 33.6089 48.3125C33.5917 48.3125 33.5746 48.3125 33.5575 48.3125C33.5405 48.3125 33.5234 48.3125 33.5064 48.3125C33.4894 48.3125 33.4724 48.3125 33.4554 48.3125C33.4384 48.3125 33.4215 48.3125 33.4046 48.3125C33.3877 48.3125 33.3708 48.3125 33.354 48.3125C33.3371 48.3125 33.3203 48.3125 33.3035 48.3125C33.2867 48.3125 33.27 48.3125 33.2532 48.3125C33.2365 48.3125 33.2198 48.3125 33.2032 48.3125C33.1865 48.3125 33.1699 48.3125 33.1533 48.3125C33.1367 48.3125 33.1201 48.3125 33.1036 48.3125C33.087 48.3125 33.0705 48.3125 33.054 48.3125C33.0375 48.3125 33.0211 48.3125 33.0047 48.3125C32.9883 48.3125 32.9719 48.3125 32.9555 48.3125C32.9392 48.3125 32.9229 48.3125 32.9066 48.3125C32.8903 48.3125 32.874 48.3125 32.8578 48.3125C32.8416 48.3125 32.8254 48.3125 32.8092 48.3125C32.7931 48.3125 32.777 48.3125 32.7609 48.3125C32.7448 48.3125 32.7287 48.3125 32.7127 48.3125C32.6966 48.3125 32.6807 48.3125 32.6647 48.3125C32.6487 48.3125 32.6328 48.3125 32.6169 48.3125C32.601 48.3125 32.5851 48.3125 32.5693 48.3125C32.5535 48.3125 32.5377 48.3125 32.5219 48.3125C32.5062 48.3125 32.4904 48.3125 32.4747 48.3125C32.459 48.3125 32.4434 48.3125 32.4277 48.3125C32.4121 48.3125 32.3965 48.3125 32.381 48.3125C32.3654 48.3125 32.3499 48.3125 32.3344 48.3125C32.3189 48.3125 32.3034 48.3125 32.288 48.3125C32.2726 48.3125 32.2572 48.3125 32.2418 48.3125C32.2265 48.3125 32.2112 48.3125 32.1959 48.3125C32.1806 48.3125 32.1654 48.3125 32.1501 48.3125C32.1349 48.3125 32.1198 48.3125 32.1046 48.3125C32.0895 48.3125 32.0744 48.3125 32.0593 48.3125C32.0442 48.3125 32.0292 48.3125 32.0142 48.3125C31.9992 48.3125 31.9842 48.3125 31.9693 48.3125C31.9544 48.3125 31.9395 48.3125 31.9246 48.3125C31.9097 48.3125 31.8949 48.3125 31.8801 48.3125C31.8654 48.3125 31.8506 48.3125 31.8359 48.3125C31.8212 48.3125 31.8065 48.3125 31.7919 48.3125C31.7772 48.3125 31.7626 48.3125 31.7481 48.3125C31.7335 48.3125 31.719 48.3125 31.7045 48.3125C31.69 48.3125 31.6756 48.3125 31.6611 48.3125C31.6467 48.3125 31.6323 48.3125 31.618 48.3125C31.6037 48.3125 31.5894 48.3125 31.5751 48.3125V49.8125C31.5894 49.8125 31.6037 49.8125 31.618 49.8125C31.6323 49.8125 31.6467 49.8125 31.6611 49.8125C31.6756 49.8125 31.69 49.8125 31.7045 49.8125C31.719 49.8125 31.7335 49.8125 31.7481 49.8125C31.7626 49.8125 31.7772 49.8125 31.7919 49.8125C31.8065 49.8125 31.8212 49.8125 31.8359 49.8125C31.8506 49.8125 31.8654 49.8125 31.8801 49.8125C31.8949 49.8125 31.9097 49.8125 31.9246 49.8125C31.9395 49.8125 31.9544 49.8125 31.9693 49.8125C31.9842 49.8125 31.9992 49.8125 32.0142 49.8125C32.0292 49.8125 32.0442 49.8125 32.0593 49.8125C32.0744 49.8125 32.0895 49.8125 32.1046 49.8125C32.1198 49.8125 32.1349 49.8125 32.1501 49.8125C32.1654 49.8125 32.1806 49.8125 32.1959 49.8125C32.2112 49.8125 32.2265 49.8125 32.2418 49.8125C32.2572 49.8125 32.2726 49.8125 32.288 49.8125C32.3034 49.8125 32.3189 49.8125 32.3344 49.8125C32.3499 49.8125 32.3654 49.8125 32.381 49.8125C32.3965 49.8125 32.4121 49.8125 32.4277 49.8125C32.4434 49.8125 32.459 49.8125 32.4747 49.8125C32.4904 49.8125 32.5062 49.8125 32.5219 49.8125C32.5377 49.8125 32.5535 49.8125 32.5693 49.8125C32.5851 49.8125 32.601 49.8125 32.6169 49.8125C32.6328 49.8125 32.6487 49.8125 32.6647 49.8125C32.6807 49.8125 32.6966 49.8125 32.7127 49.8125C32.7287 49.8125 32.7448 49.8125 32.7609 49.8125C32.777 49.8125 32.7931 49.8125 32.8092 49.8125C32.8254 49.8125 32.8416 49.8125 32.8578 49.8125C32.874 49.8125 32.8903 49.8125 32.9066 49.8125C32.9229 49.8125 32.9392 49.8125 32.9555 49.8125C32.9719 49.8125 32.9883 49.8125 33.0047 49.8125C33.0211 49.8125 33.0375 49.8125 33.054 49.8125C33.0705 49.8125 33.087 49.8125 33.1036 49.8125C33.1201 49.8125 33.1367 49.8125 33.1533 49.8125C33.1699 49.8125 33.1865 49.8125 33.2032 49.8125C33.2198 49.8125 33.2365 49.8125 33.2532 49.8125C33.27 49.8125 33.2867 49.8125 33.3035 49.8125C33.3203 49.8125 33.3371 49.8125 33.354 49.8125C33.3708 49.8125 33.3877 49.8125 33.4046 49.8125C33.4215 49.8125 33.4384 49.8125 33.4554 49.8125C33.4724 49.8125 33.4894 49.8125 33.5064 49.8125C33.5234 49.8125 33.5405 49.8125 33.5575 49.8125C33.5746 49.8125 33.5917 49.8125 33.6089 49.8125C33.626 49.8125 33.6432 49.8125 33.6604 49.8125C33.6776 49.8125 33.6948 49.8125 33.7121 49.8125C33.7294 49.8125 33.7466 49.8125 33.764 49.8125C33.7813 49.8125 33.7986 49.8125 33.816 49.8125C33.8334 49.8125 33.8508 49.8125 33.8682 49.8125C33.8856 49.8125 33.9031 49.8125 33.9206 49.8125C33.938 49.8125 33.9556 49.8125 33.9731 49.8125C33.9906 49.8125 34.0082 49.8125 34.0258 49.8125C34.0434 49.8125 34.061 49.8125 34.0787 49.8125C34.0963 49.8125 34.114 49.8125 34.1317 49.8125C34.1494 49.8125 34.1671 49.8125 34.1849 49.8125C34.2027 49.8125 34.2204 49.8125 34.2382 49.8125C34.2561 49.8125 34.2739 49.8125 34.2918 49.8125C34.3096 49.8125 34.3275 49.8125 34.3454 49.8125C34.3634 49.8125 34.3813 49.8125 34.3993 49.8125C34.4172 49.8125 34.4352 49.8125 34.4533 49.8125C34.4713 49.8125 34.4893 49.8125 34.5074 49.8125C34.5255 49.8125 34.5436 49.8125 34.5617 49.8125C34.5798 49.8125 34.598 49.8125 34.6162 49.8125C34.6343 49.8125 34.6525 49.8125 34.6708 49.8125C34.689 49.8125 34.7072 49.8125 34.7255 49.8125C34.7438 49.8125 34.7621 49.8125 34.7804 49.8125C34.7988 49.8125 34.8171 49.8125 34.8355 49.8125C34.8539 49.8125 34.8723 49.8125 34.8907 49.8125C34.9091 49.8125 34.9275 49.8125 34.946 49.8125C34.9645 49.8125 34.983 49.8125 35.0015 49.8125C35.02 49.8125 35.0386 49.8125 35.0571 49.8125C35.0757 49.8125 35.0943 49.8125 35.1129 49.8125C35.1315 49.8125 35.1502 49.8125 35.1688 49.8125C35.1875 49.8125 35.2062 49.8125 35.2249 49.8125C35.2436 49.8125 35.2623 49.8125 35.2811 49.8125C35.2998 49.8125 35.3186 49.8125 35.3374 49.8125C35.3562 49.8125 35.375 49.8125 35.3939 49.8125C35.4127 49.8125 35.4316 49.8125 35.4505 49.8125C35.4694 49.8125 35.4883 49.8125 35.5072 49.8125C35.5261 49.8125 35.5451 49.8125 35.5641 49.8125C35.583 49.8125 35.602 49.8125 35.6211 49.8125C35.6401 49.8125 35.6591 49.8125 35.6782 49.8125C35.6973 49.8125 35.7163 49.8125 35.7354 49.8125C35.7546 49.8125 35.7737 49.8125 35.7928 49.8125C35.812 49.8125 35.8311 49.8125 35.8503 49.8125C35.8695 49.8125 35.8887 49.8125 35.908 49.8125C35.9272 49.8125 35.9465 49.8125 35.9657 49.8125C35.985 49.8125 36.0043 49.8125 36.0236 49.8125C36.0429 49.8125 36.0623 49.8125 36.0816 49.8125C36.101 49.8125 36.1203 49.8125 36.1397 49.8125C36.1591 49.8125 36.1785 49.8125 36.198 49.8125C36.2174 49.8125 36.2369 49.8125 36.2563 49.8125C36.2758 49.8125 36.2953 49.8125 36.3148 49.8125C36.3343 49.8125 36.3538 49.8125 36.3734 49.8125C36.3929 49.8125 36.4125 49.8125 36.4321 49.8125C36.4517 49.8125 36.4713 49.8125 36.4909 49.8125C36.5105 49.8125 36.5302 49.8125 36.5498 49.8125C36.5695 49.8125 36.5892 49.8125 36.6089 49.8125C36.6286 49.8125 36.6483 49.8125 36.668 49.8125C36.6878 49.8125 36.7075 49.8125 36.7273 49.8125C36.7471 49.8125 36.7669 49.8125 36.7867 49.8125C36.8065 49.8125 36.8263 49.8125 36.8461 49.8125C36.866 49.8125 36.8858 49.8125 36.9057 49.8125C36.9256 49.8125 36.9455 49.8125 36.9654 49.8125C36.9853 49.8125 37.0052 49.8125 37.0252 49.8125C37.0451 49.8125 37.0651 49.8125 37.085 49.8125C37.105 49.8125 37.125 49.8125 37.145 49.8125C37.165 49.8125 37.185 49.8125 37.2051 49.8125C37.2251 49.8125 37.2452 49.8125 37.2653 49.8125C37.2853 49.8125 37.3054 49.8125 37.3255 49.8125C37.3456 49.8125 37.3658 49.8125 37.3859 49.8125C37.406 49.8125 37.4262 49.8125 37.4464 49.8125C37.4665 49.8125 37.4867 49.8125 37.5069 49.8125C37.5271 49.8125 37.5473 49.8125 37.5676 49.8125C37.5878 49.8125 37.608 49.8125 37.6283 49.8125C37.6485 49.8125 37.6688 49.8125 37.6891 49.8125C37.7094 49.8125 37.7297 49.8125 37.75 49.8125C37.7703 49.8125 37.7907 49.8125 37.811 49.8125C37.8313 49.8125 37.8517 49.8125 37.8721 49.8125C37.8925 49.8125 37.9128 49.8125 37.9332 49.8125C37.9536 49.8125 37.9741 49.8125 37.9945 49.8125C38.0149 49.8125 38.0354 49.8125 38.0558 49.8125C38.0763 49.8125 38.0967 49.8125 38.1172 49.8125C38.1377 49.8125 38.1582 49.8125 38.1787 49.8125C38.1992 49.8125 38.2197 49.8125 38.2403 49.8125C38.2608 49.8125 38.2814 49.8125 38.3019 49.8125C38.3225 49.8125 38.343 49.8125 38.3636 49.8125C38.3842 49.8125 38.4048 49.8125 38.4254 49.8125C38.446 49.8125 38.4666 49.8125 38.4873 49.8125C38.5079 49.8125 38.5286 49.8125 38.5492 49.8125C38.5699 49.8125 38.5905 49.8125 38.6112 49.8125C38.6319 49.8125 38.6526 49.8125 38.6733 49.8125C38.694 49.8125 38.7147 49.8125 38.7354 49.8125C38.7562 49.8125 38.7769 49.8125 38.7976 49.8125C38.8184 49.8125 38.8391 49.8125 38.8599 49.8125C38.8807 49.8125 38.9015 49.8125 38.9222 49.8125C38.943 49.8125 38.9638 49.8125 38.9846 49.8125C39.0055 49.8125 39.0263 49.8125 39.0471 49.8125C39.0679 49.8125 39.0888 49.8125 39.1096 49.8125C39.1305 49.8125 39.1513 49.8125 39.1722 49.8125C39.1931 49.8125 39.214 49.8125 39.2349 49.8125C39.2557 49.8125 39.2766 49.8125 39.2976 49.8125C39.3185 49.8125 39.3394 49.8125 39.3603 49.8125C39.3812 49.8125 39.4022 49.8125 39.4231 49.8125C39.4441 49.8125 39.465 49.8125 39.486 49.8125C39.5069 49.8125 39.5279 49.8125 39.5489 49.8125C39.5699 49.8125 39.5909 49.8125 39.6119 49.8125C39.6329 49.8125 39.6539 49.8125 39.6749 49.8125C39.6959 49.8125 39.7169 49.8125 39.7379 49.8125C39.759 49.8125 39.78 49.8125 39.8011 49.8125C39.8221 49.8125 39.8432 49.8125 39.8642 49.8125C39.8853 49.8125 39.9063 49.8125 39.9274 49.8125C39.9485 49.8125 39.9696 49.8125 39.9907 49.8125C40.0118 49.8125 40.0328 49.8125 40.0539 49.8125C40.0751 49.8125 40.0962 49.8125 40.1173 49.8125C40.1384 49.8125 40.1595 49.8125 40.1807 49.8125C40.2018 49.8125 40.2229 49.8125 40.2441 49.8125C40.2652 49.8125 40.2864 49.8125 40.3075 49.8125C40.3287 49.8125 40.3498 49.8125 40.371 49.8125C40.3922 49.8125 40.4133 49.8125 40.4345 49.8125C40.4557 49.8125 40.4769 49.8125 40.4981 49.8125C40.5193 49.8125 40.5404 49.8125 40.5616 49.8125C40.5828 49.8125 40.6041 49.8125 40.6253 49.8125C40.6465 49.8125 40.6677 49.8125 40.6889 49.8125C40.7101 49.8125 40.7314 49.8125 40.7526 49.8125C40.7738 49.8125 40.7951 49.8125 40.8163 49.8125C40.8375 49.8125 40.8588 49.8125 40.88 49.8125C40.9013 49.8125 40.9225 49.8125 40.9438 49.8125C40.965 49.8125 40.9863 49.8125 41.0076 49.8125C41.0288 49.8125 41.0501 49.8125 41.0714 49.8125C41.0926 49.8125 41.1139 49.8125 41.1352 49.8125C41.1565 49.8125 41.1778 49.8125 41.199 49.8125C41.2203 49.8125 41.2416 49.8125 41.2629 49.8125C41.2842 49.8125 41.3055 49.8125 41.3268 49.8125C41.3481 49.8125 41.3694 49.8125 41.3907 49.8125C41.412 49.8125 41.4333 49.8125 41.4546 49.8125C41.4759 49.8125 41.4972 49.8125 41.5185 49.8125C41.5399 49.8125 41.5612 49.8125 41.5825 49.8125C41.6038 49.8125 41.6251 49.8125 41.6465 49.8125C41.6678 49.8125 41.6891 49.8125 41.7104 49.8125C41.7317 49.8125 41.7531 49.8125 41.7744 49.8125C41.7957 49.8125 41.8171 49.8125 41.8384 49.8125C41.8597 49.8125 41.8811 49.8125 41.9024 49.8125C41.9237 49.8125 41.945 49.8125 41.9664 49.8125C41.9877 49.8125 42.0091 49.8125 42.0304 49.8125C42.0517 49.8125 42.0731 49.8125 42.0944 49.8125C42.1157 49.8125 42.1371 49.8125 42.1584 49.8125C42.1798 49.8125 42.2011 49.8125 42.2224 49.8125C42.2438 49.8125 42.2651 49.8125 42.2864 49.8125C42.3078 49.8125 42.3291 49.8125 42.3505 49.8125C42.3718 49.8125 42.3931 49.8125 42.4145 49.8125C42.4358 49.8125 42.4571 49.8125 42.4785 49.8125C42.4998 49.8125 42.5211 49.8125 42.5425 49.8125C42.5638 49.8125 42.5851 49.8125 42.6065 49.8125C42.6278 49.8125 42.6491 49.8125 42.6705 49.8125C42.6918 49.8125 42.7131 49.8125 42.7344 49.8125C42.7558 49.8125 42.7771 49.8125 42.7984 49.8125C42.8197 49.8125 42.841 49.8125 42.8624 49.8125C42.8837 49.8125 42.905 49.8125 42.9263 49.8125C42.9476 49.8125 42.9689 49.8125 42.9903 49.8125C43.0116 49.8125 43.0329 49.8125 43.0542 49.8125C43.0755 49.8125 43.0968 49.8125 43.1181 49.8125C43.1394 49.8125 43.1607 49.8125 43.182 49.8125C43.2033 49.8125 43.2245 49.8125 43.2458 49.8125C43.2671 49.8125 43.2884 49.8125 43.3097 49.8125C43.331 49.8125 43.3522 49.8125 43.3735 49.8125C43.3948 49.8125 43.4161 49.8125 43.4373 49.8125C43.4586 49.8125 43.4798 49.8125 43.5011 49.8125C43.5224 49.8125 43.5436 49.8125 43.5649 49.8125C43.5861 49.8125 43.6074 49.8125 43.6286 49.8125C43.6498 49.8125 43.6711 49.8125 43.6923 49.8125C43.7135 49.8125 43.7348 49.8125 43.756 49.8125C43.7772 49.8125 43.7984 49.8125 43.8196 49.8125C43.8409 49.8125 43.8621 49.8125 43.8833 49.8125C43.9045 49.8125 43.9257 49.8125 43.9469 49.8125C43.968 49.8125 43.9892 49.8125 44.0104 49.8125C44.0316 49.8125 44.0528 49.8125 44.0739 49.8125C44.0951 49.8125 44.1163 49.8125 44.1374 49.8125C44.1586 49.8125 44.1797 49.8125 44.2009 49.8125C44.222 49.8125 44.2432 49.8125 44.2643 49.8125C44.2854 49.8125 44.3066 49.8125 44.3277 49.8125C44.3488 49.8125 44.3699 49.8125 44.391 49.8125C44.4121 49.8125 44.4332 49.8125 44.4543 49.8125C44.4754 49.8125 44.4965 49.8125 44.5176 49.8125C44.5386 49.8125 44.5597 49.8125 44.5808 49.8125C44.6018 49.8125 44.6229 49.8125 44.6439 49.8125C44.665 49.8125 44.686 49.8125 44.7071 49.8125C44.7281 49.8125 44.7491 49.8125 44.7701 49.8125C44.7911 49.8125 44.8121 49.8125 44.8331 49.8125C44.8541 49.8125 44.8751 49.8125 44.8961 49.8125C44.9171 49.8125 44.9381 49.8125 44.959 49.8125C44.98 49.8125 45.001 49.8125 45.0219 49.8125C45.0429 49.8125 45.0638 49.8125 45.0847 49.8125C45.1057 49.8125 45.1266 49.8125 45.1475 49.8125C45.1684 49.8125 45.1893 49.8125 45.2102 49.8125C45.2311 49.8125 45.252 49.8125 45.2729 49.8125C45.2937 49.8125 45.3146 49.8125 45.3354 49.8125C45.3563 49.8125 45.3771 49.8125 45.398 49.8125C45.4188 49.8125 45.4396 49.8125 45.4604 49.8125C45.4813 49.8125 45.5021 49.8125 45.5229 49.8125C45.5437 49.8125 45.5644 49.8125 45.5852 49.8125C45.606 49.8125 45.6267 49.8125 45.6475 49.8125C45.6682 49.8125 45.689 49.8125 45.7097 49.8125C45.7304 49.8125 45.7512 49.8125 45.7719 49.8125C45.7926 49.8125 45.8133 49.8125 45.8339 49.8125C45.8546 49.8125 45.8753 49.8125 45.896 49.8125C45.9166 49.8125 45.9373 49.8125 45.9579 49.8125C45.9785 49.8125 45.9992 49.8125 46.0198 49.8125C46.0404 49.8125 46.061 49.8125 46.0816 49.8125C46.1022 49.8125 46.1227 49.8125 46.1433 49.8125C46.1639 49.8125 46.1844 49.8125 46.205 49.8125C46.2255 49.8125 46.246 49.8125 46.2665 49.8125C46.287 49.8125 46.3075 49.8125 46.328 49.8125C46.3485 49.8125 46.369 49.8125 46.3894 49.8125C46.4099 49.8125 46.4303 49.8125 46.4508 49.8125C46.4712 49.8125 46.4916 49.8125 46.512 49.8125C46.5324 49.8125 46.5528 49.8125 46.5732 49.8125C46.5936 49.8125 46.614 49.8125 46.6343 49.8125C46.6547 49.8125 46.675 49.8125 46.6953 49.8125C46.7156 49.8125 46.7359 49.8125 46.7562 49.8125C46.7765 49.8125 46.7968 49.8125 46.8171 49.8125C46.8373 49.8125 46.8576 49.8125 46.8778 49.8125C46.898 49.8125 46.9183 49.8125 46.9385 49.8125C46.9587 49.8125 46.9789 49.8125 46.999 49.8125C47.0192 49.8125 47.0394 49.8125 47.0595 49.8125C47.0796 49.8125 47.0998 49.8125 47.1199 49.8125C47.14 49.8125 47.1601 49.8125 47.1802 49.8125C47.2002 49.8125 47.2203 49.8125 47.2404 49.8125C47.2604 49.8125 47.2804 49.8125 47.3005 49.8125C47.3205 49.8125 47.3405 49.8125 47.3604 49.8125C47.3804 49.8125 47.4004 49.8125 47.4203 49.8125C47.4403 49.8125 47.4602 49.8125 47.4801 49.8125C47.5 49.8125 47.5199 49.8125 47.5398 49.8125C47.5597 49.8125 47.5796 49.8125 47.5994 49.8125C47.6193 49.8125 47.6391 49.8125 47.6589 49.8125C47.6787 49.8125 47.6985 49.8125 47.7183 49.8125C47.7381 49.8125 47.7578 49.8125 47.7776 49.8125C47.7973 49.8125 47.817 49.8125 47.8367 49.8125C47.8564 49.8125 47.8761 49.8125 47.8958 49.8125C47.9154 49.8125 47.9351 49.8125 47.9547 49.8125C47.9744 49.8125 47.994 49.8125 48.0136 49.8125C48.0331 49.8125 48.0527 49.8125 48.0723 49.8125C48.0918 49.8125 48.1114 49.8125 48.1309 49.8125C48.1504 49.8125 48.1699 49.8125 48.1894 49.8125C48.2089 49.8125 48.2283 49.8125 48.2478 49.8125C48.2672 49.8125 48.2866 49.8125 48.306 49.8125C48.3254 49.8125 48.3448 49.8125 48.3642 49.8125C48.3835 49.8125 48.4029 49.8125 48.4222 49.8125C48.4415 49.8125 48.4608 49.8125 48.4801 49.8125C48.4994 49.8125 48.5186 49.8125 48.5379 49.8125C48.5571 49.8125 48.5763 49.8125 48.5955 49.8125C48.6147 49.8125 48.6339 49.8125 48.653 49.8125C48.6722 49.8125 48.6913 49.8125 48.7104 49.8125C48.7295 49.8125 48.7486 49.8125 48.7677 49.8125C48.7868 49.8125 48.8058 49.8125 48.8249 49.8125C48.8439 49.8125 48.8629 49.8125 48.8819 49.8125C48.9009 49.8125 48.9198 49.8125 48.9388 49.8125C48.9577 49.8125 48.9766 49.8125 48.9955 49.8125C49.0144 49.8125 49.0333 49.8125 49.0521 49.8125C49.071 49.8125 49.0898 49.8125 49.1086 49.8125C49.1274 49.8125 49.1462 49.8125 49.165 49.8125C49.1837 49.8125 49.2025 49.8125 49.2212 49.8125C49.2399 49.8125 49.2586 49.8125 49.2773 49.8125C49.2959 49.8125 49.3146 49.8125 49.3332 49.8125C49.3518 49.8125 49.3704 49.8125 49.389 49.8125C49.4076 49.8125 49.4261 49.8125 49.4446 49.8125C49.4632 49.8125 49.4817 49.8125 49.5002 49.8125C49.5186 49.8125 49.5371 49.8125 49.5555 49.8125C49.574 49.8125 49.5924 49.8125 49.6107 49.8125C49.6291 49.8125 49.6475 49.8125 49.6658 49.8125C49.6841 49.8125 49.7025 49.8125 49.7207 49.8125C49.739 49.8125 49.7573 49.8125 49.7755 49.8125C49.7938 49.8125 49.812 49.8125 49.8301 49.8125C49.8483 49.8125 49.8665 49.8125 49.8846 49.8125C49.9028 49.8125 49.9209 49.8125 49.9389 49.8125C49.957 49.8125 49.9751 49.8125 49.9931 49.8125C50.0111 49.8125 50.0292 49.8125 50.0471 49.8125C50.0651 49.8125 50.0831 49.8125 50.101 49.8125C50.1189 49.8125 50.1368 49.8125 50.1547 49.8125C50.1726 49.8125 50.1904 49.8125 50.2082 49.8125C50.226 49.8125 50.2438 49.8125 50.2616 49.8125C50.2794 49.8125 50.2971 49.8125 50.3148 49.8125C50.3325 49.8125 50.3502 49.8125 50.3679 49.8125C50.3855 49.8125 50.4032 49.8125 50.4208 49.8125C50.4384 49.8125 50.456 49.8125 50.4735 49.8125C50.4911 49.8125 50.5086 49.8125 50.5261 49.8125C50.5436 49.8125 50.561 49.8125 50.5785 49.8125C50.5959 49.8125 50.6133 49.8125 50.6307 49.8125C50.6481 49.8125 50.6654 49.8125 50.6828 49.8125C50.7001 49.8125 50.7174 49.8125 50.7346 49.8125C50.7519 49.8125 50.7691 49.8125 50.7864 49.8125C50.8036 49.8125 50.8207 49.8125 50.8379 49.8125C50.855 49.8125 50.8722 49.8125 50.8893 49.8125C50.9064 49.8125 50.9234 49.8125 50.9405 49.8125C50.9575 49.8125 50.9745 49.8125 50.9915 49.8125C51.0084 49.8125 51.0254 49.8125 51.0423 49.8125C51.0592 49.8125 51.0761 49.8125 51.093 49.8125C51.1098 49.8125 51.1266 49.8125 51.1434 49.8125C51.1602 49.8125 51.177 49.8125 51.1937 49.8125C51.2105 49.8125 51.2272 49.8125 51.2438 49.8125C51.2605 49.8125 51.2772 49.8125 51.2938 49.8125C51.3104 49.8125 51.327 49.8125 51.3435 49.8125C51.3601 49.8125 51.3766 49.8125 51.3931 49.8125C51.4096 49.8125 51.426 49.8125 51.4424 49.8125C51.4589 49.8125 51.4753 49.8125 51.4916 49.8125C51.508 49.8125 51.5243 49.8125 51.5406 49.8125C51.5569 49.8125 51.5732 49.8125 51.5894 49.8125C51.6056 49.8125 51.6218 49.8125 51.638 49.8125C51.6542 49.8125 51.6703 49.8125 51.6864 49.8125C51.7025 49.8125 51.7186 49.8125 51.7346 49.8125C51.7507 49.8125 51.7667 49.8125 51.7826 49.8125C51.7986 49.8125 51.8146 49.8125 51.8305 49.8125C51.8464 49.8125 51.8622 49.8125 51.8781 49.8125C51.8939 49.8125 51.9097 49.8125 51.9255 49.8125C51.9413 49.8125 51.957 49.8125 51.9727 49.8125C51.9884 49.8125 52.0041 49.8125 52.0197 49.8125C52.0354 49.8125 52.051 49.8125 52.0666 49.8125C52.0821 49.8125 52.0977 49.8125 52.1132 49.8125C52.1287 49.8125 52.1441 49.8125 52.1596 49.8125C52.175 49.8125 52.1904 49.8125 52.2058 49.8125C52.2211 49.8125 52.2365 49.8125 52.2518 49.8125C52.267 49.8125 52.2823 49.8125 52.2975 49.8125C52.3128 49.8125 52.3279 49.8125 52.3431 49.8125C52.3583 49.8125 52.3734 49.8125 52.3885 49.8125C52.4035 49.8125 52.4186 49.8125 52.4336 49.8125C52.4486 49.8125 52.4636 49.8125 52.4785 49.8125C52.4935 49.8125 52.5084 49.8125 52.5232 49.8125C52.5381 49.8125 52.5529 49.8125 52.5677 49.8125C52.5825 49.8125 52.5973 49.8125 52.612 49.8125C52.6267 49.8125 52.6414 49.8125 52.6561 49.8125C52.6707 49.8125 52.6853 49.8125 52.6999 49.8125C52.7145 49.8125 52.729 49.8125 52.7435 49.8125C52.758 49.8125 52.7725 49.8125 52.7869 49.8125C52.8013 49.8125 52.8157 49.8125 52.8301 49.8125C52.8444 49.8125 52.8587 49.8125 52.873 49.8125C52.8873 49.8125 52.9015 49.8125 52.9157 49.8125C52.9299 49.8125 52.9441 49.8125 52.9582 49.8125C52.9723 49.8125 52.9864 49.8125 53.0005 49.8125C53.0145 49.8125 53.0285 49.8125 53.0425 49.8125C53.0565 49.8125 53.0704 49.8125 53.0843 49.8125C53.0982 49.8125 53.112 49.8125 53.1259 49.8125C53.1397 49.8125 53.1535 49.8125 53.1672 49.8125C53.1809 49.8125 53.1946 49.8125 53.2083 49.8125C53.2219 49.8125 53.2356 49.8125 53.2491 49.8125C53.2627 49.8125 53.2763 49.8125 53.2898 49.8125C53.3033 49.8125 53.3167 49.8125 53.3301 49.8125C53.3436 49.8125 53.3569 49.8125 53.3703 49.8125C53.3836 49.8125 53.3969 49.8125 53.4102 49.8125C53.4234 49.8125 53.4367 49.8125 53.4498 49.8125C53.463 49.8125 53.4762 49.8125 53.4893 49.8125C53.5024 49.8125 53.5154 49.8125 53.5284 49.8125C53.5414 49.8125 53.5544 49.8125 53.5673 49.8125C53.5803 49.8125 53.5932 49.8125 53.606 49.8125C53.6189 49.8125 53.6317 49.8125 53.6445 49.8125C53.6572 49.8125 53.6699 49.8125 53.6826 49.8125C53.6953 49.8125 53.708 49.8125 53.7206 49.8125C53.7332 49.8125 53.7457 49.8125 53.7582 49.8125C53.7707 49.8125 53.7832 49.8125 53.7957 49.8125C53.8081 49.8125 53.8205 49.8125 53.8328 49.8125C53.8452 49.8125 53.8575 49.8125 53.8697 49.8125C53.882 49.8125 53.8942 49.8125 53.9064 49.8125C53.9186 49.8125 53.9307 49.8125 53.9428 49.8125C53.9549 49.8125 53.9669 49.8125 53.9789 49.8125C53.9909 49.8125 54.0029 49.8125 54.0148 49.8125C54.0267 49.8125 54.0386 49.8125 54.0504 49.8125C54.0622 49.8125 54.074 49.8125 54.0858 49.8125C54.0975 49.8125 54.1092 49.8125 54.1208 49.8125C54.1325 49.8125 54.1441 49.8125 54.1557 49.8125C54.1672 49.8125 54.1787 49.8125 54.1902 49.8125C54.2017 49.8125 54.2131 49.8125 54.2245 49.8125C54.2359 49.8125 54.2472 49.8125 54.2585 49.8125C54.2698 49.8125 54.2811 49.8125 54.2923 49.8125C54.3035 49.8125 54.3146 49.8125 54.3257 49.8125C54.3369 49.8125 54.3479 49.8125 54.3589 49.8125C54.37 49.8125 54.3809 49.8125 54.3919 49.8125C54.4028 49.8125 54.4137 49.8125 54.4245 49.8125C54.4354 49.8125 54.4462 49.8125 54.4569 49.8125C54.4676 49.8125 54.4783 49.8125 54.489 49.8125C54.4997 49.8125 54.5103 49.8125 54.5208 49.8125C54.5314 49.8125 54.5419 49.8125 54.5524 49.8125C54.5628 49.8125 54.5732 49.8125 54.5836 49.8125C54.594 49.8125 54.6043 49.8125 54.6146 49.8125C54.6249 49.8125 54.6351 49.8125 54.6453 49.8125C54.6555 49.8125 54.6656 49.8125 54.6757 49.8125C54.6858 49.8125 54.6958 49.8125 54.7058 49.8125C54.7158 49.8125 54.7258 49.8125 54.7357 49.8125C54.7456 49.8125 54.7554 49.8125 54.7652 49.8125C54.775 49.8125 54.7848 49.8125 54.7945 49.8125C54.8042 49.8125 54.8138 49.8125 54.8234 49.8125C54.833 49.8125 54.8426 49.8125 54.8521 49.8125C54.8616 49.8125 54.8711 49.8125 54.8805 49.8125C54.8899 49.8125 54.8993 49.8125 54.9086 49.8125C54.9179 49.8125 54.9271 49.8125 54.9364 49.8125C54.9456 49.8125 54.9547 49.8125 54.9638 49.8125C54.973 49.8125 54.982 49.8125 54.991 49.8125C55.0001 49.8125 55.009 49.8125 55.0179 49.8125C55.0269 49.8125 55.0357 49.8125 55.0445 49.8125C55.0533 49.8125 55.0621 49.8125 55.0708 49.8125C55.0795 49.8125 55.0882 49.8125 55.0968 49.8125C55.1054 49.8125 55.114 49.8125 55.1225 49.8125C55.131 49.8125 55.1395 49.8125 55.1479 49.8125C55.1563 49.8125 55.1646 49.8125 55.173 49.8125C55.1813 49.8125 55.1895 49.8125 55.1977 49.8125C55.2059 49.8125 55.2141 49.8125 55.2222 49.8125C55.2303 49.8125 55.2383 49.8125 55.2463 49.8125C55.2543 49.8125 55.2623 49.8125 55.2702 49.8125C55.278 49.8125 55.2859 49.8125 55.2937 49.8125C55.3015 49.8125 55.3092 49.8125 55.3169 49.8125C55.3246 49.8125 55.3322 49.8125 55.3398 49.8125C55.3474 49.8125 55.3549 49.8125 55.3623 49.8125C55.3698 49.8125 55.3772 49.8125 55.3846 49.8125C55.392 49.8125 55.3993 49.8125 55.4065 49.8125C55.4138 49.8125 55.421 49.8125 55.4282 49.8125C55.4353 49.8125 55.4424 49.8125 55.4495 49.8125C55.4565 49.8125 55.4635 49.8125 55.4704 49.8125C55.4774 49.8125 55.4843 49.8125 55.4911 49.8125C55.4979 49.8125 55.5047 49.8125 55.5114 49.8125C55.5181 49.8125 55.5248 49.8125 55.5314 49.8125C55.538 49.8125 55.5446 49.8125 55.5511 49.8125C55.5576 49.8125 55.564 49.8125 55.5704 49.8125C55.5768 49.8125 55.5832 49.8125 55.5895 49.8125C55.5957 49.8125 55.602 49.8125 55.6081 49.8125C55.6143 49.8125 55.6204 49.8125 55.6265 49.8125C55.6325 49.8125 55.6386 49.8125 55.6445 49.8125C55.6505 49.8125 55.6564 49.8125 55.6622 49.8125C55.668 49.8125 55.6738 49.8125 55.6795 49.8125C55.6853 49.8125 55.6909 49.8125 55.6965 49.8125C55.7022 49.8125 55.7077 49.8125 55.7132 49.8125C55.7187 49.8125 55.7242 49.8125 55.7296 49.8125C55.7349 49.8125 55.7403 49.8125 55.7455 49.8125C55.7508 49.8125 55.756 49.8125 55.7612 49.8125C55.7664 49.8125 55.7715 49.8125 55.7765 49.8125C55.7816 49.8125 55.7865 49.8125 55.7915 49.8125C55.7964 49.8125 55.8013 49.8125 55.8061 49.8125C55.8109 49.8125 55.8157 49.8125 55.8204 49.8125C55.8251 49.8125 55.8297 49.8125 55.8343 49.8125C55.8389 49.8125 55.8434 49.8125 55.8479 49.8125C55.8523 49.8125 55.8567 49.8125 55.8611 49.8125C55.8654 49.8125 55.8697 49.8125 55.874 49.8125C55.8782 49.8125 55.8824 49.8125 55.8865 49.8125C55.8906 49.8125 55.8946 49.8125 55.8986 49.8125C55.9026 49.8125 55.9066 49.8125 55.9104 49.8125C55.9143 49.8125 55.9181 49.8125 55.9219 49.8125C55.9257 49.8125 55.9294 49.8125 55.933 49.8125C55.9366 49.8125 55.9402 49.8125 55.9437 49.8125C55.9473 49.8125 55.9507 49.8125 55.9541 49.8125C55.9575 49.8125 55.9608 49.8125 55.9641 49.8125C55.9674 49.8125 55.9706 49.8125 55.9738 49.8125C55.9769 49.8125 55.98 49.8125 55.9831 49.8125C55.9861 49.8125 55.9891 49.8125 55.992 49.8125C55.9949 49.8125 55.9978 49.8125 56.0006 49.8125C56.0033 49.8125 56.0061 49.8125 56.0087 49.8125C56.0114 49.8125 56.014 49.8125 56.0166 49.8125C56.0191 49.8125 56.0216 49.8125 56.024 49.8125C56.0264 49.8125 56.0288 49.8125 56.0311 49.8125C56.0334 49.8125 56.0356 49.8125 56.0378 49.8125C56.04 49.8125 56.0421 49.8125 56.0441 49.8125C56.0462 49.8125 56.0482 49.8125 56.0501 49.8125C56.052 49.8125 56.0539 49.8125 56.0557 49.8125C56.0575 49.8125 56.0592 49.8125 56.0609 49.8125C56.0626 49.8125 56.0642 49.8125 56.0657 49.8125C56.0673 49.8125 56.0688 49.8125 56.0702 49.8125C56.0716 49.8125 56.073 49.8125 56.0743 49.8125C56.0755 49.8125 56.0768 49.8125 56.0779 49.8125C56.0791 49.8125 56.0802 49.8125 56.0812 49.8125C56.0823 49.8125 56.0833 49.8125 56.0842 49.8125C56.0851 49.8125 56.0859 49.8125 56.0867 49.8125C56.0875 49.8125 56.0882 49.8125 56.0889 49.8125C56.0895 49.8125 56.0901 49.8125 56.0906 49.8125C56.0911 49.8125 56.0916 49.8125 56.092 49.8125C56.0924 49.8125 56.0927 49.8125 56.093 49.8125C56.0932 49.8125 56.0934 49.8125 56.0936 49.8125C56.0937 49.8125 56.0938 49.8125 56.0938 49.0625ZM31.5751 48.3125C28.4812 48.3125 26.329 50.3508 25.0024 52.2226C24.3307 53.1702 23.8423 54.1129 23.522 54.8161C23.3614 55.1688 23.2419 55.4639 23.1618 55.6729C23.1218 55.7774 23.0915 55.8607 23.0709 55.9189C23.0606 55.9481 23.0526 55.971 23.0471 55.9873C23.0443 55.9954 23.0421 56.0019 23.0405 56.0067C23.0397 56.0091 23.0391 56.011 23.0386 56.0125C23.0383 56.0133 23.0381 56.0139 23.0379 56.0145C23.0379 56.0147 23.0377 56.0151 23.0377 56.0152C23.0376 56.0155 23.0375 56.0158 23.75 56.25C24.4625 56.4842 24.4624 56.4845 24.4624 56.4846C24.4623 56.4847 24.4623 56.4848 24.4623 56.4849C24.4622 56.485 24.4622 56.485 24.4623 56.4849C24.4624 56.4846 24.4626 56.484 24.4629 56.4829C24.4637 56.4807 24.4649 56.4769 24.4668 56.4715C24.4705 56.4605 24.4765 56.4431 24.4849 56.4196C24.5015 56.3726 24.5274 56.3014 24.5626 56.2094C24.6331 56.0254 24.7408 55.759 24.8871 55.4378C25.1806 54.7934 25.6243 53.9391 26.2262 53.0899C27.4466 51.368 29.2069 49.8125 31.5751 49.8125V48.3125ZM24.5 56.25V27.5H23V56.25H24.5ZM23.75 28.25H56.0938V26.75H23.75V28.25ZM55.3438 27.5V49.0625H56.8438V27.5H55.3438Z" fill="#0AA5FF"/>
<path d="M46.877 35.8563L48.8443 36.6854L49.6592 38.6868L48.8443 40.6883L46.877 41.5173L44.9096 40.6883L44.0947 38.6868L44.9096 36.6854L46.877 35.8563Z" fill="#0AA5FF"/>
<path d="M39.9214 35.8563L41.8888 36.6854L42.7037 38.6868L41.8888 40.6883L39.9214 41.5173L37.9541 40.6883L37.1392 38.6868L37.9541 36.6854L39.9214 35.8563Z" fill="#0AA5FF"/>
<path d="M32.9659 35.8563L34.9332 36.6854L35.7481 38.6868L34.9332 40.6883L32.9659 41.5173L30.9985 40.6883L30.1836 38.6868L30.9985 36.6854L32.9659 35.8563Z" fill="#0AA5FF"/>
</svg>
