<svg width="80" height="80" viewBox="0 0 80 80" fill="none" xmlns="http://www.w3.org/2000/svg">
  <mask id="a" fill="#fff" class="svg__fill--white">
    <path d="m40 0 28.284 11.716L80 40 68.284 68.284 40 80 11.716 68.284 0 40l11.716-28.284L40 0Z"/>
  </mask>
  <path d="m40 0 28.284 11.716L80 40 68.284 68.284 40 80 11.716 68.284 0 40l11.716-28.284L40 0Z" stroke="#0B6AB7" stroke-width="3" mask="url(#a)" class="svg__stroke--primary-blue-03"/>
  <path d="m40 6 24.042 9.958L74 40M40 74l-24.042-9.958L6 40" stroke="#00E0E0" stroke-width="2" class="svg__stroke--help-green-03"/>
  <path d="m46.581 44.877-.53-.53-1.06 1.06.53.531 1.06-1.06Zm6.487 8.61.53.53 1.061-1.06-.53-.53-1.06 1.06ZM42.831 48.47c6.034-2.564 8.847-9.535 6.282-15.57l-1.38.587c2.24 5.272-.217 11.362-5.489 13.603l.587 1.38Zm6.282-15.57c-2.564-6.034-9.535-8.846-15.57-6.282l.587 1.38c5.272-2.24 11.362.217 13.603 5.49l1.38-.587Zm-15.57-6.282c-6.034 2.565-8.846 9.535-6.282 15.57l1.38-.587c-2.24-5.272.218-11.362 5.49-13.602l-.587-1.38Zm-6.282 15.57c2.565 6.034 9.536 8.847 15.57 6.282l-.587-1.38c-5.272 2.24-11.362-.217-13.602-5.489l-1.38.587Zm18.26 3.75 7.547 7.549 1.061-1.06-7.547-7.55-1.061 1.061Z" fill="#0AA5FF" class="svg__fill--default-cyan-03"/>
</svg>