<svg width="81" height="80" viewBox="0 0 81 80" fill="none" xmlns="http://www.w3.org/2000/svg">
<mask id="path-1-inside-1_2216_32325" fill="white">
<path d="M40.5 0L68.7843 11.7157L80.5 40L68.7843 68.2843L40.5 80L12.2158 68.2843L0.5 40L12.2158 11.7157L40.5 0Z"/>
</mask>
<path d="M40.5 0L68.7843 11.7157L80.5 40L68.7843 68.2843L40.5 80L12.2158 68.2843L0.5 40L12.2158 11.7157L40.5 0Z" stroke="#0B6AB7" stroke-width="3" mask="url(#path-1-inside-1_2216_32325)"/>
<path d="M40.5001 6L64.5418 15.9584L74.5002 40.0001M40.5001 74.0002L16.4584 64.0418L6.5 40.0001" stroke="#00E0E0" stroke-width="2"/>
<path d="M24.875 29.556V50.5641C24.875 50.9157 25.16 51.2007 25.5116 51.2007H55.4884C55.84 51.2007 56.125 50.9157 56.125 50.5641V29.556C56.125 29.2045 55.84 28.9194 55.4884 28.9194H25.5116C25.16 28.9194 24.875 29.2045 24.875 29.556Z" stroke="#0AA5FF" stroke-width="1.5" stroke-linecap="round" stroke-linejoin="round"/>
<path d="M41.3315 43.1294L41.8214 43.6973L41.3315 43.1294ZM39.6682 43.1293L39.1782 43.6971L39.6682 43.1293ZM55.591 29.8395L40.8417 42.5615L41.8214 43.6973L56.5707 30.9754L55.591 29.8395ZM40.1581 42.5614L25.4138 29.8396L24.4339 30.9753L39.1782 43.6971L40.1581 42.5614ZM40.8417 42.5615C40.6453 42.7309 40.3545 42.7309 40.1581 42.5614L39.1782 43.6971C39.9375 44.3522 41.062 44.3523 41.8214 43.6973L40.8417 42.5615Z" fill="#0AA5FF"/>
</svg>
