<svg width="80" height="80" viewBox="0 0 80 80" fill="none" xmlns="http://www.w3.org/2000/svg" class="svg__call-to-action-giving">
<path d="M12.2898 12.2897L40 0.811795L67.7103 12.2897L79.1882 40L67.7103 67.7103L40 79.1882L12.2898 67.7103L0.811795 40L12.2898 12.2897Z" stroke="#0B6AB7" stroke-width="1.5" class="svg__stroke--primary-blue-03"/>
<path d="M40.0001 6L64.0418 15.9584L74.0002 40.0001M40.0001 74.0002L15.9584 64.0418L6 40.0001" stroke="#00E0E0" stroke-width="2" class="svg__stroke--help-green-03"/>
<path d="M34.4035 35.5846H41.1143C41.325 35.5822 41.5353 35.6051 41.7407 35.6529C42.1476 35.7226 42.5143 35.9443 42.7688 36.2746C43.0232 36.6049 43.1472 37.02 43.1164 37.4384C43.1164 39.2353 40.8795 39.1102 40.8795 39.1102L34.4482 39.2353L31.0928 39.7813C29.6013 40.1459 28.0344 40.0185 26.6189 39.4173L24.5609 38.4051C24.5609 38.4051 23.4424 37.6204 17.425 38.3369L17 30.3758L22.334 31C23.9487 31.3479 26.334 31.2497 27.334 31C29.834 30.3758 32.031 29.8903 34.4035 29.4432C35.1037 29.2426 35.8373 29.1926 36.5575 29.2964C37.2777 29.4002 37.4855 29.3559 38.1033 29.7464L35.834 35.5846L41.1143 22C41.1143 22 48.5075 23.5747 49.0555 27.487C49.0555 27.487 52.1761 24.894 58.5737 30.0687L52.6906 42.397L46.9528 39.1216C46.6507 38.9195 46.3049 38.7949 45.9451 38.7585C45.5852 38.722 45.2221 38.7748 44.8867 38.9124C44.5513 39.0499 44.2538 39.268 44.0195 39.5481C43.7852 39.8282 43.6211 40.1618 43.5414 40.5205C43.5414 40.5205 44.2796 37.9729 43.094 37.0062" stroke="#0AA5FF" stroke-width="1.5" stroke-linecap="round" stroke-linejoin="round" class="svg__stroke--default-cyan-03"/>
<path d="M34 39.3184L37.1793 40.8277C37.1793 40.8277 39.7383 41.83 40 39" stroke="#0AA5FF" stroke-width="1.5" stroke-miterlimit="10" class="svg__stroke--default-cyan-03"/>
<path d="M31 40C31 40 33.8186 42.6954 36.2121 40.853" stroke="#0AA5FF" stroke-width="1.5" stroke-miterlimit="10" class="svg__stroke--default-cyan-03"/>
<path d="M49.0556 27.4871L43.5415 40.5319" stroke="#0AA5FF" stroke-width="1.5" stroke-miterlimit="10" class="svg__stroke--default-cyan-03"/>
<path d="M45.8901 54.009H39.1793C36.2824 54.009 36.3383 55.6694 36.3383 55.6694C36.3158 55.9183 36.3458 56.1692 36.4265 56.4053C36.5072 56.6414 36.6367 56.8572 36.8062 57.0382C36.9757 57.2192 37.1814 57.3612 37.4094 57.4546C37.6373 57.5481 37.8823 57.5909 38.1279 57.5801C38.1279 57.5801 43.9328 57.7393 49.8272 57.5801C53.0819 57.4891 53.9767 56.6816 53.9767 56.6816L56.8337 54.5C57.5175 54.0889 58.8337 52.8944 58.8337 52.8944L62.7791 53.7929V45.5702H54.9498C53.3293 45.5445 51.7496 46.0866 50.4759 47.1056C48.2389 49.1868 45.8566 51.3363 45.8566 51.3363C45.6125 51.4981 45.4177 51.7258 45.294 51.994C45.1702 52.2622 45.1226 52.5602 45.1563 52.8544C45.19 53.1486 45.3037 53.4275 45.4847 53.6596C45.6657 53.8917 45.9068 54.0678 46.1809 54.1682C46.1809 54.1682 47.2323 54.68 48.8653 52.8944C50.4982 51.1089 52.2207 49.4825 52.2207 49.4825" stroke="#0AA5FF" stroke-width="1.5" stroke-linecap="round" stroke-linejoin="round" class="svg__stroke--default-cyan-03"/>
</svg>
