<svg width="80" height="80" viewBox="0 0 80 80" fill="none" xmlns="http://www.w3.org/2000/svg">
  <mask id="a" fill="#fff" class="svg__fill--white">
    <path d="m40 0 28.284 11.716L80 40 68.284 68.284 40 80 11.716 68.284 0 40l11.716-28.284L40 0Z"/>
  </mask>
  <path d="m40 0 28.284 11.716L80 40 68.284 68.284 40 80 11.716 68.284 0 40l11.716-28.284L40 0Z" stroke="#0B6AB7" stroke-width="3" mask="url(#a)" class="svg__stroke--primary-blue-03"/>
  <path d="m40 6 24.042 9.958L74 40M40 74l-24.042-9.958L6 40" stroke="#00E0E0" stroke-width="2" class="svg__stroke--help-green-03"/>
  <path d="M56.25 50.859H23.837V29.25H56.25v21.61Z" stroke="#0AA5FF" stroke-width="1.5" stroke-linecap="round" stroke-linejoin="round" class="svg__stroke--default-cyan-03"/>
  <path d="M29.326 29.25s-.093 2.403-1.633 3.943-3.943 1.633-3.943 1.633m5.576 16.033s-.093-2.403-1.633-3.943-3.943-1.634-3.943-1.634M50.674 29.25s.093 2.403 1.633 3.943 3.943 1.634 3.943 1.634m-5.576 16.032s.093-2.403 1.633-3.943 3.943-1.634 3.943-1.634" stroke="#0AA5FF" stroke-width="1.5" class="svg__stroke--default-cyan-03"/>
  <circle cx="40" cy="40.054" r="7.266" stroke="#0AA5FF" stroke-width="1.5" class="svg__stroke--default-cyan-03"/>
  <path d="M39.58 37.107a.42.42 0 0 1 .42.421v.421h.421v-.42a.421.421 0 0 1 .842 0v.42h.446a.421.421 0 0 1 0 .842h-2.996v.842h2.996a.42.42 0 0 1 .42.421v1.684a.421.421 0 0 1-.42.421h-.446v.421a.421.421 0 0 1-.842 0v-.42h-.42v.42a.421.421 0 0 1-.843 0v-.42h-.866a.421.421 0 0 1 0-.843h2.996v-.842h-2.996a.421.421 0 0 1-.421-.42V38.37a.42.42 0 0 1 .42-.42h.867v-.422a.42.42 0 0 1 .421-.42Z" fill="#0AA5FF" class="svg__fill--default-cyan-03"/>
</svg>