<svg viewBox="0 0 81 80" fill="none" xmlns="http://www.w3.org/2000/svg">
  <mask id="a" fill="#fff">
    <path d="m40.5 0 28.284 11.716L80.5 40 68.784 68.284 40.5 80 12.216 68.284.5 40l11.716-28.284L40.5 0Z"/>
  </mask>
  <path d="m40.5 0 28.284 11.716L80.5 40 68.784 68.284 40.5 80 12.216 68.284.5 40l11.716-28.284L40.5 0Z" stroke="#0B6AB7" stroke-width="3" mask="url(#a)"/>
  <path d="m40.5 6 24.042 9.958L74.5 40m-34 34-24.042-9.958L6.5 40" stroke="#00E0E0" stroke-width="2"/>
  <path d="M24.875 29.556v21.008c0 .352.285.637.637.637h29.976a.637.637 0 0 0 .637-.637V29.556a.637.637 0 0 0-.637-.637H25.512a.637.637 0 0 0-.637.637Z" stroke="#0AA5FF" stroke-width="1.5" stroke-linecap="round" stroke-linejoin="round"/>
  <path d="m41.331 43.13.49.567-.49-.568Zm-1.663 0-.49.567.49-.568Zm15.923-13.29-14.75 12.722.98 1.135 14.75-12.722-.98-1.136ZM40.158 42.56 25.414 29.84l-.98 1.135 14.744 12.722.98-1.136Zm.684 0a.523.523 0 0 1-.684 0l-.98 1.136c.76.655 1.884.655 2.643 0l-.98-1.136Z" fill="#0AA5FF"/>
</svg>