<svg viewBox="0 0 80 80" fill="none" xmlns="http://www.w3.org/2000/svg">
  <mask id="a" fill="#fff">
    <path d="m40 0 28.284 11.716L80 40 68.284 68.284 40 80 11.716 68.284 0 40l11.716-28.284L40 0Z"/>
  </mask>
  <path d="m40 0 28.284 11.716L80 40 68.284 68.284 40 80 11.716 68.284 0 40l11.716-28.284L40 0Z" stroke="#0B6AB7" stroke-width="3" mask="url(#a)"/>
  <path d="m40 6 24.042 9.958L74 40M40 74l-24.042-9.958L6 40" stroke="#00E0E0" stroke-width="2"/>
  <path d="M56.094 49.063v.75a.75.75 0 0 0 .75-.75h-.75ZM23.75 56.25H23a.75.75 0 0 0 1.462.234l-.712-.234Zm0-28.75v-.75a.75.75 0 0 0-.75.75h.75Zm32.344 0h.75a.75.75 0 0 0-.75-.75v.75Zm0 21.563v-.75H31.575v1.5h24.518v-.75Zm-24.519-.75c-3.094 0-5.246 2.038-6.573 3.91a16.036 16.036 0 0 0-1.961 3.784l-.002.006-.001.002.712.235.712.235v-.002l.005-.011.018-.052c.017-.047.042-.119.078-.21a14.541 14.541 0 0 1 1.664-3.12c1.22-1.722 2.98-3.278 5.348-3.278v-1.5ZM24.5 56.25V27.5H23v28.75h1.5Zm-.75-28h32.344v-1.5H23.75v1.5Zm31.594-.75v21.563h1.5V27.5h-1.5Zm-8.467 8.356 1.967.83.815 2-.815 2.002-1.967.83-1.967-.83-.815-2.001.815-2.002 1.967-.829Zm-6.956 0 1.968.83.815 2-.815 2.002-1.968.83-1.967-.83-.815-2.001.815-2.002 1.967-.829Zm-6.955 0 1.967.83.815 2-.815 2.002-1.967.83-1.968-.83-.814-2.001.814-2.002 1.968-.829Z" fill="#0AA5FF"/>
</svg>