<svg version="1.1" id="Layer_1" xmlns="http://www.w3.org/2000/svg" xmlns:xlink="http://www.w3.org/1999/xlink" x="0px" y="0px"
	 width="100%" viewBox="0 0 1920 1200" enable-background="new 0 0 1920 1200" xml:space="preserve">
<path fill="#FFFFFF" opacity="1.000000" stroke="none" 
	d="
M1.000000,833.000000 
	C1.000000,555.772705 1.000000,278.545380 1.000000,1.000000 
	C92.025581,1.000000 183.051529,1.000000 274.586670,1.466619 
	C275.102295,277.770264 275.108856,553.607239 275.108307,829.444275 
	C275.108307,830.439941 275.005615,831.435608 274.497498,832.538147 
	C185.012909,832.658142 95.981697,832.669128 6.950486,832.697388 
	C4.966959,832.697998 2.983494,832.894775 1.000000,833.000000 
z"/>
<path fill="#0000FE" opacity="1.000000" stroke="none" 
	d="
M1647.000000,1.000000 
	C1738.298462,1.000000 1829.596802,1.000000 1921.000000,1.000000 
	C1921.000000,278.025818 1921.000000,555.051697 1920.548462,832.402222 
	C1854.642700,832.711548 1789.188354,832.685669 1723.734131,832.686340 
	C1698.086060,832.686584 1672.438110,832.746643 1646.770508,832.326416 
	C1646.740967,556.071411 1646.730347,280.269501 1646.731934,4.467562 
	C1646.731934,3.311707 1646.906860,2.155854 1647.000000,1.000000 
z"/>
<path fill="#FFFF01" opacity="1.000000" stroke="none" 
	d="
M274.950867,832.431274 
	C275.005615,831.435608 275.108307,830.439941 275.108307,829.444275 
	C275.108856,553.607239 275.102295,277.770264 275.047943,1.466619 
	C366.020905,1.000000 457.041779,1.000000 548.722900,1.434862 
	C549.407715,4.035205 549.453918,6.200686 549.453979,8.366168 
	C549.457336,159.169815 549.457886,309.973480 549.454224,460.777130 
	C549.454041,467.107727 549.412048,473.438354 548.900208,479.857147 
	C514.664917,479.945343 480.918945,479.945343 447.287659,479.945343 
	C447.287659,551.604187 447.287659,622.511902 447.287659,693.780457 
	C457.580139,693.780457 467.550201,693.757568 477.520111,693.784973 
	C501.510712,693.851013 525.501282,693.940674 549.483582,694.487732 
	C549.468323,738.090759 549.467163,781.226868 549.440918,824.362915 
	C549.439209,827.180359 549.245056,829.997742 548.663574,832.759155 
	C458.390839,832.695801 368.595062,832.687378 278.799255,832.692261 
	C277.643646,832.692322 276.488068,832.861877 275.237793,832.821533 
	C275.143158,832.690674 274.950867,832.431274 274.950867,832.431274 
z"/>
<path fill="#FD0001" opacity="1.000000" stroke="none" 
	d="
M1646.532227,1.000000 
	C1646.906860,2.155854 1646.731934,3.311707 1646.731934,4.467562 
	C1646.730347,280.269501 1646.740967,556.071411 1646.785889,832.338013 
	C1646.820557,832.802612 1646.798706,832.783997 1646.343506,832.735474 
	C1556.149048,832.704041 1466.409546,832.722534 1376.670166,832.725464 
	C1375.178345,832.725525 1373.686646,832.535522 1372.189209,832.001465 
	C1372.169312,785.724365 1372.154907,739.879944 1372.592773,693.944458 
	C1409.612549,693.853394 1446.180054,693.853394 1482.726318,693.853394 
	C1482.726318,622.171692 1482.726318,551.286072 1482.726318,479.953766 
	C1479.819824,479.953766 1477.194458,479.957977 1474.569092,479.953094 
	C1440.431152,479.889557 1406.293335,479.824738 1372.147461,479.306885 
	C1372.150635,320.398376 1372.161865,161.943176 1372.165527,3.487977 
	C1372.165527,2.658652 1372.057617,1.829325 1372.000000,0.999999 
	C1463.354736,1.000000 1554.709595,1.000000 1646.532227,1.000000 
z"/>
<path fill="#02FFFE" opacity="1.000000" stroke="none" 
	d="
M549.389526,479.768921 
	C549.412048,473.438354 549.454041,467.107727 549.454224,460.777130 
	C549.457886,309.973480 549.457336,159.169815 549.453979,8.366168 
	C549.453918,6.200686 549.407715,4.035205 549.191528,1.434862 
	C640.354248,1.000000 731.708435,1.000000 823.453369,1.463288 
	C823.832153,4.092257 823.810242,6.257936 823.809937,8.423619 
	C823.788025,165.532562 823.767883,322.641479 823.303833,479.829041 
	C732.365173,479.924683 641.870361,479.942139 551.375488,479.950867 
	C550.713501,479.950928 550.051514,479.832214 549.389526,479.768921 
z"/>
<path fill="#00FF01" opacity="1.000000" stroke="none" 
	d="
M823.747559,479.750427 
	C823.767883,322.641479 823.788025,165.532562 823.809937,8.423619 
	C823.810242,6.257936 823.832153,4.092257 823.921997,1.463288 
	C915.020935,1.000000 1006.041809,1.000000 1097.544678,1.468492 
	C1098.024658,161.207184 1098.022583,320.477386 1097.556396,479.823242 
	C1006.638489,479.918152 916.184692,479.937897 825.730896,479.948212 
	C825.069763,479.948303 824.408691,479.819214 823.747559,479.750427 
z"/>
<path fill="#FF00FE" opacity="1.000000" stroke="none" 
	d="
M1098.020508,479.747620 
	C1098.022583,320.477386 1098.024658,161.207184 1098.013428,1.468492 
	C1189.020874,1.000000 1280.041870,1.000000 1371.531372,0.999999 
	C1372.057617,1.829325 1372.165527,2.658652 1372.165527,3.487977 
	C1372.161865,161.943176 1372.150635,320.398376 1371.671753,479.396240 
	C1281.303223,479.943176 1191.402466,479.948181 1101.501709,479.943237 
	C1100.341309,479.943176 1099.180908,479.815643 1098.020508,479.747620 
z"/>
<path fill="#B8B8B8" opacity="1.000000" stroke="none" 
	d="
M1647.000000,1201.000000 
	C1555.645752,1201.000000 1464.291504,1201.000000 1372.485107,1200.531494 
	C1372.036743,1112.699219 1372.039429,1025.335449 1372.049927,937.971558 
	C1372.050171,935.976746 1372.139771,933.981873 1372.640381,931.980835 
	C1464.422119,931.985535 1555.750977,931.996460 1647.041748,932.002380 
	C1647.003418,931.997437 1647.004395,931.920166 1646.938110,932.390259 
	C1646.849121,1021.579102 1646.826050,1110.297852 1646.812012,1199.016724 
	C1646.811890,1199.677856 1646.934570,1200.338867 1647.000000,1201.000000 
z"/>
<path fill="#9595AF" opacity="1.000000" stroke="none" 
	d="
M824.000000,1201.000000 
	C732.645752,1201.000000 641.291565,1201.000000 549.488037,1200.531616 
	C549.034729,1110.739380 549.030762,1021.415527 549.069336,931.962280 
	C549.111877,931.832825 549.384399,931.842590 549.822388,931.895325 
	C551.926270,931.980347 553.592285,932.040894 555.258240,932.040955 
	C642.588989,932.042786 729.919800,932.040894 817.250549,932.028809 
	C819.413757,932.028503 821.576965,931.909851 823.811646,932.319580 
	C823.914856,935.289062 823.974121,937.785339 823.974426,940.281677 
	C823.986389,1027.187744 823.992798,1114.093872 824.000000,1201.000000 
z"/>
<path fill="#525252" opacity="1.000000" stroke="none" 
	d="
M1647.468628,1201.000000 
	C1646.934570,1200.338867 1646.811890,1199.677856 1646.812012,1199.016724 
	C1646.826050,1110.297852 1646.849121,1021.579102 1647.405029,932.442261 
	C1738.958740,932.016174 1829.979370,932.008057 1921.000000,932.000000 
	C1921.000000,1021.594421 1921.000000,1111.188843 1921.000000,1201.000000 
	C1829.979248,1201.000000 1738.958252,1201.000000 1647.468628,1201.000000 
z"/>
<path fill="#EAEAEA" opacity="1.000000" stroke="none" 
	d="
M1372.187744,931.987061 
	C1372.139771,933.981873 1372.050171,935.976746 1372.049927,937.971558 
	C1372.039429,1025.335449 1372.036743,1112.699219 1372.016602,1200.531494 
	C1280.979126,1201.000000 1189.958130,1201.000000 1098.470337,1200.531372 
	C1098.003906,1113.158691 1098.001953,1026.254761 1098.017578,939.350708 
	C1098.018066,936.861877 1098.207153,934.373047 1098.746338,931.933716 
	C1189.155029,931.998657 1279.125488,932.014587 1369.095947,932.021729 
	C1370.092651,932.021790 1371.089233,931.906128 1372.122803,931.872009 
	C1372.159668,931.899536 1372.187744,931.987061 1372.187744,931.987061 
z"/>
<path fill="#B8B8B8" opacity="1.000000" stroke="none" 
	d="
M1098.308228,931.884216 
	C1098.207153,934.373047 1098.018066,936.861877 1098.017578,939.350708 
	C1098.001953,1026.254761 1098.003906,1113.158691 1098.001709,1200.531372 
	C1006.979126,1201.000000 915.958191,1201.000000 824.468628,1201.000000 
	C823.992798,1114.093872 823.986389,1027.187744 823.974426,940.281677 
	C823.974121,937.785339 823.914856,935.289062 823.865723,932.327759 
	C823.848389,931.862732 823.880310,931.967651 824.358215,931.994629 
	C914.253723,932.023987 1003.671387,932.027832 1093.088989,932.017700 
	C1094.746948,932.017517 1096.404907,931.850708 1098.138428,931.763794 
	C1098.214111,931.765869 1098.308228,931.884216 1098.308228,931.884216 
z"/>
<path fill="#000000" opacity="1.000000" stroke="none" 
	d="
M275.000000,1201.000000 
	C183.740280,1201.000000 92.480545,1201.000000 1.000000,1201.000000 
	C1.000000,1111.645874 1.000000,1022.291626 1.468616,932.475464 
	C92.979134,932.009216 184.021027,932.004822 275.095520,932.468140 
	C275.125305,1012.474915 275.126648,1092.014038 275.114532,1171.553101 
	C275.113037,1181.368774 275.039917,1191.184326 275.000000,1201.000000 
z"/>
<path fill="#C1C1C1" opacity="1.000000" stroke="none" 
	d="
M275.468658,1201.000000 
	C275.039917,1191.184326 275.113037,1181.368774 275.114532,1171.553101 
	C275.126648,1092.014038 275.125305,1012.474915 275.061920,932.468140 
	C274.995758,932.000549 274.994110,932.067688 275.334198,932.081055 
	C276.125061,932.118896 276.575836,932.143250 277.111267,932.314331 
	C277.456329,932.365906 277.716736,932.270691 278.443909,932.116394 
	C366.782104,932.050415 454.653564,932.043152 542.525024,932.042358 
	C543.354492,932.042297 544.183960,932.128662 545.102295,932.322998 
	C545.458496,932.368713 545.725830,932.266052 546.368286,932.099731 
	C547.504578,932.054626 548.265686,932.073181 549.026794,932.091675 
	C549.030762,1021.415527 549.034729,1110.739380 549.019409,1200.531616 
	C457.979095,1201.000000 366.958221,1201.000000 275.468658,1201.000000 
z"/>
<path fill="#0000FE" opacity="1.000000" stroke="none" 
	d="
M275.029358,932.000488 
	C184.021027,932.004822 92.979134,932.009216 1.468616,932.006836 
	C1.000000,899.312439 1.000000,866.624878 1.000000,833.468628 
	C2.983494,832.894775 4.966959,832.697998 6.950486,832.697388 
	C95.981697,832.669128 185.012909,832.658142 274.497498,832.538147 
	C274.950867,832.431274 275.143158,832.690674 275.150146,833.285034 
	C275.102814,866.608826 275.048462,899.338257 274.994141,932.067688 
	C274.994110,932.067688 274.995758,932.000549 275.029358,932.000488 
z"/>
<path fill="#FFFFFF" opacity="1.000000" stroke="none" 
	d="
M1921.000000,931.531372 
	C1829.979370,932.008057 1738.958740,932.016174 1647.471191,931.972168 
	C1647.004395,931.920166 1647.003418,931.997437 1646.899658,931.551514 
	C1646.796753,898.331665 1646.797729,865.557861 1646.798706,832.783997 
	C1646.798706,832.783997 1646.820557,832.802612 1646.805298,832.791016 
	C1672.438110,832.746643 1698.086060,832.686584 1723.734131,832.686340 
	C1789.188354,832.685669 1854.642700,832.711548 1920.548462,832.863403 
	C1921.000000,865.687561 1921.000000,898.375122 1921.000000,931.531372 
z"/>
<path fill="#010101" opacity="1.000000" stroke="none" 
	d="
M1097.556396,479.823242 
	C1099.180908,479.815643 1100.341309,479.943176 1101.501709,479.943237 
	C1191.402466,479.948181 1281.303223,479.943176 1371.679688,479.849579 
	C1406.293335,479.824738 1440.431152,479.889557 1474.569092,479.953094 
	C1477.194458,479.957977 1479.819824,479.953766 1482.726318,479.953766 
	C1482.726318,551.286072 1482.726318,622.171692 1482.726318,693.853394 
	C1446.180054,693.853394 1409.612549,693.853394 1372.121216,693.846436 
	C1280.962280,693.820129 1190.727295,693.800110 1100.492188,693.791443 
	C1099.665649,693.791382 1098.839111,693.942810 1097.547974,693.948425 
	C1006.630981,693.855286 916.178528,693.836731 825.726135,693.827698 
	C825.065125,693.827637 824.404175,693.958191 823.298340,693.936646 
	C822.021240,693.821533 821.189026,693.776611 820.356750,693.776611 
	C731.561584,693.775757 642.766418,693.777161 553.971252,693.790649 
	C552.478088,693.790833 550.984985,693.940674 549.491821,694.020752 
	C525.501282,693.940674 501.510712,693.851013 477.520111,693.784973 
	C467.550201,693.757568 457.580139,693.780457 447.287659,693.780457 
	C447.287659,622.511902 447.287659,551.604187 447.287659,479.945343 
	C480.918945,479.945343 514.664917,479.945343 548.900208,479.857117 
	C550.051514,479.832214 550.713501,479.950928 551.375488,479.950867 
	C641.870361,479.942139 732.365173,479.924683 823.303833,479.829041 
	C824.408691,479.819214 825.069763,479.948303 825.730896,479.948212 
	C916.184692,479.937897 1006.638489,479.918152 1097.556396,479.823242 
M1122.901489,545.266235 
	C1122.275757,546.698425 1121.122681,548.124817 1121.106567,549.563782 
	C1120.963379,562.393372 1121.020020,575.225159 1121.019287,588.056335 
	C1121.018433,601.361572 1121.019043,614.666809 1121.019043,628.143921 
	C1129.109985,628.143921 1136.861694,628.143921 1144.932861,628.143921 
	C1144.932861,612.395142 1144.932861,596.947449 1144.932861,581.273071 
	C1148.830078,581.273071 1152.405518,581.273071 1156.501831,581.273071 
	C1156.501831,585.228516 1156.501831,588.975342 1156.501831,593.104187 
	C1160.618164,593.104187 1164.217529,593.104187 1168.340332,593.104187 
	C1168.340332,597.209167 1168.340332,600.926514 1168.340332,604.976990 
	C1172.478638,604.976990 1176.076294,604.976990 1180.054932,604.976990 
	C1180.054932,612.911560 1180.054932,620.497314 1180.054932,628.050415 
	C1188.177368,628.050415 1195.895020,628.050415 1203.385010,628.050415 
	C1203.385010,600.261841 1203.385010,572.866455 1203.385010,545.580566 
	C1195.382202,545.580566 1187.787598,545.580566 1179.781006,545.580566 
	C1179.781006,557.494385 1179.781006,569.083435 1179.781006,580.590454 
	C1175.775635,580.590454 1172.201660,580.590454 1168.269165,580.590454 
	C1168.269165,576.692383 1168.269165,573.087952 1168.269165,568.905640 
	C1164.203247,568.905640 1160.497803,568.905640 1156.476318,568.905640 
	C1156.476318,564.697876 1156.476318,561.080322 1156.476318,556.961060 
	C1152.413330,556.961060 1148.683228,556.961060 1144.602539,556.961060 
	C1144.602539,552.847107 1144.602539,549.252075 1144.602539,545.263184 
	C1137.436279,545.263184 1130.637573,545.263184 1122.901489,545.266235 
M568.603271,592.940918 
	C570.886230,592.940918 573.169128,592.940918 575.986938,592.940918 
	C575.986938,597.117004 575.986938,600.849731 575.986938,604.935242 
	C580.114502,604.935242 583.704163,604.935242 587.759277,604.935242 
	C587.759277,612.899109 587.759277,620.480164 587.759277,628.152588 
	C595.792725,628.152588 603.347290,628.152588 611.014343,628.152588 
	C611.014343,600.482483 611.014343,573.090759 611.014343,545.562622 
	C603.175537,545.562622 595.606567,545.562622 587.577881,545.562622 
	C587.577881,557.435364 587.577881,569.028931 587.577881,580.653503 
	C583.522400,580.653503 579.933350,580.653503 575.825562,580.653503 
	C575.825562,576.690430 575.825562,572.963135 575.825562,568.862854 
	C571.713013,568.862854 568.122070,568.862854 564.010010,568.862854 
	C564.010010,564.755127 564.010010,561.028809 564.010010,556.963135 
	C559.877075,556.963135 556.281067,556.963135 552.325317,556.963135 
	C552.325317,552.983093 552.325317,549.376221 552.325317,545.524170 
	C544.371887,545.524170 536.797363,545.524170 529.113281,545.524170 
	C529.113281,573.263184 529.113281,600.777405 529.113281,628.219788 
	C536.945251,628.219788 544.390625,628.219788 552.371338,628.219788 
	C552.371338,612.455383 552.371338,596.895264 552.371338,581.285767 
	C556.503052,581.285767 560.089172,581.285767 564.056152,581.285767 
	C564.056152,584.155090 564.245544,586.803650 564.005737,589.412781 
	C563.736450,592.342041 564.892761,593.377747 568.603271,592.940918 
M648.573792,628.441162 
	C665.005676,628.441162 681.437561,628.441162 698.245728,628.441162 
	C698.245728,624.278809 698.245728,620.670044 698.245728,616.557556 
	C702.359436,616.557556 706.103577,616.557556 709.709229,616.557556 
	C709.709229,596.473206 709.709229,576.910522 709.709229,557.010498 
	C705.761841,557.010498 702.158997,557.010498 698.023071,557.010498 
	C698.023071,552.963684 698.023071,549.235962 698.023071,545.654053 
	C678.107239,545.654053 658.735779,545.654053 638.996277,545.654053 
	C638.996277,549.640747 638.996277,553.236633 638.996277,557.160889 
	C635.027832,557.160889 631.428711,557.160889 627.723938,557.160889 
	C627.723938,577.181702 627.723938,596.855713 627.723938,616.915771 
	C631.736206,616.915771 635.325439,616.915771 639.297241,616.915771 
	C639.297241,620.882446 639.297241,624.468689 639.297241,628.439026 
	C642.328369,628.439026 644.965149,628.439026 648.573792,628.441162 
M1219.902954,626.134766 
	C1220.343994,626.884949 1220.773193,628.280640 1221.227783,628.289001 
	C1228.646118,628.424866 1236.067749,628.385315 1243.919922,628.385315 
	C1243.919922,620.129272 1243.919922,612.559448 1243.919922,605.213135 
	C1255.753174,605.213135 1267.128540,605.213135 1278.797363,605.213135 
	C1278.797363,613.056152 1278.797363,620.510620 1278.797363,628.062805 
	C1286.802002,628.062805 1294.494019,628.062805 1302.130493,628.062805 
	C1302.130493,608.234314 1302.130493,588.786743 1302.130493,568.949341 
	C1298.335693,568.949341 1294.738281,568.949341 1290.645020,568.949341 
	C1290.645020,564.838135 1290.645020,561.107117 1290.645020,556.890869 
	C1286.411011,556.890869 1282.681641,556.890869 1278.616455,556.890869 
	C1278.616455,552.786072 1278.616455,549.190796 1278.616455,545.467163 
	C1266.840698,545.467163 1255.422974,545.467163 1243.448975,545.467163 
	C1243.448975,549.372131 1243.448975,553.094604 1243.448975,557.114136 
	C1239.291260,557.114136 1235.683960,557.114136 1231.631836,557.114136 
	C1231.631836,561.183655 1231.631836,564.942993 1231.631836,569.223328 
	C1227.461182,569.223328 1223.735229,569.223328 1219.907104,569.223328 
	C1219.907104,588.239380 1219.907104,606.717346 1219.902954,626.134766 
M859.495544,557.298157 
	C867.454163,557.298157 875.412781,557.298157 883.925293,557.298157 
	C883.925293,561.521118 883.925293,565.245300 883.925293,568.790894 
	C892.055115,568.790894 899.615906,568.790894 907.069458,568.790894 
	C907.069458,564.713440 907.069458,560.992554 907.069458,556.865601 
	C903.097839,556.865601 899.507080,556.865601 895.576294,556.865601 
	C895.576294,552.847290 895.576294,549.244751 895.576294,545.537231 
	C875.830688,545.537231 856.444336,545.537231 836.731323,545.537231 
	C836.731323,549.430725 836.731323,553.058105 836.731323,557.213135 
	C832.668152,557.213135 828.923035,557.213135 825.332642,557.213135 
	C825.332642,565.480652 825.332642,573.209229 825.332642,581.294800 
	C829.299255,581.294800 832.888062,581.294800 836.772705,581.294800 
	C836.772705,585.302185 836.772705,588.939026 836.772705,592.989685 
	C852.499390,592.989685 867.916321,592.989685 883.489014,592.989685 
	C883.489014,600.968811 883.489014,608.526428 883.489014,616.059021 
	C871.777161,616.059021 860.380859,616.059021 848.586914,616.059021 
	C848.586914,612.145935 848.586914,608.566162 848.586914,604.841187 
	C840.559998,604.841187 832.938232,604.841187 825.202759,604.841187 
	C825.202759,608.773071 825.202759,612.518982 825.202759,616.884277 
	C829.144470,616.884277 832.851624,616.884277 836.959839,616.884277 
	C836.959839,621.103943 836.959839,624.699829 836.959839,628.077148 
	C856.804688,628.077148 876.218262,628.077148 896.024292,628.077148 
	C896.024292,624.106873 896.024292,620.507996 896.024292,616.474487 
	C899.989075,616.474487 903.557617,616.474487 907.235474,616.474487 
	C907.235474,608.408630 907.235474,600.795044 907.235474,592.742188 
	C903.426575,592.742188 899.828918,592.742188 895.699341,592.742188 
	C895.699341,588.575623 895.699341,584.840271 895.699341,580.651245 
	C879.752563,580.651245 864.344482,580.651245 849.125488,580.651245 
	C849.125488,572.602966 849.125488,565.033081 849.125488,557.297791 
	C852.503357,557.297791 855.498535,557.297791 859.495544,557.298157 
M1045.900513,625.239929 
	C1045.415161,628.044617 1046.882324,628.521484 1049.323975,628.490906 
	C1058.151123,628.380066 1066.980347,628.445435 1075.808838,628.445068 
	C1085.440552,628.444641 1095.072266,628.445007 1104.760742,628.445007 
	C1104.760742,612.403992 1104.760742,596.823669 1104.760742,581.151611 
	C1092.945557,581.151611 1081.382202,581.151611 1069.701660,581.151611 
	C1069.701660,585.168945 1069.701660,588.918213 1069.701660,593.028259 
	C1073.591187,593.028259 1077.195923,593.028259 1080.937256,593.028259 
	C1080.937256,600.954956 1080.937256,608.516113 1080.937256,616.204956 
	C1073.237183,616.204956 1065.817505,616.204956 1057.860840,616.204956 
	C1057.860840,612.326660 1057.860840,608.615234 1057.860840,604.608154 
	C1053.699341,604.608154 1050.071777,604.608154 1046.297363,604.608154 
	C1046.297363,592.699646 1046.297363,581.123596 1046.297363,569.021545 
	C1050.260986,569.021545 1053.995850,569.021545 1058.033936,569.021545 
	C1058.033936,564.886047 1058.033936,561.273438 1058.033936,557.301514 
	C1073.811890,557.301514 1089.252808,557.301514 1104.757812,557.301514 
	C1104.757812,553.180603 1104.757812,549.428162 1104.757812,545.522339 
	C1085.101074,545.522339 1065.698608,545.522339 1045.766846,545.522339 
	C1045.766846,549.497681 1045.766846,553.228455 1045.766846,557.316467 
	C1041.636597,557.316467 1038.036011,557.316467 1033.958984,557.316467 
	C1033.958984,561.414978 1033.958984,565.150574 1033.958984,569.200195 
	C1029.872681,569.200195 1026.272339,569.200195 1022.669312,569.200195 
	C1022.669312,581.247803 1022.669312,592.942932 1022.669312,605.007812 
	C1026.671997,605.007812 1030.267090,605.007812 1034.193604,605.007812 
	C1034.193604,608.980408 1034.193604,612.578430 1034.193604,616.778870 
	C1038.238525,616.778870 1041.958740,616.778870 1045.898315,616.778870 
	C1045.898315,619.692383 1045.898315,622.002808 1045.900513,625.239929 
M952.474976,616.390076 
	C946.864075,616.390076 941.253174,616.390076 935.610596,616.390076 
	C935.610596,620.705688 935.610596,624.415649 935.610596,628.235718 
	C959.233704,628.235718 982.500732,628.235718 1005.848877,628.235718 
	C1005.848877,624.270081 1005.848877,620.527405 1005.848877,616.254089 
	C998.026978,616.254089 990.475281,616.254089 983.008667,616.254089 
	C983.008667,596.296753 983.008667,576.877686 983.008667,557.210327 
	C990.796570,557.210327 998.271973,557.210327 1005.882324,557.210327 
	C1005.882324,553.205078 1005.882324,549.455505 1005.882324,545.617859 
	C982.260803,545.617859 958.892395,545.617859 935.447571,545.617859 
	C935.447571,549.590454 935.447571,553.204163 935.447571,557.386292 
	C943.336975,557.386292 951.054260,557.386292 958.732422,557.386292 
	C958.732422,577.369446 958.732422,596.780762 958.732422,616.390869 
	C956.779663,616.390869 955.122742,616.390869 952.474976,616.390076 
M1392.421875,616.396851 
	C1379.690674,616.396851 1366.959473,616.396851 1353.791992,616.396851 
	C1353.791992,592.333435 1353.791992,568.946472 1353.791992,545.557556 
	C1345.764404,545.557556 1338.188599,545.557556 1330.464111,545.557556 
	C1330.464111,573.238892 1330.464111,600.624023 1330.464111,628.127686 
	C1354.105591,628.127686 1377.484741,628.127686 1400.936279,628.127686 
	C1400.936279,624.175903 1400.936279,620.548401 1400.936279,616.396973 
	C1398.318237,616.396973 1395.855713,616.396973 1392.421875,616.396851 
z"/>
<path fill="#02FFFD" opacity="1.000000" stroke="none" 
	d="
M549.483582,694.487732 
	C550.984985,693.940674 552.478088,693.790833 553.971252,693.790649 
	C642.766418,693.777161 731.561584,693.775757 820.356750,693.776611 
	C821.189026,693.776611 822.021240,693.821533 823.302917,694.404663 
	C823.756714,740.885559 823.761169,786.807373 823.803101,832.713318 
	C823.840576,832.697510 823.912476,832.735596 823.450073,832.709595 
	C791.826904,832.684387 760.666260,832.676453 729.505554,832.687744 
	C669.353516,832.709534 609.201538,832.742126 549.057861,832.810547 
	C549.066284,832.850830 549.140442,832.815125 549.140503,832.815125 
	C549.245056,829.997742 549.439209,827.180359 549.440918,824.362915 
	C549.467163,781.226868 549.468323,738.090759 549.483582,694.487732 
z"/>
<path fill="#000000" opacity="1.000000" stroke="none" 
	d="
M275.334229,932.081055 
	C275.048462,899.338257 275.102814,866.608826 275.244812,833.415894 
	C276.488068,832.861877 277.643646,832.692322 278.799255,832.692261 
	C368.595062,832.687378 458.390839,832.695801 548.663574,832.759155 
	C549.140442,832.815125 549.066284,832.850830 549.232788,833.269043 
	C549.394287,866.405701 549.389343,899.124146 549.384399,931.842590 
	C549.384399,931.842590 549.111877,931.832825 549.069336,931.962280 
	C548.265686,932.073181 547.504578,932.054626 546.122620,932.020264 
	C545.339050,932.061157 545.176270,932.117920 545.013428,932.174683 
	C544.183960,932.128662 543.354492,932.042297 542.525024,932.042358 
	C454.653564,932.043152 366.782104,932.050415 278.207214,932.033997 
	C277.344727,932.062988 277.185669,932.115356 277.026611,932.167603 
	C276.575836,932.143250 276.125061,932.118896 275.334229,932.081055 
z"/>
<path fill="#FE01FE" opacity="1.000000" stroke="none" 
	d="
M1098.012573,694.023499 
	C1098.839111,693.942810 1099.665649,693.791382 1100.492188,693.791443 
	C1190.727295,693.800110 1280.962280,693.820129 1371.668945,693.937500 
	C1372.154907,739.879944 1372.169312,785.724365 1372.072144,832.072693 
	C1371.960571,832.576660 1371.895020,832.842102 1371.437866,832.786804 
	C1282.281738,832.712097 1193.582642,832.690857 1104.883667,832.682861 
	C1102.560303,832.682678 1100.236938,832.826782 1097.934814,832.925598 
	C1097.956055,832.947571 1097.994019,832.995361 1097.979736,832.527100 
	C1097.981079,786.047119 1097.996826,740.035278 1098.012573,694.023499 
z"/>
<path fill="#525252" opacity="1.000000" stroke="none" 
	d="
M1646.343506,832.735474 
	C1646.797729,865.557861 1646.796753,898.331665 1646.937866,931.556396 
	C1555.750977,931.996460 1464.422119,931.985535 1372.640381,931.980835 
	C1372.187744,931.987061 1372.159668,931.899536 1372.149658,931.415344 
	C1372.148560,913.665710 1372.195801,896.400146 1372.155151,879.134766 
	C1372.118774,863.703735 1371.985474,848.273010 1371.895020,832.842102 
	C1371.895020,832.842102 1371.960571,832.576660 1372.077637,832.505432 
	C1373.686646,832.535522 1375.178345,832.725525 1376.670166,832.725464 
	C1466.409546,832.722534 1556.149048,832.704041 1646.343506,832.735474 
z"/>
<path fill="#FFFF01" opacity="1.000000" stroke="none" 
	d="
M549.822388,931.895325 
	C549.389343,899.124146 549.394287,866.405701 549.224365,833.228760 
	C609.201538,832.742126 669.353516,832.709534 729.505554,832.687744 
	C760.666260,832.676453 791.826904,832.684387 823.385925,833.195679 
	C823.816284,866.461121 823.848328,899.214355 823.880310,931.967651 
	C823.880310,931.967651 823.848389,931.862732 823.794312,931.854553 
	C821.576965,931.909851 819.413757,932.028503 817.250549,932.028809 
	C729.919800,932.040894 642.588989,932.042786 555.258240,932.040955 
	C553.592285,932.040894 551.926270,931.980347 549.822388,931.895325 
M797.499146,839.000000 
	C718.864685,839.000000 640.230225,838.998840 561.595764,839.002197 
	C555.013489,839.002441 555.003052,839.016602 555.001831,845.726990 
	C554.997192,870.883362 554.997559,896.039734 555.001587,921.196106 
	C555.002686,927.991821 555.011719,927.998840 562.018677,927.999023 
	C643.985107,928.000671 725.951538,928.000061 807.917969,927.999573 
	C809.084106,927.999573 810.254517,928.055115 811.415649,927.977051 
	C815.089294,927.730408 817.185425,926.221313 817.060791,922.047424 
	C816.842163,914.723633 817.000000,907.388611 817.000000,900.058289 
	C816.999939,881.732483 816.965271,863.406494 817.027466,845.080933 
	C817.040649,841.206116 816.253418,838.605652 811.488586,838.936890 
	C807.177856,839.236511 802.829834,839.000061 797.499146,839.000000 
z"/>
<path fill="#01FFFF" opacity="1.000000" stroke="none" 
	d="
M1371.437744,832.786804 
	C1371.985474,848.273010 1372.118774,863.703735 1372.155151,879.134766 
	C1372.195801,896.400146 1372.148560,913.665710 1372.112793,931.387817 
	C1371.089233,931.906128 1370.092651,932.021790 1369.095947,932.021729 
	C1279.125488,932.014587 1189.155029,931.998657 1098.746338,931.933716 
	C1098.308228,931.884216 1098.214111,931.765869 1098.119385,931.319824 
	C1097.987549,898.217102 1097.950562,865.560364 1097.913574,832.903625 
	C1100.236938,832.826782 1102.560303,832.682678 1104.883667,832.682861 
	C1193.582642,832.690857 1282.281738,832.712097 1371.437744,832.786804 
z"/>
<path fill="#FF00FE" opacity="1.000000" stroke="none" 
	d="
M1097.934814,832.925598 
	C1097.950562,865.560364 1097.987549,898.217102 1098.043701,931.317749 
	C1096.404907,931.850708 1094.746948,932.017517 1093.088989,932.017700 
	C1003.671387,932.027832 914.253723,932.023987 824.358215,931.994629 
	C823.848328,899.214355 823.816284,866.461121 823.848389,833.221680 
	C823.912476,832.735596 823.840576,832.697510 824.290283,832.701904 
	C914.675659,832.701050 1004.611267,832.694641 1094.546875,832.703186 
	C1095.695923,832.703308 1096.844971,832.893738 1097.994019,832.995361 
	C1097.994019,832.995361 1097.956055,832.947571 1097.934814,832.925598 
z"/>
<path fill="#9595AF" opacity="1.000000" stroke="none" 
	d="
M277.111267,932.314392 
	C277.185669,932.115356 277.344727,932.062988 277.740448,932.093079 
	C277.716736,932.270691 277.456329,932.365906 277.111267,932.314392 
z"/>
<path fill="#9595AF" opacity="1.000000" stroke="none" 
	d="
M545.102295,932.322998 
	C545.176270,932.117920 545.339050,932.061157 545.747437,932.083862 
	C545.725830,932.266052 545.458496,932.368713 545.102295,932.322998 
z"/>
<path fill="#01FE02" opacity="1.000000" stroke="none" 
	d="
M1097.979736,832.527100 
	C1096.844971,832.893738 1095.695923,832.703308 1094.546875,832.703186 
	C1004.611267,832.694641 914.675659,832.701050 824.252808,832.717651 
	C823.761169,786.807373 823.756714,740.885559 823.747742,694.495789 
	C824.404175,693.958191 825.065125,693.827637 825.726135,693.827698 
	C916.178528,693.836731 1006.630981,693.855286 1097.547974,693.948425 
	C1097.996826,740.035278 1097.981079,786.047119 1097.979736,832.527100 
z"/>
<path fill="#FAFAFA" opacity="1.000000" stroke="none" 
	d="
M1123.370117,545.264709 
	C1130.637573,545.263184 1137.436279,545.263184 1144.602539,545.263184 
	C1144.602539,549.252075 1144.602539,552.847107 1144.602539,556.961060 
	C1148.683228,556.961060 1152.413330,556.961060 1156.476318,556.961060 
	C1156.476318,561.080322 1156.476318,564.697876 1156.476318,568.905640 
	C1160.497803,568.905640 1164.203247,568.905640 1168.269165,568.905640 
	C1168.269165,573.087952 1168.269165,576.692383 1168.269165,580.590454 
	C1172.201660,580.590454 1175.775635,580.590454 1179.781006,580.590454 
	C1179.781006,569.083435 1179.781006,557.494385 1179.781006,545.580566 
	C1187.787598,545.580566 1195.382202,545.580566 1203.385010,545.580566 
	C1203.385010,572.866455 1203.385010,600.261841 1203.385010,628.050415 
	C1195.895020,628.050415 1188.177368,628.050415 1180.054932,628.050415 
	C1180.054932,620.497314 1180.054932,612.911560 1180.054932,604.976990 
	C1176.076294,604.976990 1172.478638,604.976990 1168.340332,604.976990 
	C1168.340332,600.926514 1168.340332,597.209167 1168.340332,593.104187 
	C1164.217529,593.104187 1160.618164,593.104187 1156.501831,593.104187 
	C1156.501831,588.975342 1156.501831,585.228516 1156.501831,581.273071 
	C1152.405518,581.273071 1148.830078,581.273071 1144.932861,581.273071 
	C1144.932861,596.947449 1144.932861,612.395142 1144.932861,628.143921 
	C1136.861694,628.143921 1129.109985,628.143921 1121.019043,628.143921 
	C1121.019043,614.666809 1121.018433,601.361572 1121.019287,588.056335 
	C1121.020020,575.225159 1120.963379,562.393372 1121.106567,549.563782 
	C1121.122681,548.124817 1122.275757,546.698425 1123.370117,545.264709 
z"/>
<path fill="#FDFDFD" opacity="1.000000" stroke="none" 
	d="
M568.135742,592.941895 
	C564.892761,593.377747 563.736450,592.342041 564.005737,589.412781 
	C564.245544,586.803650 564.056152,584.155090 564.056152,581.285767 
	C560.089172,581.285767 556.503052,581.285767 552.371338,581.285767 
	C552.371338,596.895264 552.371338,612.455383 552.371338,628.219788 
	C544.390625,628.219788 536.945251,628.219788 529.113281,628.219788 
	C529.113281,600.777405 529.113281,573.263184 529.113281,545.524170 
	C536.797363,545.524170 544.371887,545.524170 552.325317,545.524170 
	C552.325317,549.376221 552.325317,552.983093 552.325317,556.963135 
	C556.281067,556.963135 559.877075,556.963135 564.010010,556.963135 
	C564.010010,561.028809 564.010010,564.755127 564.010010,568.862854 
	C568.122070,568.862854 571.713013,568.862854 575.825562,568.862854 
	C575.825562,572.963135 575.825562,576.690430 575.825562,580.653503 
	C579.933350,580.653503 583.522400,580.653503 587.577881,580.653503 
	C587.577881,569.028931 587.577881,557.435364 587.577881,545.562622 
	C595.606567,545.562622 603.175537,545.562622 611.014343,545.562622 
	C611.014343,573.090759 611.014343,600.482483 611.014343,628.152588 
	C603.347290,628.152588 595.792725,628.152588 587.759277,628.152588 
	C587.759277,620.480164 587.759277,612.899109 587.759277,604.935242 
	C583.704163,604.935242 580.114502,604.935242 575.986938,604.935242 
	C575.986938,600.849731 575.986938,597.117004 575.986938,592.940918 
	C573.169128,592.940918 570.886230,592.940918 568.135742,592.941895 
z"/>
<path fill="#F8F8F8" opacity="1.000000" stroke="none" 
	d="
M648.087891,628.440063 
	C644.965149,628.439026 642.328369,628.439026 639.297241,628.439026 
	C639.297241,624.468689 639.297241,620.882446 639.297241,616.915771 
	C635.325439,616.915771 631.736206,616.915771 627.723938,616.915771 
	C627.723938,596.855713 627.723938,577.181702 627.723938,557.160889 
	C631.428711,557.160889 635.027832,557.160889 638.996277,557.160889 
	C638.996277,553.236633 638.996277,549.640747 638.996277,545.654053 
	C658.735779,545.654053 678.107239,545.654053 698.023071,545.654053 
	C698.023071,549.235962 698.023071,552.963684 698.023071,557.010498 
	C702.158997,557.010498 705.761841,557.010498 709.709229,557.010498 
	C709.709229,576.910522 709.709229,596.473206 709.709229,616.557556 
	C706.103577,616.557556 702.359436,616.557556 698.245728,616.557556 
	C698.245728,620.670044 698.245728,624.278809 698.245728,628.441162 
	C681.437561,628.441162 665.005676,628.441162 648.087891,628.440063 
M651.101440,579.500122 
	C651.101440,591.733826 651.101440,603.967529 651.101440,616.058350 
	C663.259155,616.058350 674.653564,616.058350 685.871338,616.058350 
	C685.871338,596.317688 685.871338,576.937256 685.871338,557.651978 
	C674.073486,557.651978 662.674988,557.651978 651.101440,557.651978 
	C651.101440,564.848389 651.101440,571.674316 651.101440,579.500122 
z"/>
<path fill="#FBFBFB" opacity="1.000000" stroke="none" 
	d="
M1219.905029,625.665039 
	C1219.907104,606.717346 1219.907104,588.239380 1219.907104,569.223328 
	C1223.735229,569.223328 1227.461182,569.223328 1231.631836,569.223328 
	C1231.631836,564.942993 1231.631836,561.183655 1231.631836,557.114136 
	C1235.683960,557.114136 1239.291260,557.114136 1243.448975,557.114136 
	C1243.448975,553.094604 1243.448975,549.372131 1243.448975,545.467163 
	C1255.422974,545.467163 1266.840698,545.467163 1278.616455,545.467163 
	C1278.616455,549.190796 1278.616455,552.786072 1278.616455,556.890869 
	C1282.681641,556.890869 1286.411011,556.890869 1290.645020,556.890869 
	C1290.645020,561.107117 1290.645020,564.838135 1290.645020,568.949341 
	C1294.738281,568.949341 1298.335693,568.949341 1302.130493,568.949341 
	C1302.130493,588.786743 1302.130493,608.234314 1302.130493,628.062805 
	C1294.494019,628.062805 1286.802002,628.062805 1278.797363,628.062805 
	C1278.797363,620.510620 1278.797363,613.056152 1278.797363,605.213135 
	C1267.128540,605.213135 1255.753174,605.213135 1243.919922,605.213135 
	C1243.919922,612.559448 1243.919922,620.129272 1243.919922,628.385315 
	C1236.067749,628.385315 1228.646118,628.424866 1221.227783,628.289001 
	C1220.773193,628.280640 1220.343994,626.884949 1219.905029,625.665039 
M1278.748779,575.642273 
	C1278.748779,573.545166 1278.748779,571.448059 1278.748779,568.974976 
	C1274.483276,568.974976 1270.893066,568.974976 1266.792969,568.974976 
	C1266.792969,564.888550 1266.792969,561.172424 1266.792969,557.604004 
	C1262.686035,557.604004 1259.116821,557.604004 1255.186768,557.604004 
	C1255.186768,561.528076 1255.186768,565.120789 1255.186768,569.124939 
	C1251.242554,569.124939 1247.661499,569.124939 1244.047119,569.124939 
	C1244.047119,577.241760 1244.047119,584.924072 1244.047119,592.434692 
	C1255.802856,592.434692 1267.168091,592.434692 1278.747803,592.434692 
	C1278.747803,586.902161 1278.747803,581.756592 1278.748779,575.642273 
z"/>
<path fill="#F9F9F9" opacity="1.000000" stroke="none" 
	d="
M858.994629,557.297974 
	C855.498535,557.297791 852.503357,557.297791 849.125488,557.297791 
	C849.125488,565.033081 849.125488,572.602966 849.125488,580.651245 
	C864.344482,580.651245 879.752563,580.651245 895.699341,580.651245 
	C895.699341,584.840271 895.699341,588.575623 895.699341,592.742188 
	C899.828918,592.742188 903.426575,592.742188 907.235474,592.742188 
	C907.235474,600.795044 907.235474,608.408630 907.235474,616.474487 
	C903.557617,616.474487 899.989075,616.474487 896.024292,616.474487 
	C896.024292,620.507996 896.024292,624.106873 896.024292,628.077148 
	C876.218262,628.077148 856.804688,628.077148 836.959839,628.077148 
	C836.959839,624.699829 836.959839,621.103943 836.959839,616.884277 
	C832.851624,616.884277 829.144470,616.884277 825.202759,616.884277 
	C825.202759,612.518982 825.202759,608.773071 825.202759,604.841187 
	C832.938232,604.841187 840.559998,604.841187 848.586914,604.841187 
	C848.586914,608.566162 848.586914,612.145935 848.586914,616.059021 
	C860.380859,616.059021 871.777161,616.059021 883.489014,616.059021 
	C883.489014,608.526428 883.489014,600.968811 883.489014,592.989685 
	C867.916321,592.989685 852.499390,592.989685 836.772705,592.989685 
	C836.772705,588.939026 836.772705,585.302185 836.772705,581.294800 
	C832.888062,581.294800 829.299255,581.294800 825.332642,581.294800 
	C825.332642,573.209229 825.332642,565.480652 825.332642,557.213135 
	C828.923035,557.213135 832.668152,557.213135 836.731323,557.213135 
	C836.731323,553.058105 836.731323,549.430725 836.731323,545.537231 
	C856.444336,545.537231 875.830688,545.537231 895.576294,545.537231 
	C895.576294,549.244751 895.576294,552.847290 895.576294,556.865601 
	C899.507080,556.865601 903.097839,556.865601 907.069458,556.865601 
	C907.069458,560.992554 907.069458,564.713440 907.069458,568.790894 
	C899.615906,568.790894 892.055115,568.790894 883.925293,568.790894 
	C883.925293,565.245300 883.925293,561.521118 883.925293,557.298157 
	C875.412781,557.298157 867.454163,557.298157 858.994629,557.297974 
z"/>
<path fill="#F9F9F9" opacity="1.000000" stroke="none" 
	d="
M1045.899414,624.776611 
	C1045.898315,622.002808 1045.898315,619.692383 1045.898315,616.778870 
	C1041.958740,616.778870 1038.238525,616.778870 1034.193604,616.778870 
	C1034.193604,612.578430 1034.193604,608.980408 1034.193604,605.007812 
	C1030.267090,605.007812 1026.671997,605.007812 1022.669312,605.007812 
	C1022.669312,592.942932 1022.669312,581.247803 1022.669312,569.200195 
	C1026.272339,569.200195 1029.872681,569.200195 1033.958984,569.200195 
	C1033.958984,565.150574 1033.958984,561.414978 1033.958984,557.316467 
	C1038.036011,557.316467 1041.636597,557.316467 1045.766846,557.316467 
	C1045.766846,553.228455 1045.766846,549.497681 1045.766846,545.522339 
	C1065.698608,545.522339 1085.101074,545.522339 1104.757812,545.522339 
	C1104.757812,549.428162 1104.757812,553.180603 1104.757812,557.301514 
	C1089.252808,557.301514 1073.811890,557.301514 1058.033936,557.301514 
	C1058.033936,561.273438 1058.033936,564.886047 1058.033936,569.021545 
	C1053.995850,569.021545 1050.260986,569.021545 1046.297363,569.021545 
	C1046.297363,581.123596 1046.297363,592.699646 1046.297363,604.608154 
	C1050.071777,604.608154 1053.699341,604.608154 1057.860840,604.608154 
	C1057.860840,608.615234 1057.860840,612.326660 1057.860840,616.204956 
	C1065.817505,616.204956 1073.237183,616.204956 1080.937256,616.204956 
	C1080.937256,608.516113 1080.937256,600.954956 1080.937256,593.028259 
	C1077.195923,593.028259 1073.591187,593.028259 1069.701660,593.028259 
	C1069.701660,588.918213 1069.701660,585.168945 1069.701660,581.151611 
	C1081.382202,581.151611 1092.945557,581.151611 1104.760742,581.151611 
	C1104.760742,596.823669 1104.760742,612.403992 1104.760742,628.445007 
	C1095.072266,628.445007 1085.440552,628.444641 1075.808838,628.445068 
	C1066.980347,628.445435 1058.151123,628.380066 1049.323975,628.490906 
	C1046.882324,628.521484 1045.415161,628.044617 1045.899414,624.776611 
z"/>
<path fill="#F8F8F8" opacity="1.000000" stroke="none" 
	d="
M952.970398,616.390503 
	C955.122742,616.390869 956.779663,616.390869 958.732422,616.390869 
	C958.732422,596.780762 958.732422,577.369446 958.732422,557.386292 
	C951.054260,557.386292 943.336975,557.386292 935.447571,557.386292 
	C935.447571,553.204163 935.447571,549.590454 935.447571,545.617859 
	C958.892395,545.617859 982.260803,545.617859 1005.882324,545.617859 
	C1005.882324,549.455505 1005.882324,553.205078 1005.882324,557.210327 
	C998.271973,557.210327 990.796570,557.210327 983.008667,557.210327 
	C983.008667,576.877686 983.008667,596.296753 983.008667,616.254089 
	C990.475281,616.254089 998.026978,616.254089 1005.848877,616.254089 
	C1005.848877,620.527405 1005.848877,624.270081 1005.848877,628.235718 
	C982.500732,628.235718 959.233704,628.235718 935.610596,628.235718 
	C935.610596,624.415649 935.610596,620.705688 935.610596,616.390076 
	C941.253174,616.390076 946.864075,616.390076 952.970398,616.390503 
z"/>
<path fill="#F9F9F9" opacity="1.000000" stroke="none" 
	d="
M1392.907471,616.396912 
	C1395.855713,616.396973 1398.318237,616.396973 1400.936279,616.396973 
	C1400.936279,620.548401 1400.936279,624.175903 1400.936279,628.127686 
	C1377.484741,628.127686 1354.105591,628.127686 1330.464111,628.127686 
	C1330.464111,600.624023 1330.464111,573.238892 1330.464111,545.557556 
	C1338.188599,545.557556 1345.764404,545.557556 1353.791992,545.557556 
	C1353.791992,568.946472 1353.791992,592.333435 1353.791992,616.396851 
	C1366.959473,616.396851 1379.690674,616.396851 1392.907471,616.396912 
z"/>
<path fill="#FFFF01" opacity="1.000000" stroke="none" 
	d="
M797.998718,839.000000 
	C802.829834,839.000061 807.177856,839.236511 811.488586,838.936890 
	C816.253418,838.605652 817.040649,841.206116 817.027466,845.080933 
	C816.965271,863.406494 816.999939,881.732483 817.000000,900.058289 
	C817.000000,907.388611 816.842163,914.723633 817.060791,922.047424 
	C817.185425,926.221313 815.089294,927.730408 811.415649,927.977051 
	C810.254517,928.055115 809.084106,927.999573 807.917969,927.999573 
	C725.951538,928.000061 643.985107,928.000671 562.018677,927.999023 
	C555.011719,927.998840 555.002686,927.991821 555.001587,921.196106 
	C554.997559,896.039734 554.997192,870.883362 555.001831,845.726990 
	C555.003052,839.016602 555.013489,839.002441 561.595764,839.002197 
	C640.230225,838.998840 718.864685,839.000000 797.998718,839.000000 
z"/>
<path fill="#030303" opacity="1.000000" stroke="none" 
	d="
M651.101440,579.000183 
	C651.101440,571.674316 651.101440,564.848389 651.101440,557.651978 
	C662.674988,557.651978 674.073486,557.651978 685.871338,557.651978 
	C685.871338,576.937256 685.871338,596.317688 685.871338,616.058350 
	C674.653564,616.058350 663.259155,616.058350 651.101440,616.058350 
	C651.101440,603.967529 651.101440,591.733826 651.101440,579.000183 
z"/>
<path fill="#080808" opacity="1.000000" stroke="none" 
	d="
M1278.748291,576.126587 
	C1278.747803,581.756592 1278.747803,586.902161 1278.747803,592.434692 
	C1267.168091,592.434692 1255.802856,592.434692 1244.047119,592.434692 
	C1244.047119,584.924072 1244.047119,577.241760 1244.047119,569.124939 
	C1247.661499,569.124939 1251.242554,569.124939 1255.186768,569.124939 
	C1255.186768,565.120789 1255.186768,561.528076 1255.186768,557.604004 
	C1259.116821,557.604004 1262.686035,557.604004 1266.792969,557.604004 
	C1266.792969,561.172424 1266.792969,564.888550 1266.792969,568.974976 
	C1270.893066,568.974976 1274.483276,568.974976 1278.748779,568.974976 
	C1278.748779,571.448059 1278.748779,573.545166 1278.748291,576.126587 
z"/>
</svg>