<svg width="900" height="300" viewBox="0 0 900 300" fill="none" xmlns="http://www.w3.org/2000/svg" class="svg__graphic-hatch-lines">
<path d="M144.445 318.242L12.7009 0.182617" stroke="#C099FF" stroke-width="1.5" class="svg__stroke--wayfinder"/>
<path d="M160.445 318.242L28.7009 0.182617" stroke="#C099FF" stroke-width="1.5" class="svg__stroke--wayfinder"/>
<path d="M176.445 318.242L44.7009 0.182617" stroke="#C099FF" stroke-width="1.5" class="svg__stroke--wayfinder"/>
<path d="M192.445 318.242L60.7009 0.182617" stroke="#C099FF" stroke-width="1.5" class="svg__stroke--wayfinder"/>
<path d="M208.445 318.242L76.7009 0.182617" stroke="#C099FF" stroke-width="2" class="svg__stroke--wayfinder"/>
<path d="M224.445 318.242L92.7009 0.182617" stroke="#C099FF" stroke-width="2" class="svg__stroke--wayfinder"/>
<path d="M240.445 318.242L108.701 0.182617" stroke="#C099FF" stroke-width="2" class="svg__stroke--wayfinder"/>
<path d="M256.445 318.242L124.701 0.182617" stroke="#C099FF" stroke-width="2" class="svg__stroke--wayfinder"/>
<path d="M272.445 318.242L140.701 0.182617" stroke="#C099FF" stroke-width="2.5" class="svg__stroke--wayfinder"/>
<path d="M288.445 318.242L156.701 0.182617" stroke="#C099FF" stroke-width="2.5" class="svg__stroke--wayfinder"/>
<path d="M304.445 318.242L172.701 0.182617" stroke="#C099FF" stroke-width="2.5" class="svg__stroke--wayfinder"/>
<path d="M320.445 318.242L188.701 0.182617" stroke="#C099FF" stroke-width="2.5" class="svg__stroke--wayfinder"/>
<path d="M336.445 318.242L204.701 0.182617" stroke="#C099FF" stroke-width="3" class="svg__stroke--wayfinder"/>
<path  d="M352.445 318.242L220.701 0.182617" stroke="#C099FF" stroke-width="3" class="svg__stroke--wayfinder"/>
<path d="M368.445 318.242L236.701 0.182617" stroke="#C099FF" stroke-width="3" class="svg__stroke--wayfinder"/>
<path d="M384.445 318.242L252.701 0.182617" stroke="#C099FF" stroke-width="3" class="svg__stroke--wayfinder"/>
<path d="M400.445 318.242L268.701 0.182617" stroke="#C099FF" stroke-width="3.5" class="svg__stroke--wayfinder"/>
<path d="M416.445 318.242L284.701 0.182617" stroke="#C099FF" stroke-width="3.5" class="svg__stroke--wayfinder"/>
<path d="M432.445 318.242L300.701 0.182617" stroke="#C099FF" stroke-width="3.5" class="svg__stroke--wayfinder"/>
<path d="M448.445 318.242L316.701 0.182617" stroke="#C099FF" stroke-width="3.5" class="svg__stroke--wayfinder"/>
<path d="M464.445 318.242L332.701 0.182617" stroke="#C099FF" stroke-width="4" class="svg__stroke--wayfinder"/>
<path d="M480.445 318.242L348.701 0.182617" stroke="#C099FF" stroke-width="4" class="svg__stroke--wayfinder"/>
<path d="M496.445 318.242L364.701 0.182617" stroke="#C099FF" stroke-width="4" class="svg__stroke--wayfinder"/>
<path d="M512.445 318.242L380.701 0.182617" stroke="#C099FF" stroke-width="4" class="svg__stroke--wayfinder"/>
<path d="M528.445 318.242L396.701 0.182617" stroke="#C099FF" stroke-width="4.5" class="svg__stroke--wayfinder"/>
<path d="M544.445 318.242L412.701 0.182617" stroke="#C099FF" stroke-width="4.5" class="svg__stroke--wayfinder"/>
<path d="M560.445 318.242L428.701 0.182617" stroke="#C099FF" stroke-width="4.5" class="svg__stroke--wayfinder"/>
<path d="M576.445 318.242L444.701 0.182617" stroke="#C099FF" stroke-width="4.5" class="svg__stroke--wayfinder"/>
<path d="M592.445 318.242L460.701 0.182617" stroke="#C099FF" stroke-width="5" class="svg__stroke--wayfinder"/>
<path d="M608.445 318.242L476.701 0.182617" stroke="#C099FF" stroke-width="5" class="svg__stroke--wayfinder"/>
<path d="M624.445 318.242L492.701 0.182617" stroke="#C099FF" stroke-width="5" class="svg__stroke--wayfinder"/>
<path d="M640.445 318.242L508.701 0.182617" stroke="#C099FF" stroke-width="5" class="svg__stroke--wayfinder"/>
<path d="M656.445 318.242L524.701 0.182617" stroke="#C099FF" stroke-width="5.5" class="svg__stroke--wayfinder"/>
<path d="M672.445 318.242L540.701 0.182617" stroke="#C099FF" stroke-width="5.5" class="svg__stroke--wayfinder"/>
<path d="M688.445 318.242L556.701 0.182617" stroke="#C099FF" stroke-width="5.5" class="svg__stroke--wayfinder"/>
<path d="M704.445 318.242L572.701 0.182617" stroke="#C099FF" stroke-width="5.5" class="svg__stroke--wayfinder"/>
<path d="M720.445 318.242L588.701 0.182617" stroke="#C099FF" stroke-width="5.5" class="svg__stroke--wayfinder"/>
<path d="M736.445 318.242L604.701 0.182617" stroke="#C099FF" stroke-width="5.5" class="svg__stroke--wayfinder"/>
<path d="M752.445 318.242L620.701 0.182617" stroke="#C099FF" stroke-width="5.5" class="svg__stroke--wayfinder"/>
<path d="M768.445 318.242L636.701 0.182617" stroke="#C099FF" stroke-width="5.5" class="svg__stroke--wayfinder"/>
<path d="M784.445 318.242L654.701 0.182617" stroke="#C099FF" stroke-width="5.5" class="svg__stroke--wayfinder"/>
<path d="M800.445 318.242L670.701 0.182617" stroke="#C099FF" stroke-width="5.5" class="svg__stroke--wayfinder"/>
<path d="M816.445 318.242L686.701 0.182617" stroke="#C099FF" stroke-width="5.5" class="svg__stroke--wayfinder"/>
<path d="M832.445 318.242L702.701 0.182617" stroke="#C099FF" stroke-width="5.5" class="svg__stroke--wayfinder"/>
<path d="M848.445 318.242L718.701 0.182617" stroke="#C099FF" stroke-width="5.5" class="svg__stroke--wayfinder"/>
<path d="M864.445 318.242L734.701 0.182617" stroke="#C099FF" stroke-width="5.5" class="svg__stroke--wayfinder"/>
<path d="M880.445 318.242L750.701 0.182617" stroke="#C099FF" stroke-width="5.5" class="svg__stroke--wayfinder"/>
</svg>
