<svg width="823" height="321" viewBox="0 0 823 321" fill="none" xmlns="http://www.w3.org/2000/svg" class="svg__graphic-hatch-lines">
  <path d="M690.419 319.145 821.861 2M674.456 319.145 805.897 2M658.492 319.145 789.934 2M642.529 319.145 773.971 2"
    stroke="#FF94DB" stroke-width="1.5" class="svg__stroke--wayfinder" />
  <path d="M626.566 319.145 758.008 2M610.603 319.145 742.044 2M594.639 319.145 726.081 2M578.676 319.145 710.118 2"
    stroke="#FF94DB" stroke-width="2" class="svg__stroke--wayfinder" />
  <path d="M562.713 319.145 694.155 2M546.75 319.145 678.191 2M530.786 319.145 662.228 2M514.823 319.145 646.265 2"
    stroke="#FF94DB" stroke-width="2.5" class="svg__stroke--wayfinder" />
  <path d="M498.86 319.145 630.302 2M482.897 319.145 614.339 2M466.933 319.145 598.375 2M450.97 319.145 582.412 2"
    stroke="#FF94DB" stroke-width="3" class="svg__stroke--wayfinder" />
  <path d="M435.007 319.145 566.449 2M419.044 319.145 550.486 2M403.08 319.145 534.522 2M387.117 319.145 518.559 2"
    stroke="#FF94DB" stroke-width="3.5" class="svg__stroke--wayfinder" />
  <path d="M371.154 319.145 502.596 2M355.191 319.145 486.632 2M339.227 319.145 470.669 2M323.264 319.145 454.706 2"
    stroke="#FF94DB" stroke-width="4" class="svg__stroke--wayfinder" />
  <path d="M307.301 319.145 438.743 2M291.338 319.145 422.779 2M275.375 319.145 406.816 2M259.411 319.145 390.853 2"
    stroke="#FF94DB" stroke-width="4.5" class="svg__stroke--wayfinder" />
  <path d="M243.448 319.145 374.89 2M227.485 319.145 358.926 2M211.521 319.145 342.963 2M195.558 319.145 327 2"
    stroke="#FF94DB" stroke-width="5" class="svg__stroke--wayfinder" />
  <path d="M179.595 319.145 311.037 2M163.632 319.145 295.073 2M147.668 319.145 279.11 2M131.705 319.145 263.147 2"
    stroke="#FF94DB" stroke-width="5.5" class="svg__stroke--wayfinder" />
  <path d="M115.742 319.145 247.184 2M99.779 319.145 231.221 2M83.815 319.145 215.257 2M67.852 319.145 199.294 2"
    stroke="#FF94DB" stroke-width="6" class="svg__stroke--wayfinder" />
  <path d="M51.889 319.145 183.331 2M35.926 319.145 167.368 2M19.962 319.145 151.404 2M4 319.145 135.442 2"
    stroke="#FF94DB" stroke-width="6.5" class="svg__stroke--wayfinder" />
</svg>