<svg width="16" height="17" viewBox="0 0 16 17" fill="none" xmlns="http://www.w3.org/2000/svg" class="svg__icon-ftva-gcal">
<path d="M12.2106 4.28946H3.78955V12.7105H12.2106V4.28946Z" fill="white"/>
<path d="M12.2106 16.5L16.0001 12.7105L14.1053 12.3872L12.2106 12.7105L11.8647 14.4436L12.2106 16.5Z" fill="#EA4335"/>
<path d="M0 12.7105V15.2368C0 15.9347 0.56525 16.5 1.26312 16.5H3.7895L4.17856 14.6052L3.7895 12.7105L1.72494 12.3872L0 12.7105Z" fill="#188038"/>
<path d="M16.0001 4.2895V1.76313C16.0001 1.06525 15.4348 0.500004 14.7369 0.500004H12.2106C11.9801 1.43975 11.8648 2.13134 11.8647 2.57475C11.8647 3.01813 11.98 3.58971 12.2106 4.2895C13.0487 4.5295 13.6803 4.6495 14.1053 4.6495C14.5304 4.6495 15.1619 4.52955 16.0001 4.2895Z" fill="#1967D2"/>
<path d="M15.9999 4.28946H12.2104V12.7105H15.9999V4.28946Z" fill="#FBBC04"/>
<path d="M12.2106 12.7106H3.78955V16.5001H12.2106V12.7106Z" fill="#34A853"/>
<path d="M12.2105 0.500004H1.26319C0.56525 0.500004 0 1.06525 0 1.76313V12.7105H3.7895V4.2895H12.2105V0.500004Z" fill="#4285F4"/>
<path d="M5.51686 10.8221C5.20211 10.6095 4.98417 10.299 4.86523 9.88839L5.5958 9.58739C5.66205 9.84001 5.77784 10.0358 5.94317 10.1748C6.10736 10.3137 6.30736 10.3821 6.54105 10.3821C6.77996 10.3821 6.98521 10.3095 7.1568 10.1642C7.32842 10.0189 7.41473 9.8337 7.41473 9.60951C7.41473 9.38001 7.32421 9.19264 7.14317 9.04739C6.96211 8.90214 6.73473 8.82951 6.46317 8.82951H6.04105V8.10639H6.41998C6.65365 8.10639 6.85048 8.0432 7.01048 7.91682C7.17048 7.79057 7.25048 7.61789 7.25048 7.39789C7.25048 7.20214 7.17892 7.04632 7.0358 6.92951C6.89267 6.81264 6.71155 6.7537 6.49155 6.7537C6.2768 6.7537 6.1063 6.81057 5.97998 6.92526C5.85371 7.04028 5.75879 7.18555 5.70417 7.34739L4.98105 7.04632C5.0768 6.77476 5.25261 6.53476 5.51048 6.32739C5.76836 6.12001 6.09786 6.01582 6.49786 6.01582C6.79367 6.01582 7.05998 6.0727 7.2958 6.18739C7.53155 6.30214 7.7168 6.46107 7.85048 6.6632C7.98423 6.86632 8.05048 7.0937 8.05048 7.34632C8.05048 7.6042 7.98842 7.82214 7.86423 8.00107C7.74005 8.18001 7.58736 8.31682 7.4063 8.41264V8.45576C7.64008 8.55216 7.84316 8.71049 7.99367 8.9137C8.1463 9.11895 8.22317 9.3642 8.22317 9.65057C8.22317 9.93682 8.15048 10.1926 8.00523 10.4168C7.85998 10.6411 7.65898 10.8179 7.40417 10.9463C7.14842 11.0748 6.86105 11.1401 6.54211 11.1401C6.17261 11.1411 5.83161 11.0348 5.51686 10.8221ZM10.0041 7.19682L9.20205 7.77682L8.80098 7.16845L10.2399 6.13051H10.7915V11.0263H10.0041V7.19682Z" fill="#4285F4"/>
</svg>
