<svg width="11" height="11" viewBox="0 0 11 11" fill="none" xmlns="http://www.w3.org/2000/svg" class="svg__icon-ftva-dropdown_x">
<path d="M10.0449 9.05464L10.0449 9.05463L6.48973 5.5L10.0449 1.94537L10.0449 1.94536C10.1762 1.81404 10.25 1.63594 10.25 1.45023C10.25 1.26451 10.1762 1.08641 10.0449 0.955091C9.91359 0.823773 9.73549 0.75 9.54977 0.75C9.36406 0.75 9.18596 0.823773 9.05464 0.955091L9.05463 0.955104L5.5 4.51027L1.94537 0.955104L1.94536 0.955091C1.81404 0.823773 1.63594 0.75 1.45023 0.75C1.26451 0.75 1.08641 0.823773 0.955091 0.955091C0.823773 1.08641 0.75 1.26451 0.75 1.45023C0.75 1.63594 0.823773 1.81404 0.955091 1.94536L0.955104 1.94537L4.51027 5.5L0.955104 9.05463L0.955091 9.05464C0.823773 9.18596 0.75 9.36406 0.75 9.54977C0.75 9.73549 0.823773 9.91359 0.955091 10.0449C1.08641 10.1762 1.26451 10.25 1.45023 10.25C1.63594 10.25 1.81404 10.1762 1.94536 10.0449L1.94537 10.0449L5.5 6.48973L9.05463 10.0449L9.05464 10.0449C9.11966 10.1099 9.19686 10.1615 9.28181 10.1967C9.36676 10.2319 9.45782 10.25 9.54977 10.25C9.64173 10.25 9.73279 10.2319 9.81774 10.1967C9.90269 10.1615 9.97989 10.1099 10.0449 10.0449C10.1099 9.97989 10.1615 9.90269 10.1967 9.81774C10.2319 9.73279 10.25 9.64173 10.25 9.54977C10.25 9.45782 10.2319 9.36676 10.1967 9.28181C10.1615 9.19686 10.1099 9.11966 10.0449 9.05464Z" fill="#115DAF" stroke="#115DAF" stroke-width="0.5"/>
</svg>
