<svg width="47" height="48" viewBox="0 0 47 48" fill="none" xmlns="http://www.w3.org/2000/svg" class="svg__icon-dlc-filter">
<rect width="48" height="48" fill="#F2F2F2"/>
<path fill-rule="evenodd" clip-rule="evenodd" d="M15.2976 15.3571C15.6532 14.0028 16.9058 13 18.3931 13C19.8815 13 21.1332 14.0028 21.4887 15.3571H35.175C35.6166 15.3571 35.9742 15.7087 35.9742 16.1429C35.9742 16.577 35.6166 16.9286 35.175 16.9286H21.4887C21.133 18.2829 19.8804 19.2857 18.3931 19.2857C16.9047 19.2857 15.653 18.2829 15.2976 16.9286H12.7993C12.3577 16.9286 12.0001 16.577 12.0001 16.1429C12.0001 15.7087 12.3577 15.3571 12.7993 15.3571H15.2976Z" fill="#0F0F0F"/>
<path fill-rule="evenodd" clip-rule="evenodd" d="M15.3234 31.0714H12.8251C12.3836 31.0714 12.026 31.423 12.026 31.8571C12.026 32.2913 12.3836 32.6429 12.8251 32.6429H15.3234C15.679 33.9972 16.9317 35 18.4189 35C19.9073 35 21.159 33.9972 21.5145 32.6429H35.2009C35.6424 32.6429 36 32.2913 36 31.8571C36 31.423 35.6424 31.0714 35.2009 31.0714H21.5145C21.1589 29.7171 19.9062 28.7143 18.4189 28.7143C16.9305 28.7143 15.6789 29.7171 15.3234 31.0714Z" fill="#0F0F0F"/>
<path fill-rule="evenodd" clip-rule="evenodd" d="M24.8542 23.2143H12.7991C12.3576 23.2143 12 23.5659 12 24C12 24.4341 12.3576 24.7857 12.7991 24.7857H24.8542C25.2089 26.1401 26.4615 27.1429 27.9498 27.1429C29.4382 27.1429 30.6899 26.1401 31.0446 24.7857H35.174C35.6155 24.7857 35.9732 24.4341 35.9732 24C35.9732 23.5659 35.6155 23.2143 35.174 23.2143H31.0446C30.69 21.8599 29.4373 20.8571 27.9498 20.8571C26.4614 20.8571 25.2087 21.8599 24.8542 23.2143Z" fill="#0F0F0F"/>
</svg>
