<svg width="32" height="32" viewBox="0 0 32 32" fill="none" xmlns="http://www.w3.org/2000/svg" class="svg__icon-share-medium">
  <circle cx="16" cy="16" r="16" fill="#F2F2F2" class="svg__fill--secondary-grey-01" />
  <path
    d="M17.138 15.9999c0 2.7886-2.2452 5.0492-5.0134 5.0492-2.76821 0-5.01342-2.2623-5.01342-5.0492 0-2.787 2.24521-5.0492 5.01342-5.0492 2.7682 0 5.0134 2.2605 5.0134 5.0492Z"
    fill="#0F0F0F" class="svg__fill--black" />
  <path
    d="M22.6386 15.9998c0 2.6251-1.1226 4.7528-2.5075 4.7528-1.385 0-2.5076-2.1277-2.5076-4.7528 0-2.6251 1.1226-4.7527 2.5076-4.7527 1.3849 0 2.5075 2.1276 2.5075 4.7527Z"
    fill="#0F0F0F" class="svg__fill--black" />
  <path
    d="M24.8889 15.9997c0 2.3509-.3952 4.2571-.8824 4.2571-.4872 0-.8824-1.9062-.8824-4.2571 0-2.3508.3952-4.257.8824-4.257.4872 0 .8824 1.9045.8824 4.257Z"
    fill="#0F0F0F" class="svg__fill--black" />
</svg>