<svg width="32" height="32" viewBox="0 0 32 32" fill="none" xmlns="http://www.w3.org/2000/svg" class="svg__icon-location-filled">
  <path fill-rule="evenodd" clip-rule="evenodd"
    d="M17.2549 27.5288C22.3817 23.342 26.66 19.8481 26.66 14.4c0-5.88737-4.7726-10.66001-10.66-10.66001S5.34 8.51263 5.34 14.4c0 5.4481 4.27832 8.942 9.4051 13.1288.1897.1549.3806.3108.5725.4678.3965.3244.9683.3244 1.3648 0 .1919-.157.3827-.3129.5725-.4678Zm-1.2553-9.4643c1.6182 0 2.93-1.3118 2.93-2.93s-1.3118-2.93-2.93-2.93-2.93 1.3118-2.93 2.93 1.3118 2.93 2.93 2.93Z"
    fill="#0B6AB7" class="svg__fill--primary-blue-03" />
</svg>