<svg width="14" height="17" viewBox="0 0 14 17" fill="none" xmlns="http://www.w3.org/2000/svg" class="svg__icon-ftva-share">
<path d="M6.43456 0.734232C6.58458 0.584253 6.78803 0.5 7.00017 0.5C7.2123 0.5 7.41575 0.584253 7.56577 0.734232L9.9658 3.13426C10.1115 3.28514 10.1922 3.48722 10.1903 3.69698C10.1885 3.90674 10.1044 4.1074 9.95605 4.25572C9.80772 4.40405 9.60707 4.48819 9.39731 4.49001C9.18755 4.49183 8.98547 4.4112 8.83459 4.26547L7.80017 3.23106V10.8999C7.80017 11.1121 7.71589 11.3156 7.56586 11.4656C7.41583 11.6157 7.21234 11.6999 7.00017 11.6999C6.78799 11.6999 6.58451 11.6157 6.43447 11.4656C6.28444 11.3156 6.20016 11.1121 6.20016 10.8999V3.23106L5.16575 4.26547C5.01486 4.4112 4.81278 4.49183 4.60302 4.49001C4.39326 4.48819 4.19261 4.40405 4.04428 4.25572C3.89595 4.1074 3.81182 3.90674 3.80999 3.69698C3.80817 3.48722 3.88881 3.28514 4.03453 3.13426L6.43456 0.734232ZM0.600098 7.69991C0.600098 7.27555 0.76867 6.86858 1.06873 6.56852C1.36879 6.26846 1.77576 6.09989 2.20011 6.09989H3.80013C4.01231 6.09989 4.21579 6.18418 4.36582 6.33421C4.51585 6.48424 4.60014 6.68772 4.60014 6.8999C4.60014 7.11207 4.51585 7.31556 4.36582 7.46559C4.21579 7.61562 4.01231 7.69991 3.80013 7.69991H2.20011V14.9H11.8002V7.69991H10.2002C9.98802 7.69991 9.78454 7.61562 9.63451 7.46559C9.48448 7.31556 9.40019 7.11207 9.40019 6.8999C9.40019 6.68772 9.48448 6.48424 9.63451 6.33421C9.78454 6.18418 9.98802 6.09989 10.2002 6.09989H11.8002C12.2246 6.09989 12.6315 6.26846 12.9316 6.56852C13.2317 6.86858 13.4002 7.27555 13.4002 7.69991V14.9C13.4002 15.3243 13.2317 15.7313 12.9316 16.0314C12.6315 16.3314 12.2246 16.5 11.8002 16.5H2.20011C1.77576 16.5 1.36879 16.3314 1.06873 16.0314C0.76867 15.7313 0.600098 15.3243 0.600098 14.9V7.69991Z" fill="#555555" class="svg__fill--medium-grey"/>
</svg>
