<svg width="32" height="32" viewBox="0 0 32 32" fill="none" xmlns="http://www.w3.org/2000/svg">
  <path
    d="m20.9713 19.7959-.5303-.5304-1.0608 1.0606.5303.5304 1.0608-1.0606Zm4.9773 7.0995.5303.5304 1.0608-1.0606-.5303-.5303-1.0608 1.0605Zm-8.0253-3.9811c4.9037-2.084 7.1895-7.7487 5.1055-12.6524l-1.3805.5867c1.76 4.1413-.1704 8.9252-4.3117 10.6852l.5867 1.3805Zm5.1055-12.6524c-2.084-4.90375-7.7487-7.18956-12.6524-5.10553l.5867 1.3805c4.1413-1.76 8.9252.17041 10.6852 4.31173l1.3805-.5867ZM10.3764 5.15637C5.47265 7.2404 3.18684 12.9051 5.27087 17.8088l1.3805-.5867c-1.76-4.1413.17041-8.92522 4.31173-10.68523l-.5867-1.3805ZM5.27087 17.8088c2.08403 4.9037 7.74873 7.1895 12.65243 5.1055l-.5867-1.3805c-4.1413 1.76-8.92522-.1704-10.68523-4.3117l-1.3805.5867Zm14.63963 3.0477 6.0381 6.0389 1.0608-1.0605-6.0381-6.039-1.0608 1.0606Z"
    fill="#0B6AB7" class="svg__fill--primary-blue-03" />
</svg>