<svg width="32" height="32" viewBox="0 0 32 32" fill="none" xmlns="http://www.w3.org/2000/svg">
  <path d="M28.9999 24.687H3.06957V7.40015H28.9999V24.687Z" stroke="#0B6AB7" stroke-width=".836461"
    stroke-linecap="round" stroke-linejoin="round" class="svg__stroke--primary-blue-03" />
  <path d="M7.46113 7.3999s-.07507 1.92225-1.30697 3.1542C4.92225 11.786 3 11.861 3 11.861" stroke="#0B6AB7"
    stroke-width=".836461" class="svg__stroke--primary-blue-03" />
  <path d="M7.46113 24.687s-.07507-1.9222-1.30697-3.1541C4.92225 20.301 3 20.2259 3 20.2259" stroke="#0B6AB7"
    stroke-width=".836461" class="svg__stroke--primary-blue-03" />
  <path d="M24.5389 7.40015s.075 1.92225 1.3069 3.15415C27.0778 11.7862 29 11.8613 29 11.8613" stroke="#0B6AB7"
    stroke-width=".836461" class="svg__stroke--primary-blue-03" />
  <path d="M24.5389 24.687s.075-1.9222 1.3069-3.1541C27.0778 20.301 29 20.2259 29 20.2259" stroke="#0B6AB7"
    stroke-width=".836461" class="svg__stroke--primary-blue-03" />
  <circle cx="15.9999" cy="16.0435" r="5.99464" stroke="#0B6AB7" stroke-width=".836461" class="svg__stroke--primary-blue-03" />
  <path
    d="M15.6634 13.686c.186 0 .3368.1508.3368.3368v.3368h.3368v-.3368c0-.186.1508-.3368.3368-.3368s.3368.1508.3368.3368v.3368h.3565c.186 0 .3368.1508.3368.3368s-.1508.3368-.3368.3368H14.97v.6735h2.3971c.186 0 .3368.1508.3368.3368v1.3471c0 .186-.1508.3368-.3368.3368h-.3565v.3368c0 .186-.1508.3368-.3368.3368s-.3368-.1508-.3368-.3368v-.3368h-.3368v.3368c0 .186-.1508.3368-.3368.3368s-.3368-.1508-.3368-.3368v-.3368h-.6933c-.186 0-.3368-.1508-.3368-.3368s.1508-.3367.3368-.3367h2.3971v-.6736h-2.3971c-.186 0-.3368-.1508-.3368-.3368v-1.3471c0-.186.1508-.3368.3368-.3368h.6933v-.3368c0-.186.1508-.3368.3368-.3368Z"
    fill="#0B6AB7" class="svg__fill--primary-blue-03" />
</svg>