<svg width="80" height="80" viewBox="0 0 80 80" fill="none" xmlns="http://www.w3.org/2000/svg">
<rect width="80" height="80" fill="white"/>
<path d="M12.2898 12.2897L40 0.811795L67.7103 12.2897L79.1882 40L67.7103 67.7103L40 79.1882L12.2898 67.7103L0.811795 40L12.2898 12.2897Z" fill="#FFD600" stroke="#0B6AB7" stroke-width="1.5"/>
<path d="M40.0001 6L64.0418 15.9584L74.0002 40.0001M40.0001 74.0002L15.9584 64.0418L6 40.0001" stroke="url(#paint0_linear_15693_4321)" stroke-width="2"/>
<g clip-path="url(#clip0_15693_4321)">
<path d="M56.0938 49.0625C56.0938 49.0625 38.8785 49.0625 31.5751 49.0625C26.113 49.0625 23.75 56.25 23.75 56.25V27.5H56.0938V49.0625Z" stroke="#333333" stroke-width="1.5" stroke-linecap="round" stroke-linejoin="round"/>
<path d="M46.877 35.8563L48.8443 36.6853L49.6592 38.6868L48.8443 40.6883L46.877 41.5173L44.9096 40.6883L44.0947 38.6868L44.9096 36.6853L46.877 35.8563Z" fill="#333333"/>
<path d="M39.9214 35.8563L41.8888 36.6853L42.7037 38.6868L41.8888 40.6883L39.9214 41.5173L37.9541 40.6883L37.1392 38.6868L37.9541 36.6853L39.9214 35.8563Z" fill="#333333"/>
<path d="M32.9659 35.8563L34.9332 36.6853L35.7481 38.6868L34.9332 40.6883L32.9659 41.5173L30.9985 40.6883L30.1836 38.6868L30.9985 36.6853L32.9659 35.8563Z" fill="#333333"/>
</g>
<defs>
<linearGradient id="paint0_linear_15693_4321" x1="-21.4249" y1="25.9762" x2="18.5274" y2="80.826" gradientUnits="userSpaceOnUse">
<stop stop-color="#0B6AB7"/>
<stop offset="0.4844" stop-color="#1F75C5"/>
<stop offset="0.9016" stop-color="#0A95EB"/>
</linearGradient>
<clipPath id="clip0_15693_4321">
<rect width="40" height="40" fill="white" transform="translate(20 20)"/>
</clipPath>
</defs>
</svg>
