<svg width="32" height="33" viewBox="0 0 32 33" fill="none" xmlns="http://www.w3.org/2000/svg">
<g clip-path="url(#clip0_360_5706)">
<path d="M11.878 19.5671L21.4194 10.0256" stroke="#0B6AB7" stroke-width="1.5" stroke-linecap="square" stroke-linejoin="round"/>
<path d="M22.7092 19.5667L22.7092 20.3167L21.2092 20.3167L21.2092 19.5667L22.7092 19.5667ZM21.9592 9.48511L21.9592 8.73511L22.7092 8.73511L22.7092 9.48511L21.9592 9.48511ZM11.8777 10.2351L11.1277 10.2351L11.1277 8.73511L11.8777 8.73511L11.8777 10.2351ZM21.2092 19.5667L21.2092 9.48511L22.7092 9.48511L22.7092 19.5667L21.2092 19.5667ZM21.9592 10.2351L11.8777 10.2351L11.8777 8.73511L21.9592 8.73511L21.9592 10.2351Z" fill="#0B6AB7"/>
<path d="M7 25.4744H21.2857" stroke="#0AA5FF" stroke-width="1.5"/>
</g>
<defs>
<clipPath id="clip0_360_5706">
<rect width="32" height="32.8644" fill="white" transform="matrix(-1 8.74228e-08 8.74228e-08 1 32 0)"/>
</clipPath>
</defs>
</svg>
