<svg width="16" height="17" viewBox="0 0 16 17" fill="none" xmlns="http://www.w3.org/2000/svg">
<path d="M10.5 6.5H11.75C12.0815 6.5 12.3995 6.6317 12.6339 6.86612C12.8683 7.10054 13 7.41848 13 7.75V13.75C13 14.0815 12.8683 14.3995 12.6339 14.6339C12.3995 14.8683 12.0815 15 11.75 15H4.25C3.91848 15 3.60054 14.8683 3.36612 14.6339C3.1317 14.3995 3 14.0815 3 13.75V7.75C3 7.41848 3.1317 7.10054 3.36612 6.86612C3.60054 6.6317 3.91848 6.5 4.25 6.5H5.5M10.5 4.5L8 2M8 2L5.5 4.5M8 2V10.5312" stroke="#676767" stroke-linecap="round" stroke-linejoin="round"/>
</svg>
