<svg width="20" height="21" viewBox="0 0 20 21" fill="none" xmlns="http://www.w3.org/2000/svg" class="svg__icon-ftva-filter">
<path d="M6.25 2.33556C5.91848 2.33556 5.60054 2.45844 5.36612 2.67717C5.1317 2.89591 5 3.19257 5 3.50191C5 3.81124 5.1317 4.10791 5.36612 4.32664C5.60054 4.54537 5.91848 4.66825 6.25 4.66825C6.58152 4.66825 6.89946 4.54537 7.13388 4.32664C7.3683 4.10791 7.5 3.81124 7.5 3.50191C7.5 3.19257 7.3683 2.89591 7.13388 2.67717C6.89946 2.45844 6.58152 2.33556 6.25 2.33556ZM2.7125 2.33556C2.97075 1.65262 3.44967 1.06124 4.08325 0.642938C4.71683 0.224634 5.47386 0 6.25 0C7.02614 0 7.78317 0.224634 8.41675 0.642938C9.05033 1.06124 9.52925 1.65262 9.7875 2.33556H18.75C19.0815 2.33556 19.3995 2.45844 19.6339 2.67717C19.8683 2.89591 20 3.19257 20 3.50191C20 3.81124 19.8683 4.10791 19.6339 4.32664C19.3995 4.54537 19.0815 4.66825 18.75 4.66825H9.7875C9.52925 5.35119 9.05033 5.94257 8.41675 6.36087C7.78317 6.77918 7.02614 7.00381 6.25 7.00381C5.47386 7.00381 4.71683 6.77918 4.08325 6.36087C3.44967 5.94257 2.97075 5.35119 2.7125 4.66825H1.25C0.918479 4.66825 0.600537 4.54537 0.366117 4.32664C0.131696 4.10791 0 3.81124 0 3.50191C0 3.19257 0.131696 2.89591 0.366117 2.67717C0.600537 2.45844 0.918479 2.33556 1.25 2.33556H2.7125ZM13.75 9.33365C13.4185 9.33365 13.1005 9.45653 12.8661 9.67527C12.6317 9.894 12.5 10.1907 12.5 10.5C12.5 10.8093 12.6317 11.106 12.8661 11.3247C13.1005 11.5435 13.4185 11.6663 13.75 11.6663C14.0815 11.6663 14.3995 11.5435 14.6339 11.3247C14.8683 11.106 15 10.8093 15 10.5C15 10.1907 14.8683 9.894 14.6339 9.67527C14.3995 9.45653 14.0815 9.33365 13.75 9.33365ZM10.2125 9.33365C10.4708 8.65071 10.9497 8.05934 11.5833 7.64103C12.2168 7.22273 12.9739 6.99809 13.75 6.99809C14.5261 6.99809 15.2832 7.22273 15.9167 7.64103C16.5503 8.05934 17.0292 8.65071 17.2875 9.33365H18.75C19.0815 9.33365 19.3995 9.45653 19.6339 9.67527C19.8683 9.894 20 10.1907 20 10.5C20 10.8093 19.8683 11.106 19.6339 11.3247C19.3995 11.5435 19.0815 11.6663 18.75 11.6663H17.2875C17.0292 12.3493 16.5503 12.9407 15.9167 13.359C15.2832 13.7773 14.5261 14.0019 13.75 14.0019C12.9739 14.0019 12.2168 13.7773 11.5833 13.359C10.9497 12.9407 10.4708 12.3493 10.2125 11.6663H1.25C0.918479 11.6663 0.600537 11.5435 0.366117 11.3247C0.131696 11.106 0 10.8093 0 10.5C0 10.1907 0.131696 9.894 0.366117 9.67527C0.600537 9.45653 0.918479 9.33365 1.25 9.33365H10.2125ZM6.25 16.3317C5.91848 16.3317 5.60054 16.4546 5.36612 16.6734C5.1317 16.8921 5 17.1888 5 17.4981C5 17.8074 5.1317 18.1041 5.36612 18.3228C5.60054 18.5416 5.91848 18.6644 6.25 18.6644C6.58152 18.6644 6.89946 18.5416 7.13388 18.3228C7.3683 18.1041 7.5 17.8074 7.5 17.4981C7.5 17.1888 7.3683 16.8921 7.13388 16.6734C6.89946 16.4546 6.58152 16.3317 6.25 16.3317ZM2.7125 16.3317C2.97075 15.6488 3.44967 15.0574 4.08325 14.6391C4.71683 14.2208 5.47386 13.9962 6.25 13.9962C7.02614 13.9962 7.78317 14.2208 8.41675 14.6391C9.05033 15.0574 9.52925 15.6488 9.7875 16.3317H18.75C19.0815 16.3317 19.3995 16.4546 19.6339 16.6734C19.8683 16.8921 20 17.1888 20 17.4981C20 17.8074 19.8683 18.1041 19.6339 18.3228C19.3995 18.5416 19.0815 18.6644 18.75 18.6644H9.7875C9.52925 19.3474 9.05033 19.9388 8.41675 20.3571C7.78317 20.7754 7.02614 21 6.25 21C5.47386 21 4.71683 20.7754 4.08325 20.3571C3.44967 19.9388 2.97075 19.3474 2.7125 18.6644H1.25C0.918479 18.6644 0.600537 18.5416 0.366117 18.3228C0.131696 18.1041 0 17.8074 0 17.4981C0 17.1888 0.131696 16.8921 0.366117 16.6734C0.600537 16.4546 0.918479 16.3317 1.25 16.3317H2.7125Z" fill="#115DAF" class="svg__fill--accent-blue"/>
</svg>
