<svg width="16" height="22" viewBox="0 0 16 22" fill="none" xmlns="http://www.w3.org/2000/svg" class="svg__icon-ftva-location">
<path d="M8.00005 10.45C7.2707 10.45 6.57123 10.1603 6.05551 9.64454C5.53978 9.12882 5.25005 8.42935 5.25005 7.7C5.25005 6.97065 5.53978 6.27118 6.05551 5.75546C6.57123 5.23973 7.2707 4.95 8.00005 4.95C8.72939 4.95 9.42887 5.23973 9.94459 5.75546C10.4603 6.27118 10.75 6.97065 10.75 7.7C10.75 8.06114 10.6789 8.41873 10.5407 8.75238C10.4025 9.08603 10.2 9.38918 9.94459 9.64454C9.68923 9.89991 9.38607 10.1025 9.05243 10.2407C8.71878 10.3789 8.36118 10.45 8.00005 10.45ZM8.00005 0C5.95788 0 3.99936 0.811248 2.55533 2.25528C1.1113 3.69931 0.300049 5.65783 0.300049 7.7C0.300049 13.475 8.00005 22 8.00005 22C8.00005 22 15.7 13.475 15.7 7.7C15.7 5.65783 14.8888 3.69931 13.4448 2.25528C12.0007 0.811248 10.0422 0 8.00005 0Z" fill="#115DAF" class="svg__fill--accent-blue"/>
</svg>
