<svg width="32" height="32" viewBox="0 0 32 32" fill="none" xmlns="http://www.w3.org/2000/svg">
  <circle cx="16.0194" cy="15.199" r="12.0989" stroke="#0B6AB7" stroke-width="1.5" class="svg__stroke--primary-blue-03" />
  <path
    d="M26.3528 24.3154c-2.5578 2.8923-6.2965 4.7159-10.4612 4.7159-7.71003 0-13.96026-6.2502-13.96026-13.9603 0-3.5986 1.36161-6.8792 3.59776-9.35469"
    stroke="#0AA5FF" stroke-width="1.25" stroke-linecap="round" class="svg__stroke--default-cyan-03" />
  <circle cx="16.0198" cy="11.0138" r="3.72274" stroke="#0B6AB7" stroke-width="1.5" class="svg__stroke--primary-blue-03" />
  <mask id="a" fill="#fff">
    <path
      d="M9.505 19.637c0-2.056 1.6667-3.7227 3.7227-3.7227h5.5842c2.056 0 3.7227 1.6667 3.7227 3.7227v1.1663c0 .7931-.2482 1.5753-.8472 2.0951-1.0003.8679-2.8874 2.07-5.6676 2.07-2.7802 0-4.6673-1.2021-5.6676-2.07-.59899-.5198-.8472-1.302-.8472-2.0951V19.637Z" />
  </mask>
  <path
    d="M9.505 19.637c0-2.056 1.6667-3.7227 3.7227-3.7227h5.5842c2.056 0 3.7227 1.6667 3.7227 3.7227v1.1663c0 .7931-.2482 1.5753-.8472 2.0951-1.0003.8679-2.8874 2.07-5.6676 2.07-2.7802 0-4.6673-1.2021-5.6676-2.07-.59899-.5198-.8472-1.302-.8472-2.0951V19.637Z"
    stroke="#0B6AB7" stroke-width="1.5" stroke-linecap="round" stroke-linejoin="round" mask="url(#a)" class="svg__stroke--primary-blue-03" />
</svg>