<svg width="31" height="32" viewBox="0 0 31 32" fill="none" xmlns="http://www.w3.org/2000/svg" class="svg__icon-ftva-footer_yt">
<rect y="0.625" width="31" height="31" rx="15.5" fill="#115DAF"/>
<path d="M14.05 18.3L17.8128 16.125L14.05 13.95V18.3ZM22.431 12.6232C22.5253 12.964 22.5905 13.4207 22.634 14.0007C22.6848 14.5807 22.7065 15.081 22.7065 15.516L22.75 16.125C22.75 17.7127 22.634 18.88 22.431 19.6267C22.2498 20.2792 21.8293 20.6997 21.1768 20.881C20.836 20.9752 20.2125 21.0405 19.2555 21.084C18.313 21.1347 17.4503 21.1565 16.6528 21.1565L15.5 21.2C12.4623 21.2 10.57 21.084 9.82325 20.881C9.17075 20.6997 8.75025 20.2792 8.569 19.6267C8.47475 19.286 8.4095 18.8292 8.366 18.2492C8.31525 17.6692 8.2935 17.169 8.2935 16.734L8.25 16.125C8.25 14.5372 8.366 13.37 8.569 12.6232C8.75025 11.9707 9.17075 11.5502 9.82325 11.369C10.164 11.2747 10.7875 11.2095 11.7445 11.166C12.687 11.1152 13.5498 11.0935 14.3473 11.0935L15.5 11.05C18.5378 11.05 20.43 11.166 21.1768 11.369C21.8293 11.5502 22.2498 11.9707 22.431 12.6232Z" fill="white"/>
</svg>
