<svg width="32" height="32" viewBox="0 0 32 32" fill="none" xmlns="http://www.w3.org/2000/svg">
<circle cx="16" cy="16" r="16" fill="#115DAF"/>
<path d="M16 15.3211C15.1846 13.6866 12.9652 10.6395 10.9015 9.13778C8.9242 7.69915 8.1709 7.94696 7.6768 8.179C7.1044 8.44352 7 9.35033 7 9.88216C7 10.4158 7.2835 14.2528 7.468 14.8942C8.08 17.0104 10.2526 17.725 12.256 17.4958C9.322 17.9441 6.7147 19.0458 10.132 22.97C13.8922 26.9843 15.2854 22.1096 16 19.638C16.7146 22.1096 17.5372 26.8089 21.7996 22.97C25 19.638 22.6789 17.9441 19.7449 17.4958C21.7474 17.725 23.9209 17.0104 24.532 14.8942C24.7165 14.2538 25 10.4158 25 9.88309C25 9.3494 24.8956 8.44445 24.3232 8.17714C23.8291 7.94696 23.0758 7.69729 21.0985 9.13592C19.0348 10.6405 16.8145 13.6876 16 15.3211Z" fill="white"/>
</svg>
