<svg width="32" height="32" viewBox="0 0 32 32" fill="none" xmlns="http://www.w3.org/2000/svg" class="svg__icon-accessible">
<circle cx="17.0687" cy="15.0688" r="13" stroke="#0B6AB7" stroke-width="1.5" class="svg__stroke--primary-blue-03"/>
<path d="M28.1717 24.8642C25.4234 27.9719 21.4062 29.9313 16.9314 29.9313C8.64713 29.9313 1.9314 23.2156 1.9314 14.9313C1.9314 11.0647 3.39442 7.53974 5.79711 4.87988" stroke="#0AA5FF" stroke-width="1.25" stroke-linecap="round" class="svg__stroke--default-cyan-03"/>
<path d="M18.4545 20.6377L18.4545 20.6377C18.1058 21.1011 17.6543 21.4772 17.1355 21.7366C16.6148 21.997 16.0406 22.1325 15.4585 22.1325H15.4375L15.4167 22.1337C14.4218 22.1892 13.4456 21.8473 12.7028 21.1831C11.9601 20.5189 11.5116 19.5868 11.456 18.5919C11.4005 17.5971 11.7424 16.6209 12.4066 15.8781C13.0708 15.1354 14.0029 14.6869 14.9978 14.6313L15.0179 14.6302L15.038 14.628C15.0392 14.6279 15.0404 14.6282 15.0413 14.629C15.0422 14.6297 15.0428 14.6308 15.043 14.632L15.7885 14.55L15.043 14.632C15.0431 14.6332 15.0427 14.6344 15.042 14.6353C15.0412 14.6363 15.0401 14.6369 15.039 14.637L15.039 14.637L15.0326 14.6377C14.4179 14.7106 13.8307 14.9346 13.3235 15.2897C12.8164 15.6447 12.405 16.1198 12.1262 16.6726C11.8473 17.2253 11.7097 17.8385 11.7255 18.4574C11.7413 19.0763 11.9101 19.6816 12.2168 20.2194C12.5235 20.7572 12.9586 21.2107 13.4832 21.5394L13.8814 20.9038L13.4832 21.5394C14.0078 21.8681 14.6056 22.0618 15.2233 22.1032L15.2735 21.3549L15.2233 22.1032C15.841 22.1446 16.4594 22.0325 17.0232 21.7768C17.587 21.5211 18.0787 21.1297 18.4545 20.6377ZM18.286 12.9481V12.951L18.0624 12.8213L17.6152 12.5618L18.286 12.9481ZM13.2115 12.3777L15.0538 11.3025H15.0662L14.8782 11.4121L13.2132 12.3827L13.2132 12.3827L13.2033 12.3826L13.2115 12.3777Z" stroke="#0B6AB7" stroke-width="1.5" class="svg__stroke--primary-blue-03"/>
<ellipse cx="19.7003" cy="8.6999" rx="1.8" ry="1.8" stroke="#0B6AB7" stroke-width="1.5" class="svg__stroke--primary-blue-03"/>
</svg>
