<svg width="60" height="55" viewBox="0 0 60 55" fill="none" xmlns="http://www.w3.org/2000/svg" class="svg__icon-iiif">
<path d="M9.1309 18.6002C12.6107 18.6002 14.3603 15.4334 13.0388 11.5271C11.7189 7.62083 7.82719 4.45398 4.34738 4.45398C0.867574 4.45398 -0.880438 7.62083 0.441111 11.5271C1.76104 15.4334 5.65272 18.6002 9.13253 18.6002H9.1309ZM1.05729 49.8585L12.5507 54.094L12.5702 23.2848L1.05729 19.0072V49.8569V49.8585Z" fill="#0075A4"/>
<path d="M23.8531 4.45398C20.3733 4.45398 16.4833 7.62083 15.1617 11.5271C13.8418 15.4334 15.5914 18.6002 19.0696 18.6002C22.5478 18.6002 26.4395 15.4334 27.761 11.5271C29.081 7.62083 27.3313 4.45398 23.8531 4.45398ZM15.726 54.094L27.2194 49.8585V19.0072L15.7066 23.2848L15.726 54.094Z" fill="#F02333"/>
<path d="M38.312 18.6002C41.7918 18.6002 43.5414 15.4334 42.2199 11.5271C40.9 7.62083 37.0083 4.45398 33.5285 4.45398C30.0487 4.45398 28.299 7.62083 29.6206 11.5271C30.9405 15.4334 34.8322 18.6002 38.312 18.6002ZM30.1638 49.8585L41.6572 54.094L41.6767 23.2848L30.1638 19.0072V49.8569V49.8585Z" fill="#0075A4"/>
<path d="M59.9996 0.664429V11.2449C59.9996 11.2449 56.27 9.78555 55.8241 13.5556C55.7836 17.5689 55.8241 19.0072 55.8241 19.0072L59.9996 17.6484V26.9316L55.8063 28.4316V50.079L44.3518 54.3355V16.069C44.3518 16.069 44.1085 2.28596 59.9996 0.664429Z" fill="#F02333"/>
</svg>
