<svg width="32" height="32" viewBox="0 0 32 32" fill="none" xmlns="http://www.w3.org/2000/svg">
  <path
    d="M3.5 7.77211V24.3239c0 .3516.28502.6366.63661.6366H27.8634c.3516 0 .6366-.285.6366-.6366V7.77211c0-.35159-.285-.63661-.6366-.63661H4.13661c-.35159 0-.63661.28502-.63661.63661Z"
    stroke="#0B6AB7" stroke-width="1.5" stroke-linecap="round" stroke-linejoin="round" class="svg__stroke--primary-blue-03"/>
  <path
    d="m16.8316 18.36.4898.5679-.4898-.5679ZM27.9748 7.758 16.3417 17.7921l.9797 1.1358L28.9545 8.89385 27.9748 7.758ZM15.6582 17.792 4.02901 7.75808 3.0491 8.89377 14.6782 18.9277l.98-1.1357Zm.6835.0001c-.1964.1694-.4872.1693-.6835-.0001l-.98 1.1357c.7593.6551 1.8839.6552 2.6432.0002l-.9797-1.1358Z"
    fill="#0B6AB7" class="svg__fill--primary-blue-03" />
</svg>