<svg width="32" height="32" viewBox="0 0 32 32" fill="none" xmlns="http://www.w3.org/2000/svg" class="svg__icon-virtual">
  <path
    d="M22 26.75H22.75V25.25H22V26.75ZM10 25.25H9.25V26.75H10V25.25ZM16.75 21.2C16.75 20.7857 16.4142 20.45 16 20.45C15.5858 20.45 15.25 20.7857 15.25 21.2H16.75ZM22 25.25H16V26.75H22V25.25ZM16 25.25H10V26.75H16V25.25ZM16.75 26V21.2H15.25V26H16.75Z"
    fill="#0B6AB7" class="svg__fill--primary-blue-03" />
  <path
    d="M26.5 20.5C26.5 20.7761 26.2761 21 26 21H16H6C5.72386 21 5.5 20.7761 5.5 20.5V7.5C5.5 7.22386 5.72386 7 6 7H16H26C26.2761 7 26.5 7.22386 26.5 7.5V20.5Z"
    stroke="#0B6AB7" stroke-width="1.5" stroke-linecap="round" stroke-linejoin="round" class="svg__stroke--primary-blue-03" />
  <g clip-path="url(#clip0_360_5783)">
    <mask id="path-3-inside-1_360_5783" fill="white">
      <path
        d="M16.0189 10.2388L18.6564 11.3502L19.7488 14.0334L18.6564 16.7166L16.0189 17.828L13.3814 16.7166L12.289 14.0334L13.3814 11.3502L16.0189 10.2388Z" />
    </mask>
    <path
      d="M16.0189 10.2388L18.6564 11.3502L19.7488 14.0334L18.6564 16.7166L16.0189 17.828L13.3814 16.7166L12.289 14.0334L13.3814 11.3502L16.0189 10.2388Z"
      stroke="#0AA5FF" stroke-width="2.5" mask="url(#path-3-inside-1_360_5783)" class="svg__stroke--default-cyan-03" />
  </g>
  <defs>
    <clipPath id="clip0_360_5783">
      <rect width="20.2381" height="20.2381" fill="white" transform="translate(5.9 4)" />
    </clipPath>
  </defs>
</svg>