<svg width="20" height="19" viewBox="0 0 20 19" fill="none" xmlns="http://www.w3.org/2000/svg">
<path d="M10 0C15.2469 0 19.5 4.25315 19.5 9.5C19.5 14.7469 15.2469 19 10 19C4.75315 19 0.5 14.7469 0.5 9.5C0.5 4.25315 4.75315 0 10 0ZM10 1.9C7.98435 1.9 6.05126 2.70071 4.62599 4.12599C3.20071 5.55126 2.4 7.48435 2.4 9.5C2.4 11.5156 3.20071 13.4487 4.62599 14.874C6.05126 16.2993 7.98435 17.1 10 17.1C12.0156 17.1 13.9487 16.2993 15.374 14.874C16.7993 13.4487 17.6 11.5156 17.6 9.5C17.6 7.48435 16.7993 5.55126 15.374 4.12599C13.9487 2.70071 12.0156 1.9 10 1.9ZM10 3.8C10.2327 3.80003 10.4573 3.88546 10.6312 4.04008C10.805 4.1947 10.9161 4.40776 10.9433 4.63885L10.95 4.75V9.1067L13.5216 11.6784C13.692 11.8493 13.7909 12.0787 13.7983 12.32C13.8057 12.5612 13.7209 12.7962 13.5613 12.9773C13.4017 13.1583 13.1791 13.2718 12.9388 13.2947C12.6986 13.3176 12.4586 13.2481 12.2676 13.1005L12.1784 13.0216L9.32835 10.1716C9.1807 10.0239 9.08587 9.83155 9.05855 9.62445L9.05 9.5V4.75C9.05 4.49804 9.15009 4.25641 9.32825 4.07825C9.50641 3.90009 9.74804 3.8 10 3.8Z" fill="#115DAF"/>
</svg>
