<svg width="32" height="32" viewBox="0 0 32 32" fill="none" xmlns="http://www.w3.org/2000/svg" class="svg__icon-ftva-social-letterboxd" role="img">
<title>Letterboxd</title>
<circle cx="16" cy="16" r="16" fill="#115DAF"/>
<path d="M12.224 18.796C11.8239 19.4363 11.2675 19.9643 10.6071 20.3303C9.94669 20.6963 9.20403 20.8882 8.449 20.888C5.992 20.888 4 18.898 4 16.444C4 13.99 5.992 12 8.45 12C10.042 12 11.438 12.836 12.224 14.092C11.797 14.774 11.551 15.58 11.551 16.444C11.551 17.308 11.797 18.114 12.224 18.796ZM19.101 16.444C19.101 15.58 19.348 14.774 19.775 14.092C18.989 12.836 17.592 12 16 12C14.408 12 13.011 12.836 12.225 14.092C12.652 14.774 12.899 15.58 12.899 16.444C12.899 17.308 12.652 18.114 12.225 18.796C13.011 20.052 14.408 20.888 16 20.888C17.592 20.888 18.989 20.052 19.775 18.796C19.3321 18.0916 19.0991 17.2761 19.101 16.444ZM23.551 12C22.796 11.9998 22.0533 12.1917 21.3929 12.5577C20.7325 12.9237 20.1761 13.4517 19.776 14.092C20.203 14.774 20.449 15.58 20.449 16.444C20.449 17.308 20.203 18.114 19.776 18.796C20.1761 19.4363 20.7325 19.9643 21.3929 20.3303C22.0533 20.6963 22.796 20.8882 23.551 20.888C26.008 20.888 28 18.898 28 16.444C28 13.99 26.008 12 23.55 12H23.551Z" fill="white"/>
</svg>
