<svg width="32" height="32" viewBox="0 0 32 32" fill="none" xmlns="http://www.w3.org/2000/svg" class="svg__icon-book">
  <path
    d="M23.8078 4.25c.4142 0 .75-.33579.75-.75s-.3358-.75-.75-.75v1.5ZM23.5 7.09722c.4142 0 .75-.33578.75-.75 0-.41421-.3358-.75-.75-.75v1.5Zm-14.0625-1.5c-.41421 0-.75.33579-.75.75 0 .41422.33579.75.75.75v-1.5ZM23.8078 2.75H8.84722v1.5H23.8078v-1.5ZM8.84722 9.94444H24.9744v-1.5H8.84722v1.5ZM25.25 10.2201V26h1.5V10.2201h-1.5ZM23.5 27.75h-15v1.5h15v-1.5ZM6.75 26V6.34722h-1.5V26h1.5Zm8.625-18.90278H23.5v-1.5h-8.125v1.5Zm-5.9375 0h5.9375v-1.5H9.4375v1.5ZM8.5 27.75c-.9665 0-1.75-.7835-1.75-1.75h-1.5c0 1.7949 1.45508 3.25 3.25 3.25v-1.5ZM25.25 26c0 .9665-.7835 1.75-1.75 1.75v1.5c1.7949 0 3.25-1.4551 3.25-3.25h-1.5Zm-.2756-16.05556c.1522 0 .2756.12346.2756.27566h1.5c0-.98067-.795-1.77566-1.7756-1.77566v1.5Zm-16.12718-1.5c-1.15826 0-2.09722-.93895-2.09722-2.09722h-1.5c0 1.98669 1.61053 3.59722 3.59722 3.59722v-1.5Zm0-5.69444C6.86053 2.75 5.25 4.36053 5.25 6.34722h1.5C6.75 5.18896 7.68896 4.25 8.84722 4.25v-1.5Z"
    fill="#0B6AB7" class="svg__fill--primary-blue-03"/>
  <path
    d="m13.2751 15.3298.3565-.5133c-.2144-.1489-.4986-.1489-.713 0l.3565.5133Zm-2.425-6.12985v-.625c-.3452 0-.625.27982-.625.625h.625Zm4.85 0h.625c0-.34518-.2798-.625-.625-.625v.625Zm-4.7548 7.74775-.3565-.5133.3565.5133Zm4.6596 0-.3565.5134.3565-.5134Zm.3565-.5133-2.3298-1.6179-.713 1.0267 2.3298 1.6179.713-1.0267Zm-3.0428-1.6179-2.3298 1.6179.713 1.0267 2.3298-1.6179-.713-1.0267Zm-1.4435 2.0814V9.19995h-1.25v7.69795h1.25Zm3.6-7.69795v7.69795h1.25V9.19995h-1.25Zm-4.225.625h4.85v-1.25h-4.85v1.25Zm-.2613 6.60945c.3742-.2599.8863.0079.8863.4635h-1.25c0 .5535.6221.8789 1.0767.5632l-.713-1.0267Zm4.6596 1.0267c.4546.3157 1.0767-.0097 1.0767-.5632h-1.25c0-.4556.512-.7234.8863-.4635l-.713 1.0267Z"
    fill="#0AA5FF" class="svg__fill--default-cyan-03" />
</svg>