<svg width="52" height="52" viewBox="0 0 52 52" fill="none" xmlns="http://www.w3.org/2000/svg" class="svg__icon-ftva-question">
<path d="M29 39.0001C29 39.5935 28.824 40.1735 28.4944 40.6668C28.1648 41.1602 27.6962 41.5447 27.148 41.7718C26.5999 41.9988 25.9967 42.0582 25.4147 41.9425C24.8328 41.8267 24.2982 41.541 23.8787 41.1214C23.4591 40.7019 23.1734 40.1673 23.0576 39.5854C22.9419 39.0034 23.0013 38.4003 23.2284 37.8521C23.4554 37.3039 23.8399 36.8354 24.3333 36.5057C24.8266 36.1761 25.4067 36.0001 26 36.0001C26.7956 36.0001 27.5587 36.3162 28.1213 36.8788C28.6839 37.4414 29 38.2045 29 39.0001ZM26 12.0001C20.485 12.0001 16 16.0376 16 21.0001V22.0001C16 22.5306 16.2107 23.0393 16.5858 23.4143C16.9609 23.7894 17.4696 24.0001 18 24.0001C18.5304 24.0001 19.0391 23.7894 19.4142 23.4143C19.7893 23.0393 20 22.5306 20 22.0001V21.0001C20 18.2501 22.6925 16.0001 26 16.0001C29.3075 16.0001 32 18.2501 32 21.0001C32 23.7501 29.3075 26.0001 26 26.0001C25.4696 26.0001 24.9609 26.2108 24.5858 26.5859C24.2107 26.961 24 27.4697 24 28.0001V30.0001C24 30.5306 24.2107 31.0393 24.5858 31.4143C24.9609 31.7894 25.4696 32.0001 26 32.0001C26.5304 32.0001 27.0391 31.7894 27.4142 31.4143C27.7893 31.0393 28 30.5306 28 30.0001V29.8201C32.56 28.9826 36 25.3451 36 21.0001C36 16.0376 31.515 12.0001 26 12.0001ZM52 26.0001C52 31.1424 50.4751 36.1693 47.6182 40.4449C44.7613 44.7206 40.7006 48.0531 35.9498 50.021C31.1989 51.9889 25.9712 52.5038 20.9276 51.5005C15.8841 50.4973 11.2514 48.0211 7.61522 44.3849C3.97905 40.7487 1.50279 36.116 0.499579 31.0725C-0.503637 26.029 0.0112501 20.8012 1.97913 16.0504C3.94701 11.2995 7.27949 7.23883 11.5552 4.38191C15.8308 1.525 20.8577 0.00012207 26 0.00012207C32.8934 0.00740162 39.5024 2.74902 44.3767 7.62339C49.2511 12.4978 51.9927 19.1067 52 26.0001ZM48 26.0001C48 21.6489 46.7097 17.3955 44.2923 13.7776C41.8749 10.1597 38.439 7.3399 34.419 5.67477C30.3991 4.00964 25.9756 3.57397 21.708 4.42285C17.4404 5.27172 13.5204 7.36702 10.4436 10.4438C7.36689 13.5205 5.2716 17.4406 4.42272 21.7081C3.57385 25.9757 4.00952 30.3992 5.67465 34.4192C7.33977 38.4391 10.1596 41.8751 13.7775 44.2925C17.3953 46.7098 21.6488 48.0001 26 48.0001C31.8327 47.9935 37.4247 45.6735 41.549 41.5492C45.6734 37.4248 47.9934 31.8329 48 26.0001Z" fill="#115DAF" class="svg__fill--accent-blue"/>
</svg>
