<svg width="35" height="35" viewBox="0 0 35 35" fill="none" xmlns="http://www.w3.org/2000/svg">
<path d="M21.1498 19.6918H20.3819L20.1098 19.4294C21.0952 18.2864 21.6369 16.8271 21.6358 15.3179C21.6358 14.0683 21.2653 12.8468 20.571 11.8079C19.8768 10.7689 18.8901 9.95911 17.7357 9.48092C16.5812 9.00274 15.3109 8.87762 14.0853 9.1214C12.8598 9.36518 11.734 9.9669 10.8505 10.8505C9.9669 11.734 9.36518 12.8598 9.1214 14.0853C8.87762 15.3109 9.00274 16.5812 9.48092 17.7357C9.95911 18.8901 10.7689 19.8768 11.8079 20.571C12.8468 21.2653 14.0683 21.6358 15.3179 21.6358C16.8828 21.6358 18.3213 21.0623 19.4294 20.1098L19.6918 20.3819V21.1498L24.5517 26L26 24.5517L21.1498 19.6918ZM15.3179 19.6918C12.8977 19.6918 10.944 17.7381 10.944 15.3179C10.944 12.8977 12.8977 10.944 15.3179 10.944C17.7381 10.944 19.6918 12.8977 19.6918 15.3179C19.6918 17.7381 17.7381 19.6918 15.3179 19.6918Z" fill="#132941"/>
</svg>
