<svg width="12" height="13" viewBox="0 0 12 13" fill="none" xmlns="http://www.w3.org/2000/svg" class="svg__icon-ftva-external-link-dark">
<path d="M11.3333 5.83333C11.1565 5.83333 10.987 5.90357 10.8619 6.0286C10.7369 6.15362 10.6667 6.32319 10.6667 6.5V10.5C10.6667 10.6768 10.5964 10.8464 10.4714 10.9714C10.3464 11.0964 10.1768 11.1667 10 11.1667H2C1.82319 11.1667 1.65362 11.0964 1.5286 10.9714C1.40357 10.8464 1.33333 10.6768 1.33333 10.5V2.5C1.33333 2.32319 1.40357 2.15362 1.5286 2.0286C1.65362 1.90357 1.82319 1.83333 2 1.83333H6C6.17681 1.83333 6.34638 1.7631 6.4714 1.63807C6.59643 1.51305 6.66667 1.34348 6.66667 1.16667C6.66667 0.989856 6.59643 0.820286 6.4714 0.695262C6.34638 0.570238 6.17681 0.5 6 0.5H2C1.46957 0.5 0.960859 0.710714 0.585787 1.08579C0.210714 1.46086 0 1.96957 0 2.5V10.5C0 11.0304 0.210714 11.5391 0.585787 11.9142C0.960859 12.2893 1.46957 12.5 2 12.5H10C10.5304 12.5 11.0391 12.2893 11.4142 11.9142C11.7893 11.5391 12 11.0304 12 10.5V6.5C12 6.32319 11.9298 6.15362 11.8047 6.0286C11.6797 5.90357 11.5101 5.83333 11.3333 5.83333Z" fill="#115DAF" class="svg__fill--accent-blue"/>
<path d="M8.66663 1.83333H9.71996L5.52663 6.02C5.46414 6.08198 5.41455 6.15571 5.3807 6.23695C5.34686 6.31819 5.32943 6.40533 5.32943 6.49333C5.32943 6.58134 5.34686 6.66848 5.3807 6.74972C5.41455 6.83096 5.46414 6.90469 5.52663 6.96667C5.5886 7.02915 5.66234 7.07875 5.74358 7.11259C5.82482 7.14644 5.91195 7.16387 5.99996 7.16387C6.08797 7.16387 6.17511 7.14644 6.25635 7.11259C6.33759 7.07875 6.41132 7.02915 6.4733 6.96667L10.6666 2.78V3.83333C10.6666 4.01014 10.7369 4.17971 10.8619 4.30474C10.9869 4.42976 11.1565 4.5 11.3333 4.5C11.5101 4.5 11.6797 4.42976 11.8047 4.30474C11.9297 4.17971 12 4.01014 12 3.83333V1.16667C12 0.989856 11.9297 0.820286 11.8047 0.695262C11.6797 0.570238 11.5101 0.5 11.3333 0.5H8.66663C8.48982 0.5 8.32025 0.570238 8.19522 0.695262C8.0702 0.820286 7.99996 0.989856 7.99996 1.16667C7.99996 1.34348 8.0702 1.51305 8.19522 1.63807C8.32025 1.7631 8.48982 1.83333 8.66663 1.83333Z" fill="#115DAF" class="svg__fill--accent-blue"/>
</svg>
