<svg width="32" height="32" viewBox="0 0 32 32" fill="none" xmlns="http://www.w3.org/2000/svg" class="svg__icon-message">
  <path
    d="M28.875 23.25v.4173c.2305 0 .4173-.1868.4173-.4173h-.4173ZM3 29h-.41734c0 .205.14891.3797.35134.4121.20243.0324.39843-.087.46246-.2818L3 29ZM3 6v-.41734c-.23049 0-.41734.18685-.41734.41734H3Zm25.875 0h.4173c0-.23049-.1868-.41734-.4173-.41734V6Zm0 17.25c0-.4173 0-.4173-.0002-.4173H9.26008v.8346H28.8748c.0002 0 .0002 0 .0002-.4173Zm-19.61492-.4173c-2.38675 0-4.0608 1.5718-5.10916 3.051-.52882.7461-.91412 1.4895-1.16707 2.0449-.12674.2783-.22093.5109-.28381.675-.03146.0822-.05512.1473-.07115.1925-.00801.0227-.01412.0403-.01834.0527-.0021.0062-.00374.011-.00491.0145a.253092.253092 0 0 1-.0014.0042c-.00018.0006-.00032.001-.00044.0014-.00006.0001-.00012.0003-.00015.0004-.00006.0002-.00011.0004.39635.1307s.39643.1305.3964.1305l-.00003.0001s.00003-.0001.00009-.0002a.041983.041983 0 0 1 .00067-.0021c.00069-.002.00183-.0054.00343-.0101.0032-.0094.00824-.024.01514-.0435.0138-.0389.03502-.0974.06379-.1725.05757-.1503.14521-.3669.26397-.6277.23805-.5227.59845-1.2168 1.08845-1.9082.98925-1.3958 2.44525-2.699 4.42817-2.699v-.8346ZM3.41734 29V6h-.83468v23h.83468ZM3 6.41734h25.875v-.83468H3v.83468ZM28.4577 6v17.25h.8346V6h-.8346Z"
    fill="#0B6AB7" class="svg__fill--primary-blue-03" />
  <path
    d="m21.5019 12.6851 1.5739.6632.6519 1.6012-.6519 1.6012-1.5739.6632-1.5739-.6632-.6519-1.6012.6519-1.6012 1.5739-.6632Z"
    fill="#0B6AB7" class="svg__fill--primary-blue-03" />
  <path
    d="m15.9373 12.6851 1.5739.6632.6519 1.6012-.6519 1.6012-1.5739.6632-1.5738-.6632-.652-1.6012.652-1.6012 1.5738-.6632Z"
    fill="#0B6AB7" class="svg__fill--primary-blue-03" />
  <path
    d="m10.3728 12.6851 1.5738.6632.652 1.6012-.652 1.6012-1.5738.6632-1.57392-.6632-.65192-1.6012.65192-1.6012 1.57392-.6632Z"
    fill="#0B6AB7" class="svg__fill--primary-blue-03" />
</svg>