<svg width="32" height="32" viewBox="0 0 32 32" fill="none" xmlns="http://www.w3.org/2000/svg">
  <path fill-rule="evenodd" clip-rule="evenodd"
    d="M8.43448 10.9832c-1.94692 1.8001-3.22546 3.8333-3.73727 4.728-.02717.0475-.02716.0913 0 .1387.51181.8948 1.79035 2.928 3.73727 4.7281 1.94802 1.8011 4.49512 3.3065 7.56572 3.3065 3.0705 0 5.6176-1.5054 7.5657-3.3065 1.9469-1.8001 3.2254-3.8333 3.7372-4.7281.0272-.0474.0272-.0912 0-.1387-.5118-.8947-1.7903-2.9279-3.7372-4.728-1.9481-1.80118-4.4952-3.30653-7.5657-3.30653-3.0706 0-5.6177 1.50535-7.56572 3.30653ZM7.29622 9.75207C9.41734 7.79093 12.3524 6 16.0002 6c3.6477 0 6.5828 1.79093 8.7039 3.75207 2.1223 1.96223 3.4999 4.15733 4.0544 5.12663.3222.5633.3222 1.2405 0 1.8038-.5545.9693-1.9321 3.1644-4.0544 5.1266-2.1211 1.9611-5.0562 3.752-8.7039 3.752-3.6478 0-6.58286-1.7909-8.70398-3.752-2.12225-1.9622-3.4999-4.1573-4.05438-5.1266-.32223-.5633-.32223-1.2405 0-1.8038.55448-.9693 1.93213-3.1644 4.05438-5.12663Zm8.70358 9.94063c2.1607 0 3.9122-1.7515 3.9122-3.9122s-1.7515-3.9122-3.9122-3.9122-3.9122 1.7515-3.9122 3.9122 1.7515 3.9122 3.9122 3.9122Zm5.5889-3.9122c0 3.0867-2.5022 5.5889-5.5889 5.5889-3.0867 0-5.5889-2.5022-5.5889-5.5889 0-3.0867 2.5022-5.5889 5.5889-5.5889 3.0867 0 5.5889 2.5022 5.5889 5.5889Z"
    fill="#0B6AB7" class="svg__fill--primary-blue-03"/>
</svg>