<svg width="32" height="32" viewBox="0 0 32 32" fill="none" xmlns="http://www.w3.org/2000/svg">
  <path d="M3.16389 22.9005H2.53889C2.53889 23.2075 2.76189 23.4691 3.06504 23.5176C3.3682 23.5662 3.66173 23.3874 3.75762 23.0957L3.16389 22.9005ZM3.16389 5V4.375C2.81871 4.375 2.53889 4.65482 2.53889 5H3.16389ZM23.3019 5H23.9269C23.9269 4.65482 23.6471 4.375 23.3019 4.375V5ZM22.6769 6.67817C22.6769 7.02335 22.9568 7.30317 23.3019 7.30317C23.6471 7.30317 23.9269 7.02335 23.9269 6.67817H22.6769ZM5.93913 19.8276C6.20927 19.6127 6.25407 19.2195 6.03919 18.9494C5.82431 18.6792 5.43113 18.6344 5.16099 18.8493L5.93913 19.8276ZM3.78889 22.9005V5H2.53889V22.9005H3.78889ZM3.16389 5.625H23.3019V4.375H3.16389V5.625ZM22.6769 5V6.67817H23.9269V5H22.6769ZM5.16099 18.8493C4.24499 19.5779 3.60012 20.5506 3.18949 21.3143C2.98194 21.7002 2.82891 22.0429 2.72721 22.2905C2.67627 22.4145 2.63798 22.5153 2.61196 22.5864C2.59895 22.622 2.58899 22.6502 2.58204 22.6703C2.57856 22.6803 2.57584 22.6883 2.57386 22.6942C2.57287 22.6971 2.57207 22.6995 2.57145 22.7014C2.57114 22.7023 2.57088 22.7031 2.57066 22.7037C2.57055 22.7041 2.57046 22.7044 2.57037 22.7046C2.57033 22.7048 2.57027 22.7049 2.57025 22.705C2.5702 22.7051 2.57015 22.7053 3.16389 22.9005C3.75762 23.0957 3.75758 23.0958 3.75754 23.096C3.75753 23.096 3.75749 23.0961 3.75747 23.0962C3.75743 23.0963 3.7574 23.0964 3.75738 23.0964C3.75735 23.0965 3.75736 23.0965 3.75741 23.0963C3.75752 23.096 3.7578 23.0952 3.75827 23.0938C3.75919 23.091 3.76083 23.0862 3.76318 23.0794C3.76789 23.0659 3.77545 23.0444 3.7859 23.0158C3.80683 22.9586 3.83926 22.8731 3.88349 22.7654C3.97211 22.5496 4.10711 22.2472 4.29043 21.9062C4.66155 21.2161 5.20976 20.4077 5.93913 19.8276L5.16099 18.8493Z" fill="#0AA5FF" class="svg__fill--default-cyan-03"/>
  <path d="M8.69806 22.525C8.69806 22.525 19.4167 22.525 23.964 22.525C27.3649 22.525 28.8361 27.0001 28.8361 27.0001V9.09961H8.69806V22.525Z" fill="white" class="svg__fill--white"/>
  <path d="M8.69806 22.525V23.275C8.28385 23.275 7.94806 22.9392 7.94806 22.525H8.69806ZM28.8361 27.0001H29.5861C29.5861 27.3685 29.3185 27.6824 28.9547 27.7407C28.5909 27.7989 28.2387 27.5843 28.1236 27.2343L28.8361 27.0001ZM28.8361 9.09961V8.34961C29.2503 8.34961 29.5861 8.6854 29.5861 9.09961H28.8361ZM8.69806 9.09961H7.94806C7.94806 8.6854 8.28385 8.34961 8.69806 8.34961V9.09961ZM8.69806 22.525C8.69806 21.775 8.6981 21.775 8.69819 21.775C8.69827 21.775 8.69839 21.775 8.69855 21.775C8.69872 21.775 8.69892 21.775 8.69917 21.775C8.69941 21.775 8.69969 21.775 8.70002 21.775C8.70034 21.775 8.70071 21.775 8.70111 21.775C8.70152 21.775 8.70197 21.775 8.70245 21.775C8.70294 21.775 8.70347 21.775 8.70403 21.775C8.7046 21.775 8.7052 21.775 8.70585 21.775C8.7065 21.775 8.70718 21.775 8.70791 21.775C8.70863 21.775 8.7094 21.775 8.71021 21.775C8.71101 21.775 8.71185 21.775 8.71274 21.775C8.71362 21.775 8.71455 21.775 8.71551 21.775C8.71647 21.775 8.71748 21.775 8.71852 21.775C8.71956 21.775 8.72064 21.775 8.72176 21.775C8.72288 21.775 8.72404 21.775 8.72524 21.775C8.72644 21.775 8.72767 21.775 8.72895 21.775C8.73023 21.775 8.73154 21.775 8.7329 21.775C8.73425 21.775 8.73564 21.775 8.73707 21.775C8.7385 21.775 8.73997 21.775 8.74148 21.775C8.74299 21.775 8.74454 21.775 8.74612 21.775C8.74771 21.775 8.74933 21.775 8.75099 21.775C8.75266 21.775 8.75436 21.775 8.75609 21.775C8.75783 21.775 8.75961 21.775 8.76142 21.775C8.76324 21.775 8.76509 21.775 8.76698 21.775C8.76887 21.775 8.7708 21.775 8.77276 21.775C8.77473 21.775 8.77673 21.775 8.77877 21.775C8.78082 21.775 8.78289 21.775 8.78501 21.775C8.78713 21.775 8.78928 21.775 8.79147 21.775C8.79366 21.775 8.79589 21.775 8.79816 21.775C8.80042 21.775 8.80272 21.775 8.80507 21.775C8.80741 21.775 8.80978 21.775 8.8122 21.775C8.81461 21.775 8.81706 21.775 8.81955 21.775C8.82204 21.775 8.82456 21.775 8.82712 21.775C8.82969 21.775 8.83228 21.775 8.83492 21.775C8.83755 21.775 8.84023 21.775 8.84293 21.775C8.84564 21.775 8.84839 21.775 8.85117 21.775C8.85395 21.775 8.85677 21.775 8.85962 21.775C8.86247 21.775 8.86536 21.775 8.86829 21.775C8.87121 21.775 8.87418 21.775 8.87717 21.775C8.88017 21.775 8.88321 21.775 8.88627 21.775C8.88935 21.775 8.89245 21.775 8.89559 21.775C8.89873 21.775 8.90191 21.775 8.90512 21.775C8.90833 21.775 8.91158 21.775 8.91487 21.775C8.91815 21.775 8.92147 21.775 8.92482 21.775C8.92818 21.775 8.93157 21.775 8.93499 21.775C8.93842 21.775 8.94188 21.775 8.94538 21.775C8.94887 21.775 8.9524 21.775 8.95597 21.775C8.95953 21.775 8.96313 21.775 8.96677 21.775C8.9704 21.775 8.97407 21.775 8.97778 21.775C8.98148 21.775 8.98522 21.775 8.989 21.775C8.99277 21.775 8.99658 21.775 9.00042 21.775C9.00427 21.775 9.00814 21.775 9.01206 21.775C9.01597 21.775 9.01991 21.775 9.0239 21.775C9.02788 21.775 9.03189 21.775 9.03594 21.775C9.03999 21.775 9.04407 21.775 9.04819 21.775C9.05231 21.775 9.05646 21.775 9.06064 21.775C9.06483 21.775 9.06905 21.775 9.0733 21.775C9.07755 21.775 9.08184 21.775 9.08616 21.775C9.09048 21.775 9.09483 21.775 9.09922 21.775C9.1036 21.775 9.10802 21.775 9.11248 21.775C9.11693 21.775 9.12142 21.775 9.12594 21.775C9.13046 21.775 9.13501 21.775 9.1396 21.775C9.14418 21.775 9.1488 21.775 9.15346 21.775C9.15811 21.775 9.16279 21.775 9.16751 21.775C9.17223 21.775 9.17698 21.775 9.18177 21.775C9.18655 21.775 9.19137 21.775 9.19621 21.775C9.20107 21.775 9.20595 21.775 9.21086 21.775C9.21577 21.775 9.22072 21.775 9.2257 21.775C9.23068 21.775 9.23569 21.775 9.24073 21.775C9.24578 21.775 9.25085 21.775 9.25596 21.775C9.26107 21.775 9.26621 21.775 9.27138 21.775C9.27655 21.775 9.28176 21.775 9.28699 21.775C9.29223 21.775 9.29749 21.775 9.30279 21.775C9.30809 21.775 9.31342 21.775 9.31878 21.775C9.32415 21.775 9.32954 21.775 9.33497 21.775C9.34039 21.775 9.34585 21.775 9.35134 21.775C9.35682 21.775 9.36234 21.775 9.3679 21.775C9.37345 21.775 9.37903 21.775 9.38464 21.775C9.39025 21.775 9.3959 21.775 9.40157 21.775C9.40725 21.775 9.41295 21.775 9.41869 21.775C9.42443 21.775 9.43019 21.775 9.43599 21.775C9.44179 21.775 9.44762 21.775 9.45348 21.775C9.45934 21.775 9.46523 21.775 9.47115 21.775C9.47707 21.775 9.48302 21.775 9.489 21.775C9.49499 21.775 9.501 21.775 9.50704 21.775C9.51308 21.775 9.51915 21.775 9.52526 21.775C9.53136 21.775 9.53749 21.775 9.54365 21.775C9.54981 21.775 9.55601 21.775 9.56223 21.775C9.56845 21.775 9.5747 21.775 9.58098 21.775C9.58726 21.775 9.59357 21.775 9.59991 21.775C9.60625 21.775 9.61263 21.775 9.61902 21.775C9.62543 21.775 9.63185 21.775 9.63831 21.775C9.64477 21.775 9.65126 21.775 9.65777 21.775C9.66429 21.775 9.67084 21.775 9.67741 21.775C9.68399 21.775 9.69059 21.775 9.69723 21.775C9.70386 21.775 9.71052 21.775 9.71721 21.775C9.7239 21.775 9.73062 21.775 9.73737 21.775C9.74412 21.775 9.75089 21.775 9.7577 21.775C9.76451 21.775 9.77134 21.775 9.7782 21.775C9.78506 21.775 9.79196 21.775 9.79888 21.775C9.8058 21.775 9.81274 21.775 9.81972 21.775C9.82669 21.775 9.8337 21.775 9.84073 21.775C9.84776 21.775 9.85482 21.775 9.86191 21.775C9.869 21.775 9.87611 21.775 9.88326 21.775C9.8904 21.775 9.89757 21.775 9.90477 21.775C9.91197 21.775 9.9192 21.775 9.92645 21.775C9.93371 21.775 9.94099 21.775 9.9483 21.775C9.95561 21.775 9.96294 21.775 9.97031 21.775C9.97767 21.775 9.98506 21.775 9.99248 21.775C9.9999 21.775 10.0073 21.775 10.0148 21.775C10.0223 21.775 10.0298 21.775 10.0373 21.775C10.0448 21.775 10.0524 21.775 10.06 21.775C10.0676 21.775 10.0752 21.775 10.0828 21.775C10.0904 21.775 10.0981 21.775 10.1058 21.775C10.1135 21.775 10.1212 21.775 10.1289 21.775C10.1367 21.775 10.1444 21.775 10.1522 21.775C10.16 21.775 10.1678 21.775 10.1757 21.775C10.1835 21.775 10.1914 21.775 10.1993 21.775C10.2072 21.775 10.2151 21.775 10.2231 21.775C10.231 21.775 10.239 21.775 10.247 21.775C10.255 21.775 10.263 21.775 10.2711 21.775C10.2791 21.775 10.2872 21.775 10.2953 21.775C10.3034 21.775 10.3115 21.775 10.3197 21.775C10.3278 21.775 10.336 21.775 10.3442 21.775C10.3524 21.775 10.3607 21.775 10.3689 21.775C10.3772 21.775 10.3855 21.775 10.3938 21.775C10.4021 21.775 10.4104 21.775 10.4188 21.775C10.4271 21.775 10.4355 21.775 10.4439 21.775C10.4523 21.775 10.4607 21.775 10.4692 21.775C10.4776 21.775 10.4861 21.775 10.4946 21.775C10.5031 21.775 10.5117 21.775 10.5202 21.775C10.5288 21.775 10.5374 21.775 10.546 21.775C10.5546 21.775 10.5632 21.775 10.5718 21.775C10.5805 21.775 10.5892 21.775 10.5979 21.775C10.6066 21.775 10.6153 21.775 10.624 21.775C10.6328 21.775 10.6415 21.775 10.6503 21.775C10.6591 21.775 10.6679 21.775 10.6768 21.775C10.6856 21.775 10.6945 21.775 10.7034 21.775C10.7123 21.775 10.7212 21.775 10.7301 21.775C10.7391 21.775 10.748 21.775 10.757 21.775C10.766 21.775 10.775 21.775 10.784 21.775C10.793 21.775 10.8021 21.775 10.8112 21.775C10.8202 21.775 10.8293 21.775 10.8385 21.775C10.8476 21.775 10.8567 21.775 10.8659 21.775C10.8751 21.775 10.8842 21.775 10.8935 21.775C10.9027 21.775 10.9119 21.775 10.9212 21.775C10.9304 21.775 10.9397 21.775 10.949 21.775C10.9583 21.775 10.9676 21.775 10.977 21.775C10.9863 21.775 10.9957 21.775 11.0051 21.775C11.0145 21.775 11.0239 21.775 11.0333 21.775C11.0428 21.775 11.0522 21.775 11.0617 21.775C11.0712 21.775 11.0807 21.775 11.0902 21.775C11.0997 21.775 11.1093 21.775 11.1188 21.775C11.1284 21.775 11.138 21.775 11.1476 21.775C11.1572 21.775 11.1668 21.775 11.1765 21.775C11.1861 21.775 11.1958 21.775 11.2055 21.775C11.2152 21.775 11.2249 21.775 11.2346 21.775C11.2444 21.775 11.2541 21.775 11.2639 21.775C11.2737 21.775 11.2835 21.775 11.2933 21.775C11.3031 21.775 11.313 21.775 11.3229 21.775C11.3327 21.775 11.3426 21.775 11.3525 21.775C11.3624 21.775 11.3723 21.775 11.3823 21.775C11.3922 21.775 11.4022 21.775 11.4122 21.775C11.4222 21.775 11.4322 21.775 11.4422 21.775C11.4522 21.775 11.4623 21.775 11.4723 21.775C11.4824 21.775 11.4925 21.775 11.5026 21.775C11.5127 21.775 11.5228 21.775 11.533 21.775C11.5431 21.775 11.5533 21.775 11.5635 21.775C11.5737 21.775 11.5839 21.775 11.5941 21.775C11.6043 21.775 11.6146 21.775 11.6248 21.775C11.6351 21.775 11.6454 21.775 11.6557 21.775C11.666 21.775 11.6763 21.775 11.6867 21.775C11.697 21.775 11.7074 21.775 11.7177 21.775C11.7281 21.775 11.7385 21.775 11.7489 21.775C11.7594 21.775 11.7698 21.775 11.7803 21.775C11.7907 21.775 11.8012 21.775 11.8117 21.775C11.8222 21.775 11.8327 21.775 11.8432 21.775C11.8538 21.775 11.8643 21.775 11.8749 21.775C11.8854 21.775 11.896 21.775 11.9066 21.775C11.9172 21.775 11.9279 21.775 11.9385 21.775C11.9492 21.775 11.9598 21.775 11.9705 21.775C11.9812 21.775 11.9919 21.775 12.0026 21.775C12.0133 21.775 12.024 21.775 12.0348 21.775C12.0455 21.775 12.0563 21.775 12.0671 21.775C12.0779 21.775 12.0887 21.775 12.0995 21.775C12.1103 21.775 12.1212 21.775 12.132 21.775C12.1429 21.775 12.1538 21.775 12.1646 21.775C12.1755 21.775 12.1864 21.775 12.1974 21.775C12.2083 21.775 12.2192 21.775 12.2302 21.775C12.2412 21.775 12.2521 21.775 12.2631 21.775C12.2741 21.775 12.2851 21.775 12.2962 21.775C12.3072 21.775 12.3182 21.775 12.3293 21.775C12.3404 21.775 12.3514 21.775 12.3625 21.775C12.3736 21.775 12.3848 21.775 12.3959 21.775C12.407 21.775 12.4182 21.775 12.4293 21.775C12.4405 21.775 12.4517 21.775 12.4629 21.775C12.474 21.775 12.4853 21.775 12.4965 21.775C12.5077 21.775 12.5189 21.775 12.5302 21.775C12.5415 21.775 12.5527 21.775 12.564 21.775C12.5753 21.775 12.5866 21.775 12.5979 21.775C12.6093 21.775 12.6206 21.775 12.632 21.775C12.6433 21.775 12.6547 21.775 12.6661 21.775C12.6775 21.775 12.6889 21.775 12.7003 21.775C12.7117 21.775 12.7231 21.775 12.7346 21.775C12.746 21.775 12.7575 21.775 12.7689 21.775C12.7804 21.775 12.7919 21.775 12.8034 21.775C12.8149 21.775 12.8264 21.775 12.838 21.775C12.8495 21.775 12.8611 21.775 12.8726 21.775C12.8842 21.775 12.8958 21.775 12.9074 21.775C12.919 21.775 12.9306 21.775 12.9422 21.775C12.9538 21.775 12.9655 21.775 12.9771 21.775C12.9888 21.775 13.0004 21.775 13.0121 21.775C13.0238 21.775 13.0355 21.775 13.0472 21.775C13.0589 21.775 13.0706 21.775 13.0824 21.775C13.0941 21.775 13.1058 21.775 13.1176 21.775C13.1294 21.775 13.1412 21.775 13.1529 21.775C13.1647 21.775 13.1765 21.775 13.1884 21.775C13.2002 21.775 13.212 21.775 13.2239 21.775C13.2357 21.775 13.2476 21.775 13.2594 21.775C13.2713 21.775 13.2832 21.775 13.2951 21.775C13.307 21.775 13.3189 21.775 13.3309 21.775C13.3428 21.775 13.3547 21.775 13.3667 21.775C13.3786 21.775 13.3906 21.775 13.4026 21.775C13.4145 21.775 13.4265 21.775 13.4385 21.775C13.4505 21.775 13.4626 21.775 13.4746 21.775C13.4866 21.775 13.4987 21.775 13.5107 21.775C13.5228 21.775 13.5348 21.775 13.5469 21.775C13.559 21.775 13.5711 21.775 13.5832 21.775C13.5953 21.775 13.6074 21.775 13.6195 21.775C13.6317 21.775 13.6438 21.775 13.656 21.775C13.6681 21.775 13.6803 21.775 13.6924 21.775C13.7046 21.775 13.7168 21.775 13.729 21.775C13.7412 21.775 13.7534 21.775 13.7656 21.775C13.7779 21.775 13.7901 21.775 13.8023 21.775C13.8146 21.775 13.8268 21.775 13.8391 21.775C13.8514 21.775 13.8637 21.775 13.8759 21.775C13.8882 21.775 13.9005 21.775 13.9129 21.775C13.9252 21.775 13.9375 21.775 13.9498 21.775C13.9622 21.775 13.9745 21.775 13.9869 21.775C13.9992 21.775 14.0116 21.775 14.024 21.775C14.0363 21.775 14.0487 21.775 14.0611 21.775C14.0735 21.775 14.0859 21.775 14.0984 21.775C14.1108 21.775 14.1232 21.775 14.1356 21.775C14.1481 21.775 14.1605 21.775 14.173 21.775C14.1855 21.775 14.1979 21.775 14.2104 21.775C14.2229 21.775 14.2354 21.775 14.2479 21.775C14.2604 21.775 14.2729 21.775 14.2854 21.775C14.2979 21.775 14.3105 21.775 14.323 21.775C14.3356 21.775 14.3481 21.775 14.3607 21.775C14.3732 21.775 14.3858 21.775 14.3984 21.775C14.411 21.775 14.4235 21.775 14.4361 21.775C14.4487 21.775 14.4614 21.775 14.474 21.775C14.4866 21.775 14.4992 21.775 14.5118 21.775C14.5245 21.775 14.5371 21.775 14.5498 21.775C14.5624 21.775 14.5751 21.775 14.5878 21.775C14.6004 21.775 14.6131 21.775 14.6258 21.775C14.6385 21.775 14.6512 21.775 14.6639 21.775C14.6766 21.775 14.6893 21.775 14.702 21.775C14.7148 21.775 14.7275 21.775 14.7402 21.775C14.753 21.775 14.7657 21.775 14.7785 21.775C14.7912 21.775 14.804 21.775 14.8168 21.775C14.8295 21.775 14.8423 21.775 14.8551 21.775C14.8679 21.775 14.8807 21.775 14.8935 21.775C14.9063 21.775 14.9191 21.775 14.9319 21.775C14.9447 21.775 14.9576 21.775 14.9704 21.775C14.9832 21.775 14.9961 21.775 15.0089 21.775C15.0218 21.775 15.0346 21.775 15.0475 21.775C15.0603 21.775 15.0732 21.775 15.0861 21.775C15.099 21.775 15.1119 21.775 15.1247 21.775C15.1376 21.775 15.1505 21.775 15.1634 21.775C15.1763 21.775 15.1893 21.775 15.2022 21.775C15.2151 21.775 15.228 21.775 15.241 21.775C15.2539 21.775 15.2668 21.775 15.2798 21.775C15.2927 21.775 15.3057 21.775 15.3186 21.775C15.3316 21.775 15.3446 21.775 15.3575 21.775C15.3705 21.775 15.3835 21.775 15.3965 21.775C15.4095 21.775 15.4224 21.775 15.4354 21.775C15.4484 21.775 15.4614 21.775 15.4744 21.775C15.4875 21.775 15.5005 21.775 15.5135 21.775C15.5265 21.775 15.5395 21.775 15.5526 21.775C15.5656 21.775 15.5786 21.775 15.5917 21.775C15.6047 21.775 15.6178 21.775 15.6308 21.775C15.6439 21.775 15.6569 21.775 15.67 21.775C15.6831 21.775 15.6961 21.775 15.7092 21.775C15.7223 21.775 15.7354 21.775 15.7484 21.775C15.7615 21.775 15.7746 21.775 15.7877 21.775C15.8008 21.775 15.8139 21.775 15.827 21.775C15.8401 21.775 15.8532 21.775 15.8663 21.775C15.8795 21.775 15.8926 21.775 15.9057 21.775C15.9188 21.775 15.932 21.775 15.9451 21.775C15.9582 21.775 15.9714 21.775 15.9845 21.775C15.9976 21.775 16.0108 21.775 16.0239 21.775C16.0371 21.775 16.0502 21.775 16.0634 21.775C16.0765 21.775 16.0897 21.775 16.1029 21.775C16.116 21.775 16.1292 21.775 16.1424 21.775C16.1556 21.775 16.1687 21.775 16.1819 21.775C16.1951 21.775 16.2083 21.775 16.2215 21.775C16.2347 21.775 16.2478 21.775 16.261 21.775C16.2742 21.775 16.2874 21.775 16.3006 21.775C16.3138 21.775 16.327 21.775 16.3402 21.775C16.3534 21.775 16.3667 21.775 16.3799 21.775C16.3931 21.775 16.4063 21.775 16.4195 21.775C16.4327 21.775 16.446 21.775 16.4592 21.775C16.4724 21.775 16.4856 21.775 16.4989 21.775C16.5121 21.775 16.5253 21.775 16.5386 21.775C16.5518 21.775 16.565 21.775 16.5783 21.775C16.5915 21.775 16.6048 21.775 16.618 21.775C16.6313 21.775 16.6445 21.775 16.6578 21.775C16.671 21.775 16.6843 21.775 16.6975 21.775C16.7108 21.775 16.724 21.775 16.7373 21.775C16.7505 21.775 16.7638 21.775 16.7771 21.775C16.7903 21.775 16.8036 21.775 16.8168 21.775C16.8301 21.775 16.8434 21.775 16.8566 21.775C16.8699 21.775 16.8832 21.775 16.8965 21.775C16.9097 21.775 16.923 21.775 16.9363 21.775C16.9495 21.775 16.9628 21.775 16.9761 21.775C16.9894 21.775 17.0026 21.775 17.0159 21.775C17.0292 21.775 17.0425 21.775 17.0558 21.775C17.069 21.775 17.0823 21.775 17.0956 21.775C17.1089 21.775 17.1222 21.775 17.1354 21.775C17.1487 21.775 17.162 21.775 17.1753 21.775C17.1886 21.775 17.2019 21.775 17.2151 21.775C17.2284 21.775 17.2417 21.775 17.255 21.775C17.2683 21.775 17.2816 21.775 17.2949 21.775C17.3081 21.775 17.3214 21.775 17.3347 21.775C17.348 21.775 17.3613 21.775 17.3746 21.775C17.3879 21.775 17.4011 21.775 17.4144 21.775C17.4277 21.775 17.441 21.775 17.4543 21.775C17.4676 21.775 17.4808 21.775 17.4941 21.775C17.5074 21.775 17.5207 21.775 17.534 21.775C17.5473 21.775 17.5605 21.775 17.5738 21.775C17.5871 21.775 17.6004 21.775 17.6137 21.775C17.6269 21.775 17.6402 21.775 17.6535 21.775C17.6668 21.775 17.6801 21.775 17.6933 21.775C17.7066 21.775 17.7199 21.775 17.7332 21.775C17.7464 21.775 17.7597 21.775 17.773 21.775C17.7862 21.775 17.7995 21.775 17.8128 21.775C17.826 21.775 17.8393 21.775 17.8526 21.775C17.8658 21.775 17.8791 21.775 17.8924 21.775C17.9056 21.775 17.9189 21.775 17.9321 21.775C17.9454 21.775 17.9586 21.775 17.9719 21.775C17.9851 21.775 17.9984 21.775 18.0116 21.775C18.0249 21.775 18.0381 21.775 18.0514 21.775C18.0646 21.775 18.0779 21.775 18.0911 21.775C18.1044 21.775 18.1176 21.775 18.1308 21.775C18.1441 21.775 18.1573 21.775 18.1705 21.775C18.1838 21.775 18.197 21.775 18.2102 21.775C18.2234 21.775 18.2367 21.775 18.2499 21.775C18.2631 21.775 18.2763 21.775 18.2895 21.775C18.3027 21.775 18.3159 21.775 18.3291 21.775C18.3424 21.775 18.3556 21.775 18.3688 21.775C18.382 21.775 18.3952 21.775 18.4083 21.775C18.4215 21.775 18.4347 21.775 18.4479 21.775C18.4611 21.775 18.4743 21.775 18.4875 21.775C18.5006 21.775 18.5138 21.775 18.527 21.775C18.5402 21.775 18.5533 21.775 18.5665 21.775C18.5797 21.775 18.5928 21.775 18.606 21.775C18.6191 21.775 18.6323 21.775 18.6454 21.775C18.6586 21.775 18.6717 21.775 18.6849 21.775C18.698 21.775 18.7111 21.775 18.7243 21.775C18.7374 21.775 18.7505 21.775 18.7636 21.775C18.7768 21.775 18.7899 21.775 18.803 21.775C18.8161 21.775 18.8292 21.775 18.8423 21.775C18.8554 21.775 18.8685 21.775 18.8816 21.775C18.8947 21.775 18.9078 21.775 18.9209 21.775C18.934 21.775 18.947 21.775 18.9601 21.775C18.9732 21.775 18.9863 21.775 18.9993 21.775C19.0124 21.775 19.0254 21.775 19.0385 21.775C19.0515 21.775 19.0646 21.775 19.0776 21.775C19.0907 21.775 19.1037 21.775 19.1167 21.775C19.1298 21.775 19.1428 21.775 19.1558 21.775C19.1688 21.775 19.1818 21.775 19.1948 21.775C19.2079 21.775 19.2209 21.775 19.2339 21.775C19.2468 21.775 19.2598 21.775 19.2728 21.775C19.2858 21.775 19.2988 21.775 19.3117 21.775C19.3247 21.775 19.3377 21.775 19.3506 21.775C19.3636 21.775 19.3765 21.775 19.3895 21.775C19.4024 21.775 19.4154 21.775 19.4283 21.775C19.4412 21.775 19.4542 21.775 19.4671 21.775C19.48 21.775 19.4929 21.775 19.5058 21.775C19.5187 21.775 19.5316 21.775 19.5445 21.775C19.5574 21.775 19.5703 21.775 19.5831 21.775C19.596 21.775 19.6089 21.775 19.6218 21.775C19.6346 21.775 19.6475 21.775 19.6603 21.775C19.6732 21.775 19.686 21.775 19.6988 21.775C19.7117 21.775 19.7245 21.775 19.7373 21.775C19.7501 21.775 19.7629 21.775 19.7757 21.775C19.7885 21.775 19.8013 21.775 19.8141 21.775C19.8269 21.775 19.8397 21.775 19.8524 21.775C19.8652 21.775 19.878 21.775 19.8907 21.775C19.9035 21.775 19.9162 21.775 19.929 21.775C19.9417 21.775 19.9544 21.775 19.9671 21.775C19.9799 21.775 19.9926 21.775 20.0053 21.775C20.018 21.775 20.0307 21.775 20.0433 21.775C20.056 21.775 20.0687 21.775 20.0814 21.775C20.094 21.775 20.1067 21.775 20.1194 21.775C20.132 21.775 20.1446 21.775 20.1573 21.775C20.1699 21.775 20.1825 21.775 20.1951 21.775C20.2078 21.775 20.2204 21.775 20.233 21.775C20.2456 21.775 20.2581 21.775 20.2707 21.775C20.2833 21.775 20.2959 21.775 20.3084 21.775C20.321 21.775 20.3335 21.775 20.3461 21.775C20.3586 21.775 20.3711 21.775 20.3836 21.775C20.3962 21.775 20.4087 21.775 20.4212 21.775C20.4337 21.775 20.4462 21.775 20.4586 21.775C20.4711 21.775 20.4836 21.775 20.496 21.775C20.5085 21.775 20.5209 21.775 20.5334 21.775C20.5458 21.775 20.5582 21.775 20.5707 21.775C20.5831 21.775 20.5955 21.775 20.6079 21.775C20.6203 21.775 20.6327 21.775 20.645 21.775C20.6574 21.775 20.6698 21.775 20.6821 21.775C20.6945 21.775 20.7068 21.775 20.7192 21.775C20.7315 21.775 20.7438 21.775 20.7561 21.775C20.7684 21.775 20.7807 21.775 20.793 21.775C20.8053 21.775 20.8176 21.775 20.8298 21.775C20.8421 21.775 20.8544 21.775 20.8666 21.775C20.8788 21.775 20.8911 21.775 20.9033 21.775C20.9155 21.775 20.9277 21.775 20.9399 21.775C20.9521 21.775 20.9643 21.775 20.9765 21.775C20.9886 21.775 21.0008 21.775 21.0129 21.775C21.0251 21.775 21.0372 21.775 21.0494 21.775C21.0615 21.775 21.0736 21.775 21.0857 21.775C21.0978 21.775 21.1099 21.775 21.122 21.775C21.134 21.775 21.1461 21.775 21.1581 21.775C21.1702 21.775 21.1822 21.775 21.1943 21.775C21.2063 21.775 21.2183 21.775 21.2303 21.775C21.2423 21.775 21.2543 21.775 21.2663 21.775C21.2782 21.775 21.2902 21.775 21.3021 21.775C21.3141 21.775 21.326 21.775 21.3379 21.775C21.3499 21.775 21.3618 21.775 21.3737 21.775C21.3856 21.775 21.3975 21.775 21.4093 21.775C21.4212 21.775 21.433 21.775 21.4449 21.775C21.4567 21.775 21.4686 21.775 21.4804 21.775C21.4922 21.775 21.504 21.775 21.5158 21.775C21.5276 21.775 21.5393 21.775 21.5511 21.775C21.5629 21.775 21.5746 21.775 21.5863 21.775C21.5981 21.775 21.6098 21.775 21.6215 21.775C21.6332 21.775 21.6449 21.775 21.6566 21.775C21.6683 21.775 21.6799 21.775 21.6916 21.775C21.7032 21.775 21.7148 21.775 21.7265 21.775C21.7381 21.775 21.7497 21.775 21.7613 21.775C21.7729 21.775 21.7844 21.775 21.796 21.775C21.8076 21.775 21.8191 21.775 21.8306 21.775C21.8422 21.775 21.8537 21.775 21.8652 21.775C21.8767 21.775 21.8882 21.775 21.8996 21.775C21.9111 21.775 21.9226 21.775 21.934 21.775C21.9455 21.775 21.9569 21.775 21.9683 21.775C21.9797 21.775 21.9911 21.775 22.0025 21.775C22.0139 21.775 22.0252 21.775 22.0366 21.775C22.0479 21.775 22.0593 21.775 22.0706 21.775C22.0819 21.775 22.0932 21.775 22.1045 21.775C22.1158 21.775 22.127 21.775 22.1383 21.775C22.1495 21.775 22.1608 21.775 22.172 21.775C22.1832 21.775 22.1944 21.775 22.2056 21.775C22.2168 21.775 22.228 21.775 22.2391 21.775C22.2503 21.775 22.2614 21.775 22.2725 21.775C22.2837 21.775 22.2948 21.775 22.3059 21.775C22.317 21.775 22.328 21.775 22.3391 21.775C22.3501 21.775 22.3612 21.775 22.3722 21.775C22.3832 21.775 22.3942 21.775 22.4052 21.775C22.4162 21.775 22.4272 21.775 22.4381 21.775C22.4491 21.775 22.46 21.775 22.471 21.775C22.4819 21.775 22.4928 21.775 22.5037 21.775C22.5146 21.775 22.5254 21.775 22.5363 21.775C22.5471 21.775 22.558 21.775 22.5688 21.775C22.5796 21.775 22.5904 21.775 22.6012 21.775C22.612 21.775 22.6227 21.775 22.6335 21.775C22.6442 21.775 22.6549 21.775 22.6656 21.775C22.6764 21.775 22.687 21.775 22.6977 21.775C22.7084 21.775 22.7191 21.775 22.7297 21.775C22.7403 21.775 22.7509 21.775 22.7615 21.775C22.7721 21.775 22.7827 21.775 22.7933 21.775C22.8039 21.775 22.8144 21.775 22.8249 21.775C22.8355 21.775 22.846 21.775 22.8564 21.775C22.8669 21.775 22.8774 21.775 22.8879 21.775C22.8983 21.775 22.9087 21.775 22.9192 21.775C22.9296 21.775 22.94 21.775 22.9503 21.775C22.9607 21.775 22.9711 21.775 22.9814 21.775C22.9917 21.775 23.0021 21.775 23.0124 21.775C23.0227 21.775 23.0329 21.775 23.0432 21.775C23.0535 21.775 23.0637 21.775 23.0739 21.775C23.0841 21.775 23.0943 21.775 23.1045 21.775C23.1147 21.775 23.1249 21.775 23.135 21.775C23.1451 21.775 23.1553 21.775 23.1654 21.775C23.1755 21.775 23.1855 21.775 23.1956 21.775C23.2057 21.775 23.2157 21.775 23.2257 21.775C23.2357 21.775 23.2457 21.775 23.2557 21.775C23.2657 21.775 23.2757 21.775 23.2856 21.775C23.2955 21.775 23.3055 21.775 23.3154 21.775C23.3253 21.775 23.3351 21.775 23.345 21.775C23.3548 21.775 23.3647 21.775 23.3745 21.775C23.3843 21.775 23.3941 21.775 23.4039 21.775C23.4137 21.775 23.4234 21.775 23.4331 21.775C23.4429 21.775 23.4526 21.775 23.4623 21.775C23.472 21.775 23.4816 21.775 23.4913 21.775C23.5009 21.775 23.5105 21.775 23.5201 21.775C23.5297 21.775 23.5393 21.775 23.5489 21.775C23.5584 21.775 23.568 21.775 23.5775 21.775C23.587 21.775 23.5965 21.775 23.606 21.775C23.6154 21.775 23.6249 21.775 23.6343 21.775C23.6438 21.775 23.6532 21.775 23.6625 21.775C23.6719 21.775 23.6813 21.775 23.6906 21.775C23.7 21.775 23.7093 21.775 23.7186 21.775C23.7279 21.775 23.7371 21.775 23.7464 21.775C23.7556 21.775 23.7649 21.775 23.7741 21.775C23.7833 21.775 23.7925 21.775 23.8016 21.775C23.8108 21.775 23.8199 21.775 23.829 21.775C23.8382 21.775 23.8472 21.775 23.8563 21.775C23.8654 21.775 23.8744 21.775 23.8834 21.775C23.8925 21.775 23.9015 21.775 23.9104 21.775C23.9194 21.775 23.9284 21.775 23.9373 21.775C23.9462 21.775 23.9551 21.775 23.964 21.775V23.275C23.9551 23.275 23.9462 23.275 23.9373 23.275C23.9284 23.275 23.9194 23.275 23.9104 23.275C23.9015 23.275 23.8925 23.275 23.8834 23.275C23.8744 23.275 23.8654 23.275 23.8563 23.275C23.8472 23.275 23.8382 23.275 23.829 23.275C23.8199 23.275 23.8108 23.275 23.8016 23.275C23.7925 23.275 23.7833 23.275 23.7741 23.275C23.7649 23.275 23.7556 23.275 23.7464 23.275C23.7371 23.275 23.7279 23.275 23.7186 23.275C23.7093 23.275 23.7 23.275 23.6906 23.275C23.6813 23.275 23.6719 23.275 23.6625 23.275C23.6532 23.275 23.6438 23.275 23.6343 23.275C23.6249 23.275 23.6154 23.275 23.606 23.275C23.5965 23.275 23.587 23.275 23.5775 23.275C23.568 23.275 23.5584 23.275 23.5489 23.275C23.5393 23.275 23.5297 23.275 23.5201 23.275C23.5105 23.275 23.5009 23.275 23.4913 23.275C23.4816 23.275 23.472 23.275 23.4623 23.275C23.4526 23.275 23.4429 23.275 23.4331 23.275C23.4234 23.275 23.4137 23.275 23.4039 23.275C23.3941 23.275 23.3843 23.275 23.3745 23.275C23.3647 23.275 23.3548 23.275 23.345 23.275C23.3351 23.275 23.3253 23.275 23.3154 23.275C23.3055 23.275 23.2955 23.275 23.2856 23.275C23.2757 23.275 23.2657 23.275 23.2557 23.275C23.2457 23.275 23.2357 23.275 23.2257 23.275C23.2157 23.275 23.2057 23.275 23.1956 23.275C23.1855 23.275 23.1755 23.275 23.1654 23.275C23.1553 23.275 23.1451 23.275 23.135 23.275C23.1249 23.275 23.1147 23.275 23.1045 23.275C23.0943 23.275 23.0841 23.275 23.0739 23.275C23.0637 23.275 23.0535 23.275 23.0432 23.275C23.0329 23.275 23.0227 23.275 23.0124 23.275C23.0021 23.275 22.9917 23.275 22.9814 23.275C22.9711 23.275 22.9607 23.275 22.9503 23.275C22.94 23.275 22.9296 23.275 22.9192 23.275C22.9087 23.275 22.8983 23.275 22.8879 23.275C22.8774 23.275 22.8669 23.275 22.8564 23.275C22.846 23.275 22.8355 23.275 22.8249 23.275C22.8144 23.275 22.8039 23.275 22.7933 23.275C22.7827 23.275 22.7721 23.275 22.7615 23.275C22.7509 23.275 22.7403 23.275 22.7297 23.275C22.7191 23.275 22.7084 23.275 22.6977 23.275C22.687 23.275 22.6764 23.275 22.6656 23.275C22.6549 23.275 22.6442 23.275 22.6335 23.275C22.6227 23.275 22.612 23.275 22.6012 23.275C22.5904 23.275 22.5796 23.275 22.5688 23.275C22.558 23.275 22.5471 23.275 22.5363 23.275C22.5254 23.275 22.5146 23.275 22.5037 23.275C22.4928 23.275 22.4819 23.275 22.471 23.275C22.46 23.275 22.4491 23.275 22.4381 23.275C22.4272 23.275 22.4162 23.275 22.4052 23.275C22.3942 23.275 22.3832 23.275 22.3722 23.275C22.3612 23.275 22.3501 23.275 22.3391 23.275C22.328 23.275 22.317 23.275 22.3059 23.275C22.2948 23.275 22.2837 23.275 22.2725 23.275C22.2614 23.275 22.2503 23.275 22.2391 23.275C22.228 23.275 22.2168 23.275 22.2056 23.275C22.1944 23.275 22.1832 23.275 22.172 23.275C22.1608 23.275 22.1495 23.275 22.1383 23.275C22.127 23.275 22.1158 23.275 22.1045 23.275C22.0932 23.275 22.0819 23.275 22.0706 23.275C22.0593 23.275 22.0479 23.275 22.0366 23.275C22.0252 23.275 22.0139 23.275 22.0025 23.275C21.9911 23.275 21.9797 23.275 21.9683 23.275C21.9569 23.275 21.9455 23.275 21.934 23.275C21.9226 23.275 21.9111 23.275 21.8996 23.275C21.8882 23.275 21.8767 23.275 21.8652 23.275C21.8537 23.275 21.8422 23.275 21.8306 23.275C21.8191 23.275 21.8076 23.275 21.796 23.275C21.7844 23.275 21.7729 23.275 21.7613 23.275C21.7497 23.275 21.7381 23.275 21.7265 23.275C21.7148 23.275 21.7032 23.275 21.6916 23.275C21.6799 23.275 21.6683 23.275 21.6566 23.275C21.6449 23.275 21.6332 23.275 21.6215 23.275C21.6098 23.275 21.5981 23.275 21.5863 23.275C21.5746 23.275 21.5629 23.275 21.5511 23.275C21.5393 23.275 21.5276 23.275 21.5158 23.275C21.504 23.275 21.4922 23.275 21.4804 23.275C21.4686 23.275 21.4567 23.275 21.4449 23.275C21.433 23.275 21.4212 23.275 21.4093 23.275C21.3975 23.275 21.3856 23.275 21.3737 23.275C21.3618 23.275 21.3499 23.275 21.3379 23.275C21.326 23.275 21.3141 23.275 21.3021 23.275C21.2902 23.275 21.2782 23.275 21.2663 23.275C21.2543 23.275 21.2423 23.275 21.2303 23.275C21.2183 23.275 21.2063 23.275 21.1943 23.275C21.1822 23.275 21.1702 23.275 21.1581 23.275C21.1461 23.275 21.134 23.275 21.122 23.275C21.1099 23.275 21.0978 23.275 21.0857 23.275C21.0736 23.275 21.0615 23.275 21.0494 23.275C21.0372 23.275 21.0251 23.275 21.0129 23.275C21.0008 23.275 20.9886 23.275 20.9765 23.275C20.9643 23.275 20.9521 23.275 20.9399 23.275C20.9277 23.275 20.9155 23.275 20.9033 23.275C20.8911 23.275 20.8788 23.275 20.8666 23.275C20.8544 23.275 20.8421 23.275 20.8298 23.275C20.8176 23.275 20.8053 23.275 20.793 23.275C20.7807 23.275 20.7684 23.275 20.7561 23.275C20.7438 23.275 20.7315 23.275 20.7192 23.275C20.7068 23.275 20.6945 23.275 20.6821 23.275C20.6698 23.275 20.6574 23.275 20.645 23.275C20.6327 23.275 20.6203 23.275 20.6079 23.275C20.5955 23.275 20.5831 23.275 20.5707 23.275C20.5582 23.275 20.5458 23.275 20.5334 23.275C20.5209 23.275 20.5085 23.275 20.496 23.275C20.4836 23.275 20.4711 23.275 20.4586 23.275C20.4462 23.275 20.4337 23.275 20.4212 23.275C20.4087 23.275 20.3962 23.275 20.3836 23.275C20.3711 23.275 20.3586 23.275 20.3461 23.275C20.3335 23.275 20.321 23.275 20.3084 23.275C20.2959 23.275 20.2833 23.275 20.2707 23.275C20.2581 23.275 20.2456 23.275 20.233 23.275C20.2204 23.275 20.2078 23.275 20.1951 23.275C20.1825 23.275 20.1699 23.275 20.1573 23.275C20.1446 23.275 20.132 23.275 20.1194 23.275C20.1067 23.275 20.094 23.275 20.0814 23.275C20.0687 23.275 20.056 23.275 20.0433 23.275C20.0307 23.275 20.018 23.275 20.0053 23.275C19.9926 23.275 19.9799 23.275 19.9671 23.275C19.9544 23.275 19.9417 23.275 19.929 23.275C19.9162 23.275 19.9035 23.275 19.8907 23.275C19.878 23.275 19.8652 23.275 19.8524 23.275C19.8397 23.275 19.8269 23.275 19.8141 23.275C19.8013 23.275 19.7885 23.275 19.7757 23.275C19.7629 23.275 19.7501 23.275 19.7373 23.275C19.7245 23.275 19.7117 23.275 19.6988 23.275C19.686 23.275 19.6732 23.275 19.6603 23.275C19.6475 23.275 19.6346 23.275 19.6218 23.275C19.6089 23.275 19.596 23.275 19.5831 23.275C19.5703 23.275 19.5574 23.275 19.5445 23.275C19.5316 23.275 19.5187 23.275 19.5058 23.275C19.4929 23.275 19.48 23.275 19.4671 23.275C19.4542 23.275 19.4412 23.275 19.4283 23.275C19.4154 23.275 19.4024 23.275 19.3895 23.275C19.3765 23.275 19.3636 23.275 19.3506 23.275C19.3377 23.275 19.3247 23.275 19.3117 23.275C19.2988 23.275 19.2858 23.275 19.2728 23.275C19.2598 23.275 19.2468 23.275 19.2339 23.275C19.2209 23.275 19.2079 23.275 19.1948 23.275C19.1818 23.275 19.1688 23.275 19.1558 23.275C19.1428 23.275 19.1298 23.275 19.1167 23.275C19.1037 23.275 19.0907 23.275 19.0776 23.275C19.0646 23.275 19.0515 23.275 19.0385 23.275C19.0254 23.275 19.0124 23.275 18.9993 23.275C18.9863 23.275 18.9732 23.275 18.9601 23.275C18.947 23.275 18.934 23.275 18.9209 23.275C18.9078 23.275 18.8947 23.275 18.8816 23.275C18.8685 23.275 18.8554 23.275 18.8423 23.275C18.8292 23.275 18.8161 23.275 18.803 23.275C18.7899 23.275 18.7768 23.275 18.7636 23.275C18.7505 23.275 18.7374 23.275 18.7243 23.275C18.7111 23.275 18.698 23.275 18.6849 23.275C18.6717 23.275 18.6586 23.275 18.6454 23.275C18.6323 23.275 18.6191 23.275 18.606 23.275C18.5928 23.275 18.5797 23.275 18.5665 23.275C18.5533 23.275 18.5402 23.275 18.527 23.275C18.5138 23.275 18.5006 23.275 18.4875 23.275C18.4743 23.275 18.4611 23.275 18.4479 23.275C18.4347 23.275 18.4215 23.275 18.4083 23.275C18.3952 23.275 18.382 23.275 18.3688 23.275C18.3556 23.275 18.3424 23.275 18.3291 23.275C18.3159 23.275 18.3027 23.275 18.2895 23.275C18.2763 23.275 18.2631 23.275 18.2499 23.275C18.2367 23.275 18.2234 23.275 18.2102 23.275C18.197 23.275 18.1838 23.275 18.1705 23.275C18.1573 23.275 18.1441 23.275 18.1308 23.275C18.1176 23.275 18.1044 23.275 18.0911 23.275C18.0779 23.275 18.0646 23.275 18.0514 23.275C18.0381 23.275 18.0249 23.275 18.0116 23.275C17.9984 23.275 17.9851 23.275 17.9719 23.275C17.9586 23.275 17.9454 23.275 17.9321 23.275C17.9189 23.275 17.9056 23.275 17.8924 23.275C17.8791 23.275 17.8658 23.275 17.8526 23.275C17.8393 23.275 17.826 23.275 17.8128 23.275C17.7995 23.275 17.7862 23.275 17.773 23.275C17.7597 23.275 17.7464 23.275 17.7332 23.275C17.7199 23.275 17.7066 23.275 17.6933 23.275C17.6801 23.275 17.6668 23.275 17.6535 23.275C17.6402 23.275 17.6269 23.275 17.6137 23.275C17.6004 23.275 17.5871 23.275 17.5738 23.275C17.5605 23.275 17.5473 23.275 17.534 23.275C17.5207 23.275 17.5074 23.275 17.4941 23.275C17.4808 23.275 17.4676 23.275 17.4543 23.275C17.441 23.275 17.4277 23.275 17.4144 23.275C17.4011 23.275 17.3879 23.275 17.3746 23.275C17.3613 23.275 17.348 23.275 17.3347 23.275C17.3214 23.275 17.3081 23.275 17.2949 23.275C17.2816 23.275 17.2683 23.275 17.255 23.275C17.2417 23.275 17.2284 23.275 17.2151 23.275C17.2019 23.275 17.1886 23.275 17.1753 23.275C17.162 23.275 17.1487 23.275 17.1354 23.275C17.1222 23.275 17.1089 23.275 17.0956 23.275C17.0823 23.275 17.069 23.275 17.0558 23.275C17.0425 23.275 17.0292 23.275 17.0159 23.275C17.0026 23.275 16.9894 23.275 16.9761 23.275C16.9628 23.275 16.9495 23.275 16.9363 23.275C16.923 23.275 16.9097 23.275 16.8965 23.275C16.8832 23.275 16.8699 23.275 16.8566 23.275C16.8434 23.275 16.8301 23.275 16.8168 23.275C16.8036 23.275 16.7903 23.275 16.7771 23.275C16.7638 23.275 16.7505 23.275 16.7373 23.275C16.724 23.275 16.7108 23.275 16.6975 23.275C16.6843 23.275 16.671 23.275 16.6578 23.275C16.6445 23.275 16.6313 23.275 16.618 23.275C16.6048 23.275 16.5915 23.275 16.5783 23.275C16.565 23.275 16.5518 23.275 16.5386 23.275C16.5253 23.275 16.5121 23.275 16.4989 23.275C16.4856 23.275 16.4724 23.275 16.4592 23.275C16.446 23.275 16.4327 23.275 16.4195 23.275C16.4063 23.275 16.3931 23.275 16.3799 23.275C16.3667 23.275 16.3534 23.275 16.3402 23.275C16.327 23.275 16.3138 23.275 16.3006 23.275C16.2874 23.275 16.2742 23.275 16.261 23.275C16.2478 23.275 16.2347 23.275 16.2215 23.275C16.2083 23.275 16.1951 23.275 16.1819 23.275C16.1687 23.275 16.1556 23.275 16.1424 23.275C16.1292 23.275 16.116 23.275 16.1029 23.275C16.0897 23.275 16.0765 23.275 16.0634 23.275C16.0502 23.275 16.0371 23.275 16.0239 23.275C16.0108 23.275 15.9976 23.275 15.9845 23.275C15.9714 23.275 15.9582 23.275 15.9451 23.275C15.932 23.275 15.9188 23.275 15.9057 23.275C15.8926 23.275 15.8795 23.275 15.8663 23.275C15.8532 23.275 15.8401 23.275 15.827 23.275C15.8139 23.275 15.8008 23.275 15.7877 23.275C15.7746 23.275 15.7615 23.275 15.7484 23.275C15.7354 23.275 15.7223 23.275 15.7092 23.275C15.6961 23.275 15.6831 23.275 15.67 23.275C15.6569 23.275 15.6439 23.275 15.6308 23.275C15.6178 23.275 15.6047 23.275 15.5917 23.275C15.5786 23.275 15.5656 23.275 15.5526 23.275C15.5395 23.275 15.5265 23.275 15.5135 23.275C15.5005 23.275 15.4875 23.275 15.4744 23.275C15.4614 23.275 15.4484 23.275 15.4354 23.275C15.4224 23.275 15.4095 23.275 15.3965 23.275C15.3835 23.275 15.3705 23.275 15.3575 23.275C15.3446 23.275 15.3316 23.275 15.3186 23.275C15.3057 23.275 15.2927 23.275 15.2798 23.275C15.2668 23.275 15.2539 23.275 15.241 23.275C15.228 23.275 15.2151 23.275 15.2022 23.275C15.1893 23.275 15.1763 23.275 15.1634 23.275C15.1505 23.275 15.1376 23.275 15.1247 23.275C15.1119 23.275 15.099 23.275 15.0861 23.275C15.0732 23.275 15.0603 23.275 15.0475 23.275C15.0346 23.275 15.0218 23.275 15.0089 23.275C14.9961 23.275 14.9832 23.275 14.9704 23.275C14.9576 23.275 14.9447 23.275 14.9319 23.275C14.9191 23.275 14.9063 23.275 14.8935 23.275C14.8807 23.275 14.8679 23.275 14.8551 23.275C14.8423 23.275 14.8295 23.275 14.8168 23.275C14.804 23.275 14.7912 23.275 14.7785 23.275C14.7657 23.275 14.753 23.275 14.7402 23.275C14.7275 23.275 14.7148 23.275 14.702 23.275C14.6893 23.275 14.6766 23.275 14.6639 23.275C14.6512 23.275 14.6385 23.275 14.6258 23.275C14.6131 23.275 14.6004 23.275 14.5878 23.275C14.5751 23.275 14.5624 23.275 14.5498 23.275C14.5371 23.275 14.5245 23.275 14.5118 23.275C14.4992 23.275 14.4866 23.275 14.474 23.275C14.4614 23.275 14.4487 23.275 14.4361 23.275C14.4235 23.275 14.411 23.275 14.3984 23.275C14.3858 23.275 14.3732 23.275 14.3607 23.275C14.3481 23.275 14.3356 23.275 14.323 23.275C14.3105 23.275 14.2979 23.275 14.2854 23.275C14.2729 23.275 14.2604 23.275 14.2479 23.275C14.2354 23.275 14.2229 23.275 14.2104 23.275C14.1979 23.275 14.1855 23.275 14.173 23.275C14.1605 23.275 14.1481 23.275 14.1356 23.275C14.1232 23.275 14.1108 23.275 14.0984 23.275C14.0859 23.275 14.0735 23.275 14.0611 23.275C14.0487 23.275 14.0363 23.275 14.024 23.275C14.0116 23.275 13.9992 23.275 13.9869 23.275C13.9745 23.275 13.9622 23.275 13.9498 23.275C13.9375 23.275 13.9252 23.275 13.9129 23.275C13.9005 23.275 13.8882 23.275 13.8759 23.275C13.8637 23.275 13.8514 23.275 13.8391 23.275C13.8268 23.275 13.8146 23.275 13.8023 23.275C13.7901 23.275 13.7779 23.275 13.7656 23.275C13.7534 23.275 13.7412 23.275 13.729 23.275C13.7168 23.275 13.7046 23.275 13.6924 23.275C13.6803 23.275 13.6681 23.275 13.656 23.275C13.6438 23.275 13.6317 23.275 13.6195 23.275C13.6074 23.275 13.5953 23.275 13.5832 23.275C13.5711 23.275 13.559 23.275 13.5469 23.275C13.5348 23.275 13.5228 23.275 13.5107 23.275C13.4987 23.275 13.4866 23.275 13.4746 23.275C13.4626 23.275 13.4505 23.275 13.4385 23.275C13.4265 23.275 13.4145 23.275 13.4026 23.275C13.3906 23.275 13.3786 23.275 13.3667 23.275C13.3547 23.275 13.3428 23.275 13.3309 23.275C13.3189 23.275 13.307 23.275 13.2951 23.275C13.2832 23.275 13.2713 23.275 13.2594 23.275C13.2476 23.275 13.2357 23.275 13.2239 23.275C13.212 23.275 13.2002 23.275 13.1884 23.275C13.1765 23.275 13.1647 23.275 13.1529 23.275C13.1412 23.275 13.1294 23.275 13.1176 23.275C13.1058 23.275 13.0941 23.275 13.0824 23.275C13.0706 23.275 13.0589 23.275 13.0472 23.275C13.0355 23.275 13.0238 23.275 13.0121 23.275C13.0004 23.275 12.9888 23.275 12.9771 23.275C12.9655 23.275 12.9538 23.275 12.9422 23.275C12.9306 23.275 12.919 23.275 12.9074 23.275C12.8958 23.275 12.8842 23.275 12.8726 23.275C12.8611 23.275 12.8495 23.275 12.838 23.275C12.8264 23.275 12.8149 23.275 12.8034 23.275C12.7919 23.275 12.7804 23.275 12.7689 23.275C12.7575 23.275 12.746 23.275 12.7346 23.275C12.7231 23.275 12.7117 23.275 12.7003 23.275C12.6889 23.275 12.6775 23.275 12.6661 23.275C12.6547 23.275 12.6433 23.275 12.632 23.275C12.6206 23.275 12.6093 23.275 12.5979 23.275C12.5866 23.275 12.5753 23.275 12.564 23.275C12.5527 23.275 12.5415 23.275 12.5302 23.275C12.5189 23.275 12.5077 23.275 12.4965 23.275C12.4853 23.275 12.474 23.275 12.4629 23.275C12.4517 23.275 12.4405 23.275 12.4293 23.275C12.4182 23.275 12.407 23.275 12.3959 23.275C12.3848 23.275 12.3736 23.275 12.3625 23.275C12.3514 23.275 12.3404 23.275 12.3293 23.275C12.3182 23.275 12.3072 23.275 12.2962 23.275C12.2851 23.275 12.2741 23.275 12.2631 23.275C12.2521 23.275 12.2412 23.275 12.2302 23.275C12.2192 23.275 12.2083 23.275 12.1974 23.275C12.1864 23.275 12.1755 23.275 12.1646 23.275C12.1538 23.275 12.1429 23.275 12.132 23.275C12.1212 23.275 12.1103 23.275 12.0995 23.275C12.0887 23.275 12.0779 23.275 12.0671 23.275C12.0563 23.275 12.0455 23.275 12.0348 23.275C12.024 23.275 12.0133 23.275 12.0026 23.275C11.9919 23.275 11.9812 23.275 11.9705 23.275C11.9598 23.275 11.9492 23.275 11.9385 23.275C11.9279 23.275 11.9172 23.275 11.9066 23.275C11.896 23.275 11.8854 23.275 11.8749 23.275C11.8643 23.275 11.8538 23.275 11.8432 23.275C11.8327 23.275 11.8222 23.275 11.8117 23.275C11.8012 23.275 11.7907 23.275 11.7803 23.275C11.7698 23.275 11.7594 23.275 11.7489 23.275C11.7385 23.275 11.7281 23.275 11.7177 23.275C11.7074 23.275 11.697 23.275 11.6867 23.275C11.6763 23.275 11.666 23.275 11.6557 23.275C11.6454 23.275 11.6351 23.275 11.6248 23.275C11.6146 23.275 11.6043 23.275 11.5941 23.275C11.5839 23.275 11.5737 23.275 11.5635 23.275C11.5533 23.275 11.5431 23.275 11.533 23.275C11.5228 23.275 11.5127 23.275 11.5026 23.275C11.4925 23.275 11.4824 23.275 11.4723 23.275C11.4623 23.275 11.4522 23.275 11.4422 23.275C11.4322 23.275 11.4222 23.275 11.4122 23.275C11.4022 23.275 11.3922 23.275 11.3823 23.275C11.3723 23.275 11.3624 23.275 11.3525 23.275C11.3426 23.275 11.3327 23.275 11.3229 23.275C11.313 23.275 11.3031 23.275 11.2933 23.275C11.2835 23.275 11.2737 23.275 11.2639 23.275C11.2541 23.275 11.2444 23.275 11.2346 23.275C11.2249 23.275 11.2152 23.275 11.2055 23.275C11.1958 23.275 11.1861 23.275 11.1765 23.275C11.1668 23.275 11.1572 23.275 11.1476 23.275C11.138 23.275 11.1284 23.275 11.1188 23.275C11.1093 23.275 11.0997 23.275 11.0902 23.275C11.0807 23.275 11.0712 23.275 11.0617 23.275C11.0522 23.275 11.0428 23.275 11.0333 23.275C11.0239 23.275 11.0145 23.275 11.0051 23.275C10.9957 23.275 10.9863 23.275 10.977 23.275C10.9676 23.275 10.9583 23.275 10.949 23.275C10.9397 23.275 10.9304 23.275 10.9212 23.275C10.9119 23.275 10.9027 23.275 10.8935 23.275C10.8842 23.275 10.8751 23.275 10.8659 23.275C10.8567 23.275 10.8476 23.275 10.8385 23.275C10.8293 23.275 10.8202 23.275 10.8112 23.275C10.8021 23.275 10.793 23.275 10.784 23.275C10.775 23.275 10.766 23.275 10.757 23.275C10.748 23.275 10.7391 23.275 10.7301 23.275C10.7212 23.275 10.7123 23.275 10.7034 23.275C10.6945 23.275 10.6856 23.275 10.6768 23.275C10.6679 23.275 10.6591 23.275 10.6503 23.275C10.6415 23.275 10.6328 23.275 10.624 23.275C10.6153 23.275 10.6066 23.275 10.5979 23.275C10.5892 23.275 10.5805 23.275 10.5718 23.275C10.5632 23.275 10.5546 23.275 10.546 23.275C10.5374 23.275 10.5288 23.275 10.5202 23.275C10.5117 23.275 10.5031 23.275 10.4946 23.275C10.4861 23.275 10.4776 23.275 10.4692 23.275C10.4607 23.275 10.4523 23.275 10.4439 23.275C10.4355 23.275 10.4271 23.275 10.4188 23.275C10.4104 23.275 10.4021 23.275 10.3938 23.275C10.3855 23.275 10.3772 23.275 10.3689 23.275C10.3607 23.275 10.3524 23.275 10.3442 23.275C10.336 23.275 10.3278 23.275 10.3197 23.275C10.3115 23.275 10.3034 23.275 10.2953 23.275C10.2872 23.275 10.2791 23.275 10.2711 23.275C10.263 23.275 10.255 23.275 10.247 23.275C10.239 23.275 10.231 23.275 10.2231 23.275C10.2151 23.275 10.2072 23.275 10.1993 23.275C10.1914 23.275 10.1835 23.275 10.1757 23.275C10.1678 23.275 10.16 23.275 10.1522 23.275C10.1444 23.275 10.1367 23.275 10.1289 23.275C10.1212 23.275 10.1135 23.275 10.1058 23.275C10.0981 23.275 10.0904 23.275 10.0828 23.275C10.0752 23.275 10.0676 23.275 10.06 23.275C10.0524 23.275 10.0448 23.275 10.0373 23.275C10.0298 23.275 10.0223 23.275 10.0148 23.275C10.0073 23.275 9.9999 23.275 9.99248 23.275C9.98506 23.275 9.97767 23.275 9.97031 23.275C9.96294 23.275 9.95561 23.275 9.9483 23.275C9.94099 23.275 9.93371 23.275 9.92645 23.275C9.9192 23.275 9.91197 23.275 9.90477 23.275C9.89757 23.275 9.8904 23.275 9.88326 23.275C9.87611 23.275 9.869 23.275 9.86191 23.275C9.85482 23.275 9.84776 23.275 9.84073 23.275C9.8337 23.275 9.82669 23.275 9.81972 23.275C9.81274 23.275 9.8058 23.275 9.79888 23.275C9.79196 23.275 9.78506 23.275 9.7782 23.275C9.77134 23.275 9.76451 23.275 9.7577 23.275C9.75089 23.275 9.74412 23.275 9.73737 23.275C9.73062 23.275 9.7239 23.275 9.71721 23.275C9.71052 23.275 9.70386 23.275 9.69723 23.275C9.69059 23.275 9.68399 23.275 9.67741 23.275C9.67084 23.275 9.66429 23.275 9.65777 23.275C9.65126 23.275 9.64477 23.275 9.63831 23.275C9.63185 23.275 9.62543 23.275 9.61902 23.275C9.61263 23.275 9.60625 23.275 9.59991 23.275C9.59357 23.275 9.58726 23.275 9.58098 23.275C9.5747 23.275 9.56845 23.275 9.56223 23.275C9.55601 23.275 9.54981 23.275 9.54365 23.275C9.53749 23.275 9.53136 23.275 9.52526 23.275C9.51915 23.275 9.51308 23.275 9.50704 23.275C9.501 23.275 9.49499 23.275 9.489 23.275C9.48302 23.275 9.47707 23.275 9.47115 23.275C9.46523 23.275 9.45934 23.275 9.45348 23.275C9.44762 23.275 9.44179 23.275 9.43599 23.275C9.43019 23.275 9.42443 23.275 9.41869 23.275C9.41295 23.275 9.40725 23.275 9.40157 23.275C9.3959 23.275 9.39025 23.275 9.38464 23.275C9.37903 23.275 9.37345 23.275 9.3679 23.275C9.36234 23.275 9.35682 23.275 9.35134 23.275C9.34585 23.275 9.34039 23.275 9.33497 23.275C9.32954 23.275 9.32415 23.275 9.31878 23.275C9.31342 23.275 9.30809 23.275 9.30279 23.275C9.29749 23.275 9.29223 23.275 9.28699 23.275C9.28176 23.275 9.27655 23.275 9.27138 23.275C9.26621 23.275 9.26107 23.275 9.25596 23.275C9.25085 23.275 9.24578 23.275 9.24073 23.275C9.23569 23.275 9.23068 23.275 9.2257 23.275C9.22072 23.275 9.21577 23.275 9.21086 23.275C9.20595 23.275 9.20107 23.275 9.19621 23.275C9.19137 23.275 9.18655 23.275 9.18177 23.275C9.17698 23.275 9.17223 23.275 9.16751 23.275C9.16279 23.275 9.15811 23.275 9.15346 23.275C9.1488 23.275 9.14418 23.275 9.1396 23.275C9.13501 23.275 9.13046 23.275 9.12594 23.275C9.12142 23.275 9.11693 23.275 9.11248 23.275C9.10802 23.275 9.1036 23.275 9.09922 23.275C9.09483 23.275 9.09048 23.275 9.08616 23.275C9.08184 23.275 9.07755 23.275 9.0733 23.275C9.06905 23.275 9.06483 23.275 9.06064 23.275C9.05646 23.275 9.05231 23.275 9.04819 23.275C9.04407 23.275 9.03999 23.275 9.03594 23.275C9.03189 23.275 9.02788 23.275 9.0239 23.275C9.01991 23.275 9.01597 23.275 9.01206 23.275C9.00814 23.275 9.00427 23.275 9.00042 23.275C8.99658 23.275 8.99277 23.275 8.989 23.275C8.98522 23.275 8.98148 23.275 8.97778 23.275C8.97407 23.275 8.9704 23.275 8.96677 23.275C8.96313 23.275 8.95953 23.275 8.95597 23.275C8.9524 23.275 8.94887 23.275 8.94538 23.275C8.94188 23.275 8.93842 23.275 8.93499 23.275C8.93157 23.275 8.92818 23.275 8.92482 23.275C8.92147 23.275 8.91815 23.275 8.91487 23.275C8.91158 23.275 8.90833 23.275 8.90512 23.275C8.90191 23.275 8.89873 23.275 8.89559 23.275C8.89245 23.275 8.88935 23.275 8.88627 23.275C8.88321 23.275 8.88017 23.275 8.87717 23.275C8.87418 23.275 8.87121 23.275 8.86829 23.275C8.86536 23.275 8.86247 23.275 8.85962 23.275C8.85677 23.275 8.85395 23.275 8.85117 23.275C8.84839 23.275 8.84564 23.275 8.84293 23.275C8.84023 23.275 8.83755 23.275 8.83492 23.275C8.83228 23.275 8.82969 23.275 8.82712 23.275C8.82456 23.275 8.82204 23.275 8.81955 23.275C8.81706 23.275 8.81461 23.275 8.8122 23.275C8.80978 23.275 8.80741 23.275 8.80507 23.275C8.80272 23.275 8.80042 23.275 8.79816 23.275C8.79589 23.275 8.79366 23.275 8.79147 23.275C8.78928 23.275 8.78713 23.275 8.78501 23.275C8.78289 23.275 8.78082 23.275 8.77877 23.275C8.77673 23.275 8.77473 23.275 8.77276 23.275C8.7708 23.275 8.76887 23.275 8.76698 23.275C8.76509 23.275 8.76324 23.275 8.76142 23.275C8.75961 23.275 8.75783 23.275 8.75609 23.275C8.75436 23.275 8.75266 23.275 8.75099 23.275C8.74933 23.275 8.74771 23.275 8.74612 23.275C8.74454 23.275 8.74299 23.275 8.74148 23.275C8.73997 23.275 8.7385 23.275 8.73707 23.275C8.73564 23.275 8.73425 23.275 8.7329 23.275C8.73154 23.275 8.73023 23.275 8.72895 23.275C8.72767 23.275 8.72644 23.275 8.72524 23.275C8.72404 23.275 8.72288 23.275 8.72176 23.275C8.72064 23.275 8.71956 23.275 8.71852 23.275C8.71748 23.275 8.71647 23.275 8.71551 23.275C8.71455 23.275 8.71362 23.275 8.71274 23.275C8.71185 23.275 8.71101 23.275 8.71021 23.275C8.7094 23.275 8.70863 23.275 8.70791 23.275C8.70718 23.275 8.7065 23.275 8.70585 23.275C8.7052 23.275 8.7046 23.275 8.70403 23.275C8.70347 23.275 8.70294 23.275 8.70245 23.275C8.70197 23.275 8.70152 23.275 8.70111 23.275C8.70071 23.275 8.70034 23.275 8.70002 23.275C8.69969 23.275 8.69941 23.275 8.69917 23.275C8.69892 23.275 8.69872 23.275 8.69855 23.275C8.69839 23.275 8.69827 23.275 8.69819 23.275C8.6981 23.275 8.69806 23.275 8.69806 22.525ZM23.964 21.775C26.0273 21.775 27.4412 23.1351 28.2873 24.3289C28.7186 24.9375 29.0312 25.5411 29.2356 25.99C29.3383 26.2155 29.415 26.4047 29.4666 26.5395C29.4925 26.607 29.5121 26.6611 29.5258 26.6995C29.5326 26.7187 29.5379 26.734 29.5417 26.7452C29.5436 26.7508 29.5451 26.7553 29.5462 26.7588C29.5468 26.7605 29.5473 26.7619 29.5477 26.7631C29.5479 26.7637 29.5481 26.7642 29.5482 26.7647C29.5483 26.7649 29.5484 26.7652 29.5484 26.7653C29.5485 26.7656 29.5486 26.7659 28.8361 27.0001C28.1236 27.2343 28.1237 27.2346 28.1238 27.2348C28.1238 27.2348 28.1239 27.235 28.1239 27.2351C28.1239 27.2353 28.124 27.2354 28.124 27.2354C28.124 27.2356 28.124 27.2354 28.1238 27.235C28.1236 27.2341 28.1229 27.2322 28.1219 27.2293C28.12 27.2236 28.1166 27.2137 28.1118 27.2002C28.1022 27.1731 28.0869 27.131 28.0659 27.0761C28.0238 26.9662 27.9589 26.8057 27.8705 26.6117C27.6929 26.2216 27.4251 25.7064 27.0635 25.1962C26.3237 24.1524 25.3016 23.275 23.964 23.275V21.775ZM28.0861 27.0001V9.09961H29.5861V27.0001H28.0861ZM28.8361 9.84961H8.69806V8.34961H28.8361V9.84961ZM9.44806 9.09961V22.525H7.94806V9.09961H9.44806Z" fill="#0B6AB7" class="svg__fill--primary-blue-03"/>
  <mask id="path-4-inside-1_360_5818" fill="white">
  <path d="M23.4475 14.083L22.1462 14.6314L21.6072 15.9552L22.1462 17.279L23.4475 17.8274L24.7488 17.279L25.2878 15.9552L24.7488 14.6314L23.4475 14.083Z"/>
  </mask>
  <path d="M23.4475 14.083L22.1462 14.6314L21.6072 15.9552L22.1462 17.279L23.4475 17.8274L24.7488 17.279L25.2878 15.9552L24.7488 14.6314L23.4475 14.083Z" fill="#0B6AB7" stroke="#0B6AB7" stroke-width="3" mask="url(#path-4-inside-1_360_5818)" class="svg__fill--primary-blue-03 svg__stroke--primary-blue-03"/>
  <mask id="path-5-inside-2_360_5818" fill="white">
  <path d="M18.767 14.083L17.4657 14.6314L16.9267 15.9552L17.4657 17.279L18.767 17.8274L20.0682 17.279L20.6072 15.9552L20.0682 14.6314L18.767 14.083Z"/>
  </mask>
  <path d="M18.767 14.083L17.4657 14.6314L16.9267 15.9552L17.4657 17.279L18.767 17.8274L20.0682 17.279L20.6072 15.9552L20.0682 14.6314L18.767 14.083Z" fill="#0B6AB7" stroke="#0B6AB7" stroke-width="3" mask="url(#path-5-inside-2_360_5818)" class="svg__fill--primary-blue-03 svg__stroke--primary-blue-03"/>
  <mask id="path-6-inside-3_360_5818" fill="white">
  <path d="M14.0864 14.083L12.7852 14.6314L12.2462 15.9552L12.7852 17.279L14.0864 17.8274L15.3877 17.279L15.9267 15.9552L15.3877 14.6314L14.0864 14.083Z"/>
  </mask>
  <path d="M14.0864 14.083L12.7852 14.6314L12.2462 15.9552L12.7852 17.279L14.0864 17.8274L15.3877 17.279L15.9267 15.9552L15.3877 14.6314L14.0864 14.083Z" fill="#0B6AB7" stroke="#0B6AB7" stroke-width="3" mask="url(#path-6-inside-3_360_5818)" class="svg__fill--primary-blue-03 svg__stroke--primary-blue-03"/>
  </svg>
  
  