<svg width="113" height="33" viewBox="0 0 113 33" fill="none" xmlns="http://www.w3.org/2000/svg" class="svg__icon-ftva-watch_online">
<rect x="0.5" y="0.5" width="112" height="32" rx="16" fill="#115DAF"/>
<rect x="0.5" y="0.5" width="112" height="32" rx="16" stroke="white"/>
<path d="M25.688 21H24.19L22.244 13.79L20.312 21H18.814L16.14 11.662H17.708L19.64 19.152L21.684 11.662H22.818L24.848 19.152L26.78 11.662H28.348L25.688 21ZM34.3755 21H33.1155V20.258C32.5835 20.846 31.8135 21.168 30.9035 21.168C29.7835 21.168 28.5515 20.412 28.5515 18.928C28.5515 17.388 29.7695 16.716 30.9035 16.716C31.8135 16.716 32.5975 17.01 33.1155 17.612V16.492C33.1155 15.652 32.4295 15.148 31.4635 15.148C30.6935 15.148 30.0355 15.442 29.4335 16.044L28.8875 15.176C29.6435 14.434 30.5675 14.07 31.6595 14.07C33.1295 14.07 34.3755 14.714 34.3755 16.436V21ZM33.1155 19.516V18.368C32.7375 17.864 32.0795 17.598 31.3795 17.598C30.4695 17.598 29.8255 18.144 29.8255 18.942C29.8255 19.74 30.4695 20.286 31.3795 20.286C32.0795 20.286 32.7375 20.02 33.1155 19.516ZM38.2567 21.168C37.1927 21.168 36.6467 20.566 36.6467 19.502V15.344H35.5267V14.238H36.6467V12.39H37.9067V14.238H39.2787V15.344H37.9067V19.222C37.9067 19.698 38.1307 20.048 38.5647 20.048C38.8587 20.048 39.1247 19.922 39.2507 19.782L39.5727 20.734C39.3067 20.986 38.9147 21.168 38.2567 21.168ZM40.254 17.612C40.254 15.582 41.654 14.07 43.698 14.07C44.972 14.07 45.742 14.602 46.232 15.26L45.392 16.03C44.986 15.456 44.44 15.19 43.754 15.19C42.424 15.19 41.57 16.212 41.57 17.612C41.57 19.012 42.424 20.048 43.754 20.048C44.44 20.048 44.986 19.768 45.392 19.208L46.232 19.978C45.742 20.636 44.972 21.168 43.698 21.168C41.654 21.168 40.254 19.642 40.254 17.612ZM53.4433 21H52.1833V16.646C52.1833 15.526 51.6093 15.19 50.7413 15.19C49.9573 15.19 49.2433 15.666 48.8793 16.17V21H47.6193V11.662H48.8793V15.19C49.3273 14.644 50.2373 14.07 51.2733 14.07C52.7153 14.07 53.4433 14.798 53.4433 16.226V21ZM62.0587 21.168C59.9587 21.168 58.6427 19.572 58.6427 17.612C58.6427 15.666 59.9587 14.07 62.0587 14.07C64.1727 14.07 65.4747 15.666 65.4747 17.612C65.4747 19.572 64.1727 21.168 62.0587 21.168ZM62.0587 20.048C63.4167 20.048 64.1587 18.9 64.1587 17.612C64.1587 16.338 63.4167 15.19 62.0587 15.19C60.7147 15.19 59.9587 16.338 59.9587 17.612C59.9587 18.9 60.7147 20.048 62.0587 20.048ZM72.8984 21H71.6384V16.674C71.6384 15.554 71.0644 15.19 70.1964 15.19C69.4124 15.19 68.6984 15.666 68.3344 16.17V21H67.0744V14.238H68.3344V15.19C68.7824 14.644 69.6784 14.07 70.7284 14.07C72.1564 14.07 72.8984 14.826 72.8984 16.254V21ZM76.1547 21H74.8947V11.662H76.1547V21ZM78.7783 13.104C78.3443 13.104 77.9663 12.754 77.9663 12.306C77.9663 11.858 78.3443 11.494 78.7783 11.494C79.2263 11.494 79.5903 11.858 79.5903 12.306C79.5903 12.754 79.2263 13.104 78.7783 13.104ZM79.4223 21H78.1623V14.238H79.4223V21ZM87.2539 21H85.9939V16.674C85.9939 15.554 85.4199 15.19 84.5519 15.19C83.7679 15.19 83.0539 15.666 82.6899 16.17V21H81.4299V14.238H82.6899V15.19C83.1379 14.644 84.0339 14.07 85.0839 14.07C86.5119 14.07 87.2539 14.826 87.2539 16.254V21ZM88.8302 17.612C88.8302 15.652 90.2442 14.07 92.2182 14.07C94.2482 14.07 95.5082 15.652 95.5082 17.724V18.032H90.1602C90.2582 19.18 91.0982 20.132 92.4562 20.132C93.1702 20.132 93.9542 19.852 94.4582 19.334L95.0462 20.16C94.3742 20.818 93.4222 21.168 92.3302 21.168C90.3142 21.168 88.8302 19.74 88.8302 17.612ZM92.2182 15.106C90.8602 15.106 90.2162 16.198 90.1462 17.122H94.2762C94.2482 16.226 93.6462 15.106 92.2182 15.106Z" fill="white"/>
</svg>
