<svg width="31" height="32" viewBox="0 0 31 32" fill="none" xmlns="http://www.w3.org/2000/svg" class="svg__icon-ftva-footer_ig" role="img">
<title>Instagram</title>
<rect y="0.625" width="31" height="31" rx="15.5" fill="#115DAF"/>
<path fill-rule="evenodd" clip-rule="evenodd" d="M15.5 9.125C13.5989 9.125 13.3605 9.13306 12.6139 9.16712C11.8688 9.20111 11.36 9.31945 10.9147 9.4925C10.4544 9.67136 10.0641 9.91072 9.67487 10.2999C9.28572 10.689 9.04636 11.0794 8.8675 11.5397C8.69445 11.985 8.57611 12.4938 8.54213 13.2389C8.50806 13.9855 8.5 14.2239 8.5 16.125C8.5 18.0261 8.50806 18.2645 8.54213 19.0111C8.57611 19.7562 8.69445 20.265 8.8675 20.7103C9.04636 21.1706 9.28572 21.561 9.67487 21.9501C10.0641 22.3393 10.4544 22.5786 10.9147 22.7575C11.36 22.9305 11.8688 23.0489 12.6139 23.0829C13.3605 23.1169 13.5989 23.125 15.5 23.125C17.4011 23.125 17.6395 23.1169 18.3861 23.0829C19.1312 23.0489 19.64 22.9305 20.0853 22.7575C20.5456 22.5786 20.9359 22.3393 21.3251 21.9501C21.7143 21.561 21.9536 21.1706 22.1325 20.7103C22.3055 20.265 22.4239 19.7562 22.4579 19.0111C22.4919 18.2645 22.5 18.0261 22.5 16.125C22.5 14.2239 22.4919 13.9855 22.4579 13.2389C22.4239 12.4938 22.3055 11.985 22.1325 11.5397C21.9536 11.0794 21.7143 10.689 21.3251 10.2999C20.9359 9.91072 20.5456 9.67136 20.0853 9.4925C19.64 9.31945 19.1312 9.20111 18.3861 9.16712C17.6395 9.13306 17.4011 9.125 15.5 9.125ZM15.5 10.3863C17.3691 10.3863 17.5905 10.3934 18.3286 10.4271C19.0111 10.4582 19.3817 10.5722 19.6284 10.6681C19.9551 10.7951 20.1883 10.9468 20.4333 11.1917C20.6782 11.4367 20.8299 11.6699 20.9569 11.9966C21.0528 12.2433 21.1668 12.6139 21.1979 13.2964C21.2316 14.0345 21.2387 14.2559 21.2387 16.125C21.2387 17.9941 21.2316 18.2155 21.1979 18.9536C21.1668 19.6361 21.0528 20.0067 20.9569 20.2534C20.8299 20.5801 20.6782 20.8133 20.4333 21.0583C20.1883 21.3032 19.9551 21.4549 19.6284 21.5819C19.3817 21.6778 19.0111 21.7918 18.3286 21.8229C17.5906 21.8566 17.3692 21.8637 15.5 21.8637C13.6308 21.8637 13.4094 21.8566 12.6714 21.8229C11.9889 21.7918 11.6183 21.6778 11.3716 21.5819C11.0449 21.4549 10.8117 21.3032 10.5667 21.0583C10.3218 20.8133 10.1701 20.5801 10.0431 20.2534C9.94723 20.0067 9.8332 19.6361 9.80208 18.9536C9.7684 18.2155 9.76126 17.9941 9.76126 16.125C9.76126 14.2559 9.7684 14.0345 9.80208 13.2964C9.8332 12.6139 9.94723 12.2433 10.0431 11.9966C10.1701 11.6699 10.3218 11.4367 10.5667 11.1917C10.8117 10.9468 11.0449 10.7951 11.3716 10.6681C11.6183 10.5722 11.9889 10.4582 12.6714 10.4271C13.4095 10.3934 13.6309 10.3863 15.5 10.3863ZM15.5 12.5304C13.5148 12.5304 11.9054 14.1397 11.9054 16.125C11.9054 18.1103 13.5148 19.7196 15.5 19.7196C17.4853 19.7196 19.0946 18.1103 19.0946 16.125C19.0946 14.1397 17.4853 12.5304 15.5 12.5304ZM15.5 18.4583C14.2113 18.4583 13.1667 17.4137 13.1667 16.125C13.1667 14.8363 14.2113 13.7917 15.5 13.7917C16.7887 13.7917 17.8333 14.8363 17.8333 16.125C17.8333 17.4137 16.7887 18.4583 15.5 18.4583ZM20.0766 12.3884C20.0766 12.8523 19.7005 13.2284 19.2366 13.2284C18.7727 13.2284 18.3966 12.8523 18.3966 12.3884C18.3966 11.9245 18.7727 11.5484 19.2366 11.5484C19.7005 11.5484 20.0766 11.9245 20.0766 12.3884Z" fill="white"/>
</svg>
