<svg width="32" height="32" viewBox="0 0 32 32" fill="none" xmlns="http://www.w3.org/2000/svg" class="svg__icon-headphones">
  <rect x="5.32309" y="16.5153" width="3.52948" height="11.1586" rx="0.485313" stroke="#0B6AB7"
    stroke-width="0.737184" class="svg__stroke--primary-blue-03"/>
  <rect x="-0.368592" y="0.368592" width="3.52932" height="11.1586" rx="0.485313"
    transform="matrix(-1 0 0 1 26.3011 16.1467)" stroke="#0B6AB7" stroke-width="0.737184" class="svg__stroke--primary-blue-03" />
  <path
    d="M28.876 23.6582V16.8797C28.876 9.76644 23.1096 4 15.9963 4V4C8.88305 4 3.11662 9.76644 3.11662 16.8797V23.6582"
    stroke="#0B6AB7" stroke-width="0.737184" class="svg__stroke--primary-blue-03" />
  <mask id="path-4-inside-1_360_5672" fill="white">
    <path
      d="M2.75 19.2885C2.75 18.4849 3.40145 17.8335 4.20505 17.8335V17.8335C5.00866 17.8335 5.66011 18.4849 5.66011 19.2886V25.8484C5.66011 25.8484 4.12913 25.983 3.47753 25.5531C2.94703 25.2031 2.77285 24.3294 2.75216 24.2155C2.75064 24.2072 2.75 24.199 2.75 24.1905V19.2885Z" />
  </mask>
  <path
    d="M5.66011 25.8484L5.72469 26.5827L6.39729 26.5236V25.8484H5.66011ZM3.47753 25.5531L3.07155 26.1684L3.47753 25.5531ZM2.75216 24.2155L3.47747 24.0837L2.75216 24.2155ZM4.92292 19.2886V25.8484H6.39729V19.2886H4.92292ZM3.48718 24.1905V19.2885H2.01282V24.1905H3.48718ZM5.66011 25.8484C5.59553 25.114 5.59563 25.114 5.59574 25.114C5.59576 25.114 5.59586 25.114 5.59591 25.114C5.59602 25.114 5.5961 25.114 5.59616 25.114C5.59628 25.114 5.59631 25.114 5.59625 25.114C5.59613 25.114 5.59566 25.114 5.59483 25.1141C5.59319 25.1142 5.59015 25.1145 5.58581 25.1148C5.57711 25.1155 5.56318 25.1165 5.54459 25.1177C5.50736 25.1202 5.45178 25.1234 5.38241 25.1261C5.24276 25.1314 5.05188 25.1344 4.84503 25.1255C4.63596 25.1164 4.42487 25.0958 4.2404 25.0582C4.04609 25.0187 3.93329 24.9706 3.88351 24.9378L3.07155 26.1684C3.34757 26.3505 3.67049 26.4469 3.94651 26.503C4.23235 26.5612 4.52619 26.5874 4.78131 26.5985C5.03866 26.6096 5.27124 26.6058 5.43901 26.5994C5.52335 26.5961 5.59247 26.5922 5.64151 26.5889C5.66606 26.5873 5.68566 26.5859 5.6997 26.5848C5.70673 26.5842 5.71237 26.5838 5.71656 26.5834C5.71865 26.5833 5.72038 26.5831 5.72174 26.583C5.72242 26.5829 5.723 26.5829 5.7235 26.5828C5.72374 26.5828 5.72396 26.5828 5.72416 26.5828C5.72426 26.5828 5.72439 26.5828 5.72444 26.5828C5.72457 26.5828 5.72469 26.5827 5.66011 25.8484ZM3.88351 24.9378C3.80561 24.8864 3.70044 24.7489 3.60651 24.518C3.52078 24.3073 3.48321 24.1153 3.47747 24.0837L2.02685 24.3473C2.04181 24.4296 2.10167 24.7315 2.24082 25.0736C2.37178 25.3955 2.61895 25.8698 3.07155 26.1684L3.88351 24.9378ZM2.01282 24.1905C2.01282 24.2371 2.01642 24.2899 2.02685 24.3473L3.47747 24.0837C3.48486 24.1244 3.48718 24.1608 3.48718 24.1905H2.01282ZM4.20505 18.5707C4.60152 18.5707 4.92292 18.8921 4.92292 19.2886H6.39729C6.39729 18.0778 5.41579 17.0963 4.20505 17.0963V18.5707ZM4.20505 17.0963C2.99431 17.0963 2.01282 18.0778 2.01282 19.2885H3.48718C3.48718 18.8921 3.80858 18.5707 4.20505 18.5707V17.0963Z"
    fill="#0B6AB7" mask="url(#path-4-inside-1_360_5672)" class="svg__fill--primary-blue-03" />
  <mask id="path-6-inside-2_360_5672" fill="white">
    <path
      d="M29.25 19.2885C29.25 18.4849 28.5986 17.8335 27.7949 17.8335V17.8335C26.9913 17.8335 26.3399 18.4849 26.3399 19.2885V25.8484C26.3399 25.8484 27.8709 25.983 28.5225 25.5531C29.053 25.2031 29.2271 24.3294 29.2478 24.2155C29.2494 24.2072 29.25 24.199 29.25 24.1905V19.2885Z" />
  </mask>
  <path
    d="M26.3399 25.8484L26.2753 26.5827L25.6027 26.5236V25.8484H26.3399ZM28.5225 25.5531L28.1165 24.9378L28.5225 25.5531ZM29.2478 24.2155L29.9731 24.3473L29.2478 24.2155ZM27.0771 19.2885V25.8484H25.6027V19.2885H27.0771ZM28.5128 24.1905V19.2885H29.9872V24.1905H28.5128ZM26.3399 25.8484C26.4045 25.114 26.4044 25.114 26.4043 25.114C26.4042 25.114 26.4041 25.114 26.4041 25.114C26.404 25.114 26.4039 25.114 26.4038 25.114C26.4037 25.114 26.4037 25.114 26.4038 25.114C26.4039 25.114 26.4043 25.114 26.4052 25.1141C26.4068 25.1142 26.4098 25.1145 26.4142 25.1148C26.4229 25.1155 26.4368 25.1165 26.4554 25.1177C26.4926 25.1202 26.5482 25.1234 26.6176 25.1261C26.7572 25.1314 26.9481 25.1344 27.155 25.1255C27.364 25.1164 27.5751 25.0958 27.7596 25.0582C27.9539 25.0187 28.0667 24.9706 28.1165 24.9378L28.9285 26.1684C28.6524 26.3505 28.3295 26.4469 28.0535 26.503C27.7676 26.5612 27.4738 26.5874 27.2187 26.5985C26.9613 26.6096 26.7288 26.6058 26.561 26.5994C26.4766 26.5961 26.4075 26.5922 26.3585 26.5889C26.3339 26.5873 26.3143 26.5859 26.3003 26.5848C26.2933 26.5842 26.2876 26.5838 26.2834 26.5834C26.2813 26.5833 26.2796 26.5831 26.2783 26.583C26.2776 26.5829 26.277 26.5829 26.2765 26.5828C26.2763 26.5828 26.276 26.5828 26.2758 26.5828C26.2757 26.5828 26.2756 26.5828 26.2756 26.5828C26.2754 26.5828 26.2753 26.5827 26.3399 25.8484ZM28.1165 24.9378C28.1944 24.8864 28.2996 24.7489 28.3935 24.518C28.4792 24.3073 28.5168 24.1153 28.5225 24.0837L29.9731 24.3473C29.9582 24.4296 29.8983 24.7315 29.7592 25.0736C29.6282 25.3955 29.3811 25.8698 28.9285 26.1684L28.1165 24.9378ZM29.9872 24.1905C29.9872 24.2371 29.9836 24.2899 29.9731 24.3473L28.5225 24.0837C28.5151 24.1244 28.5128 24.1608 28.5128 24.1905H29.9872ZM27.7949 18.5707C27.3985 18.5707 27.0771 18.8921 27.0771 19.2885H25.6027C25.6027 18.0778 26.5842 17.0963 27.7949 17.0963V18.5707ZM27.7949 17.0963C29.0057 17.0963 29.9872 18.0778 29.9872 19.2885H28.5128C28.5128 18.8921 28.1914 18.5707 27.7949 18.5707V17.0963Z"
    fill="#0B6AB7" mask="url(#path-6-inside-2_360_5672)" class="svg__fill--primary-blue-03" />
</svg>