<svg width="32" height="32" viewBox="0 0 32 32" fill="none" xmlns="http://www.w3.org/2000/svg">
<circle cx="16" cy="16" r="16" fill="#41648C"/>
<path d="M16.5961 19.6475C16.6898 19.7413 16.7424 19.8684 16.7424 20.0009C16.7424 20.1335 16.6898 20.2606 16.5961 20.3544L15.9749 20.9794C15.3179 21.6359 14.427 22.0046 13.4981 22.0044C12.5693 22.0041 11.6786 21.6348 11.0221 20.9778C10.3655 20.3208 9.99678 19.4299 9.99707 18.5011C9.99736 17.5722 10.3666 16.6816 11.0236 16.025L12.5311 14.5175C13.1622 13.8859 14.0107 13.5194 14.9031 13.4929C15.7955 13.4664 16.6643 13.782 17.3317 14.375C17.381 14.4187 17.4211 14.4716 17.4499 14.5308C17.4787 14.59 17.4956 14.6542 17.4995 14.7199C17.5035 14.7856 17.4944 14.8515 17.4729 14.9137C17.4514 14.9759 17.4179 15.0333 17.3742 15.0825C17.3306 15.1317 17.2776 15.1719 17.2185 15.2007C17.1593 15.2295 17.095 15.2463 17.0293 15.2503C16.9636 15.2542 16.8978 15.2452 16.8356 15.2237C16.7733 15.2022 16.716 15.1687 16.6667 15.125C16.1901 14.7017 15.5697 14.4765 14.9325 14.4954C14.2952 14.5143 13.6893 14.776 13.2386 15.2269L11.7311 16.7325C11.2622 17.2014 10.9987 17.8374 10.9987 18.5006C10.9987 19.1638 11.2622 19.7998 11.7311 20.2687C12.2 20.7377 12.8361 21.0011 13.4992 21.0011C14.1624 21.0011 14.7984 20.7377 15.2674 20.2687L15.8886 19.6475C15.935 19.601 15.9902 19.5641 16.0509 19.539C16.1116 19.5138 16.1767 19.5009 16.2424 19.5009C16.3081 19.5009 16.3731 19.5138 16.4338 19.539C16.4945 19.5641 16.5497 19.601 16.5961 19.6475ZM20.9761 11.0225C20.319 10.3669 19.4287 9.99869 18.5005 9.99869C17.5723 9.99869 16.6819 10.3669 16.0249 11.0225L15.4036 11.6444C15.3099 11.7382 15.2572 11.8654 15.2573 11.998C15.2574 12.1307 15.3101 12.2578 15.4039 12.3516C15.4977 12.4453 15.625 12.4979 15.7576 12.4979C15.8902 12.4978 16.0174 12.4451 16.1111 12.3512L16.7324 11.73C17.2013 11.2611 17.8373 10.9976 18.5005 10.9976C19.1637 10.9976 19.7997 11.2611 20.2686 11.73C20.7375 12.1989 21.001 12.8349 21.001 13.4981C21.001 14.1613 20.7375 14.7973 20.2686 15.2662L18.7611 16.775C18.3102 17.2256 17.7041 17.4869 17.0669 17.5055C16.4297 17.5241 15.8094 17.2986 15.333 16.875C15.2335 16.7868 15.1031 16.7417 14.9704 16.7497C14.8378 16.7577 14.7137 16.818 14.6255 16.9175C14.5373 17.017 14.4922 17.1474 14.5002 17.28C14.5082 17.4127 14.5685 17.5368 14.668 17.625C15.3352 18.2182 16.2039 18.5339 17.0963 18.5077C17.9888 18.4814 18.8374 18.1151 19.4686 17.4837L20.9761 15.9762C21.6321 15.3191 22.0005 14.4285 22.0005 13.5C22.0005 12.5715 21.6321 11.6809 20.9761 11.0237V11.0225Z" fill="white"/>
</svg>
