<svg width="32" height="32" viewBox="0 0 32 32" fill="none" xmlns="http://www.w3.org/2000/svg" class="svg__icon-ftva-social_vimeo" role="img">
<title>Vimeo</title>
<circle cx="16" cy="16" r="16" fill="#115DAF"/>
<path d="M7.1442 13.4173C6.91003 13.0731 6.93419 13.0731 7.41753 12.6489C8.44422 11.7472 9.41256 10.7606 10.5309 9.97221C11.5434 9.2622 12.8859 8.80386 13.8035 9.93304C14.6485 10.9739 14.6685 12.5514 14.8826 13.8081C15.0968 15.1115 15.3018 16.4448 15.7585 17.6915C15.8852 18.0423 16.1277 18.7057 16.5652 18.7615C17.1302 18.839 17.7052 17.8482 17.9677 17.4782C18.6485 16.4948 19.5719 15.1706 19.4552 13.9064C19.3402 12.5631 17.8902 12.8156 16.9835 13.1364C17.1293 11.6289 18.5319 9.93388 19.8836 9.36137C21.3169 8.76636 23.4469 8.77636 24.1669 10.3922C24.9353 12.1439 24.2444 14.1781 23.4069 15.7656C22.4936 17.489 21.3161 19.084 20.0586 20.574C18.9494 21.8974 17.6369 23.3491 15.9835 23.9816C14.0943 24.7016 12.9751 23.2982 12.3318 21.6732C11.6293 19.904 11.2801 17.9182 10.7734 16.0765C10.5601 15.2973 10.3067 14.4114 9.8009 13.7681C9.14089 12.9398 8.39088 13.7189 7.73921 14.1664C7.5142 13.9439 7.33003 13.6606 7.1442 13.4173Z" fill="white"/>
</svg>
