<svg width="40" height="40" viewBox="0 0 40 40" fill="none" xmlns="http://www.w3.org/2000/svg" class="svg__icon-gallery">
<rect width="40" height="40" fill="#032D5B"/>
<path d="M14.0003 16.4288H6V11H14.0003V16.4288ZM14.0003 17.7863H6V23.215L14.0003 23.2138V17.7863ZM14.0003 24.5712H6V30H14.0003V24.5712ZM23.9992 11H16.0008V16.4288H24.0011L23.9992 11ZM23.9992 17.785L16.0008 17.7862V23.215H24.0011L23.9992 17.785ZM23.9992 24.5699L16.0008 24.5712V30H24.0011L23.9992 24.5699ZM34 11H25.9997V16.4288H34V11ZM34 17.785L25.9997 17.7862V23.215H34V17.785ZM34 24.5699L25.9997 24.5712V30H34V24.5699Z" fill="white"/>
</svg>
