<svg width="43" height="55" viewBox="0 0 43 55" fill="none" xmlns="http://www.w3.org/2000/svg">
<rect width="43" height="54" rx="6" transform="matrix(-1 0 0 1 43 0.130859)" fill="#132941"/>
<path d="M27.4878 27.1309L15.6059 14.9201C15.5081 14.8217 15.4307 14.7049 15.3783 14.5764C15.326 14.4479 15.2996 14.3103 15.3007 14.1715C15.3019 14.0328 15.3306 13.8956 15.3851 13.768C15.4396 13.6404 15.5188 13.5249 15.6183 13.4281C15.7177 13.3314 15.8354 13.2553 15.9644 13.2043C16.0935 13.1533 16.2313 13.1284 16.3701 13.131C16.5088 13.1337 16.6456 13.1638 16.7726 13.2197C16.8997 13.2756 17.0143 13.3561 17.11 13.4565L29.7028 26.3991C29.8934 26.595 30 26.8575 30 27.1309C30 27.4042 29.8934 27.6667 29.7028 27.8626L17.11 40.8052C17.0143 40.9057 16.8997 40.9862 16.7726 41.042C16.6456 41.0979 16.5088 41.128 16.3701 41.1307C16.2313 41.1333 16.0935 41.1084 15.9644 41.0574C15.8354 41.0064 15.7177 40.9303 15.6183 40.8336C15.5188 40.7368 15.4396 40.6213 15.3851 40.4937C15.3306 40.3661 15.3019 40.2289 15.3007 40.0902C15.2996 39.9514 15.326 39.8138 15.3783 39.6853C15.4307 39.5568 15.5081 39.44 15.6059 39.3416L27.4878 27.1309Z" fill="#ABBFD6"/>
</svg>
