<svg width="31" height="31" viewBox="0 0 31 31" fill="none" xmlns="http://www.w3.org/2000/svg" class="svg__icon-ftva-social_link">
<rect y="3.8147e-06" width="31" height="31" rx="15.5" fill="#41648C"/>
<path d="M16.0971 19.1449C16.1908 19.2387 16.2434 19.3657 16.2434 19.4983C16.2434 19.6308 16.1908 19.7579 16.0971 19.8516L15.4761 20.4764C14.8193 21.1328 13.9286 21.5014 13 21.5011C12.0715 21.5008 11.1811 21.1317 10.5247 20.4749C9.8683 19.8181 9.49971 18.9274 9.5 17.9988C9.50029 17.0703 9.86944 16.1799 10.5262 15.5235L12.0333 14.0164C12.6642 13.385 13.5125 13.0186 14.4046 12.9921C15.2968 12.9657 16.1653 13.2811 16.8325 13.874C16.8818 13.9176 16.9219 13.9705 16.9507 14.0297C16.9795 14.0889 16.9963 14.1531 17.0003 14.2188C17.0042 14.2845 16.9952 14.3503 16.9737 14.4125C16.9522 14.4747 16.9187 14.532 16.875 14.5812C16.8314 14.6305 16.7785 14.6706 16.7193 14.6994C16.6601 14.7282 16.5959 14.745 16.5302 14.749C16.4645 14.7529 16.3987 14.7439 16.3365 14.7224C16.2743 14.7009 16.217 14.6674 16.1677 14.6237C15.6912 14.2005 15.071 13.9754 14.434 13.9943C13.7969 14.0133 13.1912 14.2748 12.7406 14.7256L11.2335 16.2308C10.7647 16.6996 10.5014 17.3354 10.5014 17.9984C10.5014 18.6614 10.7647 19.2972 11.2335 19.766C11.7023 20.2348 12.3382 20.4982 13.0012 20.4982C13.6641 20.4982 14.3 20.2348 14.7688 19.766L15.3898 19.1449C15.4363 19.0984 15.4914 19.0616 15.5521 19.0364C15.6128 19.0113 15.6778 18.9983 15.7435 18.9983C15.8092 18.9983 15.8742 19.0113 15.9349 19.0364C15.9956 19.0616 16.0507 19.0984 16.0971 19.1449ZM20.4759 10.5224C19.819 9.867 18.9289 9.49891 18.001 9.49891C17.073 9.49891 16.1829 9.867 15.526 10.5224L14.905 11.1441C14.8113 11.2379 14.7587 11.3651 14.7587 11.4977C14.7588 11.6303 14.8115 11.7574 14.9053 11.8511C14.9991 11.9448 15.1263 11.9974 15.2588 11.9974C15.3914 11.9973 15.5186 11.9446 15.6123 11.8508L16.2333 11.2297C16.7021 10.7609 17.338 10.4975 18.001 10.4975C18.6639 10.4975 19.2998 10.7609 19.7686 11.2297C20.2374 11.6985 20.5007 12.3343 20.5007 12.9973C20.5007 13.6603 20.2374 14.2961 19.7686 14.7649L18.2615 16.2733C17.8107 16.7237 17.2048 16.985 16.5678 17.0036C15.9307 17.0221 15.3107 16.7967 14.8344 16.3732C14.7349 16.2851 14.6046 16.24 14.4719 16.248C14.3393 16.256 14.2152 16.3163 14.1271 16.4157C14.0389 16.5151 13.9939 16.6455 14.0018 16.7782C14.0098 16.9108 14.0701 17.0349 14.1696 17.123C14.8366 17.716 15.7051 18.0317 16.5972 18.0054C17.4894 17.9792 18.3378 17.613 18.9688 16.9818L20.4759 15.4747C21.1317 14.8178 21.5 13.9275 21.5 12.9992C21.5 12.0709 21.1317 11.1806 20.4759 10.5237V10.5224Z" fill="white"/>
</svg>
