<svg width="32" height="32" viewBox="0 0 32 32" fill="none" xmlns="http://www.w3.org/2000/svg" class="svg__icon-headphones">
<rect x="5.37447" y="16.5667" width="3.42667" height="11.0558" rx="0.433905" stroke="#0B6AB7" stroke-width="0.84" class="svg__stroke--primary-blue-03"/>
<rect x="-0.42" y="0.42" width="3.42651" height="11.0558" rx="0.433905" transform="matrix(-1 0 0 1 26.1983 16.1467)" stroke="#0B6AB7" stroke-width="0.84" class="svg__stroke--primary-blue-03"/>
<path d="M28.876 23.6582V16.8797C28.876 9.76644 23.1095 4 15.9963 4V4C8.88301 4 3.11658 9.76644 3.11658 16.8797V23.6582" stroke="#0B6AB7" stroke-width="0.84" class="svg__stroke--primary-blue-03"/>
<mask id="path-4-inside-1_360_5672" fill="white">
<path d="M2.75 19.2885C2.75 18.4849 3.40145 17.8335 4.20505 17.8335V17.8335C5.00866 17.8335 5.66011 18.4849 5.66011 19.2886V25.8484C5.66011 25.8484 4.12913 25.983 3.47753 25.5531C2.94703 25.2031 2.77285 24.3294 2.75216 24.2155C2.75064 24.2072 2.75 24.199 2.75 24.1905V19.2885Z"/>
</mask>
<path d="M5.66011 25.8484L5.73369 26.6852L6.50011 26.6178V25.8484H5.66011ZM3.47753 25.5531L3.01492 26.2542L3.47753 25.5531ZM2.75216 24.2155L3.57863 24.0654L3.57863 24.0654L2.75216 24.2155ZM4.82011 19.2886V25.8484H6.50011V19.2886H4.82011ZM3.59 24.1905V19.2885H1.91V24.1905H3.59ZM5.66011 25.8484C5.58652 25.0116 5.58664 25.0116 5.58676 25.0116C5.58679 25.0116 5.5869 25.0116 5.58697 25.0116C5.58709 25.0116 5.5872 25.0116 5.58728 25.0116C5.58744 25.0115 5.58751 25.0115 5.5875 25.0115C5.58747 25.0115 5.58708 25.0116 5.58634 25.0116C5.58487 25.0118 5.58202 25.012 5.57786 25.0123C5.56954 25.013 5.556 25.014 5.53783 25.0152C5.50143 25.0176 5.44679 25.0207 5.37847 25.0233C5.24077 25.0286 5.0528 25.0316 4.84947 25.0228C4.64362 25.0138 4.4383 24.9936 4.26089 24.9575C4.07228 24.9191 3.97413 24.8744 3.94013 24.852L3.01492 26.2542C3.30673 26.4468 3.6443 26.5465 3.92601 26.6038C4.21893 26.6633 4.51853 26.69 4.77687 26.7012C5.03774 26.7125 5.27323 26.7086 5.44296 26.7021C5.52834 26.6988 5.5984 26.6948 5.64827 26.6915C5.67323 26.6899 5.69323 26.6884 5.70764 26.6873C5.71486 26.6867 5.72068 26.6863 5.72505 26.6859C5.72723 26.6857 5.72905 26.6856 5.73049 26.6854C5.73121 26.6854 5.73184 26.6853 5.73238 26.6853C5.73264 26.6853 5.73289 26.6852 5.73311 26.6852C5.73322 26.6852 5.73336 26.6852 5.73342 26.6852C5.73356 26.6852 5.73369 26.6852 5.66011 25.8484ZM3.94013 24.852C3.88836 24.8178 3.7931 24.7038 3.70175 24.4792C3.61975 24.2777 3.58372 24.0934 3.57863 24.0654L1.92569 24.3657C1.94129 24.4515 2.0027 24.7611 2.14559 25.1123C2.27912 25.4406 2.5362 25.9384 3.01492 26.2542L3.94013 24.852ZM1.91 24.1905C1.91 24.2425 1.91402 24.3015 1.92569 24.3657L3.57863 24.0654C3.58726 24.1129 3.59 24.1555 3.59 24.1905H1.91ZM4.20505 18.6735C4.54474 18.6735 4.82011 18.9489 4.82011 19.2886H6.50011C6.50011 18.021 5.47258 16.9935 4.20505 16.9935V18.6735ZM4.20505 16.9935C2.93753 16.9935 1.91 18.021 1.91 19.2885H3.59C3.59 18.9489 3.86537 18.6735 4.20505 18.6735V16.9935Z" fill="#0B6AB7" mask="url(#path-4-inside-1_360_5672)" class="svg__fill--primary-blue-03"/>
<mask id="path-6-inside-2_360_5672" fill="white" class="svg__fill--white">
<path d="M29.25 19.2885C29.25 18.4849 28.5986 17.8335 27.7949 17.8335V17.8335C26.9913 17.8335 26.3399 18.4849 26.3399 19.2885V25.8484C26.3399 25.8484 27.8709 25.983 28.5225 25.5531C29.053 25.2031 29.2271 24.3294 29.2478 24.2155C29.2494 24.2072 29.25 24.199 29.25 24.1905V19.2885Z"/>
</mask>
<path d="M26.3399 25.8484L26.2663 26.6852L25.4999 26.6178V25.8484H26.3399ZM28.5225 25.5531L28.0599 24.852L28.0599 24.852L28.5225 25.5531ZM29.2478 24.2155L30.0743 24.3657L30.0743 24.3657L29.2478 24.2155ZM27.1799 19.2885V25.8484H25.4999V19.2885H27.1799ZM28.41 24.1905V19.2885H30.09V24.1905H28.41ZM26.3399 25.8484C26.4135 25.0116 26.4134 25.0116 26.4132 25.0116C26.4132 25.0116 26.4131 25.0116 26.413 25.0116C26.4129 25.0116 26.4128 25.0116 26.4127 25.0116C26.4126 25.0115 26.4125 25.0115 26.4125 25.0115C26.4125 25.0115 26.4129 25.0116 26.4137 25.0116C26.4151 25.0118 26.418 25.012 26.4221 25.0123C26.4305 25.013 26.444 25.014 26.4622 25.0152C26.4986 25.0176 26.5532 25.0207 26.6215 25.0233C26.7592 25.0286 26.9472 25.0316 27.1505 25.0228C27.3564 25.0138 27.5617 24.9936 27.7391 24.9575C27.9277 24.9191 28.0259 24.8744 28.0599 24.852L28.9851 26.2542C28.6933 26.4468 28.3557 26.5465 28.074 26.6038C27.7811 26.6633 27.4815 26.69 27.2231 26.7012C26.9623 26.7125 26.7268 26.7086 26.557 26.7021C26.4717 26.6988 26.4016 26.6948 26.3517 26.6915C26.3268 26.6899 26.3068 26.6884 26.2924 26.6873C26.2851 26.6867 26.2793 26.6863 26.275 26.6859C26.2728 26.6857 26.271 26.6856 26.2695 26.6854C26.2688 26.6854 26.2682 26.6853 26.2676 26.6853C26.2674 26.6853 26.2671 26.6852 26.2669 26.6852C26.2668 26.6852 26.2666 26.6852 26.2666 26.6852C26.2664 26.6852 26.2663 26.6852 26.3399 25.8484ZM28.0599 24.852C28.1116 24.8178 28.2069 24.7038 28.2983 24.4792C28.3803 24.2777 28.4163 24.0934 28.4214 24.0654L30.0743 24.3657C30.0587 24.4515 29.9973 24.7611 29.8544 25.1123C29.7209 25.4406 29.4638 25.9384 28.9851 26.2542L28.0599 24.852ZM30.09 24.1905C30.09 24.2425 30.086 24.3015 30.0743 24.3657L28.4214 24.0654C28.4127 24.1129 28.41 24.1555 28.41 24.1905H30.09ZM27.7949 18.6735C27.4553 18.6735 27.1799 18.9489 27.1799 19.2885H25.4999C25.4999 18.021 26.5274 16.9935 27.7949 16.9935V18.6735ZM27.7949 16.9935C29.0625 16.9935 30.09 18.021 30.09 19.2885H28.41C28.41 18.9489 28.1346 18.6735 27.7949 18.6735V16.9935Z" fill="#0B6AB7" mask="url(#path-6-inside-2_360_5672)" class="svg__fill--primary-blue-03"/>
</svg>
