<svg width="90" height="32" viewBox="0 0 90 32" fill="none" xmlns="http://www.w3.org/2000/svg" class="svg__icon-ftva-video">
<rect width="90" height="32" rx="16" fill="#115DAF"/>
<path d="M26.6279 14.3262L23.1663 11.9626C23.0794 11.9032 22.9784 11.8691 22.8741 11.8639C22.7697 11.8588 22.666 11.8827 22.5739 11.9332C22.4818 11.9837 22.4048 12.0589 22.3511 12.1507C22.2975 12.2425 22.2692 12.3475 22.2692 12.4545V17.1818C22.2692 17.2888 22.2975 17.3938 22.3511 17.4857C22.4048 17.5775 22.4818 17.6526 22.5739 17.7032C22.666 17.7537 22.7697 17.7776 22.8741 17.7724C22.9784 17.7672 23.0794 17.7331 23.1663 17.6737L26.6279 15.3101C26.707 15.2562 26.7719 15.183 26.8168 15.0972C26.8617 15.0114 26.8852 14.9155 26.8852 14.8182C26.8852 14.7208 26.8617 14.625 26.8168 14.5391C26.7719 14.4533 26.707 14.3802 26.6279 14.3262ZM23.4231 16.0776V13.5625L25.2678 14.8182L23.4231 16.0776ZM30.3462 9.5H17.6538C17.3478 9.5 17.0543 9.62451 16.838 9.84615C16.6216 10.0678 16.5 10.3684 16.5 10.6818V18.9545C16.5 19.268 16.6216 19.5686 16.838 19.7902C17.0543 20.0119 17.3478 20.1364 17.6538 20.1364H30.3462C30.6522 20.1364 30.9457 20.0119 31.162 19.7902C31.3784 19.5686 31.5 19.268 31.5 18.9545V10.6818C31.5 10.3684 31.3784 10.0678 31.162 9.84615C30.9457 9.62451 30.6522 9.5 30.3462 9.5ZM30.3462 18.9545H17.6538V10.6818H30.3462V18.9545ZM31.5 21.9091C31.5 22.0658 31.4392 22.2161 31.331 22.3269C31.2228 22.4377 31.0761 22.5 30.9231 22.5H17.0769C16.9239 22.5 16.7772 22.4377 16.669 22.3269C16.5608 22.2161 16.5 22.0658 16.5 21.9091C16.5 21.7524 16.5608 21.6021 16.669 21.4913C16.7772 21.3804 16.9239 21.3182 17.0769 21.3182H30.9231C31.0761 21.3182 31.2228 21.3804 31.331 21.4913C31.4392 21.6021 31.5 21.7524 31.5 21.9091Z" fill="white"/>
<path d="M41.465 21L38.075 12.09H39.74L42.41 19.455L45.065 12.09H46.7L43.31 21H41.465ZM49.2794 21H47.7944V14.355H49.2794V21ZM48.5444 13.26C48.2844 13.26 48.0594 13.17 47.8694 12.99C47.6894 12.81 47.5994 12.59 47.5994 12.33C47.5994 12.07 47.6894 11.855 47.8694 11.685C48.0594 11.505 48.2844 11.415 48.5444 11.415C48.7944 11.415 49.0094 11.505 49.1894 11.685C49.3794 11.855 49.4744 12.07 49.4744 12.33C49.4744 12.59 49.3794 12.81 49.1894 12.99C49.0094 13.17 48.7944 13.26 48.5444 13.26ZM57.1747 20.865C56.7947 20.965 56.3847 21.035 55.9447 21.075C55.5147 21.125 55.0897 21.15 54.6697 21.15C54.0897 21.15 53.5647 21.075 53.0947 20.925C52.6247 20.775 52.2197 20.555 51.8797 20.265C51.5497 19.965 51.2897 19.6 51.0997 19.17C50.9197 18.74 50.8297 18.245 50.8297 17.685C50.8297 17.145 50.9197 16.66 51.0997 16.23C51.2797 15.8 51.5247 15.435 51.8347 15.135C52.1547 14.835 52.5297 14.605 52.9597 14.445C53.3997 14.285 53.8747 14.205 54.3847 14.205C54.6247 14.205 54.8647 14.23 55.1047 14.28C55.3447 14.32 55.5447 14.38 55.7047 14.46V10.8H57.1747V20.865ZM55.7047 15.765C55.3947 15.595 54.9847 15.51 54.4747 15.51C53.8447 15.51 53.3297 15.695 52.9297 16.065C52.5297 16.435 52.3297 16.965 52.3297 17.655C52.3297 18.375 52.5447 18.925 52.9747 19.305C53.4047 19.685 53.9797 19.875 54.6997 19.875C54.8497 19.875 55.0097 19.87 55.1797 19.86C55.3597 19.85 55.5347 19.835 55.7047 19.815V15.765ZM60.1652 18.015V18.045C60.1852 18.345 60.2602 18.61 60.3902 18.84C60.5202 19.06 60.6852 19.25 60.8852 19.41C61.0852 19.56 61.3052 19.675 61.5452 19.755C61.7952 19.835 62.0502 19.875 62.3102 19.875C62.7702 19.875 63.1752 19.825 63.5252 19.725C63.8752 19.615 64.2152 19.45 64.5452 19.23V20.535C64.2452 20.745 63.8852 20.9 63.4652 21C63.0552 21.1 62.6352 21.15 62.2052 21.15C61.6852 21.15 61.2102 21.07 60.7802 20.91C60.3602 20.75 59.9952 20.525 59.6852 20.235C59.3852 19.935 59.1502 19.575 58.9802 19.155C58.8102 18.735 58.7252 18.26 58.7252 17.73C58.7252 17.2 58.8052 16.72 58.9652 16.29C59.1352 15.85 59.3602 15.48 59.6402 15.18C59.9302 14.87 60.2702 14.63 60.6602 14.46C61.0502 14.29 61.4752 14.205 61.9352 14.205C62.4152 14.205 62.8352 14.28 63.1952 14.43C63.5552 14.58 63.8502 14.79 64.0802 15.06C64.3202 15.33 64.4952 15.655 64.6052 16.035C64.7252 16.405 64.7852 16.815 64.7852 17.265V18.015H60.1652ZM61.8902 15.45C61.4602 15.45 61.0952 15.59 60.7952 15.87C60.5052 16.15 60.3102 16.545 60.2102 17.055H63.3902C63.3702 16.535 63.2352 16.14 62.9852 15.87C62.7352 15.59 62.3702 15.45 61.8902 15.45ZM65.9469 17.685C65.9469 17.165 66.0319 16.695 66.2019 16.275C66.3719 15.845 66.6069 15.48 66.9069 15.18C67.2169 14.87 67.5769 14.63 67.9869 14.46C68.4069 14.29 68.8669 14.205 69.3669 14.205C69.8669 14.205 70.3269 14.29 70.7469 14.46C71.1669 14.63 71.5269 14.87 71.8269 15.18C72.1369 15.48 72.3769 15.845 72.5469 16.275C72.7169 16.695 72.8019 17.165 72.8019 17.685C72.8019 18.195 72.7169 18.665 72.5469 19.095C72.3769 19.515 72.1369 19.88 71.8269 20.19C71.5269 20.49 71.1669 20.725 70.7469 20.895C70.3269 21.065 69.8669 21.15 69.3669 21.15C68.8669 21.15 68.4069 21.065 67.9869 20.895C67.5769 20.725 67.2169 20.49 66.9069 20.19C66.6069 19.88 66.3719 19.515 66.2019 19.095C66.0319 18.665 65.9469 18.195 65.9469 17.685ZM71.3019 17.685C71.3019 17.005 71.1219 16.47 70.7619 16.08C70.4019 15.68 69.9369 15.48 69.3669 15.48C68.8069 15.48 68.3469 15.68 67.9869 16.08C67.6269 16.47 67.4469 17.005 67.4469 17.685C67.4469 18.355 67.6269 18.89 67.9869 19.29C68.3469 19.68 68.8069 19.875 69.3669 19.875C69.9369 19.875 70.4019 19.68 70.7619 19.29C71.1219 18.89 71.3019 18.355 71.3019 17.685Z" fill="white"/>
</svg>
