<svg width="32" height="32" viewBox="0 0 32 32" fill="none" xmlns="http://www.w3.org/2000/svg" class="svg__icon-location">
  <path fill-rule="evenodd" clip-rule="evenodd"
    d="M22.5291 20.7109c1.6812-1.9722 2.6289-3.9438 2.6289-6.311 0-5.05779-4.1002-9.15796-9.158-9.15796-5.0578 0-9.15797 4.10017-9.15797 9.15796 0 2.3672.9477 4.3388 2.62884 6.311 1.59793 1.8746 3.75813 3.6394 6.25423 5.6787.0912.0745.1828.1493.2749.2246.0921-.0753.1837-.1501.2749-.2246 2.4961-2.0393 4.6563-3.8041 6.2542-5.6787Zm-5.2745 6.8153c5.1259-4.186 9.4034-7.6792 9.4034-13.1263 0-5.88622-4.7718-10.65796-10.658-10.65796S5.34203 8.51368 5.34203 14.3999c0 5.4471 4.27751 8.9403 9.40337 13.1263.2046.1671.4105.3353.6176.5048.3702.3029.9038.3029 1.274 0 .2071-.1695.413-.3377.6176-.5048Z"
    fill="#0B6AB7" class="svg__fill--primary-blue-03" />
  <circle cx="16" cy="14.1343" r="2.92943" stroke="#0B6AB7" stroke-width="1.5" class="svg__stroke--primary-blue-03" />
  <path
    d="M22.8552 24.4468c-1.799 1.759-3.9493 3.4784-6.2193 5.3369-.3701.303-.903.303-1.2731 0-2.27-1.8585-4.4203-3.5779-6.21933-5.3369"
    stroke="#0AA5FF" stroke-width="1.25" stroke-linecap="round" class="svg__stroke--default-cyan-03" />
</svg>