<svg xmlns="http://www.w3.org/2000/svg" id="Unboxed_Black" viewBox="0 0 349.74 33.16" class="svg__logo-ftva" role="img">
<title>UCLA Film and Television Archive</title>
  <path d="M93.03 0h1.22v8.53h5.06v1.12h-6.28zM100.27 0h1.09v1.35h-1.09zm0 2.68h1.09v6.98h-1.09zM103.89 8.75h-.03v.92h-1.09V0h1.09v3.67h.03c.53-.72 1.23-1.16 2.24-1.16 1.77 0 2.97 1.35 2.97 3.67s-1.12 3.67-3.01 3.67c-.95 0-1.63-.34-2.2-1.12Zm4.1-2.54c0-1.57-.63-2.75-1.96-2.75-1.53 0-2.23 1.24-2.23 2.75s.73 2.74 2.21 2.74c1.34 0 1.97-1.16 1.97-2.74zM111.31 3.84h.03c.42-.67 1.15-1.24 2.08-1.24.2 0 .31.03.45.08v1.05h-.04a1.4 1.4 0 0 0-.49-.07c-1.08 0-2.03.81-2.03 2.12v3.88h-1.09V2.68h1.09zM118.9 8.69c-.42.54-1.13 1.11-2.32 1.11-1.32 0-2.36-.62-2.36-1.94 0-1.65 1.3-1.99 3.04-2.25.99-.15 1.67-.24 1.67-1s-.57-1.23-1.57-1.23c-1.13 0-1.7.49-1.74 1.54h-1.05c.04-1.35.93-2.36 2.78-2.36 1.49 0 2.58.55 2.58 2.21v3.32c0 .57.14.88.74.74h.04v.8c-.13.05-.31.11-.59.11-.72 0-1.09-.32-1.2-1.04Zm.03-1.61V5.89c-.36.23-1 .41-1.59.51-1.09.2-1.97.39-1.97 1.42 0 .93.73 1.13 1.44 1.13 1.46 0 2.12-1.07 2.12-1.88ZM122.61 3.84h.03c.42-.67 1.15-1.24 2.08-1.24.2 0 .31.03.45.08v1.05h-.04a1.4 1.4 0 0 0-.49-.07c-1.08 0-2.03.81-2.03 2.12v3.88h-1.09V2.68h1.09zM126.25 11.82v-.97h.05c.15.08.38.15.74.15.46 0 .77-.18 1.04-.85l.27-.69-2.73-6.78h1.19l1.65 4.35c.22.58.47 1.36.47 1.36h.03s.24-.78.46-1.36l1.59-4.35h1.16l-2.98 7.55c-.57 1.44-1.11 1.74-1.96 1.74-.42 0-.69-.03-.99-.15ZM93.46 15.07h12.41v2.98h-8.9v4.17h7.54v3.01h-7.54v7.18h-3.52V15.07zM107.19 15.07h3.3v2.96h-3.3zm0 4.9h3.3v12.44h-3.3zM112.58 15.07h3.3v17.34h-3.3zM117.97 19.97h3.18v1.67h.07c.68-1.14 1.89-2.01 3.61-2.01 1.58 0 2.84.87 3.44 2.18h.05c.85-1.36 2.16-2.18 3.73-2.18 2.62 0 4.1 1.7 4.1 4.41v8.37h-3.3V24.6c0-1.41-.7-2.13-1.92-2.13-1.38 0-2.23 1.07-2.23 2.72v7.23h-3.3v-7.81c0-1.41-.7-2.13-1.92-2.13-1.33 0-2.23 1.07-2.23 2.72v7.23h-3.3V19.99zM141.65 27.94c0-2.47 1.58-4.03 3.83-5.17-.99-1.21-1.46-2.18-1.46-3.59 0-2.25 1.79-4 4.49-4s4.53 1.6 4.53 3.98c0 2.13-1.24 3.2-3.1 4.17l2.3 2.98c.34-.87.58-1.87.68-2.81h2.93c-.15 1.94-.7 3.81-1.65 5.36l2.74 3.54h-4.03l-.9-1.14c-1.28.95-2.86 1.5-4.61 1.5-3.81 0-5.77-2.11-5.77-4.82zm8.66 1.09-3.18-4.15c-1.48.9-1.99 1.87-1.99 2.96 0 1.31 1.04 2.21 2.4 2.21 1.04 0 1.99-.36 2.76-1.02zm-1.84-7.56c1.14-.68 1.45-1.43 1.45-2.26s-.63-1.38-1.36-1.38c-.78 0-1.36.58-1.36 1.41 0 .78.53 1.53 1.26 2.23zM161.62 15.07h13.94v2.96h-5.21v14.38h-3.52V18.03h-5.21zM174.14 26.17c0-3.69 2.5-6.55 6.13-6.55 4 0 6.13 3.05 6.13 7.49h-9.02c.24 1.92 1.31 3.1 3.18 3.1 1.29 0 2.04-.58 2.4-1.53h3.25c-.46 2.21-2.42 4.07-5.62 4.07-4.12 0-6.45-2.88-6.45-6.59Zm3.29-1.33h5.53c-.1-1.58-1.14-2.67-2.64-2.67-1.75 0-2.59 1.04-2.89 2.67M187.93 15.07h3.3v17.34h-3.3zM192.75 26.17c0-3.69 2.5-6.55 6.13-6.55 4 0 6.13 3.05 6.13 7.49h-9.02c.24 1.92 1.31 3.1 3.18 3.1 1.29 0 2.04-.58 2.4-1.53h3.25c-.46 2.21-2.42 4.07-5.62 4.07-4.12 0-6.45-2.88-6.45-6.59Zm3.29-1.33h5.53c-.1-1.58-1.14-2.67-2.64-2.67-1.75 0-2.59 1.04-2.88 2.67ZM204.89 19.97h3.35l1.99 6.45c.36 1.19.56 1.99.56 1.99h.05s.17-.8.53-1.99l2.04-6.45h3.3l-4.34 12.44h-3.15l-4.32-12.44zM217.64 15.07h3.3v2.96h-3.3zm0 4.9h3.3v12.44h-3.3zM222.29 28.38h3.05c.22 1.43 1.24 2.06 2.72 2.06s2.28-.56 2.28-1.43c0-1.19-1.58-1.31-3.27-1.65-2.23-.44-4.41-1.04-4.41-3.76s2.23-3.98 5.07-3.98c3.27 0 5.09 1.62 5.33 4.12h-2.98c-.15-1.33-.99-1.82-2.4-1.82-1.29 0-2.13.49-2.13 1.38 0 1.07 1.65 1.16 3.42 1.53 2.09.44 4.39 1.02 4.39 3.93 0 2.5-2.13 4-5.24 4-3.61 0-5.62-1.75-5.82-4.39ZM234.87 15.07h3.3v2.96h-3.3zm0 4.9h3.3v12.44h-3.3zM239.61 26.2c0-3.71 2.64-6.57 6.5-6.57s6.5 2.86 6.5 6.57-2.64 6.57-6.5 6.57-6.5-2.86-6.5-6.57m9.66 0c0-2.42-1.14-4.07-3.15-4.07s-3.15 1.65-3.15 4.07 1.12 4.05 3.15 4.05 3.15-1.62 3.15-4.05M257.33 21.66h.07c.85-1.33 1.99-2.04 3.69-2.04 2.57 0 4.29 1.94 4.29 4.66v8.12h-3.3v-7.64c0-1.33-.78-2.28-2.16-2.28-1.46 0-2.52 1.16-2.52 2.86v7.06h-3.3V19.96h3.22v1.7ZM276.53 15.07h3.64l6.11 17.34h-3.66l-1.16-3.69h-6.26l-1.14 3.69h-3.56l6.04-17.34Zm-.51 10.96h4.58l-1.55-4.99c-.29-.92-.7-2.67-.7-2.67h-.05s-.44 1.75-.73 2.67zM290.49 21.95h.07c.75-1.41 1.6-2.13 3.05-2.13.36 0 .58.02.78.1v2.88h-.07c-2.16-.22-3.71.92-3.71 3.54v6.06h-3.3V19.96h3.18zM294.9 26.2c0-3.71 2.42-6.57 6.21-6.57 3.22 0 5.21 1.87 5.65 4.56h-3.22c-.22-1.09-1.07-1.92-2.28-1.92-1.99 0-3.01 1.53-3.01 3.93s.95 3.93 2.96 3.93c1.33 0 2.28-.7 2.5-2.11h3.18c-.22 2.64-2.28 4.75-5.6 4.75-3.93 0-6.38-2.86-6.38-6.57ZM311.56 21.59h.07c.9-1.31 1.92-1.96 3.61-1.96 2.57 0 4.29 1.94 4.29 4.66v8.12h-3.3v-7.64c0-1.33-.78-2.28-2.16-2.28-1.45 0-2.52 1.16-2.52 2.86v7.06h-3.3V15.07h3.3v6.52ZM321.58 15.07h3.3v2.96h-3.3zm0 4.9h3.3v12.44h-3.3zM325.8 19.97h3.35l1.99 6.45c.36 1.19.56 1.99.56 1.99h.05s.17-.8.53-1.99l2.04-6.45h3.3l-4.34 12.44h-3.15l-4.32-12.44ZM337.48 26.17c0-3.69 2.5-6.55 6.13-6.55 4 0 6.13 3.05 6.13 7.49h-9.02c.24 1.92 1.31 3.1 3.18 3.1 1.29 0 2.04-.58 2.4-1.53h3.25c-.46 2.21-2.42 4.07-5.62 4.07-4.12 0-6.45-2.88-6.45-6.59Zm3.29-1.33h5.53c-.1-1.58-1.14-2.67-2.64-2.67-1.75 0-2.59 1.04-2.88 2.67Z" fill="#ffffff"/>
  <g id="_logo_">
    <path d="M.08 25.22c-.12-.89-.06-2.18-.06-2.81L1.36 7.2h4.98L4.98 22.54c-.29 3.32 1.01 5.69 4.32 5.69s5.18-2.41 5.47-5.35l1.41-15.67h4.98l-1.38 15.48c-.56 5.96-4.51 10.42-10.9 10.42-4.99 0-8.21-3.22-8.82-7.88M22.3 20.07c.65-7.3 5.57-13.35 14.08-13.35 2.24 0 4.39.51 6.54 1.89l-.57 6.03c-1.96-2.58-4.29-3-6.44-3-5.29 0-8.2 3.68-8.61 8.33-.4 4.53 1.94 8.22 7.07 8.22 2.24 0 4.61-.65 7.1-3.13l-.55 6.19c-2.42 1.31-4.67 1.91-6.94 1.91-8.42 0-12.27-6.25-11.67-13.09M46.89 7.2h4.97l-1.81 20.65h7.11c.5 0 2.2-.03 2.66-.05-.03.25-.45 4.77-.45 4.77H44.65L46.9 7.2zM72.77 16.67c.16-.36.31-.81.37-1.06h.08c.03.32.09.7.19 1.07.27 1.16 2.21 7.58 2.21 7.58h-6.27s3.36-7.42 3.43-7.58m1.25-10.64h-.34l-13.6 26.53h5.28l1.91-4.02h9.58l1.2 4.02h5.26L74.04 6.04z" fill="#ffffff"/>
  </g>
</svg>
