<svg width="43" height="55" viewBox="0 0 43 55" fill="none" xmlns="http://www.w3.org/2000/svg">
<rect width="43" height="54" rx="6" transform="matrix(1 0 0 -1 0 54.1309)" fill="#132941"/>
<path d="M15.5122 27.1309L27.3941 39.3416C27.4919 39.44 27.5693 39.5568 27.6217 39.6853C27.674 39.8138 27.7004 39.9514 27.6993 40.0902C27.6981 40.2289 27.6694 40.3661 27.6149 40.4937C27.5604 40.6213 27.4812 40.7368 27.3817 40.8336C27.2823 40.9303 27.1646 41.0064 27.0356 41.0574C26.9065 41.1084 26.7687 41.1333 26.6299 41.1307C26.4912 41.128 26.3544 41.0979 26.2274 41.042C26.1003 40.9862 25.9857 40.9057 25.89 40.8052L13.2972 27.8626C13.1066 27.6667 13 27.4042 13 27.1309C13 26.8575 13.1066 26.595 13.2972 26.3991L25.89 13.4565C25.9857 13.3561 26.1003 13.2756 26.2274 13.2197C26.3544 13.1638 26.4912 13.1337 26.6299 13.131C26.7687 13.1284 26.9065 13.1533 27.0356 13.2043C27.1646 13.2553 27.2823 13.3314 27.3817 13.4281C27.4812 13.5249 27.5604 13.6404 27.6149 13.768C27.6694 13.8956 27.6981 14.0328 27.6993 14.1715C27.7004 14.3103 27.674 14.4479 27.6217 14.5764C27.5693 14.7049 27.4919 14.8217 27.3941 14.9201L15.5122 27.1309Z" fill="#ABBFD6"/>
</svg>
