<svg width="20" height="20" viewBox="0 0 20 20" fill="none" xmlns="http://www.w3.org/2000/svg">
<path d="M10 9.5C9.33696 9.5 8.70107 9.23661 8.23223 8.76777C7.76339 8.29893 7.5 7.66304 7.5 7C7.5 6.33696 7.76339 5.70107 8.23223 5.23223C8.70107 4.76339 9.33696 4.5 10 4.5C10.663 4.5 11.2989 4.76339 11.7678 5.23223C12.2366 5.70107 12.5 6.33696 12.5 7C12.5 7.3283 12.4353 7.65339 12.3097 7.95671C12.1841 8.26002 11.9999 8.53562 11.7678 8.76777C11.5356 8.99991 11.26 9.18406 10.9567 9.3097C10.6534 9.43534 10.3283 9.5 10 9.5ZM10 0C8.14348 0 6.36301 0.737498 5.05025 2.05025C3.7375 3.36301 3 5.14348 3 7C3 12.25 10 20 10 20C10 20 17 12.25 17 7C17 5.14348 16.2625 3.36301 14.9497 2.05025C13.637 0.737498 11.8565 0 10 0Z" fill="#115DAF"/>
</svg>
