<svg width="23" height="23" viewBox="0 0 23 23" fill="none" xmlns="http://www.w3.org/2000/svg" class="svg__icon-ftva-circle-x">
<rect width="23" height="23" rx="11.5" fill="#41648C"/>
<path d="M15.5753 16.4242L15.5753 16.4242C15.631 16.4799 15.6972 16.5241 15.77 16.5543C15.8429 16.5845 15.9209 16.6 15.9997 16.6C16.0786 16.6 16.1566 16.5845 16.2295 16.5543C16.3023 16.5241 16.3685 16.4799 16.4242 16.4242C16.4799 16.3685 16.5241 16.3023 16.5543 16.2295C16.5845 16.1566 16.6 16.0786 16.6 15.9997C16.6 15.9209 16.5845 15.8429 16.5543 15.77C16.5241 15.6972 16.4799 15.631 16.4242 15.5753L16.4242 15.5753L12.3483 11.5L16.4242 7.4247L16.4242 7.42469C16.5368 7.31212 16.6 7.15945 16.6 7.00025C16.6 6.84105 16.5368 6.68838 16.4242 6.57581L16.3537 6.64632L16.4242 6.57581C16.3116 6.46324 16.1589 6.4 15.9997 6.4C15.8406 6.4 15.6879 6.46324 15.5753 6.57581L15.5753 6.57581L11.5 10.6517L7.4247 6.57581L7.42469 6.57581C7.31212 6.46324 7.15945 6.4 7.00025 6.4C6.84105 6.4 6.68838 6.46324 6.57581 6.57581C6.46324 6.68838 6.4 6.84105 6.4 7.00025C6.4 7.15945 6.46324 7.31212 6.57581 7.42469L6.57581 7.4247L10.6517 11.5L6.57581 15.5753L6.57581 15.5753C6.46324 15.6879 6.4 15.8406 6.4 15.9997C6.4 16.1589 6.46324 16.3116 6.57581 16.4242C6.68838 16.5368 6.84105 16.6 7.00025 16.6C7.15945 16.6 7.31212 16.5368 7.42469 16.4242L7.4247 16.4242L11.5 12.3483L15.5753 16.4242Z" fill="#F1F1F1" stroke="#F1F1F1" stroke-width="0.2"/>
</svg>
