<svg width="200" height="160" viewBox="0 0 200 160" fill="none" xmlns="http://www.w3.org/2000/svg" class="svg__illustration-databases">
  <path d="M49.712 108.564V51.262a2.794 2.794 0 0 1 .076-.428c.082-.322.254-.81.615-1.413.719-1.203 2.209-2.896 5.304-4.623 6.213-3.465 18.82-7.02 44.293-7.02 25.474 0 38.08 3.555 44.294 7.02 3.095 1.727 4.584 3.42 5.303 4.623.361.603.533 1.092.615 1.413a2.749 2.749 0 0 1 .077.434v57.296a8.627 8.627 0 0 1-1.23 1.879c-1.067 1.256-2.989 2.982-6.373 4.726-6.777 3.494-19.404 7.054-42.686 7.054s-35.909-3.56-42.686-7.054c-3.383-1.744-5.305-3.47-6.372-4.726a8.658 8.658 0 0 1-1.042-1.487 4.15 4.15 0 0 1-.185-.384l-.003-.008Z" fill="#fff" stroke="#0B6AB7" stroke-width="1.5" class="svg__stroke--primary-blue-03 svg__fill--white"/>
  <path d="m90.35 88.814 2.404.996.995 2.403-.995 2.404-2.404.995-2.403-.995-.996-2.404.996-2.403 2.403-.996ZM99.998 88.814l3.005 1.245 1.244 3.004-1.244 3.004-3.005 1.245-3.004-1.245-1.245-3.004 1.245-3.005 3.004-1.244ZM109.646 88.814l2.404.996.996 2.403-.996 2.404-2.404.995-2.403-.995-.996-2.404.996-2.403 2.403-.996Z" fill="#0AA5FF" class="svg__fill--default-cyan-03"/>
  <path d="M150.316 52.954c-4.097 6.719-25.064 11.834-50.314 11.834-25.265 0-46.242-5.122-50.32-11.846" stroke="#0B6AB7" stroke-width="1.5" stroke-linecap="round" stroke-linejoin="round" class="svg__stroke--primary-blue-03"/>
  <path d="M150.316 70.705c-4.097 6.719-25.064 11.834-50.313 11.834-25.266 0-46.243-5.122-50.322-11.847M150.316 91.226c-4.097 6.719-25.064 11.834-50.313 11.834-25.266 0-46.243-5.121-50.322-11.846" stroke="#00E0E0" stroke-width="1.5" stroke-linecap="round" stroke-linejoin="round" class="svg__stroke--help-green-03"/>
  <path d="M49.712 108.564V51.262a2.794 2.794 0 0 1 .076-.428c.082-.322.254-.81.615-1.413.719-1.203 2.209-2.896 5.304-4.623 6.213-3.465 18.82-7.02 44.293-7.02 25.474 0 38.08 3.555 44.294 7.02 3.095 1.727 4.584 3.42 5.303 4.623.361.603.533 1.092.615 1.413a2.749 2.749 0 0 1 .077.434v57.296a8.627 8.627 0 0 1-1.23 1.879c-1.067 1.256-2.989 2.982-6.373 4.726-6.777 3.494-19.404 7.054-42.686 7.054s-35.909-3.56-42.686-7.054c-3.383-1.744-5.305-3.47-6.372-4.726a8.658 8.658 0 0 1-1.042-1.487 4.15 4.15 0 0 1-.185-.384l-.003-.008Z" stroke="#0B6AB7" stroke-width="1.5" class="svg__stroke--primary-blue-03"/>
  <path d="M100 5v12.95M100 5v12.95M175.001 80h-12.949M153.033 133.033l-9.157-9.156M153.032 26.97l-9.157 9.156M100 142.05V155M37.948 80H25M56.12 36.123l-9.156-9.156M56.121 123.877l-9.156 9.156" stroke="#FFD600" stroke-width="1.5" class="svg__stroke--secondary-yellow-03"/>
</svg>