<svg width="200" height="160" viewBox="0 0 200 160" fill="none" xmlns="http://www.w3.org/2000/svg" class="svg__illustration-book-binding">
  <path d="M126.448 139.414c-10.625 0-18.607 3.088-19.558 12.704-.108 1.099-.99 1.998-2.095 1.998h-8.967c-1.104 0-1.989-.901-2.072-2.002-.793-10.462-8.031-12.7-19.58-12.7H25.083m101.364 0h49.256-49.256Zm52.649-5.562-1.762-92.432a4 4 0 0 0-3.999-3.924H27.28a4 4 0 0 0-3.999 3.92l-1.842 92.436" stroke="#0B6AB7" stroke-width="1.5" class="svg__stroke--primary-blue-03"/>
  <path d="M126.448 134.164v-.75.75Zm-52.273 0v.75-.75Zm23.103 13.652v.75h1.5v-.75h-1.5Zm4.567 0v.75h1.5v-.75h-1.5Zm24.603-12.902h60.239v-1.5h-60.239v1.5Zm-112.516-.75v.75h6.565l15.961.001 37.718-.001v-1.5l-37.718.001-15.961-.001H13.933v.75Zm84.846 13.652c0-3.601-1.224-6.346-3.171-8.408-1.93-2.044-4.534-3.376-7.247-4.252-5.414-1.747-11.49-1.742-14.185-1.742v1.5c2.714 0 8.564.004 13.724 1.67 2.575.831 4.92 2.058 6.617 3.854 1.68 1.778 2.762 4.153 2.762 7.378h1.5Zm4.567 0c0-5.818 4.195-9.044 9.361-10.844 5.156-1.796 11.019-2.058 13.742-2.058v-1.5c-2.776 0-8.839.262-14.235 2.142-5.386 1.876-10.368 5.475-10.368 12.26h1.5Z" fill="#0B6AB7" class="svg__fill--primary-blue-03"/>
  <path d="M27.538 134.163s2.338.731 2.338 2.984c0 1.064-.52 1.789-1.071 2.257M173.338 134.163s-2.338.731-2.338 2.984c0 1.064.521 1.789 1.071 2.257" stroke="#0B6AB7" stroke-width="1.5" class="svg__stroke--primary-blue-03"/>
  <mask id="a" fill="#fff" class="svg__fill--white">
    <path d="m33.393 9.023-1.927 89.42a3.986 3.986 0 0 0 3.982 4.087H84.57c11.804 0 10.29 2.756 13.648 13.888a1.977 1.977 0 0 0 1.895 1.399h.569c.869 0 1.644-.566 1.89-1.4 3.034-10.292 1.366-13.887 13.478-13.887h49.119a3.985 3.985 0 0 0 3.981-4.087l-1.927-89.42a4 4 0 0 0-3.999-3.914h-53.059a8 8 0 0 0-5.982 2.688l-3.875 4.363-3.875-4.363a8 8 0 0 0-5.981-2.688h-53.06a4 4 0 0 0-3.999 3.914Z"/>
  </mask>
  <path d="m33.393 9.023-1.927 89.42a3.986 3.986 0 0 0 3.982 4.087H84.57c11.804 0 10.29 2.756 13.648 13.888a1.977 1.977 0 0 0 1.895 1.399h.569c.869 0 1.644-.566 1.89-1.4 3.034-10.292 1.366-13.887 13.478-13.887h49.119a3.985 3.985 0 0 0 3.981-4.087l-1.927-89.42a4 4 0 0 0-3.999-3.914h-53.059a8 8 0 0 0-5.982 2.688l-3.875 4.363-3.875-4.363a8 8 0 0 0-5.981-2.688h-53.06a4 4 0 0 0-3.999 3.914Z" fill="#fff" class="svg__fill--white"/>
  <path d="M101.058 12.16a.75.75 0 0 0-1.5 0h1.5Zm-1.5 0v52.829h1.5v-52.83h-1.5Zm0 52.829v26.414h1.5V64.989h-1.5Zm0 26.414v13.207h1.5V91.403h-1.5Zm-68.092 7.04-1.5-.032 1.5.032Zm1.927-89.42-1.5-.033 1.5.033Zm133.83 0 1.5-.033-1.5.033Zm1.927 89.42 1.5-.032-1.5.032Zm-70.932 17.975 1.436-.433-1.436.433Zm4.354-.001-1.439-.425v.001l1.439.424ZM100.308 12.16l-1.122.996a1.5 1.5 0 0 0 2.244 0l-1.122-.996Zm3.875-4.363 1.121.996-1.121-.996Zm-7.75 0-1.121.996 1.121-.996ZM32.965 98.476l1.928-89.421-3-.065-1.927 89.421 3 .065ZM165.723 9.055l1.928 89.42 2.999-.064-1.927-89.42-3 .064ZM116.05 104.03h49.119v-3H116.05v3Zm-80.602 0H84.57v-3H35.448v3Zm64.206 11.955c-.842-2.791-1.338-4.915-1.881-6.841-.516-1.828-1.068-3.451-2-4.728-2.01-2.759-5.36-3.386-11.203-3.386v3c5.962 0 7.757.751 8.78 2.153.585.803 1.022 1.957 1.535 3.776.486 1.722 1.06 4.118 1.897 6.892l2.872-.866Zm4.357.856c.767-2.601 1.256-4.851 1.696-6.562.459-1.782.864-2.968 1.443-3.825 1.004-1.487 2.851-2.424 8.9-2.424v-3c-6.063 0-9.438.86-11.386 3.744-.897 1.328-1.402 2.97-1.862 4.757-.478 1.858-.919 3.917-1.669 6.461l2.878.849Zm-3.329-.524h-.374v3h.374v-3Zm-.374 0h-.195v3h.195v-3Zm1.122-103.161 3.874-4.363-2.243-1.992-3.875 4.363 2.244 1.992Zm8.735-6.547h53.059v-3h-53.059v3Zm-72.773 0h53.06v-3h-53.06v3Zm57.92 2.184 3.874 4.363 2.244-1.992L97.555 6.8l-2.243 1.992Zm9.992 0a6.502 6.502 0 0 1 4.861-2.184v-3a9.5 9.5 0 0 0-7.104 3.192l2.243 1.992ZM96.782 116.85a3.476 3.476 0 0 0 3.331 2.466v-3a.477.477 0 0 1-.459-.332l-2.872.866Zm4.351-.858a.466.466 0 0 1-.451.324v3c1.519 0 2.89-.989 3.329-2.476l-2.878-.848ZM29.966 98.411c-.066 3.075 2.39 5.619 5.482 5.619v-3a2.487 2.487 0 0 1-2.483-2.554l-2.999-.065Zm137.685.065a2.486 2.486 0 0 1-2.482 2.554v3c3.093 0 5.547-2.545 5.481-5.619l-2.999.065Zm1.072-89.486a5.5 5.5 0 0 0-5.499-5.381v3a2.5 2.5 0 0 1 2.499 2.446l3-.065ZM90.452 6.61a6.5 6.5 0 0 1 4.86 2.184L97.555 6.8a9.5 9.5 0 0 0-7.103-3.192v3Zm-55.56 2.446a2.5 2.5 0 0 1 2.5-2.446v-3a5.5 5.5 0 0 0-5.498 5.381l2.999.065Z" fill="#0B6AB7" mask="url(#a)" class="svg__fill--primary-blue-03"/>
  <path d="M71.431 28.382h17.465M71.431 34.665h17.465M71.431 40.947h17.465M45.392 47.23h43.503M45.392 53.581h43.503M45.392 59.864h43.503M45.392 66.18h43.503M45.392 72.465h43.503M45.392 78.78h26.04M112.177 28.302h43.504M112.177 34.585h43.504M112.177 40.868h43.504M112.177 47.15h43.504M112.177 53.501h43.504M112.177 59.784h43.504M112.177 66.101h43.504M112.177 72.385h43.504M112.177 78.7h37.678" stroke="#0AA5FF" stroke-width="1.25" class="svg__stroke--default-cyan-03"/>
  <path d="m55.325 18 7.3 3.024 3.025 7.3-3.024 7.302-7.301 3.024-7.3-3.024L45 28.325l3.024-7.3 7.3-3.025Z" stroke="#FFD600" stroke-width="1.25" class="svg__stroke--secondary-yellow-03"/>
  <path d="M156.094 105.622v13.532M45.392 105.771v13.234M122.495 105.347v17.359M79.113 105.347v17.359" stroke="#00E0E0" stroke-width="1.25" stroke-linecap="round" stroke-linejoin="round" stroke-dasharray="0.13 4" class="svg__stroke--help-green-03"/>
  <path d="m152.281 118.699 3.813 3.812 3.812-3.812M49.401 118.699l-3.813 3.812-3.812-3.812M118.682 122.899l3.813 3.812 3.812-3.812M83 122.899l-3.813 3.812-3.812-3.812" stroke="#00E0E0" class="svg__stroke--help-green-03"/>
</svg>