<svg width="200" height="160" viewBox="0 0 200 160" fill="none" xmlns="http://www.w3.org/2000/svg" class="svg__illustration-remote-access">
  <path d="M100.099 26.376v9.106M100.099 26.376v9.106M152.841 79.117h-9.107M137.392 116.41l-6.439-6.439M137.392 41.825l-6.439 6.439M100.099 122.752v9.106M56.463 79.117h-9.106M69.243 48.262l-6.44-6.44M69.243 109.972l-6.44 6.439" stroke="#FFD600" stroke-width="1.5" class="svg__stroke--secondary-yellow-03"/>
  <circle cx="100.1" cy="79.875" r="39.47" stroke="#0B6AB7" stroke-width="1.5" class="svg__stroke--primary-blue-03"/>
  <path d="M119.082 79.875c0 11.017-2.192 20.954-5.702 28.109-3.534 7.204-8.274 11.361-13.278 11.361-5.004 0-9.744-4.157-13.278-11.361-3.51-7.155-5.702-17.092-5.702-28.11 0-11.016 2.192-20.953 5.702-28.108 3.534-7.204 8.274-11.36 13.278-11.36 5.004 0 9.744 4.156 13.278 11.36 3.51 7.155 5.702 17.092 5.702 28.109Z" stroke="#0B6AB7" stroke-width="1.5" class="svg__stroke--primary-blue-03"/>
  <path d="M100.099 40.414v76.645M138.423 78.737H61.778" stroke="#00E0E0" stroke-width="1.5" class="svg__stroke--help-green-03"/>
  <path d="m100.076 16.161 45.12 18.69 18.69 45.12-18.69 45.12-45.12 18.689-45.12-18.689-18.689-45.12 18.69-45.12 45.119-18.69Z" stroke="#0B6AB7" stroke-width="1.5" class="svg__stroke--primary-blue-03"/>
  <path d="m100.076 16.161 45.12 18.69 18.69 45.12-18.69 45.12-45.12 18.689-45.12-18.689-18.689-45.12 18.69-45.12 45.119-18.69Z" stroke="#0B6AB7" stroke-width="1.5" class="svg__stroke--primary-blue-03"/>
  <path d="M100.103 22.951a8.491 8.491 0 1 0 0-16.982 8.491 8.491 0 0 0 0 16.982Z" fill="#0AA5FF" stroke="#fff" stroke-width="1.5" class="svg__stroke--white svg__fill--default-cyan-03"/>
  <circle cx="146.283" cy="33.589" transform="rotate(45 146.283 33.589)" fill="#0AA5FF" stroke="#fff" stroke-width="1.5" r="7.741" class="svg__stroke--white svg__fill--default-cyan-03"/>
  <path d="M156.922 79.768a8.49 8.49 0 1 0 16.982 0 8.49 8.49 0 1 0-16.982 0Z" fill="#0AA5FF" stroke="#fff" stroke-width="1.5" class="svg__stroke--white svg__fill--default-cyan-03"/>
  <circle cx="146.285" cy="125.95" transform="rotate(135 146.285 125.95)" fill="#0AA5FF" stroke="#fff" stroke-width="1.5" r="7.741" class="svg__stroke--white svg__fill--default-cyan-03"/>
  <path d="M100.103 153.573a8.492 8.492 0 1 0-.002-16.984 8.492 8.492 0 0 0 .002 16.984Z" fill="#0AA5FF" stroke="#fff" stroke-width="1.5" class="svg__stroke--white svg__fill--default-cyan-03"/>
  <circle cx="53.923" cy="125.952" transform="rotate(45 53.923 125.952)" fill="#0AA5FF" stroke="#fff" stroke-width="1.5" r="7.741" class="svg__stroke--white svg__fill--default-cyan-03"/>
  <path d="M26.301 79.771a8.491 8.491 0 1 0 16.983 0 8.491 8.491 0 0 0-16.983 0Z" fill="#0AA5FF" stroke="#fff" stroke-width="1.5" class="svg__stroke--white svg__fill--default-cyan-03"/>
  <circle cx="53.922" cy="33.59" transform="rotate(135 53.922 33.59)" fill="#0AA5FF" stroke="#fff" stroke-width="1.5" r="7.741" class="svg__stroke--white svg__fill--default-cyan-03"/>
</svg>