<svg width="200" height="160" viewBox="0 0 200 160" fill="none" xmlns="http://www.w3.org/2000/svg" class="svg__illustration-research">
  <path d="M42.116 125.756h66.081M113.705 125.756h12.015M130.724 125.756h4.005" stroke="#00E0E0" stroke-width="1.5" class="svg__stroke--help-green-03"/>
  <path d="m79.541 144.155 1.096.568v-18.966h-18.26v18.966l1.096-.568 8.034-4.168 8.034 4.168Z" fill="#0AA5FF" stroke="#0AA5FF" stroke-width="1.5" stroke-linecap="square" class="svg__fill--default-cyan-03 svg__stroke--default-cyan-03"/>
  <path fill-rule="evenodd" clip-rule="evenodd" d="M172.861 152.809h8.425v1.5h-6.613l.102.064H39.613c-11.337 0-20.528-9.191-20.528-20.528 0-11.337 9.19-20.528 20.528-20.528h135.162l-.11.07h6.621v1.5h-8.431c-2.529 2.49-6.66 8.202-6.66 18.958 0 10.763 4.137 16.477 6.666 18.964Zm-2.056 0a20.917 20.917 0 0 1-1.565-2.051c-2.312-3.444-4.545-8.867-4.545-16.913s2.233-13.469 4.545-16.913a20.878 20.878 0 0 1 1.561-2.045h-.09v-.07H39.613c-10.509 0-19.028 8.519-19.028 19.028 0 10.509 8.52 19.028 19.028 19.028H170.71v-.064h.094Z" fill="#0B6AB7" class="svg__fill--primary-blue-03"/>
  <path d="M132.497 95.398h-45.07M83.922 95.398h-4.005" stroke="#00E0E0" stroke-width="1.5" class="svg__stroke--help-green-03"/>
  <path d="m96.743 105.142-.964.287V95.399h16.082V105.429l-.964-.287-7.077-2.106-7.077 2.106Z" fill="#0AA5FF" stroke="#0AA5FF" stroke-width="1.5" stroke-linecap="square" class="svg__fill--default-cyan-03 svg__stroke--default-cyan-03"/>
  <path fill-rule="evenodd" clip-rule="evenodd" d="M23.347 113.381h-4.264v1.5h1.889c-.08.038-.123.056-.123.056h140.96c8.135 0 14.73-6.595 14.73-14.73 0-8.135-6.595-14.73-14.73-14.73H20.849l.134.06h-1.9v1.5h4.27c2.533 1.978 6.076 6.023 6.076 13.17 0 7.154-3.55 11.199-6.082 13.174Zm2.284 0c.2-.193.401-.397.603-.613 2.37-2.531 4.695-6.569 4.695-12.561s-2.326-10.03-4.695-12.561c-.2-.214-.4-.416-.598-.608h4.023v-.061h132.15c7.307 0 13.23 5.923 13.23 13.23s-5.923 13.23-13.23 13.23H29.659v-.056H25.63Z" fill="#0B6AB7" class="svg__fill--primary-blue-03"/>
  <path d="m100.184 6.347 23.089 9.563L132.837 39l-9.564 23.088-23.089 9.563-23.088-9.563-9.564-23.089 9.564-23.089 23.088-9.563Z" stroke="#0B6AB7" stroke-width="1.5" class="svg__stroke--primary-blue-03"/>
  <path d="m100.184 10.781 19.954 8.265L128.403 39m-28.219 28.219-19.953-8.265-8.265-19.954" stroke="#FFD600" stroke-width="1.5" class="svg__stroke--secondary-yellow-03"/>
  <path d="m105.382 42.786-.707-.707-1.415 1.414.707.707 1.415-1.414Zm4.515 7.345.707.707 1.414-1.414-.707-.707-1.414 1.414Zm-7.592-3.854c4.95-2.103 7.257-7.82 5.153-12.77l-1.84.782a7.738 7.738 0 0 1-4.095 10.148l.782 1.84Zm5.153-12.77c-2.103-4.95-7.82-7.257-12.77-5.154l.782 1.841a7.738 7.738 0 0 1 10.148 4.095l1.84-.782Zm-12.77-5.154c-4.95 2.104-7.257 7.822-5.154 12.771l1.841-.782a7.738 7.738 0 0 1 4.095-10.148l-.782-1.84Zm-5.154 12.771c2.104 4.95 7.822 7.257 12.771 5.153l-.782-1.84a7.738 7.738 0 0 1-10.148-4.095l-1.84.782Zm14.433 3.076 5.93 5.93 1.414-1.413-5.929-5.93-1.415 1.413Z" fill="#0AA5FF" class="svg__fill--default-cyan-03"/>
</svg>