<svg width="200" height="160" viewBox="0 0 200 160" fill="none" xmlns="http://www.w3.org/2000/svg">
  <path d="m98.687 4.744.727-.186a.75.75 0 0 0-1.453 0l.726.186Zm-.726.185 34.191 133.687 1.454-.372L99.414 4.558l-1.453.371Zm34.197 133.706 4.628 16.313 1.443-.409-4.628-16.314-1.443.41ZM97.961 4.558 63.776 138.244l1.453.372L99.415 4.929l-1.453-.371ZM63.78 138.225l-4.627 16.314 1.442.409 4.628-16.313-1.443-.41Zm69.098-.545H64.503v1.5h68.376v-1.5Z" fill="#0B6AB7" class="svg__fill--primary-blue-03"/>
  <path fill="#fff" d="M91.848 16.001h13.689v8.522H91.848z" class="svg__fill--white"/>
  <rect x="15.628" y="24.189" width="168.77" height="101.715" rx="1.25" fill="#fff" stroke="#0B6AB7" stroke-width="1.5" class="svg__fill--white svg__stroke--primary-blue-03"/>
  <rect x="15.628" y="16.599" width="168.77" height="7.174" rx="1.25" stroke="#0B6AB7" stroke-width="1.5" class="svg__stroke--primary-blue-03"/>
  <rect x="18.834" y="19.525" width="162.503" height="1.355" rx=".678" stroke="#0AA5FF" stroke-width="1.355" class="svg__stroke--default-cyan-03"/>
  <path d="M118.251 50.221h2.481c.909 0 1.646.738 1.646 1.647v47.468c0 .909-.737 1.646-1.646 1.646H82.551s-4.909 0-4.909-5.41m40.609-45.35v39.715h-35.7s-4.908.223-4.909 5.634m40.609-45.35v-4.127H85.874a8.231 8.231 0 0 0-8.232 8.231v41.246" stroke="#0B6AB7" stroke-width="1.25" class="svg__stroke--primary-blue-03"/>
  <path d="m98.761 58.059 7.54 3.123 3.122 7.539-3.122 7.539-7.54 3.123-7.539-3.123-3.123-7.54 3.123-7.538 7.54-3.123Z" stroke="#FFD600" stroke-width="1.25" class="svg__stroke--secondary-yellow-03"/>
  <path d="M84.665 96.299h21.73M108.204 96.299h3.951M113.8 96.299h1.317" stroke="#00E0E0" stroke-width="1.25" class="svg__stroke--help-green-03"/>
  <path d="m94.355 101.378 4.28 2.914a.037.037 0 0 0 .057-.03v-8.605h-8.674v8.605c0 .029.032.047.057.03l4.28-2.914Z" fill="#0AA5FF" class="svg__fill--default-cyan-03"/>
</svg>