<svg width="200" height="160" viewBox="0 0 200 160" fill="none" xmlns="http://www.w3.org/2000/svg">
  <path d="M9.09 113.223h181.82v18.266a7.25 7.25 0 0 1-7.25 7.25H16.34a7.25 7.25 0 0 1-7.25-7.25v-18.266ZM83.79 139.488V155m32.212-15.512V155m0 0h19.063m-19.063 0H83.791m0 0H65.385" stroke="#0B6AB7" stroke-width="1.5" class="svg__stroke--primary-blue-03"/>
  <path d="M14.34 5.75h171.32c2.9 0 5.25 2.35 5.25 5.25v102.253H9.09V11c0-2.9 2.35-5.25 5.25-5.25Z" stroke="#0B6AB7" stroke-width="1.5" class="svg__stroke--primary-blue-03"/>
  <path d="m185.176 19.355-28.091 11.636-11.636 28.09 11.636 28.091 28.091 11.636" stroke="#FFD600" stroke-width="1.5" class="svg__stroke--secondary-yellow-03"/>
  <path d="M17.786 10.94h164.428a3.25 3.25 0 0 1 3.25 3.25v89.781a3.25 3.25 0 0 1-3.25 3.25H17.786a3.25 3.25 0 0 1-3.25-3.25v-89.78a3.25 3.25 0 0 1 3.25-3.25Z" stroke="#0AA5FF" stroke-width="1.5" class="svg__stroke--default-cyan-03"/>
  <path d="m99.995 131.954 4.226-1.75 1.75-4.225-1.75-4.225-4.226-1.751-4.225 1.751-1.75 4.225 1.75 4.225 4.225 1.75Z" fill="#0AA5FF" class="svg__fill--default-cyan-03"/>
  <path d="M44.446 35.502h40M44.446 41.502h40M44.446 47.502h40M44.446 53.502h40M44.446 59.502H75.44M44.446 71.502h40M44.446 77.502h40M44.446 83.502h23.942M92.446 41.502h24M92.446 35.502h24M92.446 47.502h12.918M92.446 59.502h24M92.446 65.502h24M92.446 71.502h24M92.446 77.502h24M92.446 83.502h20.344" stroke="#00E0E0" stroke-width="1.5" class="svg__stroke--help-green-03"/>
</svg>