<svg width="200" height="160" viewBox="0 0 200 160" fill="none" xmlns="http://www.w3.org/2000/svg">
  <path d="M47.057 126.249h66.183M118.756 126.249h12.034M135.802 126.249h4.011" stroke="#00E0E0" stroke-width="1.5" class="svg__stroke--help-green-03"/>
  <path d="m84.54 144.675 1.096.568V126.251H67.351V145.243l1.096-.568 8.047-4.175 8.047 4.175Z" fill="#0AA5FF" stroke="#0AA5FF" stroke-width="1.5" stroke-linecap="square" class="svg__fill--default-cyan-03 svg__stroke--default-cyan-03"/>
  <path fill-rule="evenodd" clip-rule="evenodd" d="m179.744 154.844.177.066H44.551c-11.355 0-20.56-9.205-20.56-20.56 0-11.354 9.205-20.559 20.56-20.559h135.37s-1.303.451-3.129 1.5c-4.273 2.454-11.411 8.182-11.411 19.059 0 10.782 7.013 16.504 11.298 18.994h9.763v1.5h-6.698Zm-8.084-3.266c.79.695 1.58 1.304 2.336 1.832H44.551c-10.527 0-19.06-8.533-19.06-19.06 0-10.526 8.533-19.059 19.06-19.059h129.445a26.407 26.407 0 0 0-2.336 1.832c-3.872 3.408-7.779 8.931-7.779 17.227 0 8.297 3.907 13.82 7.779 17.228Z" fill="#0B6AB7" class="svg__fill--primary-blue-03"/>
  <path d="M37.08 6.655h135.074a7.25 7.25 0 0 1 7.25 7.25v90.649H29.83V13.905a7.25 7.25 0 0 1 7.25-7.25Z" stroke="#0B6AB7" stroke-width="1.5" class="svg__stroke--primary-blue-03"/>
  <path d="M38.049 11.208H171.19a3.25 3.25 0 0 1 3.25 3.25V100H34.799V14.458a3.25 3.25 0 0 1 3.25-3.25Z" stroke="#0AA5FF" stroke-width="1.5" class="svg__stroke--default-cyan-03"/>
  <path d="M11.294 104.671h185.82v2.632a7.25 7.25 0 0 1-7.25 7.25H18.544a7.25 7.25 0 0 1-7.25-7.25v-2.632Z" stroke="#0B6AB7" stroke-width="1.5" class="svg__stroke--primary-blue-03"/>
  <path d="m44.162 35.644 15.416-15.416M44.941 28.706l7.708-7.709M44.418 23.053l2.569-2.57" stroke="#00E0E0" stroke-width="1.5" class="svg__stroke--help-green-03"/>
  <path d="m174.189 13.89-29.496 12.218-12.218 29.496 12.218 29.497 29.496 12.218" stroke="#FFD600" stroke-width="1.5" class="svg__stroke--secondary-yellow-03"/>
</svg>