<svg width="200" height="160" viewBox="0 0 200 160" fill="none" xmlns="http://www.w3.org/2000/svg" class="svg__illustration-study">
<path d="M103.463 120.606L156 120.415" stroke="#00E0E0" stroke-width="1.5" class="svg__stroke--help-green-03"/>
<path d="M127.566 131.93L128.652 132.475L128.653 131.259L128.659 121.369L128.66 120.619L127.91 120.62L117.824 120.625L117.074 120.625L117.074 121.375L117.068 131.265L117.067 132.481L118.154 131.935L122.861 129.57L127.566 131.93Z" fill="#0AA5FF" stroke="#0AA5FF" stroke-width="1.5" stroke-linecap="square" class="svg__stroke--cyan-default-03"/>
<path fill-rule="evenodd" clip-rule="evenodd" d="M184.426 137.132C184.125 136.89 183.734 136.539 183.308 136.063C181.807 134.385 179.87 131.149 179.873 125.626C179.876 120.103 181.817 116.865 183.32 115.186C183.72 114.739 184.089 114.403 184.382 114.163C184.786 113.832 185.046 113.685 185.046 113.685L182.677 113.686L103.252 113.724C96.658 113.727 91.3095 119.074 91.3055 125.668C91.3015 132.261 96.6435 137.604 103.237 137.601L182.663 137.563L185.031 137.562C185.031 137.562 184.796 137.429 184.426 137.132ZM181.383 136.064C181.328 135.988 181.273 135.911 181.218 135.831C179.754 133.724 178.37 130.442 178.373 125.627C178.376 120.812 179.764 117.528 181.23 115.419C181.285 115.34 181.341 115.262 181.396 115.187L103.251 115.224C97.4855 115.226 92.809 119.902 92.8055 125.667C92.802 131.432 97.4728 136.104 103.238 136.101L181.383 136.064Z" fill="#0B6AB7" class="svg__fill--primary-blue-03"/>
<path d="M147 103.415L149.412 103.414" stroke="#00E0E0" stroke-width="1.5" class="svg__stroke--help-green-03"/>
<path d="M103.463 103.246L145 103.415" stroke="#00E0E0" stroke-width="1.5" class="svg__stroke--help-green-03"/>
<path d="M138.992 109.544L139.95 109.819L139.95 108.823L139.953 104.005L139.954 103.255L139.203 103.256L130.426 103.26L129.676 103.26L129.675 104.01L129.672 108.827L129.672 109.824L130.629 109.548L134.812 108.342L138.992 109.544Z" fill="#0AA5FF" stroke="#0AA5FF" stroke-width="1.5" stroke-linecap="square" class="svg__stroke--default-cyan-03" class="svg__fill--default-cyan-03"/>
<path fill-rule="evenodd" clip-rule="evenodd" d="M183.898 97.9122C184.42 97.5849 184.773 97.4415 184.773 97.4415L181.993 97.4429L99.5947 97.4851C94.8673 97.4875 91.0328 101.322 91.0302 106.049C91.0275 110.776 94.8577 114.606 99.5851 114.604L181.983 114.562L184.763 114.56C184.763 114.56 184.443 114.431 183.962 114.136C183.568 113.894 183.067 113.543 182.546 113.062C181.146 111.769 179.6 109.54 179.602 106.004C179.604 102.467 181.152 100.237 182.554 98.9426C183.044 98.49 183.516 98.1518 183.898 97.9122ZM180.501 98.9437C179.217 100.522 178.104 102.823 178.102 106.004C178.1 109.186 179.21 111.486 180.493 113.063L99.5859 113.104C95.687 113.106 92.528 109.947 92.5302 106.048C92.5324 102.149 95.6949 98.9871 99.5939 98.9851L180.501 98.9437Z" fill="#0B6AB7" class="svg__fill--primary-blue-03"/>
<path d="M80.179 43.8389L88.8795 47.3262L92.4834 55.7452L88.8795 64.1643L80.179 67.6516L71.4784 64.1643L67.8745 55.7452L71.4784 47.3262L80.179 43.8389Z" stroke="#FFD600" class="svg__stroke--secondary-yellow-03"/>
<path d="M7 137.569H63.989" stroke="#0B6AB7" stroke-width="2" class="svg__stroke--primary-blue-03"/>
<path d="M54.9224 52.6121L21.2471 77.0515" stroke="#0B6AB7" stroke-width="2" class="svg__stroke--primary-blue-03"/>
<path d="M35.4946 67.6519V137.837" stroke="#0B6AB7" stroke-width="2" class="svg__stroke--primary-blue-03"/>
<path d="M54.9904 28.4823C55.0124 28.03 55.2849 27.6296 55.7009 27.4386L72.3375 19.7997C72.7535 19.6087 73.2464 19.6576 73.6223 19.9272L105.401 42.7169C106.18 43.2754 106.079 44.4382 105.217 44.834L54.9471 67.9163C54.0852 68.312 53.0904 67.6524 53.1359 66.7153L54.9904 28.4823Z" fill="white" stroke="#0B6AB7" stroke-width="1.5" class="svg__stroke--primary-blue-03"/>
<rect x="7" y="146.189" width="186.132" height="3.27473" rx="1.63736" fill="#0AA5FF" class="svg__stroke--default-cyan-03"/>
</svg>
