<svg width="268" height="22" viewBox="0 0 268 22" fill="none" xmlns="http://www.w3.org/2000/svg" class="svg__logo-library-digital-collections">
<path d="M0.0509727 13.4132C-0.0198227 12.8002 0.00377576 11.9045 0.00377576 11.4566L0.947715 0.801489H4.41669L3.47275 11.5273C3.26037 13.861 4.18071 15.5112 6.51696 15.5112C8.85321 15.5112 10.1275 13.8375 10.3399 11.7866L11.331 0.801489H14.8236L13.8561 11.6452C13.4549 15.8176 10.6939 18.9529 6.21018 18.9529C2.7412 18.9293 0.475746 16.6898 0.0509727 13.4132ZM16.2395 9.80645C16.7115 4.71464 20.1569 0.471464 26.1037 0.471464C27.6848 0.471464 29.1951 0.825062 30.6818 1.81514L30.2806 6.03474C28.9119 4.2196 27.2836 3.93672 25.7733 3.93672C22.0684 3.93672 20.0389 6.5062 19.7321 9.75931C19.4489 12.9417 21.1008 15.5112 24.6878 15.5112C26.2453 15.5112 27.8972 15.0633 29.6435 13.3189L29.2659 17.6563C27.5668 18.5757 25.9857 19 24.4046 19C18.5286 18.9764 15.8148 14.5918 16.2395 9.80645ZM33.49 0.801489H36.959L35.6847 15.2519H40.664C41.018 15.2519 42.2215 15.2283 42.5283 15.2283L42.1979 18.5521H31.8853L33.49 0.801489ZM52.5104 0H52.2508L42.717 18.5521H46.422L47.7435 15.7233H54.4691L55.295 18.5521H59L52.5104 0ZM51.6137 7.42556C51.7317 7.18983 51.8025 6.8598 51.8733 6.69479H51.9205C51.9441 6.93052 51.9677 7.18983 52.0384 7.44913C52.2272 8.25062 53.5959 12.7531 53.5959 12.7531H49.183L51.6137 7.42556Z" fill="#0B6AB7"/>
<path d="M66 18.617V6.29342H68.713V16.3387H74.7266V18.617H66Z" fill="black"/>
<path d="M75.7077 18.617V9.69363H78.1615V18.617H75.7077ZM78.1615 6.29342V8.31284H75.7077V6.29342H78.1615Z" fill="black"/>
<path d="M79.7481 18.617V6.29342H82.2019V10.781H82.2365C82.8413 9.86623 83.9472 9.452 85.0532 9.452C86.8331 9.452 88.7512 10.8846 88.7512 14.1467C88.7512 17.4261 86.8331 18.8587 85.0532 18.8587C83.7399 18.8587 82.6512 18.4617 82.1155 17.4779H82.0809V18.617H79.7481ZM86.2974 14.164C86.2974 12.6624 85.658 11.2988 84.2064 11.2988C82.7549 11.2988 82.1155 12.6624 82.1155 14.164C82.1155 15.6483 82.7549 17.0119 84.2064 17.0119C85.658 17.0119 86.2974 15.6483 86.2974 14.164Z" fill="black"/>
<path d="M89.9665 18.617V9.69363H92.2994V11.3506H92.3339C92.7832 10.2287 93.9929 9.452 95.1852 9.452C95.358 9.452 95.5654 9.48652 95.7209 9.5383V11.8166C95.4962 11.7648 95.1334 11.7303 94.8396 11.7303C93.0424 11.7303 92.4203 13.0248 92.4203 14.5955V18.617H89.9665Z" fill="black"/>
<path d="M101.902 15.165V14.2503C101.487 14.6127 100.623 14.63 99.8625 14.7681C99.1022 14.9234 98.411 15.1823 98.411 16.0798C98.411 16.9946 99.1195 17.219 99.9144 17.219C101.833 17.219 101.902 15.7001 101.902 15.165ZM98.6875 12.438H96.2336C96.3719 10.1424 98.4283 9.452 100.433 9.452C102.213 9.452 104.355 9.84897 104.355 11.9892V16.6321C104.355 17.4434 104.442 18.2546 104.667 18.617H102.178C102.092 18.3409 102.023 18.0475 102.005 17.754C101.228 18.5653 100.087 18.8587 98.9985 18.8587C97.305 18.8587 95.9572 18.0129 95.9572 16.1834C95.9572 14.164 97.4778 13.6807 98.9985 13.4736C100.502 13.2492 101.902 13.301 101.902 12.2999C101.902 11.247 101.176 11.0917 100.312 11.0917C99.3787 11.0917 98.7739 11.4714 98.6875 12.438Z" fill="black"/>
<path d="M105.914 18.617V9.69363H108.247V11.3506H108.282C108.731 10.2287 109.941 9.452 111.133 9.452C111.306 9.452 111.513 9.48652 111.669 9.5383V11.8166C111.444 11.7648 111.081 11.7303 110.788 11.7303C108.99 11.7303 108.368 13.0248 108.368 14.5955V18.617H105.914Z" fill="black"/>
<path d="M120.424 9.69363L116.692 19.7389C116.156 21.1715 115.309 21.7584 113.616 21.7584C113.115 21.7584 112.614 21.7238 112.112 21.6721V19.6526C112.579 19.6872 113.063 19.7562 113.547 19.7389C114.394 19.6526 114.67 18.7724 114.394 18.0647L111.248 9.69363H113.875L115.897 15.8037H115.931L117.884 9.69363H120.424Z" fill="black"/>
<path d="M125.624 18.617V6.29342H130.946C134.143 6.29342 136.545 8.29558 136.545 12.3862C136.545 15.959 134.713 18.617 130.946 18.617H125.624ZM128.337 8.57174V16.3387H130.756C132.328 16.3387 133.832 15.3722 133.832 12.6451C133.832 10.1597 132.968 8.57174 130.272 8.57174H128.337Z" fill="black"/>
<path d="M137.896 18.617V9.69363H140.35V18.617H137.896ZM140.35 6.29342V8.31284H137.896V6.29342H140.35Z" fill="black"/>
<path d="M150.525 9.69363V18.0475C150.525 19.5146 150.007 22 145.894 22C144.131 22 142.075 21.1715 141.954 19.1348H144.391C144.615 20.0496 145.358 20.3603 146.222 20.3603C147.588 20.3603 148.21 19.4283 148.192 18.151V16.9773H148.158C147.622 17.9094 146.551 18.3581 145.479 18.3581C142.801 18.3581 141.66 16.3215 141.66 13.8705C141.66 11.5577 142.991 9.452 145.497 9.452C146.672 9.452 147.57 9.84897 148.158 10.8846H148.192V9.69363H150.525ZM146.101 16.5113C147.501 16.5113 148.192 15.3204 148.192 14.0431C148.192 12.5933 147.691 11.2988 146.101 11.2988C144.719 11.2988 144.114 12.507 144.114 13.836C144.114 15.1133 144.598 16.5113 146.101 16.5113Z" fill="black"/>
<path d="M152.224 18.617V9.69363H154.678V18.617H152.224ZM154.678 6.29342V8.31284H152.224V6.29342H154.678Z" fill="black"/>
<path d="M159.375 7.01834V9.69363H161.172V11.3333H159.375V15.7519C159.375 16.5804 159.583 16.7875 160.412 16.7875C160.671 16.7875 160.913 16.7702 161.172 16.7184V18.6343C160.758 18.7033 160.222 18.7206 159.738 18.7206C158.235 18.7206 156.921 18.3754 156.921 16.5976V11.3333H155.435V9.69363H156.921V7.01834H159.375Z" fill="black"/>
<path d="M167.559 15.165V14.2503C167.144 14.6127 166.28 14.63 165.519 14.7681C164.759 14.9234 164.068 15.1823 164.068 16.0798C164.068 16.9946 164.776 17.219 165.571 17.219C167.489 17.219 167.559 15.7001 167.559 15.165ZM164.344 12.438H161.891C162.029 10.1424 164.085 9.452 166.09 9.452C167.87 9.452 170.012 9.84897 170.012 11.9892V16.6321C170.012 17.4434 170.099 18.2546 170.323 18.617H167.835C167.749 18.3409 167.68 18.0475 167.662 17.754C166.885 18.5653 165.744 18.8587 164.655 18.8587C162.962 18.8587 161.614 18.0129 161.614 16.1834C161.614 14.164 163.135 13.6807 164.655 13.4736C166.159 13.2492 167.559 13.301 167.559 12.2999C167.559 11.247 166.833 11.0917 165.969 11.0917C165.036 11.0917 164.431 11.4714 164.344 12.438Z" fill="black"/>
<path d="M171.641 18.617V6.29342H174.094V18.617H171.641Z" fill="black"/>
<path d="M191.256 10.4358H188.63C188.457 9.21036 187.282 8.27832 185.934 8.27832C183.497 8.27832 182.581 10.3495 182.581 12.507C182.581 14.5609 183.497 16.6321 185.934 16.6321C187.593 16.6321 188.526 15.493 188.733 13.8705H191.36C191.083 16.9428 188.958 18.9105 185.934 18.9105C182.115 18.9105 179.868 16.0626 179.868 12.507C179.868 8.84789 182.115 6 185.934 6C188.647 6 190.928 7.58792 191.256 10.4358Z" fill="black"/>
<path d="M192.331 14.164C192.331 11.3161 194.146 9.452 196.945 9.452C199.762 9.452 201.576 11.3161 201.576 14.164C201.576 16.9946 199.762 18.8587 196.945 18.8587C194.146 18.8587 192.331 16.9946 192.331 14.164ZM194.785 14.164C194.785 15.5793 195.286 17.0119 196.945 17.0119C198.621 17.0119 199.122 15.5793 199.122 14.164C199.122 12.7314 198.621 11.2988 196.945 11.2988C195.286 11.2988 194.785 12.7314 194.785 14.164Z" fill="black"/>
<path d="M202.895 18.617V6.29342H205.349V18.617H202.895Z" fill="black"/>
<path d="M207.005 18.617V6.29342H209.459V18.617H207.005Z" fill="black"/>
<path d="M219.513 14.7508H213.067C213.136 16.3042 213.896 17.0119 215.262 17.0119C216.247 17.0119 217.041 16.4078 217.197 15.8554H219.357C218.666 17.9612 217.197 18.8587 215.175 18.8587C212.358 18.8587 210.613 16.9256 210.613 14.164C210.613 11.4887 212.462 9.452 215.175 9.452C218.216 9.452 219.685 12.0065 219.513 14.7508ZM213.067 13.1974H217.059C216.834 11.9547 216.298 11.2988 215.106 11.2988C213.551 11.2988 213.102 12.507 213.067 13.1974Z" fill="black"/>
<path d="M229.107 12.835H226.705C226.549 11.8339 225.91 11.2988 224.891 11.2988C223.318 11.2988 222.8 12.8867 222.8 14.1985C222.8 15.4757 223.301 17.0119 224.839 17.0119C225.979 17.0119 226.636 16.2869 226.791 15.1996H229.159C228.848 17.5642 227.206 18.8587 224.856 18.8587C222.16 18.8587 220.346 16.9601 220.346 14.2848C220.346 11.5059 222.005 9.452 224.908 9.452C227.016 9.452 228.951 10.5566 229.107 12.835Z" fill="black"/>
<path d="M233.31 7.01834V9.69363H235.107V11.3333H233.31V15.7519C233.31 16.5804 233.517 16.7875 234.347 16.7875C234.606 16.7875 234.848 16.7702 235.107 16.7184V18.6343C234.692 18.7033 234.157 18.7206 233.673 18.7206C232.169 18.7206 230.856 18.3754 230.856 16.5976V11.3333H229.37V9.69363H230.856V7.01834H233.31Z" fill="black"/>
<path d="M235.998 18.617V9.69363H238.452V18.617H235.998ZM238.452 6.29342V8.31284H235.998V6.29342H238.452Z" fill="black"/>
<path d="M239.762 14.164C239.762 11.3161 241.576 9.452 244.376 9.452C247.193 9.452 249.007 11.3161 249.007 14.164C249.007 16.9946 247.193 18.8587 244.376 18.8587C241.576 18.8587 239.762 16.9946 239.762 14.164ZM242.216 14.164C242.216 15.5793 242.717 17.0119 244.376 17.0119C246.052 17.0119 246.553 15.5793 246.553 14.164C246.553 12.7314 246.052 11.2988 244.376 11.2988C242.717 11.2988 242.216 12.7314 242.216 14.164Z" fill="black"/>
<path d="M250.257 18.617V9.69363H252.59V10.9364H252.642C253.264 9.93527 254.335 9.452 255.372 9.452C257.981 9.452 258.638 10.9191 258.638 13.1284V18.617H256.184V13.5771C256.184 12.11 255.752 11.3851 254.612 11.3851C253.281 11.3851 252.711 12.1273 252.711 13.9396V18.617H250.257Z" fill="black"/>
<path d="M259.723 15.7174H262.056C262.073 16.7875 262.971 17.219 263.939 17.219C264.648 17.219 265.546 16.9428 265.546 16.0798C265.546 15.3376 264.527 15.0787 262.764 14.699C261.347 14.3883 259.93 13.8878 259.93 12.3172C259.93 10.0388 261.9 9.452 263.818 9.452C265.771 9.452 267.568 10.1079 267.758 12.2999H265.425C265.356 11.3506 264.63 11.0917 263.749 11.0917C263.196 11.0917 262.384 11.1953 262.384 11.9202C262.384 12.8004 263.766 12.9213 265.166 13.2492C266.6 13.5771 268 14.0949 268 15.7519C268 18.0992 265.961 18.8587 263.922 18.8587C261.848 18.8587 259.826 18.082 259.723 15.7174Z" fill="black"/>
</svg>
