<svg width="115" height="22" viewBox="0 0 115 22" fill="none" xmlns="http://www.w3.org/2000/svg" class="svg__logo-library">
<path d="M64.2231 6.91406H66.6533V16.8684H72.2837V18.8963H64.2231V6.91406Z" fill="#0F0F0F" class="svg__fill--black"/>
<path d="M73.1401 6.91406H75.421V8.95857H73.1401V6.91406ZM73.1401 10.3008H75.421V18.8957H73.1401V10.3008Z" fill="#0F0F0F" class="svg__fill--black"/>
<path d="M79.0763 17.8236H79.0425V18.8963H76.8452V6.91406H79.1261V11.3376H79.1772C79.4275 10.9318 79.7814 10.5999 80.2024 10.3762C80.6234 10.1524 81.0965 10.0448 81.5729 10.0645C83.7349 10.0645 85.2769 11.9237 85.2769 14.6055C85.2769 17.3868 83.8019 19.1466 81.6406 19.1466C81.1342 19.1731 80.6299 19.0645 80.1793 18.832C79.7287 18.5994 79.348 18.2511 79.0763 17.8229V17.8236ZM82.9642 14.6055C82.9642 13.0158 82.327 11.9099 81.0538 11.9099C79.612 11.9099 79.0763 13.0663 79.0763 14.6573C79.0763 16.2332 79.8643 17.2389 81.1374 17.2389C82.3124 17.2389 82.9642 16.2664 82.9642 14.6076" fill="#0F0F0F" class="svg__fill--black"/>
<path d="M88.5549 11.6745H88.6054C89.1245 10.7027 89.7113 10.1995 90.7169 10.1995C90.8982 10.1895 91.0798 10.2129 91.2526 10.2687V12.2627H91.2028C89.7113 12.112 88.6385 12.9 88.6385 14.7095V18.8987H86.3577V10.3005H88.5528L88.5549 11.6745Z" fill="#0F0F0F" class="svg__fill--black"/>
<path d="M97.1455 17.9435H97.1124C96.6762 18.5967 96.0562 19.0998 94.582 19.0998C92.8222 19.0998 91.5815 18.1778 91.5815 16.4685C91.5815 14.5747 93.1236 13.972 95.0374 13.7038C96.4613 13.5027 97.1158 13.3859 97.1158 12.732C97.1158 12.11 96.632 11.7098 95.6747 11.7098C94.602 11.7098 94.085 12.0954 94.0159 12.9159H91.988C92.0571 11.4084 93.1775 10.082 95.6913 10.082C98.2729 10.082 99.3117 11.2391 99.3117 13.2497V17.6235C99.3117 18.2767 99.4119 18.6603 99.613 18.8137V18.8973H97.4179C97.2612 18.6018 97.1697 18.276 97.1497 17.9421L97.1455 17.9435ZM97.1663 15.8637V14.5747C96.6609 14.8117 96.1263 14.9807 95.5766 15.0772C94.387 15.3454 93.8002 15.6142 93.8002 16.4181C93.8002 17.2219 94.3359 17.5074 95.1404 17.5074C96.4481 17.5074 97.1683 16.7035 97.1683 15.8651" fill="#0F0F0F" class="svg__fill--black"/>
<path d="M102.914 11.6745H102.965C103.484 10.7027 104.071 10.1995 105.076 10.1995C105.258 10.1895 105.439 10.2129 105.612 10.2687V12.2627H105.562C104.071 12.112 102.998 12.9 102.998 14.7095V18.8987H100.717V10.3005H102.912L102.914 11.6745Z" fill="#0F0F0F" class="svg__fill--black"/>
<path d="M106.914 19.9198H107.719C108.624 19.9198 108.992 19.4498 108.992 18.7448C108.903 17.9377 108.683 17.1506 108.339 16.4148L106.026 10.2979H108.423L109.696 14.1685C109.964 14.9557 110.249 16.045 110.249 16.045H110.283C110.283 16.045 110.517 14.9557 110.786 14.1685L111.992 10.2979H114.288L111.288 19.1132C110.635 21.0236 109.998 21.7106 108.255 21.7106H106.914V19.9198Z" fill="#0F0F0F" class="svg__fill--black"/>
<path d="M0.666559 13.818C0.614596 13.1713 0.600979 12.5221 0.625779 11.8738L1.55127 1.3623H4.99334L4.04919 11.9657C3.84667 14.2611 4.74659 15.8971 7.03785 15.8971C9.37887 15.8971 10.6168 14.2328 10.8207 12.1965L11.7973 1.3623H15.2366L14.2862 12.0611C13.902 16.1798 11.169 19.2652 6.75239 19.2652C3.30686 19.2652 1.08472 17.0383 0.670014 13.818" fill="#0B6AB7" class="svg__fill--primary-blue-03"/>
<path d="M16.029 10.2578C16.4776 5.21216 19.8824 1.02914 25.7622 1.02914C27.3648 1.00627 28.9379 1.46155 30.2805 2.33685L29.8858 6.50466C29.3791 5.81083 28.7048 5.25673 27.926 4.89412C27.1471 4.53151 26.289 4.37222 25.4319 4.43113C21.7727 4.43113 19.7642 6.9719 19.4787 10.1893C19.2023 13.3218 20.8182 15.8681 24.3626 15.8681C25.2866 15.8725 26.2012 15.6822 27.0467 15.3095C27.8922 14.9369 28.6498 14.3903 29.27 13.7054L28.885 17.9858C27.4251 18.8272 25.7744 19.2814 24.0896 19.3053C18.2705 19.3053 15.606 14.9827 16.0242 10.2578" fill="#0B6AB7" class="svg__fill--primary-blue-03"/>
<path d="M33.0275 1.3623H36.4592L35.2061 15.6352H40.1238C40.4694 15.6352 41.6444 15.6172 41.9596 15.5985C41.9416 15.7706 41.6472 18.8961 41.6472 18.8961H31.4709L33.0275 1.3623Z" fill="#0B6AB7" class="svg__fill--primary-blue-03"/>
<path d="M50.9032 7.90896C51.0106 7.67206 51.0955 7.42561 51.1569 7.17286C51.1753 7.17151 51.1937 7.17151 51.2122 7.17286C51.2327 7.42362 51.2767 7.67191 51.3435 7.91449C51.5301 8.71419 52.8641 13.1529 52.8641 13.1529H48.5352C48.5352 13.1529 50.8569 8.02508 50.9032 7.91173V7.90896ZM51.7838 0.561035H51.546L42.1494 18.8966H45.7961L47.1169 16.1126H53.7363L54.5658 18.8939H58.2041L51.7838 0.561035Z" fill="#0B6AB7" class="svg__fill--primary-blue-03"/>
</svg>
