<svg version="1.1" id="Layer_1" xmlns="http://www.w3.org/2000/svg" xmlns:xlink="http://www.w3.org/1999/xlink" x="0px" y="0px"
	 width="100%" viewBox="0 0 1623 317" enable-background="new 0 0 1623 317" xml:space="preserve" class="svg__logo-ftva" role="img">
   <title>UCLA Film and Television Archive</title>
<path fill="#000000" opacity="1.000000" stroke="none" 
	d="
M1537.000000,318.000000 
	C1024.732544,318.000000 512.965149,318.000000 1.098845,318.000000 
	C1.098845,212.412918 1.098845,106.825706 1.098845,1.119251 
	C542.000000,1.119251 1083.000000,1.119251 1623.994141,1.119251 
	C1623.994141,106.701653 1623.994141,212.350830 1623.991211,318.000000 
	C1595.158813,318.000000 1566.329468,318.000000 1537.000000,318.000000 
M84.822533,180.497894 
	C84.879715,183.326111 84.795860,186.165405 85.017250,188.980713 
	C86.326797,205.633545 97.944633,218.929535 113.649529,221.849304 
	C140.232010,226.791336 163.992905,209.298782 166.982773,182.355408 
	C168.522980,168.475693 169.654999,154.550079 170.914993,140.640091 
	C171.703018,131.940582 172.385925,123.231537 173.120499,114.472977 
	C165.768784,114.472977 159.025375,114.472977 152.160614,114.472977 
	C150.748062,130.340561 149.450409,145.912079 147.941544,161.463120 
	C147.140472,169.719254 146.727539,178.122375 144.789474,186.132538 
	C142.060532,197.411392 130.933914,203.802414 119.822815,201.659958 
	C110.107384,199.786652 104.712044,192.162582 105.593300,180.856888 
	C106.781769,165.610184 108.288795,150.388474 109.625977,135.153137 
	C110.229279,128.279373 110.752563,121.398590 111.309906,114.548630 
	C103.926407,114.548630 97.204964,114.548630 90.323860,114.548630 
	C88.468979,136.454102 86.645966,157.983246 84.822533,180.497894 
M189.908447,134.422348 
	C180.713516,147.017441 176.982101,161.273682 177.524094,176.665024 
	C178.263443,197.660370 189.788406,214.068359 207.826416,219.920227 
	C223.118164,224.881149 238.029648,223.487564 252.366180,216.339752 
	C253.777924,215.635880 255.473282,213.952332 255.639679,212.556870 
	C256.547974,204.939545 257.018890,197.270081 257.668854,189.265976 
	C253.907928,191.975952 250.732407,194.677902 247.187805,196.747833 
	C230.161423,206.690811 199.937271,203.869476 198.695129,173.504456 
	C197.767105,150.818008 211.320282,131.122787 238.773529,133.193130 
	C247.781631,133.872452 255.132370,137.934937 261.503845,145.687393 
	C262.215790,137.976028 262.474243,131.360596 263.555542,124.882492 
	C264.213806,120.938774 262.785004,119.313446 259.568115,117.652092 
	C237.196152,106.098167 206.559021,113.188110 189.908447,134.422348 
M346.490753,220.177185 
	C355.064423,221.952881 360.265778,218.537964 362.271210,210.036377 
	C362.530029,208.939178 363.502930,208.015793 363.790436,206.918945 
	C364.509155,204.177048 366.173462,203.427917 368.915405,203.463348 
	C379.738312,203.603226 390.565430,203.615173 401.387848,203.457520 
	C404.261719,203.415665 405.480347,204.351624 406.136475,207.152863 
	C407.153076,211.492889 408.681091,215.713135 409.935486,219.799271 
	C417.430939,219.799271 424.609131,219.799271 432.122498,219.799271 
	C419.125092,182.680801 406.284027,146.008835 393.442993,109.336876 
	C392.943390,109.309082 392.443787,109.281296 391.944183,109.253502 
	C373.101990,146.019684 354.259796,182.785858 335.097198,220.177185 
	C339.217865,220.177185 342.365417,220.177185 346.490753,220.177185 
M295.647827,177.222549 
	C297.464050,156.298386 299.280243,135.374237 301.103455,114.369202 
	C293.725281,114.369202 287.122467,114.369202 280.157623,114.369202 
	C277.024261,149.672150 273.907074,184.792709 270.792572,219.883423 
	C291.722229,219.883423 311.943420,219.883423 332.465179,219.883423 
	C333.051117,213.257751 333.613190,206.902039 334.223236,200.004089 
	C320.339508,200.004089 307.114502,200.004089 293.657745,200.004089 
	C294.309845,192.375458 294.918335,185.256729 295.647827,177.222549 
M733.498108,182.206238 
	C729.723389,182.206238 725.948669,182.206238 722.299561,182.206238 
	C721.331848,186.083374 720.476501,189.510269 719.380859,193.899979 
	C715.822266,189.269928 713.021667,185.626099 710.207397,181.964462 
	C722.216980,173.811768 725.746887,165.035828 720.781311,156.298981 
	C716.178223,148.199936 703.427551,144.732346 694.302917,149.840973 
	C690.938538,151.724655 687.677612,155.138824 686.124512,158.634644 
	C682.790588,166.139297 685.798035,173.124664 690.457520,179.120331 
	C687.672607,181.060501 685.242859,182.530350 683.067017,184.310471 
	C676.271667,189.869858 673.569336,197.085312 675.510193,205.646362 
	C677.460876,214.250793 683.508789,218.666275 691.875366,220.359756 
	C701.449341,222.297577 710.298584,220.472717 718.241272,215.187515 
	C723.833801,223.017731 731.506897,218.020660 738.208740,219.194977 
	C735.708923,215.102997 733.054688,211.364929 730.087097,207.894745 
	C728.231079,205.724335 728.321411,204.074615 729.272522,201.342560 
	C731.372803,195.308975 732.554382,188.955536 733.498108,182.206238 
M590.183655,217.172012 
	C590.192322,207.673416 589.995422,198.168655 590.279968,188.678329 
	C590.478394,182.061066 594.619568,177.925156 599.939697,178.191422 
	C605.016174,178.445480 607.133362,181.486633 607.142273,188.608444 
	C607.154968,198.735611 607.145508,208.862793 607.145508,219.259186 
	C611.974670,219.259186 616.393677,219.259186 621.185974,219.259186 
	C621.185974,217.237396 621.184509,215.426956 621.186279,213.616516 
	C621.194458,205.284470 620.978333,196.944199 621.282898,188.622986 
	C621.530151,181.869263 625.484253,177.929901 630.921082,178.191254 
	C636.013672,178.436050 638.133057,181.466736 638.142212,188.589874 
	C638.155212,198.719620 638.145508,208.849396 638.145508,219.253983 
	C642.958069,219.253983 647.377197,219.253983 652.018127,219.253983 
	C652.018127,206.249619 652.474487,193.426285 651.874756,180.652542 
	C651.389038,170.307220 641.651855,163.679230 631.480713,166.608124 
	C627.000061,167.898376 623.091980,171.177124 618.815979,173.614578 
	C610.721375,163.548660 602.095520,163.138702 590.129395,172.878937 
	C589.913147,171.094864 589.708740,169.408859 589.514465,167.806290 
	C584.886902,167.806290 580.627380,167.806290 576.355347,167.806290 
	C576.355347,185.095474 576.355347,202.043625 576.355347,220.133835 
	C581.160095,219.427841 585.659180,218.766754 590.183655,217.172012 
M1227.910522,173.258041 
	C1222.572144,188.531403 1217.233765,203.804749 1211.812012,219.316803 
	C1217.225586,219.316803 1221.983765,219.316803 1226.935303,219.316803 
	C1228.236206,215.244370 1229.266724,211.204697 1230.875854,207.410492 
	C1231.460327,206.032425 1233.383667,204.394547 1234.768921,204.324966 
	C1241.244751,203.999680 1247.752075,204.347366 1254.234985,204.103394 
	C1257.068848,203.996735 1257.955078,205.352814 1258.618896,207.632095 
	C1259.768921,211.581360 1261.074707,215.485275 1262.238892,219.166840 
	C1267.567139,219.166840 1272.465454,219.166840 1277.786743,219.166840 
	C1269.220215,194.855774 1260.814453,171.000793 1252.402588,147.128235 
	C1247.134399,147.128235 1242.178101,147.128235 1236.999512,147.128235 
	C1234.009888,155.616257 1231.038330,164.053192 1227.910522,173.258041 
M1402.458130,201.500412 
	C1402.458130,207.422821 1402.458130,213.345245 1402.458130,219.120605 
	C1407.587402,219.120605 1411.973145,219.120605 1416.118408,219.120605 
	C1416.118408,206.393707 1416.437988,194.077896 1415.995117,181.789566 
	C1415.740479,174.725800 1411.525269,169.575027 1404.863403,167.193939 
	C1397.988770,164.736862 1391.427734,165.646347 1385.882446,170.914017 
	C1385.257935,171.507294 1384.489136,171.948608 1383.212891,172.879074 
	C1383.212891,163.854736 1383.212891,155.559357 1383.212891,147.211121 
	C1378.435547,147.211121 1374.001221,147.211121 1369.395020,147.211121 
	C1369.395020,171.312302 1369.395020,195.184082 1369.395020,219.272217 
	C1374.045410,219.272217 1378.439697,219.272217 1383.192383,219.272217 
	C1383.192383,209.877365 1383.139404,200.747421 1383.231934,191.618958 
	C1383.253540,189.487457 1383.477051,187.268158 1384.117432,185.251038 
	C1385.542847,180.760559 1390.187622,177.763947 1394.455688,178.232620 
	C1399.214722,178.755203 1402.114624,181.979736 1402.386475,187.518158 
	C1402.598633,191.836823 1402.447754,196.173325 1402.458130,201.500412 
M478.670349,146.988739 
	C477.238861,147.081100 475.807373,147.173462 474.309692,147.270096 
	C474.309692,171.401215 474.309692,195.161728 474.309692,219.225311 
	C479.207031,219.225311 483.946930,219.225311 489.223328,219.225311 
	C489.223328,209.331833 489.223328,199.623306 489.223328,189.637100 
	C499.856689,189.637100 509.956940,189.637100 520.193604,189.637100 
	C520.193604,185.285156 520.193604,181.235275 520.193604,176.764709 
	C509.621674,176.764709 499.381287,176.764709 489.289429,176.764709 
	C489.289429,170.912918 489.289429,165.489532 489.289429,159.697906 
	C501.647156,159.697906 513.730896,159.697906 525.859741,159.697906 
	C525.859741,155.273315 525.859741,151.231262 525.859741,146.988739 
	C510.238678,146.988739 494.939514,146.988739 478.670349,146.988739 
M846.908020,219.620422 
	C854.118774,216.847092 859.024536,212.063141 860.825256,203.987137 
	C856.888123,203.987137 853.388977,203.842682 849.912903,204.062790 
	C848.636353,204.143631 847.066040,204.769791 846.227295,205.691177 
	C842.355408,209.944778 838.190918,211.264526 832.900940,209.551331 
	C827.840088,207.912369 825.124390,204.030334 824.742188,197.454285 
	C837.025330,197.454285 849.290344,197.454285 861.922791,197.454285 
	C861.585693,194.163986 861.423523,191.358597 860.993896,188.594772 
	C858.827820,174.661270 849.304260,166.040131 836.124390,165.991638 
	C823.037476,165.943481 813.026611,174.742233 810.834229,188.219620 
	C807.193115,210.603729 823.611511,225.331238 846.908020,219.620422 
M895.547607,213.958115 
	C904.985046,222.072250 915.598938,223.144562 926.769897,218.554901 
	C932.975403,216.005325 936.944763,211.188492 938.205444,203.987427 
	C934.100220,203.987427 930.601746,203.867401 927.120117,204.056976 
	C926.004150,204.117737 924.496582,204.698334 923.912842,205.550949 
	C920.499573,210.536392 915.679932,210.873383 910.581482,209.594345 
	C905.566772,208.336334 902.724976,204.054642 902.200684,197.478241 
	C914.461426,197.478241 926.693054,197.478241 939.234985,197.478241 
	C939.118652,194.958817 939.204163,192.956696 938.906860,191.013123 
	C937.323730,180.663742 933.636963,171.551407 922.857910,167.685150 
	C913.189758,164.217377 904.045471,165.703369 896.288208,172.614868 
	C885.468628,182.254852 885.020691,200.973938 895.547607,213.958115 
M1515.608521,166.019318 
	C1512.242310,166.838760 1508.649780,167.159012 1505.549805,168.565430 
	C1493.228027,174.156036 1487.678101,189.665390 1492.543457,204.053528 
	C1496.867920,216.842041 1510.189209,223.694641 1524.401001,220.441223 
	C1533.891724,218.268570 1540.009155,212.270691 1540.943604,203.987289 
	C1537.432495,203.987289 1533.932739,203.792862 1530.473755,204.083466 
	C1529.100708,204.198822 1527.505005,205.102554 1526.550171,206.142700 
	C1523.005981,210.003036 1518.021973,211.311050 1512.974609,209.373901 
	C1508.121338,207.511276 1505.494263,203.507919 1505.442017,197.535583 
	C1517.524536,197.535583 1529.609497,197.535583 1541.634888,197.535583 
	C1544.186523,180.255737 1533.540283,167.073105 1515.608521,166.019318 
M1143.448486,209.446716 
	C1143.448486,212.709106 1143.448486,215.971481 1143.448486,219.159698 
	C1148.536621,219.159698 1152.921387,219.159698 1157.555420,219.159698 
	C1157.555420,209.297989 1157.437988,199.823959 1157.593506,190.354416 
	C1157.713135,183.067398 1162.143066,178.122116 1168.051392,178.212463 
	C1173.817383,178.300629 1176.792114,182.401779 1176.799194,190.307724 
	C1176.807739,199.922485 1176.801147,209.537231 1176.801147,219.265167 
	C1181.665161,219.265167 1186.071533,219.265167 1190.747437,219.265167 
	C1190.747437,207.038773 1191.116943,195.079880 1190.609253,183.158356 
	C1190.303223,175.970596 1186.838745,169.924530 1179.593506,167.324188 
	C1172.136597,164.647858 1165.184204,165.604462 1159.448853,171.652344 
	C1159.063477,172.058685 1158.422485,172.222565 1157.617310,172.649216 
	C1157.307373,170.728668 1157.054565,169.162506 1156.831787,167.781616 
	C1152.311035,167.781616 1148.061035,167.781616 1143.448608,167.781616 
	C1143.448608,181.561279 1143.448608,195.011337 1143.448486,209.446716 
M1137.121338,188.461060 
	C1134.956909,176.706863 1127.871948,169.077835 1116.593384,166.796860 
	C1105.185303,164.489685 1095.372559,167.375946 1088.274048,176.936600 
	C1081.609375,185.912750 1081.413086,199.644806 1087.368164,208.989044 
	C1094.173828,219.667801 1107.810425,223.957184 1120.414429,219.383896 
	C1132.485718,215.003891 1138.821167,203.641357 1137.121338,188.461060 
M794.851685,203.496674 
	C794.851685,189.071274 794.851685,174.645889 794.851685,159.804626 
	C802.220459,159.804626 809.125793,159.804626 816.223511,159.804626 
	C816.223511,155.321320 816.223511,151.261108 816.223511,147.366455 
	C796.707214,147.366455 777.499146,147.366455 758.465271,147.366455 
	C758.465271,151.668411 758.465271,155.588028 758.465271,159.967590 
	C765.673096,159.967590 772.576538,159.967590 779.885742,159.967590 
	C779.885742,179.998978 779.885742,199.556808 779.885742,219.219849 
	C785.062256,219.219849 789.808533,219.219849 794.851685,219.219849 
	C794.851685,214.106674 794.851685,209.300400 794.851685,203.496674 
M1045.814331,219.533203 
	C1054.579468,215.806564 1057.700684,211.074631 1057.153442,202.342560 
	C1056.722412,195.465027 1052.660767,191.365402 1043.839722,188.967484 
	C1042.239258,188.532379 1040.595581,188.258270 1038.980713,187.872879 
	C1035.272339,186.987823 1031.447754,186.408035 1027.897705,185.091217 
	C1024.182983,183.713318 1023.847656,180.078751 1026.850952,177.729614 
	C1031.514893,174.081528 1040.096680,175.933899 1042.934937,181.048523 
	C1043.517822,182.098755 1044.825684,183.315704 1045.898682,183.418320 
	C1049.149170,183.729156 1052.448364,183.530746 1056.109253,183.530746 
	C1055.208252,175.759354 1051.613281,170.672836 1044.807129,167.994644 
	C1038.393921,165.471069 1031.803345,165.411270 1025.204590,167.116989 
	C1017.254211,169.172150 1012.687927,174.723984 1012.471497,182.341675 
	C1012.254639,189.971832 1015.946838,194.615494 1024.637451,197.039841 
	C1029.429077,198.376526 1034.488892,198.843414 1039.164795,200.461838 
	C1041.251465,201.184036 1042.690918,203.776367 1044.424072,205.519974 
	C1042.502075,207.299210 1040.854370,210.035461 1038.607056,210.679230 
	C1031.701538,212.657425 1027.411865,210.077866 1023.317444,202.639847 
	C1019.292969,202.639847 1015.321533,202.639847 1011.348694,202.639847 
	C1011.544922,210.465118 1015.602234,216.224899 1022.977234,219.013916 
	C1030.224365,221.754562 1037.626465,221.639313 1045.814331,219.533203 
M1322.565063,172.025223 
	C1312.828247,181.353806 1310.535645,197.090759 1317.229248,208.651184 
	C1322.677368,218.060135 1334.328613,222.999191 1345.656372,220.701508 
	C1356.009277,218.601547 1362.052856,212.079102 1363.545044,201.208847 
	C1359.230591,201.208847 1354.939453,201.208847 1350.305176,201.208847 
	C1349.076782,206.427979 1345.887207,209.762802 1340.046509,209.811646 
	C1335.035522,209.853546 1331.221436,207.593506 1329.445557,202.984146 
	C1326.977661,196.578018 1326.930908,190.000107 1329.802979,183.605240 
	C1331.729858,179.314590 1335.415527,177.523636 1339.818115,177.403320 
	C1343.774292,177.295181 1346.768921,179.237289 1348.666382,182.832596 
	C1349.137085,183.724792 1350.026611,184.996964 1350.781128,185.038101 
	C1354.803955,185.257477 1358.845093,185.141434 1363.125732,185.141434 
	C1361.792114,178.012543 1358.835693,172.651688 1353.079956,169.581375 
	C1342.808960,164.102539 1332.688110,164.650879 1322.565063,172.025223 
M953.938538,171.479797 
	C952.970642,170.148788 952.121338,167.798737 951.013489,167.669769 
	C947.015747,167.204376 942.930847,167.486740 938.338196,167.486740 
	C944.553833,185.381516 950.464111,202.397202 956.374451,219.412964 
	C961.002319,219.412964 965.296814,219.412964 969.898926,219.412964 
	C975.878723,202.263275 981.852783,185.130203 988.013245,167.462418 
	C984.655090,167.462418 981.978516,167.735306 979.380310,167.400345 
	C975.177002,166.858429 973.270020,168.442474 972.137207,172.581528 
	C969.596069,181.865952 966.480408,190.993103 963.184387,201.505875 
	C959.874329,190.856201 956.984558,181.558746 953.938538,171.479797 
M1449.652466,188.993347 
	C1453.165771,199.162292 1456.679077,209.331238 1460.205200,219.537567 
	C1463.423462,219.537567 1466.279053,219.282669 1469.069336,219.600647 
	C1472.739136,220.018845 1474.175659,218.509552 1475.276001,215.066269 
	C1478.454468,205.119949 1482.149170,195.339355 1485.587646,185.475052 
	C1487.619995,179.644180 1489.551270,173.778061 1491.685181,167.462433 
	C1487.838379,167.462433 1484.830933,167.691467 1481.874512,167.400940 
	C1478.622925,167.081406 1477.177002,168.278564 1476.344971,171.438019 
	C1474.740967,177.528717 1472.702881,183.506332 1470.798462,189.516190 
	C1469.697998,192.989456 1468.507324,196.434128 1466.891479,201.291626 
	C1463.449707,190.121292 1460.568237,180.474030 1457.428101,170.911758 
	C1456.981567,169.551834 1455.376099,167.768341 1454.137939,167.623245 
	C1450.422485,167.187790 1446.623169,167.466461 1442.212769,167.466461 
	C1444.731201,174.878601 1447.010864,181.587692 1449.652466,188.993347 
M867.817505,168.500031 
	C867.817505,185.392471 867.817505,202.284912 867.817505,219.176331 
	C872.835999,219.176331 877.237488,219.176331 881.536316,219.176331 
	C881.536316,194.954849 881.536316,171.086960 881.536316,147.287796 
	C876.806274,147.287796 872.395081,147.287796 867.817505,147.287796 
	C867.817505,154.224014 867.817505,160.862045 867.817505,168.500031 
M567.851074,178.500061 
	C567.851074,168.086029 567.851074,157.672012 567.851074,147.267975 
	C562.850830,147.267975 558.442200,147.267975 554.094788,147.267975 
	C554.094788,171.412918 554.094788,195.277588 554.094788,219.202240 
	C558.785400,219.202240 563.194153,219.202240 567.851074,219.202240 
	C567.851074,205.751541 567.851074,192.625809 567.851074,178.500061 
M1281.987183,170.806030 
	C1281.987183,186.911743 1281.987183,203.017441 1281.987183,219.277374 
	C1286.868408,219.277374 1291.290405,219.277374 1296.013916,219.277374 
	C1296.013916,210.386215 1295.906006,201.744705 1296.044800,193.107162 
	C1296.179321,184.732574 1300.483643,180.288696 1308.795166,179.524094 
	C1309.752197,179.436081 1310.698120,179.228546 1311.604980,179.083481 
	C1311.604980,175.062210 1311.604980,171.286209 1311.604980,167.415588 
	C1304.732910,165.772217 1299.901489,168.496033 1295.932495,174.579437 
	C1295.597656,171.656372 1295.365356,169.627747 1295.118286,167.469971 
	C1291.347534,167.469971 1288.009155,167.292252 1284.711426,167.580154 
	C1283.744385,167.664581 1282.892578,169.071182 1281.987183,170.806030 
M1005.585449,196.500137 
	C1005.585449,186.926010 1005.585449,177.351883 1005.585449,167.774429 
	C1000.515930,167.774429 996.132874,167.774429 991.754517,167.774429 
	C991.754517,185.160934 991.754517,202.185501 991.754517,219.226074 
	C996.483032,219.226074 1000.866089,219.226074 1005.585449,219.226074 
	C1005.585449,211.747269 1005.585449,204.623703 1005.585449,196.500137 
M1063.414429,187.500153 
	C1063.414429,198.071701 1063.414429,208.643265 1063.414429,219.228424 
	C1068.478271,219.228424 1072.861206,219.228424 1077.248291,219.228424 
	C1077.248291,201.844849 1077.248291,184.820312 1077.248291,167.771133 
	C1072.520264,167.771133 1068.138672,167.771133 1063.414429,167.771133 
	C1063.414429,174.249466 1063.414429,180.374985 1063.414429,187.500153 
M1438.858276,188.500244 
	C1438.858276,181.604019 1438.858276,174.707794 1438.858276,167.805511 
	C1433.799194,167.805511 1429.426758,167.805511 1425.084961,167.805511 
	C1425.084961,185.197479 1425.084961,202.243195 1425.084961,219.206940 
	C1429.783936,219.206940 1434.201782,219.206940 1438.858276,219.206940 
	C1438.858276,209.084244 1438.858276,199.292191 1438.858276,188.500244 
M531.141846,208.466522 
	C531.141846,212.044632 531.141846,215.622742 531.141846,219.194321 
	C536.202881,219.194321 540.575134,219.194321 544.913513,219.194321 
	C544.913513,201.800949 544.913513,184.754028 544.913513,167.794739 
	C540.212463,167.794739 535.793762,167.794739 531.455322,167.794739 
	C531.306274,168.450531 531.169189,168.773087 531.168762,169.095810 
	C531.152100,181.889801 531.147766,194.683807 531.141846,208.466522 
M518.216187,122.422729 
	C525.168396,126.943726 530.815430,126.951393 535.453674,122.446220 
	C540.276123,117.762070 541.604126,106.670212 537.199280,100.616272 
	C535.283997,97.983932 531.606262,95.684792 528.423279,95.186195 
	C525.125854,94.669670 521.458008,96.517136 517.590454,97.414558 
	C517.590454,93.190681 517.590454,88.757080 517.590454,84.339584 
	C515.906799,84.339584 514.638794,84.339584 513.269653,84.339584 
	C513.269653,97.948875 513.269653,111.346245 513.269653,125.960030 
	C515.317505,124.711021 516.624390,123.913940 518.216187,122.422729 
M584.875244,107.684067 
	C584.874390,106.687111 584.927368,105.686714 584.863953,104.693748 
	C584.415955,97.681137 581.314575,94.958641 573.826111,94.970558 
	C566.363403,94.982437 562.849976,97.976326 562.302612,105.911949 
	C564.232178,104.779022 566.410461,104.272987 566.890320,103.082413 
	C568.808655,98.322746 572.585571,98.278755 576.375854,99.190437 
	C577.844055,99.543594 579.706238,101.722878 579.813171,103.185486 
	C579.900269,104.376015 577.859680,106.374481 576.371277,106.894226 
	C573.114624,108.031464 569.528931,108.200165 566.225403,109.235794 
	C561.731873,110.644440 560.237427,114.111198 560.820435,118.628860 
	C561.356323,122.782097 564.130798,125.008537 567.872864,124.997108 
	C571.943359,124.984695 576.010498,123.855659 580.199280,123.194496 
	C582.197510,123.851967 584.749512,124.691666 587.301575,125.531372 
	C587.963257,125.115776 588.624939,124.700180 589.286621,124.284584 
	C583.389221,119.828072 584.966675,114.086838 584.875244,107.684067 
M627.538635,103.910370 
	C625.867920,108.384857 624.197205,112.859337 622.126648,118.404739 
	C619.407776,111.165154 616.991821,105.203468 614.952454,99.115631 
	C613.825928,95.752502 612.081238,94.562668 608.314880,96.029167 
	C611.404236,103.723465 614.455811,111.362816 617.538147,118.989761 
	C620.616394,126.606758 618.975342,129.478958 610.473206,131.059525 
	C611.430664,132.525574 612.990601,134.589478 613.993408,134.347198 
	C616.662598,133.702332 620.480652,132.698807 621.386841,130.715973 
	C626.577454,119.357468 631.053589,107.672501 635.853638,95.898727 
	C628.328735,94.030083 629.794678,100.295555 627.538635,103.910370 
M485.501801,124.905693 
	C489.791870,124.905693 494.081940,124.905693 498.630005,124.905693 
	C498.630005,123.092896 498.630005,121.718048 498.630005,119.908226 
	C491.715363,119.908226 484.969025,119.908226 477.750946,119.908226 
	C477.750946,107.764824 477.750946,96.045654 477.750946,84.302658 
	C475.808044,84.302658 474.353790,84.302658 472.732361,84.302658 
	C472.732361,97.886986 472.732361,111.264320 472.732361,124.905693 
	C476.887085,124.905693 480.700195,124.905693 485.501801,124.905693 
M590.967896,112.487167 
	C590.967896,116.587036 590.967896,120.686905 590.967896,125.093002 
	C593.009644,124.810219 594.392761,124.618660 595.878845,124.412834 
	C595.878845,119.836464 595.860962,115.691643 595.882507,111.547020 
	C595.927734,102.836655 597.787903,100.694023 606.519592,99.601395 
	C606.435364,98.225250 606.349792,96.827194 606.191040,94.231857 
	C602.407654,95.719086 599.328796,96.929375 596.087524,98.203499 
	C596.499146,94.236679 593.771057,95.319260 590.967896,95.784546 
	C590.967896,101.227074 590.967896,106.359680 590.967896,112.487167 
M548.878784,112.642258 
	C548.912903,102.739754 549.839111,101.566513 559.871155,99.208214 
	C559.400574,97.891106 558.713989,95.445435 558.512756,95.484734 
	C555.304565,96.111237 552.158386,97.055557 549.915283,97.674339 
	C548.054565,96.733574 546.398804,95.896431 544.263306,94.816750 
	C544.263306,105.601952 544.263306,115.166389 544.263306,125.028618 
	C545.976501,124.807945 547.354309,124.630486 548.878784,124.434128 
	C548.878784,120.550636 548.878784,117.072182 548.878784,112.642258 
M1070.498779,146.960388 
	C1068.253296,146.960388 1066.007812,146.960388 1063.765015,146.960388 
	C1063.765015,151.580902 1063.765015,155.618393 1063.765015,159.546356 
	C1068.489258,159.546356 1072.854980,159.546356 1077.224487,159.546356 
	C1077.224487,155.183456 1077.224487,151.168869 1077.224487,146.960388 
	C1075.056763,146.960388 1073.247314,146.960388 1070.498779,146.960388 
M1004.873535,159.657944 
	C1005.177124,155.505356 1005.480652,151.352753 1005.780701,147.248199 
	C1000.529236,147.248199 996.144958,147.248199 991.770020,147.248199 
	C991.770020,151.583084 991.770020,155.620483 991.770020,159.867279 
	C996.080078,159.867279 1000.036133,159.867279 1004.873535,159.657944 
M1435.242676,159.859589 
	C1437.509521,160.082657 1439.119629,159.756287 1438.908203,156.780807 
	C1438.687622,153.675827 1438.858887,150.542999 1438.858887,147.210312 
	C1434.024780,147.210312 1429.619385,147.210312 1425.114502,147.210312 
	C1425.114502,151.436111 1425.114502,155.477829 1425.114502,159.859680 
	C1428.379639,159.859680 1431.344238,159.859680 1435.242676,159.859589 
M540.414795,159.859695 
	C541.868103,159.794037 543.321411,159.728394 544.902710,159.656967 
	C544.902710,155.325348 544.902710,151.283615 544.902710,147.289902 
	C540.209106,147.289902 535.810791,147.289902 531.383057,147.289902 
	C531.383057,151.520264 531.383057,155.438446 531.383057,159.859695 
	C534.231201,159.859695 536.845642,159.859695 540.414795,159.859695 
M502.388702,102.673820 
	C502.388702,109.937340 502.388702,117.200859 502.388702,124.611771 
	C504.226929,124.611771 505.610870,124.611771 506.951355,124.611771 
	C506.951355,114.785515 506.951355,105.250542 506.951355,95.694115 
	C500.411957,94.295853 502.941345,99.111435 502.388702,102.673820 
M502.414398,85.759689 
	C502.490326,87.170448 502.566284,88.581200 502.658905,90.301750 
	C504.433624,90.151306 505.809174,90.034706 507.318787,89.906738 
	C507.205170,87.767174 507.112701,86.025375 506.990326,83.720871 
	C505.196350,84.239220 503.888611,84.617073 502.414398,85.759689 
z"/>
<path fill="#FBFBFB" opacity="1.000000" stroke="none" 
	d="
M84.822739,180.005142 
	C86.645966,157.983246 88.468979,136.454102 90.323860,114.548630 
	C97.204964,114.548630 103.926407,114.548630 111.309906,114.548630 
	C110.752563,121.398590 110.229279,128.279373 109.625977,135.153137 
	C108.288795,150.388474 106.781769,165.610184 105.593300,180.856888 
	C104.712044,192.162582 110.107384,199.786652 119.822815,201.659958 
	C130.933914,203.802414 142.060532,197.411392 144.789474,186.132538 
	C146.727539,178.122375 147.140472,169.719254 147.941544,161.463120 
	C149.450409,145.912079 150.748062,130.340561 152.160614,114.472977 
	C159.025375,114.472977 165.768784,114.472977 173.120499,114.472977 
	C172.385925,123.231537 171.703018,131.940582 170.914993,140.640091 
	C169.654999,154.550079 168.522980,168.475693 166.982773,182.355408 
	C163.992905,209.298782 140.232010,226.791336 113.649529,221.849304 
	C97.944633,218.929535 86.326797,205.633545 85.017250,188.980713 
	C84.795860,186.165405 84.879715,183.326111 84.822739,180.005142 
z"/>
<path fill="#FBFBFB" opacity="1.000000" stroke="none" 
	d="
M190.116852,134.132309 
	C206.559021,113.188110 237.196152,106.098167 259.568115,117.652092 
	C262.785004,119.313446 264.213806,120.938774 263.555542,124.882492 
	C262.474243,131.360596 262.215790,137.976028 261.503845,145.687393 
	C255.132370,137.934937 247.781631,133.872452 238.773529,133.193130 
	C211.320282,131.122787 197.767105,150.818008 198.695129,173.504456 
	C199.937271,203.869476 230.161423,206.690811 247.187805,196.747833 
	C250.732407,194.677902 253.907928,191.975952 257.668854,189.265976 
	C257.018890,197.270081 256.547974,204.939545 255.639679,212.556870 
	C255.473282,213.952332 253.777924,215.635880 252.366180,216.339752 
	C238.029648,223.487564 223.118164,224.881149 207.826416,219.920227 
	C189.788406,214.068359 178.263443,197.660370 177.524094,176.665024 
	C176.982101,161.273682 180.713516,147.017441 190.116852,134.132309 
z"/>
<path fill="#FBFBFB" opacity="1.000000" stroke="none" 
	d="
M346.001862,220.177185 
	C342.365417,220.177185 339.217865,220.177185 335.097198,220.177185 
	C354.259796,182.785858 373.101990,146.019684 391.944183,109.253502 
	C392.443787,109.281296 392.943390,109.309082 393.442993,109.336876 
	C406.284027,146.008835 419.125092,182.680801 432.122498,219.799271 
	C424.609131,219.799271 417.430939,219.799271 409.935486,219.799271 
	C408.681091,215.713135 407.153076,211.492889 406.136475,207.152863 
	C405.480347,204.351624 404.261719,203.415665 401.387848,203.457520 
	C390.565430,203.615173 379.738312,203.603226 368.915405,203.463348 
	C366.173462,203.427917 364.509155,204.177048 363.790436,206.918945 
	C363.502930,208.015793 362.530029,208.939178 362.271210,210.036377 
	C360.265778,218.537964 355.064423,221.952881 346.001862,220.177185 
M393.212830,185.530975 
	C395.165527,185.530975 397.118225,185.530975 399.673584,185.530975 
	C396.226013,173.656281 392.950012,162.372452 389.587646,150.791260 
	C384.365662,162.446136 379.320831,173.705627 374.022522,185.530914 
	C380.668579,185.530914 386.475708,185.530914 393.212830,185.530975 
z"/>
<path fill="#FBFBFB" opacity="1.000000" stroke="none" 
	d="
M295.587341,177.680267 
	C294.918335,185.256729 294.309845,192.375458 293.657745,200.004089 
	C307.114502,200.004089 320.339508,200.004089 334.223236,200.004089 
	C333.613190,206.902039 333.051117,213.257751 332.465179,219.883423 
	C311.943420,219.883423 291.722229,219.883423 270.792572,219.883423 
	C273.907074,184.792709 277.024261,149.672150 280.157623,114.369202 
	C287.122467,114.369202 293.725281,114.369202 301.103455,114.369202 
	C299.280243,135.374237 297.464050,156.298386 295.587341,177.680267 
z"/>
<path fill="#FAFAFA" opacity="1.000000" stroke="none" 
	d="
M733.804443,182.469421 
	C732.554382,188.955536 731.372803,195.308975 729.272522,201.342560 
	C728.321411,204.074615 728.231079,205.724335 730.087097,207.894745 
	C733.054688,211.364929 735.708923,215.102997 738.208740,219.194977 
	C731.506897,218.020660 723.833801,223.017731 718.241272,215.187515 
	C710.298584,220.472717 701.449341,222.297577 691.875366,220.359756 
	C683.508789,218.666275 677.460876,214.250793 675.510193,205.646362 
	C673.569336,197.085312 676.271667,189.869858 683.067017,184.310471 
	C685.242859,182.530350 687.672607,181.060501 690.457520,179.120331 
	C685.798035,173.124664 682.790588,166.139297 686.124512,158.634644 
	C687.677612,155.138824 690.938538,151.724655 694.302917,149.840973 
	C703.427551,144.732346 716.178223,148.199936 720.781311,156.298981 
	C725.746887,165.035828 722.216980,173.811768 710.207397,181.964462 
	C713.021667,185.626099 715.822266,189.269928 719.380859,193.899979 
	C720.476501,189.510269 721.331848,186.083374 722.299561,182.206238 
	C725.948669,182.206238 729.723389,182.206238 733.804443,182.469421 
M700.546570,191.839752 
	C699.620117,190.737061 698.693665,189.634369 697.794434,188.564072 
	C689.969116,193.942551 687.668335,200.647156 691.606201,205.815231 
	C695.512268,210.941620 704.278503,210.661957 710.453857,205.190063 
	C710.228699,204.759048 710.056519,204.276672 709.761230,203.887863 
	C706.850464,200.055588 703.919250,196.238800 700.546570,191.839752 
M702.818176,159.003540 
	C696.635437,162.302948 696.937561,167.557541 703.742798,173.366928 
	C707.619385,171.164185 710.374634,167.971420 709.008606,163.422852 
	C708.449280,161.560425 705.473999,160.423538 702.818176,159.003540 
z"/>
<path fill="#F8F8F8" opacity="1.000000" stroke="none" 
	d="
M590.171021,217.638840 
	C585.659180,218.766754 581.160095,219.427841 576.355347,220.133835 
	C576.355347,202.043625 576.355347,185.095474 576.355347,167.806290 
	C580.627380,167.806290 584.886902,167.806290 589.514465,167.806290 
	C589.708740,169.408859 589.913147,171.094864 590.129395,172.878937 
	C602.095520,163.138702 610.721375,163.548660 618.815979,173.614578 
	C623.091980,171.177124 627.000061,167.898376 631.480713,166.608124 
	C641.651855,163.679230 651.389038,170.307220 651.874756,180.652542 
	C652.474487,193.426285 652.018127,206.249619 652.018127,219.253983 
	C647.377197,219.253983 642.958069,219.253983 638.145508,219.253983 
	C638.145508,208.849396 638.155212,198.719620 638.142212,188.589874 
	C638.133057,181.466736 636.013672,178.436050 630.921082,178.191254 
	C625.484253,177.929901 621.530151,181.869263 621.282898,188.622986 
	C620.978333,196.944199 621.194458,205.284470 621.186279,213.616516 
	C621.184509,215.426956 621.185974,217.237396 621.185974,219.259186 
	C616.393677,219.259186 611.974670,219.259186 607.145508,219.259186 
	C607.145508,208.862793 607.154968,198.735611 607.142273,188.608444 
	C607.133362,181.486633 605.016174,178.445480 599.939697,178.191422 
	C594.619568,177.925156 590.478394,182.061066 590.279968,188.678329 
	C589.995422,198.168655 590.192322,207.673416 590.171021,217.638840 
z"/>
<path fill="#FAFAFA" opacity="1.000000" stroke="none" 
	d="
M1227.988525,172.874084 
	C1231.038330,164.053192 1234.009888,155.616257 1236.999512,147.128235 
	C1242.178101,147.128235 1247.134399,147.128235 1252.402588,147.128235 
	C1260.814453,171.000793 1269.220215,194.855774 1277.786743,219.166840 
	C1272.465454,219.166840 1267.567139,219.166840 1262.238892,219.166840 
	C1261.074707,215.485275 1259.768921,211.581360 1258.618896,207.632095 
	C1257.955078,205.352814 1257.068848,203.996735 1254.234985,204.103394 
	C1247.752075,204.347366 1241.244751,203.999680 1234.768921,204.324966 
	C1233.383667,204.394547 1231.460327,206.032425 1230.875854,207.410492 
	C1229.266724,211.204697 1228.236206,215.244370 1226.935303,219.316803 
	C1221.983765,219.316803 1217.225586,219.316803 1211.812012,219.316803 
	C1217.233765,203.804749 1222.572144,188.531403 1227.988525,172.874084 
M1238.200317,182.787186 
	C1237.314331,186.025177 1236.428345,189.263168 1235.487671,192.700867 
	C1241.848755,192.700867 1247.482300,192.700867 1253.727905,192.700867 
	C1250.647827,182.442459 1247.657349,172.482635 1244.542236,162.108017 
	C1242.446411,169.038681 1240.480591,175.539368 1238.200317,182.787186 
z"/>
<path fill="#F6F6F6" opacity="1.000000" stroke="none" 
	d="
M1402.458252,201.001160 
	C1402.447754,196.173325 1402.598633,191.836823 1402.386475,187.518158 
	C1402.114624,181.979736 1399.214722,178.755203 1394.455688,178.232620 
	C1390.187622,177.763947 1385.542847,180.760559 1384.117432,185.251038 
	C1383.477051,187.268158 1383.253540,189.487457 1383.231934,191.618958 
	C1383.139404,200.747421 1383.192383,209.877365 1383.192383,219.272217 
	C1378.439697,219.272217 1374.045410,219.272217 1369.395020,219.272217 
	C1369.395020,195.184082 1369.395020,171.312302 1369.395020,147.211121 
	C1374.001221,147.211121 1378.435547,147.211121 1383.212891,147.211121 
	C1383.212891,155.559357 1383.212891,163.854736 1383.212891,172.879074 
	C1384.489136,171.948608 1385.257935,171.507294 1385.882446,170.914017 
	C1391.427734,165.646347 1397.988770,164.736862 1404.863403,167.193939 
	C1411.525269,169.575027 1415.740479,174.725800 1415.995117,181.789566 
	C1416.437988,194.077896 1416.118408,206.393707 1416.118408,219.120605 
	C1411.973145,219.120605 1407.587402,219.120605 1402.458130,219.120605 
	C1402.458130,213.345245 1402.458130,207.422821 1402.458252,201.001160 
z"/>
<path fill="#F9F9F9" opacity="1.000000" stroke="none" 
	d="
M479.155334,146.988739 
	C494.939514,146.988739 510.238678,146.988739 525.859741,146.988739 
	C525.859741,151.231262 525.859741,155.273315 525.859741,159.697906 
	C513.730896,159.697906 501.647156,159.697906 489.289429,159.697906 
	C489.289429,165.489532 489.289429,170.912918 489.289429,176.764709 
	C499.381287,176.764709 509.621674,176.764709 520.193604,176.764709 
	C520.193604,181.235275 520.193604,185.285156 520.193604,189.637100 
	C509.956940,189.637100 499.856689,189.637100 489.223328,189.637100 
	C489.223328,199.623306 489.223328,209.331833 489.223328,219.225311 
	C483.946930,219.225311 479.207031,219.225311 474.309692,219.225311 
	C474.309692,195.161728 474.309692,171.401215 474.309692,147.270096 
	C475.807373,147.173462 477.238861,147.081100 479.155334,146.988739 
z"/>
<path fill="#F8F8F8" opacity="1.000000" stroke="none" 
	d="
M846.525879,219.756439 
	C823.611511,225.331238 807.193115,210.603729 810.834229,188.219620 
	C813.026611,174.742233 823.037476,165.943481 836.124390,165.991638 
	C849.304260,166.040131 858.827820,174.661270 860.993896,188.594772 
	C861.423523,191.358597 861.585693,194.163986 861.922791,197.454285 
	C849.290344,197.454285 837.025330,197.454285 824.742188,197.454285 
	C825.124390,204.030334 827.840088,207.912369 832.900940,209.551331 
	C838.190918,211.264526 842.355408,209.944778 846.227295,205.691177 
	C847.066040,204.769791 848.636353,204.143631 849.912903,204.062790 
	C853.388977,203.842682 856.888123,203.987137 860.825256,203.987137 
	C859.024536,212.063141 854.118774,216.847092 846.525879,219.756439 
M841.277588,187.843643 
	C843.074402,187.843643 844.871216,187.843643 846.685425,187.843643 
	C846.226868,180.961166 842.352051,177.052139 836.192261,176.992126 
	C829.710205,176.928986 825.538269,180.862625 825.063293,187.843628 
	C830.166809,187.843628 835.249512,187.843628 841.277588,187.843643 
z"/>
<path fill="#F8F8F8" opacity="1.000000" stroke="none" 
	d="
M895.296753,213.704315 
	C885.020691,200.973938 885.468628,182.254852 896.288208,172.614868 
	C904.045471,165.703369 913.189758,164.217377 922.857910,167.685150 
	C933.636963,171.551407 937.323730,180.663742 938.906860,191.013123 
	C939.204163,192.956696 939.118652,194.958817 939.234985,197.478241 
	C926.693054,197.478241 914.461426,197.478241 902.200684,197.478241 
	C902.724976,204.054642 905.566772,208.336334 910.581482,209.594345 
	C915.679932,210.873383 920.499573,210.536392 923.912842,205.550949 
	C924.496582,204.698334 926.004150,204.117737 927.120117,204.056976 
	C930.601746,203.867401 934.100220,203.987427 938.205444,203.987427 
	C936.944763,211.188492 932.975403,216.005325 926.769897,218.554901 
	C915.598938,223.144562 904.985046,222.072250 895.296753,213.704315 
M904.113831,187.848572 
	C910.813232,187.848572 917.512695,187.848572 924.290710,187.848572 
	C923.314880,180.645782 919.928772,177.233582 914.166260,176.988693 
	C908.205200,176.735367 903.418091,180.347961 902.281616,186.092163 
	C902.183228,186.589600 902.907532,187.249786 904.113831,187.848572 
z"/>
<path fill="#F8F8F8" opacity="1.000000" stroke="none" 
	d="
M1516.057861,166.004700 
	C1533.540283,167.073105 1544.186523,180.255737 1541.634888,197.535583 
	C1529.609497,197.535583 1517.524536,197.535583 1505.442017,197.535583 
	C1505.494263,203.507919 1508.121338,207.511276 1512.974609,209.373901 
	C1518.021973,211.311050 1523.005981,210.003036 1526.550171,206.142700 
	C1527.505005,205.102554 1529.100708,204.198822 1530.473755,204.083466 
	C1533.932739,203.792862 1537.432495,203.987289 1540.943604,203.987289 
	C1540.009155,212.270691 1533.891724,218.268570 1524.401001,220.441223 
	C1510.189209,223.694641 1496.867920,216.842041 1492.543457,204.053528 
	C1487.678101,189.665390 1493.228027,174.156036 1505.549805,168.565430 
	C1508.649780,167.159012 1512.242310,166.838760 1516.057861,166.004700 
M1514.557617,187.849915 
	C1518.812866,187.849915 1523.068237,187.849915 1527.379639,187.849915 
	C1526.336914,180.177063 1522.494507,176.698227 1515.901001,176.989777 
	C1509.729736,177.262619 1505.991333,181.168808 1505.616455,187.849899 
	C1508.279785,187.849899 1510.936890,187.849899 1514.557617,187.849915 
z"/>
<path fill="#F3F3F3" opacity="1.000000" stroke="none" 
	d="
M1143.448486,208.954056 
	C1143.448608,195.011337 1143.448608,181.561279 1143.448608,167.781616 
	C1148.061035,167.781616 1152.311035,167.781616 1156.831787,167.781616 
	C1157.054565,169.162506 1157.307373,170.728668 1157.617310,172.649216 
	C1158.422485,172.222565 1159.063477,172.058685 1159.448853,171.652344 
	C1165.184204,165.604462 1172.136597,164.647858 1179.593506,167.324188 
	C1186.838745,169.924530 1190.303223,175.970596 1190.609253,183.158356 
	C1191.116943,195.079880 1190.747437,207.038773 1190.747437,219.265167 
	C1186.071533,219.265167 1181.665161,219.265167 1176.801147,219.265167 
	C1176.801147,209.537231 1176.807739,199.922485 1176.799194,190.307724 
	C1176.792114,182.401779 1173.817383,178.300629 1168.051392,178.212463 
	C1162.143066,178.122116 1157.713135,183.067398 1157.593506,190.354416 
	C1157.437988,199.823959 1157.555420,209.297989 1157.555420,219.159698 
	C1152.921387,219.159698 1148.536621,219.159698 1143.448486,219.159698 
	C1143.448486,215.971481 1143.448486,212.709106 1143.448486,208.954056 
z"/>
<path fill="#F8F8F8" opacity="1.000000" stroke="none" 
	d="
M1137.153931,188.882187 
	C1138.821167,203.641357 1132.485718,215.003891 1120.414429,219.383896 
	C1107.810425,223.957184 1094.173828,219.667801 1087.368164,208.989044 
	C1081.413086,199.644806 1081.609375,185.912750 1088.274048,176.936600 
	C1095.372559,167.375946 1105.185303,164.489685 1116.593384,166.796860 
	C1127.871948,169.077835 1134.956909,176.706863 1137.153931,188.882187 
M1120.027954,181.595490 
	C1112.386475,173.708496 1101.216187,175.730057 1098.728516,186.064011 
	C1097.478760,191.255722 1098.026245,197.260147 1099.238892,202.558868 
	C1100.482300,207.992752 1105.050415,210.180634 1110.699951,210.172379 
	C1116.251465,210.164276 1119.925415,207.296539 1121.719116,202.394638 
	C1124.206299,195.596848 1124.145264,188.741547 1120.027954,181.595490 
z"/>
<path fill="#F9F9F9" opacity="1.000000" stroke="none" 
	d="
M794.851685,203.995392 
	C794.851685,209.300400 794.851685,214.106674 794.851685,219.219849 
	C789.808533,219.219849 785.062256,219.219849 779.885742,219.219849 
	C779.885742,199.556808 779.885742,179.998978 779.885742,159.967590 
	C772.576538,159.967590 765.673096,159.967590 758.465271,159.967590 
	C758.465271,155.588028 758.465271,151.668411 758.465271,147.366455 
	C777.499146,147.366455 796.707214,147.366455 816.223511,147.366455 
	C816.223511,151.261108 816.223511,155.321320 816.223511,159.804626 
	C809.125793,159.804626 802.220459,159.804626 794.851685,159.804626 
	C794.851685,174.645889 794.851685,189.071274 794.851685,203.995392 
z"/>
<path fill="#F8F8F8" opacity="1.000000" stroke="none" 
	d="
M1045.441406,219.689728 
	C1037.626465,221.639313 1030.224365,221.754562 1022.977234,219.013916 
	C1015.602234,216.224899 1011.544922,210.465118 1011.348694,202.639847 
	C1015.321533,202.639847 1019.292969,202.639847 1023.317444,202.639847 
	C1027.411865,210.077866 1031.701538,212.657425 1038.607056,210.679230 
	C1040.854370,210.035461 1042.502075,207.299210 1044.424072,205.519958 
	C1042.690918,203.776367 1041.251465,201.184036 1039.164795,200.461838 
	C1034.488892,198.843414 1029.429077,198.376526 1024.637451,197.039841 
	C1015.946838,194.615494 1012.254639,189.971832 1012.471497,182.341675 
	C1012.687927,174.723984 1017.254211,169.172150 1025.204590,167.116989 
	C1031.803345,165.411270 1038.393921,165.471069 1044.807129,167.994644 
	C1051.613281,170.672836 1055.208252,175.759354 1056.109253,183.530746 
	C1052.448364,183.530746 1049.149170,183.729156 1045.898682,183.418320 
	C1044.825684,183.315704 1043.517822,182.098755 1042.934937,181.048523 
	C1040.096680,175.933899 1031.514893,174.081528 1026.850952,177.729614 
	C1023.847656,180.078751 1024.182983,183.713318 1027.897705,185.091217 
	C1031.447754,186.408035 1035.272339,186.987823 1038.980713,187.872879 
	C1040.595581,188.258270 1042.239258,188.532379 1043.839722,188.967484 
	C1052.660767,191.365402 1056.722412,195.465027 1057.153442,202.342560 
	C1057.700684,211.074631 1054.579468,215.806564 1045.441406,219.689728 
z"/>
<path fill="#FAFAFA" opacity="1.000000" stroke="none" 
	d="
M1322.833496,171.780762 
	C1332.688110,164.650879 1342.808960,164.102539 1353.079956,169.581375 
	C1358.835693,172.651688 1361.792114,178.012543 1363.125732,185.141434 
	C1358.845093,185.141434 1354.803955,185.257477 1350.781128,185.038101 
	C1350.026611,184.996964 1349.137085,183.724792 1348.666382,182.832596 
	C1346.768921,179.237289 1343.774292,177.295181 1339.818115,177.403320 
	C1335.415527,177.523636 1331.729858,179.314590 1329.802979,183.605240 
	C1326.930908,190.000107 1326.977661,196.578018 1329.445557,202.984146 
	C1331.221436,207.593506 1335.035522,209.853546 1340.046509,209.811646 
	C1345.887207,209.762802 1349.076782,206.427979 1350.305176,201.208847 
	C1354.939453,201.208847 1359.230591,201.208847 1363.545044,201.208847 
	C1362.052856,212.079102 1356.009277,218.601547 1345.656372,220.701508 
	C1334.328613,222.999191 1322.677368,218.060135 1317.229248,208.651184 
	C1310.535645,197.090759 1312.828247,181.353806 1322.833496,171.780762 
z"/>
<path fill="#F7F7F7" opacity="1.000000" stroke="none" 
	d="
M954.016663,171.870544 
	C956.984558,181.558746 959.874329,190.856201 963.184387,201.505875 
	C966.480408,190.993103 969.596069,181.865952 972.137207,172.581528 
	C973.270020,168.442474 975.177002,166.858429 979.380310,167.400345 
	C981.978516,167.735306 984.655090,167.462418 988.013245,167.462418 
	C981.852783,185.130203 975.878723,202.263275 969.898926,219.412964 
	C965.296814,219.412964 961.002319,219.412964 956.374451,219.412964 
	C950.464111,202.397202 944.553833,185.381516 938.338196,167.486740 
	C942.930847,167.486740 947.015747,167.204376 951.013489,167.669769 
	C952.121338,167.798737 952.970642,170.148788 954.016663,171.870544 
z"/>
<path fill="#F7F7F7" opacity="1.000000" stroke="none" 
	d="
M1449.471436,188.645065 
	C1447.010864,181.587692 1444.731201,174.878601 1442.212769,167.466461 
	C1446.623169,167.466461 1450.422485,167.187790 1454.137939,167.623245 
	C1455.376099,167.768341 1456.981567,169.551834 1457.428101,170.911758 
	C1460.568237,180.474030 1463.449707,190.121292 1466.891479,201.291626 
	C1468.507324,196.434128 1469.697998,192.989456 1470.798462,189.516190 
	C1472.702881,183.506332 1474.740967,177.528717 1476.344971,171.438019 
	C1477.177002,168.278564 1478.622925,167.081406 1481.874512,167.400940 
	C1484.830933,167.691467 1487.838379,167.462433 1491.685181,167.462433 
	C1489.551270,173.778061 1487.619995,179.644180 1485.587646,185.475052 
	C1482.149170,195.339355 1478.454468,205.119949 1475.276001,215.066269 
	C1474.175659,218.509552 1472.739136,220.018845 1469.069336,219.600647 
	C1466.279053,219.282669 1463.423462,219.537567 1460.205200,219.537567 
	C1456.679077,209.331238 1453.165771,199.162292 1449.471436,188.645065 
z"/>
<path fill="#F9F9F9" opacity="1.000000" stroke="none" 
	d="
M867.817505,168.000061 
	C867.817505,160.862045 867.817505,154.224014 867.817505,147.287796 
	C872.395081,147.287796 876.806274,147.287796 881.536316,147.287796 
	C881.536316,171.086960 881.536316,194.954849 881.536316,219.176331 
	C877.237488,219.176331 872.835999,219.176331 867.817505,219.176331 
	C867.817505,202.284912 867.817505,185.392471 867.817505,168.000061 
z"/>
<path fill="#F9F9F9" opacity="1.000000" stroke="none" 
	d="
M567.851074,179.000076 
	C567.851074,192.625809 567.851074,205.751541 567.851074,219.202240 
	C563.194153,219.202240 558.785400,219.202240 554.094788,219.202240 
	C554.094788,195.277588 554.094788,171.412918 554.094788,147.267975 
	C558.442200,147.267975 562.850830,147.267975 567.851074,147.267975 
	C567.851074,157.672012 567.851074,168.086029 567.851074,179.000076 
z"/>
<path fill="#F8F8F8" opacity="1.000000" stroke="none" 
	d="
M1281.987549,170.338898 
	C1282.892578,169.071182 1283.744385,167.664581 1284.711426,167.580154 
	C1288.009155,167.292252 1291.347534,167.469971 1295.118286,167.469971 
	C1295.365356,169.627747 1295.597656,171.656372 1295.932495,174.579437 
	C1299.901489,168.496033 1304.732910,165.772217 1311.604980,167.415588 
	C1311.604980,171.286209 1311.604980,175.062210 1311.604980,179.083481 
	C1310.698120,179.228546 1309.752197,179.436081 1308.795166,179.524094 
	C1300.483643,180.288696 1296.179321,184.732574 1296.044800,193.107162 
	C1295.906006,201.744705 1296.013916,210.386215 1296.013916,219.277374 
	C1291.290405,219.277374 1286.868408,219.277374 1281.987183,219.277374 
	C1281.987183,203.017441 1281.987183,186.911743 1281.987549,170.338898 
z"/>
<path fill="#EAEAEA" opacity="1.000000" stroke="none" 
	d="
M1005.585449,197.000122 
	C1005.585449,204.623703 1005.585449,211.747269 1005.585449,219.226074 
	C1000.866089,219.226074 996.483032,219.226074 991.754517,219.226074 
	C991.754517,202.185501 991.754517,185.160934 991.754517,167.774429 
	C996.132874,167.774429 1000.515930,167.774429 1005.585449,167.774429 
	C1005.585449,177.351883 1005.585449,186.926010 1005.585449,197.000122 
z"/>
<path fill="#EAEAEA" opacity="1.000000" stroke="none" 
	d="
M1063.414429,187.000320 
	C1063.414429,180.374985 1063.414429,174.249466 1063.414429,167.771133 
	C1068.138672,167.771133 1072.520264,167.771133 1077.248291,167.771133 
	C1077.248291,184.820312 1077.248291,201.844849 1077.248291,219.228424 
	C1072.861206,219.228424 1068.478271,219.228424 1063.414429,219.228424 
	C1063.414429,208.643265 1063.414429,198.071701 1063.414429,187.000320 
z"/>
<path fill="#F6F6F6" opacity="1.000000" stroke="none" 
	d="
M1438.858276,189.000198 
	C1438.858276,199.292191 1438.858276,209.084244 1438.858276,219.206940 
	C1434.201782,219.206940 1429.783936,219.206940 1425.084961,219.206940 
	C1425.084961,202.243195 1425.084961,185.197479 1425.084961,167.805511 
	C1429.426758,167.805511 1433.799194,167.805511 1438.858276,167.805511 
	C1438.858276,174.707794 1438.858276,181.604019 1438.858276,189.000198 
z"/>
<path fill="#F6F6F6" opacity="1.000000" stroke="none" 
	d="
M531.141846,207.972168 
	C531.147766,194.683807 531.152100,181.889801 531.168762,169.095810 
	C531.169189,168.773087 531.306274,168.450531 531.455322,167.794739 
	C535.793762,167.794739 540.212463,167.794739 544.913513,167.794739 
	C544.913513,184.754028 544.913513,201.800949 544.913513,219.194321 
	C540.575134,219.194321 536.202881,219.194321 531.141846,219.194321 
	C531.141846,215.622742 531.141846,212.044632 531.141846,207.972168 
z"/>
<path fill="#F0F0F0" opacity="1.000000" stroke="none" 
	d="
M518.073730,122.769798 
	C516.624390,123.913940 515.317505,124.711021 513.269653,125.960030 
	C513.269653,111.346245 513.269653,97.948875 513.269653,84.339584 
	C514.638794,84.339584 515.906799,84.339584 517.590454,84.339584 
	C517.590454,88.757080 517.590454,93.190681 517.590454,97.414558 
	C521.458008,96.517136 525.125854,94.669670 528.423279,95.186195 
	C531.606262,95.684792 535.283997,97.983932 537.199280,100.616272 
	C541.604126,106.670212 540.276123,117.762070 535.453674,122.446220 
	C530.815430,126.951393 525.168396,126.943726 518.073730,122.769798 
M528.983154,121.110405 
	C535.586853,117.256882 536.989746,105.907745 531.416748,100.896927 
	C528.164001,97.972366 524.681824,98.479858 521.406860,100.831039 
	C517.838379,103.392906 516.469910,110.316620 518.401001,115.543976 
	C520.073669,120.071892 523.382751,121.979378 528.983154,121.110405 
z"/>
<path fill="#F0F0F0" opacity="1.000000" stroke="none" 
	d="
M584.875244,108.158249 
	C584.966675,114.086838 583.389221,119.828072 589.286621,124.284584 
	C588.624939,124.700180 587.963257,125.115776 587.301575,125.531372 
	C584.749512,124.691666 582.197510,123.851967 580.199280,123.194496 
	C576.010498,123.855659 571.943359,124.984695 567.872864,124.997108 
	C564.130798,125.008537 561.356323,122.782097 560.820435,118.628860 
	C560.237427,114.111198 561.731873,110.644440 566.225403,109.235794 
	C569.528931,108.200165 573.114624,108.031464 576.371277,106.894226 
	C577.859680,106.374481 579.900269,104.376015 579.813171,103.185486 
	C579.706238,101.722878 577.844055,99.543594 576.375854,99.190437 
	C572.585571,98.278755 568.808655,98.322746 566.890320,103.082413 
	C566.410461,104.272987 564.232178,104.779022 562.302612,105.911949 
	C562.849976,97.976326 566.363403,94.982437 573.826111,94.970558 
	C581.314575,94.958641 584.415955,97.681137 584.863953,104.693748 
	C584.927368,105.686714 584.874390,106.687111 584.875244,108.158249 
M569.900513,112.144691 
	C566.864502,113.271233 564.467651,115.674652 566.312988,118.470345 
	C567.508667,120.281799 571.302368,121.469299 573.710999,121.168327 
	C579.190857,120.483604 580.999817,116.324821 579.425293,109.998932 
	C576.513916,110.661148 573.601501,111.323593 569.900513,112.144691 
z"/>
<path fill="#EEEEEE" opacity="1.000000" stroke="none" 
	d="
M627.683350,103.549545 
	C629.794678,100.295555 628.328735,94.030083 635.853638,95.898727 
	C631.053589,107.672501 626.577454,119.357468 621.386841,130.715973 
	C620.480652,132.698807 616.662598,133.702332 613.993408,134.347198 
	C612.990601,134.589478 611.430664,132.525574 610.473206,131.059525 
	C618.975342,129.478958 620.616394,126.606758 617.538147,118.989761 
	C614.455811,111.362816 611.404236,103.723465 608.314880,96.029167 
	C612.081238,94.562668 613.825928,95.752502 614.952454,99.115631 
	C616.991821,105.203468 619.407776,111.165154 622.126648,118.404739 
	C624.197205,112.859337 625.867920,108.384857 627.683350,103.549545 
z"/>
<path fill="#E4E4E4" opacity="1.000000" stroke="none" 
	d="
M485.007568,124.905693 
	C480.700195,124.905693 476.887085,124.905693 472.732361,124.905693 
	C472.732361,111.264320 472.732361,97.886986 472.732361,84.302658 
	C474.353790,84.302658 475.808044,84.302658 477.750946,84.302658 
	C477.750946,96.045654 477.750946,107.764824 477.750946,119.908226 
	C484.969025,119.908226 491.715363,119.908226 498.630005,119.908226 
	C498.630005,121.718048 498.630005,123.092896 498.630005,124.905693 
	C494.081940,124.905693 489.791870,124.905693 485.007568,124.905693 
z"/>
<path fill="#EEEEEE" opacity="1.000000" stroke="none" 
	d="
M590.967896,111.989731 
	C590.967896,106.359680 590.967896,101.227074 590.967896,95.784546 
	C593.771057,95.319260 596.499146,94.236679 596.087524,98.203499 
	C599.328796,96.929375 602.407654,95.719086 606.191040,94.231857 
	C606.349792,96.827194 606.435364,98.225250 606.519592,99.601395 
	C597.787903,100.694023 595.927734,102.836655 595.882507,111.547020 
	C595.860962,115.691643 595.878845,119.836464 595.878845,124.412834 
	C594.392761,124.618660 593.009644,124.810219 590.967896,125.093002 
	C590.967896,120.686905 590.967896,116.587036 590.967896,111.989731 
z"/>
<path fill="#EEEEEE" opacity="1.000000" stroke="none" 
	d="
M548.878784,113.117996 
	C548.878784,117.072182 548.878784,120.550636 548.878784,124.434128 
	C547.354309,124.630486 545.976501,124.807945 544.263306,125.028618 
	C544.263306,115.166389 544.263306,105.601952 544.263306,94.816750 
	C546.398804,95.896431 548.054565,96.733574 549.915283,97.674339 
	C552.158386,97.055557 555.304565,96.111237 558.512756,95.484734 
	C558.713989,95.445435 559.400574,97.891106 559.871155,99.208214 
	C549.839111,101.566513 548.912903,102.739754 548.878784,113.117996 
z"/>
<path fill="#EAEAEA" opacity="1.000000" stroke="none" 
	d="
M1070.968262,146.960388 
	C1073.247314,146.960388 1075.056763,146.960388 1077.224487,146.960388 
	C1077.224487,151.168869 1077.224487,155.183456 1077.224487,159.546356 
	C1072.854980,159.546356 1068.489258,159.546356 1063.765015,159.546356 
	C1063.765015,155.618393 1063.765015,151.580902 1063.765015,146.960388 
	C1066.007812,146.960388 1068.253296,146.960388 1070.968262,146.960388 
z"/>
<path fill="#EAEAEA" opacity="1.000000" stroke="none" 
	d="
M1004.432861,159.762604 
	C1000.036133,159.867279 996.080078,159.867279 991.770020,159.867279 
	C991.770020,155.620483 991.770020,151.583084 991.770020,147.248199 
	C996.144958,147.248199 1000.529236,147.248199 1005.780701,147.248199 
	C1005.480652,151.352753 1005.177124,155.505356 1004.432861,159.762604 
z"/>
<path fill="#F6F6F6" opacity="1.000000" stroke="none" 
	d="
M1434.775757,159.859634 
	C1431.344238,159.859680 1428.379639,159.859680 1425.114502,159.859680 
	C1425.114502,155.477829 1425.114502,151.436111 1425.114502,147.210312 
	C1429.619385,147.210312 1434.024780,147.210312 1438.858887,147.210312 
	C1438.858887,150.542999 1438.687622,153.675827 1438.908203,156.780807 
	C1439.119629,159.756287 1437.509521,160.082657 1434.775757,159.859634 
z"/>
<path fill="#F6F6F6" opacity="1.000000" stroke="none" 
	d="
M539.937439,159.859695 
	C536.845642,159.859695 534.231201,159.859695 531.383057,159.859695 
	C531.383057,155.438446 531.383057,151.520264 531.383057,147.289902 
	C535.810791,147.289902 540.209106,147.289902 544.902710,147.289902 
	C544.902710,151.283615 544.902710,155.325348 544.902710,159.656967 
	C543.321411,159.728394 541.868103,159.794037 539.937439,159.859695 
z"/>
<path fill="#E4E4E4" opacity="1.000000" stroke="none" 
	d="
M502.388733,102.205017 
	C502.941345,99.111435 500.411957,94.295853 506.951355,95.694115 
	C506.951355,105.250542 506.951355,114.785515 506.951355,124.611771 
	C505.610870,124.611771 504.226929,124.611771 502.388702,124.611771 
	C502.388702,117.200859 502.388702,109.937340 502.388733,102.205017 
z"/>
<path fill="#E4E4E4" opacity="1.000000" stroke="none" 
	d="
M502.497620,85.377304 
	C503.888611,84.617073 505.196350,84.239220 506.990326,83.720871 
	C507.112701,86.025375 507.205170,87.767174 507.318787,89.906738 
	C505.809174,90.034706 504.433624,90.151306 502.658905,90.301750 
	C502.566284,88.581200 502.490326,87.170448 502.497620,85.377304 
z"/>
<path fill="#0C0C0C" opacity="1.000000" stroke="none" 
	d="
M392.747833,185.530945 
	C386.475708,185.530914 380.668579,185.530914 374.022522,185.530914 
	C379.320831,173.705627 384.365662,162.446136 389.587646,150.791260 
	C392.950012,162.372452 396.226013,173.656281 399.673584,185.530975 
	C397.118225,185.530975 395.165527,185.530975 392.747833,185.530945 
z"/>
<path fill="#040404" opacity="1.000000" stroke="none" 
	d="
M700.770264,192.128693 
	C703.919250,196.238800 706.850464,200.055588 709.761230,203.887863 
	C710.056519,204.276672 710.228699,204.759048 710.453857,205.190063 
	C704.278503,210.661957 695.512268,210.941620 691.606201,205.815231 
	C687.668335,200.647156 689.969116,193.942551 697.794434,188.564072 
	C698.693665,189.634369 699.620117,190.737061 700.770264,192.128693 
z"/>
<path fill="#0E0E0E" opacity="1.000000" stroke="none" 
	d="
M703.208008,158.980072 
	C705.473999,160.423538 708.449280,161.560425 709.008606,163.422852 
	C710.374634,167.971420 707.619385,171.164185 703.742798,173.366928 
	C696.937561,167.557541 696.635437,162.302948 703.208008,158.980072 
z"/>
<path fill="#0B0B0B" opacity="1.000000" stroke="none" 
	d="
M1238.357544,182.413635 
	C1240.480591,175.539368 1242.446411,169.038681 1244.542236,162.108017 
	C1247.657349,172.482635 1250.647827,182.442459 1253.727905,192.700867 
	C1247.482300,192.700867 1241.848755,192.700867 1235.487671,192.700867 
	C1236.428345,189.263168 1237.314331,186.025177 1238.357544,182.413635 
z"/>
<path fill="#0B0B0B" opacity="1.000000" stroke="none" 
	d="
M840.804932,187.843628 
	C835.249512,187.843628 830.166809,187.843628 825.063293,187.843628 
	C825.538269,180.862625 829.710205,176.928986 836.192261,176.992126 
	C842.352051,177.052139 846.226868,180.961166 846.685425,187.843643 
	C844.871216,187.843643 843.074402,187.843643 840.804932,187.843628 
z"/>
<path fill="#0E0E0E" opacity="1.000000" stroke="none" 
	d="
M903.681763,187.841461 
	C902.907532,187.249786 902.183228,186.589600 902.281616,186.092163 
	C903.418091,180.347961 908.205200,176.735367 914.166260,176.988693 
	C919.928772,177.233582 923.314880,180.645782 924.290710,187.848572 
	C917.512695,187.848572 910.813232,187.848572 903.681763,187.841461 
z"/>
<path fill="#0E0E0E" opacity="1.000000" stroke="none" 
	d="
M1514.075684,187.849915 
	C1510.936890,187.849899 1508.279785,187.849899 1505.616455,187.849899 
	C1505.991333,181.168808 1509.729736,177.262619 1515.901001,176.989777 
	C1522.494507,176.698227 1526.336914,180.177063 1527.379639,187.849915 
	C1523.068237,187.849915 1518.812866,187.849915 1514.075684,187.849915 
z"/>
<path fill="#030303" opacity="1.000000" stroke="none" 
	d="
M1120.256104,181.905151 
	C1124.145264,188.741547 1124.206299,195.596848 1121.719116,202.394638 
	C1119.925415,207.296539 1116.251465,210.164276 1110.699951,210.172379 
	C1105.050415,210.180634 1100.482300,207.992752 1099.238892,202.558868 
	C1098.026245,197.260147 1097.478760,191.255722 1098.728516,186.064011 
	C1101.216187,175.730057 1112.386475,173.708496 1120.256104,181.905151 
z"/>
<path fill="#040404" opacity="1.000000" stroke="none" 
	d="
M528.576172,121.207779 
	C523.382751,121.979378 520.073669,120.071892 518.401001,115.543976 
	C516.469910,110.316620 517.838379,103.392906 521.406860,100.831039 
	C524.681824,98.479858 528.164001,97.972366 531.416748,100.896927 
	C536.989746,105.907745 535.586853,117.256882 528.576172,121.207779 
z"/>
<path fill="#0B0B0B" opacity="1.000000" stroke="none" 
	d="
M570.294800,112.065369 
	C573.601501,111.323593 576.513916,110.661148 579.425293,109.998932 
	C580.999817,116.324821 579.190857,120.483604 573.710999,121.168327 
	C571.302368,121.469299 567.508667,120.281799 566.312988,118.470345 
	C564.467651,115.674652 566.864502,113.271233 570.294800,112.065369 
z"/>
</svg>