<svg width="58" height="20" viewBox="0 0 58 20" fill="none" xmlns="http://www.w3.org/2000/svg" class="svg__logo-ucla">
<path d="M0.257623 13.8849C0.205661 13.2382 0.192044 12.589 0.216843 11.9407L1.14233 1.4292H4.58441L3.64025 12.0326C3.43774 14.328 4.33765 15.964 6.62891 15.964C8.96994 15.964 10.2078 14.2997 10.4117 12.2634L11.3884 1.4292H14.8277L13.8773 12.128C13.493 16.2467 10.7601 19.3321 6.34346 19.3321C2.89793 19.3321 0.675786 17.1051 0.261078 13.8849" fill="#FFFFFF" class="svg__fill--white"/>
<path d="M15.6201 10.3247C16.0687 5.27905 19.4734 1.09604 25.3533 1.09604C26.9559 1.07317 28.5289 1.52845 29.8715 2.40375L29.4769 6.57156C28.9702 5.87772 28.2959 5.32363 27.517 4.96102C26.7381 4.59841 25.88 4.43912 25.0229 4.49802C21.3638 4.49802 19.3552 7.0388 19.0698 10.2562C18.7933 13.3887 20.4093 15.935 23.9537 15.935C24.8777 15.9394 25.7922 15.7491 26.6378 15.3764C27.4833 15.0038 28.2408 14.4572 28.861 13.7723L28.4761 18.0527C27.0162 18.8941 25.3655 19.3483 23.6806 19.3722C17.8616 19.3722 15.1971 15.0496 15.6153 10.3247" fill="#FFFFFF" class="svg__fill--white"/>
<path d="M32.6185 1.4292H36.0503L34.7971 15.7021H39.7149C40.0605 15.7021 41.2355 15.6841 41.5507 15.6654C41.5327 15.8375 41.2382 18.963 41.2382 18.963H31.062L32.6185 1.4292Z" fill="#FFFFFF" class="svg__fill--white"/>
<path d="M50.4943 7.97586C50.6016 7.73895 50.6865 7.4925 50.7479 7.23975C50.7663 7.23841 50.7848 7.23841 50.8032 7.23975C50.8238 7.49051 50.8678 7.7388 50.9345 7.98139C51.1212 8.78108 52.4551 13.2198 52.4551 13.2198H48.1263C48.1263 13.2198 50.448 8.09198 50.4943 7.97862V7.97586ZM51.3748 0.62793H51.1371L41.7405 18.9635H45.3871L46.708 16.1795H53.3274L54.1568 18.9608H57.7952L51.3748 0.62793Z" fill="#FFFFFF" class="svg__fill--white"/>
</svg>
