<svg width="86" height="40" viewBox="0 0 86 40" fill="none" xmlns="http://www.w3.org/2000/svg">
<path d="M14.2576 23.8849C14.2057 23.2382 14.192 22.589 14.2168 21.9407L15.1423 11.4292H18.5844L17.6403 22.0326C17.4377 24.328 18.3377 25.964 20.6289 25.964C22.9699 25.964 24.2078 24.2997 24.4117 22.2634L25.3884 11.4292H28.8277L27.8773 22.128C27.493 26.2467 24.7601 29.3321 20.3435 29.3321C16.8979 29.3321 14.6758 27.1051 14.2611 23.8849" fill="#0F0F0F"/>
<path d="M29.6201 20.3247C30.0687 15.2791 33.4734 11.096 39.3533 11.096C40.9559 11.0732 42.5289 11.5284 43.8715 12.4037L43.4769 16.5716C42.9702 15.8777 42.2959 15.3236 41.517 14.961C40.7381 14.5984 39.88 14.4391 39.0229 14.498C35.3638 14.498 33.3552 17.0388 33.0698 20.2562C32.7933 23.3887 34.4093 25.935 37.9537 25.935C38.8777 25.9394 39.7922 25.7491 40.6378 25.3764C41.4833 25.0038 42.2408 24.4572 42.861 23.7723L42.4761 28.0527C41.0162 28.8941 39.3655 29.3483 37.6806 29.3722C31.8616 29.3722 29.1971 25.0496 29.6153 20.3247" fill="#0F0F0F"/>
<path d="M46.6185 11.4292H50.0503L48.7971 25.7021H53.7149C54.0605 25.7021 55.2355 25.6841 55.5507 25.6654C55.5327 25.8375 55.2382 28.963 55.2382 28.963H45.062L46.6185 11.4292Z" fill="#0F0F0F"/>
<path d="M64.4943 17.9759C64.6016 17.739 64.6865 17.4925 64.7479 17.2398C64.7663 17.2384 64.7848 17.2384 64.8032 17.2398C64.8238 17.4905 64.8678 17.7388 64.9345 17.9814C65.1212 18.7811 66.4551 23.2198 66.4551 23.2198H62.1263C62.1263 23.2198 64.448 18.092 64.4943 17.9786V17.9759ZM65.3748 10.6279H65.1371L55.7405 28.9635H59.3871L60.708 26.1795H67.3274L68.1568 28.9608H71.7952L65.3748 10.6279Z" fill="#0F0F0F"/>
</svg>
