<svg width="140" height="50" viewBox="0 0 140 50" fill="none" xmlns="http://www.w3.org/2000/svg">
<g clip-path="url(#clip0_234_7397)">
<path d="M77.2231 20.9141H79.6533V30.8684H85.2837V32.8963H77.2231V20.9141Z" fill="#0F0F0F"/>
<path d="M86.1401 20.9141H88.421V22.9586H86.1401V20.9141ZM86.1401 24.3008H88.421V32.8957H86.1401V24.3008Z" fill="#0F0F0F"/>
<path d="M92.0763 31.8236H92.0425V32.8963H89.8452V20.9141H92.1261V25.3376H92.1772C92.4275 24.9318 92.7814 24.5999 93.2024 24.3762C93.6234 24.1524 94.0965 24.0448 94.5729 24.0645C96.7349 24.0645 98.2769 25.9237 98.2769 28.6055C98.2769 31.3868 96.8019 33.1466 94.6406 33.1466C94.1342 33.1731 93.6299 33.0645 93.1793 32.832C92.7287 32.5994 92.348 32.2511 92.0763 31.8229V31.8236ZM95.9642 28.6055C95.9642 27.0158 95.327 25.9099 94.0538 25.9099C92.612 25.9099 92.0763 27.0663 92.0763 28.6573C92.0763 30.2332 92.8643 31.2389 94.1374 31.2389C95.3124 31.2389 95.9642 30.2664 95.9642 28.6076" fill="#0F0F0F"/>
<path d="M101.555 25.6745H101.605C102.124 24.7027 102.711 24.1995 103.717 24.1995C103.898 24.1895 104.08 24.2129 104.253 24.2687V26.2627H104.203C102.711 26.112 101.639 26.9 101.639 28.7095V32.8987H99.3577V24.3005H101.553L101.555 25.6745Z" fill="#0F0F0F"/>
<path d="M110.146 31.9435H110.112C109.676 32.5967 109.056 33.0998 107.582 33.0998C105.822 33.0998 104.582 32.1778 104.582 30.4685C104.582 28.5747 106.124 27.972 108.037 27.7038C109.461 27.5027 110.116 27.3859 110.116 26.732C110.116 26.11 109.632 25.7098 108.675 25.7098C107.602 25.7098 107.085 26.0954 107.016 26.9159H104.988C105.057 25.4084 106.177 24.082 108.691 24.082C111.273 24.082 112.312 25.2391 112.312 27.2497V31.6235C112.312 32.2767 112.412 32.6603 112.613 32.8137V32.8973H110.418C110.261 32.6018 110.17 32.276 110.15 31.9421L110.146 31.9435ZM110.166 29.8637V28.5747C109.661 28.8117 109.126 28.9807 108.577 29.0772C107.387 29.3454 106.8 29.6142 106.8 30.4181C106.8 31.2219 107.336 31.5074 108.14 31.5074C109.448 31.5074 110.168 30.7035 110.168 29.8651" fill="#0F0F0F"/>
<path d="M115.914 25.6745H115.965C116.484 24.7027 117.071 24.1995 118.076 24.1995C118.258 24.1895 118.439 24.2129 118.612 24.2687V26.2627H118.562C117.071 26.112 115.998 26.9 115.998 28.7095V32.8987H113.717V24.3005H115.912L115.914 25.6745Z" fill="#0F0F0F"/>
<path d="M119.914 33.9198H120.719C121.624 33.9198 121.992 33.4498 121.992 32.7448C121.903 31.9377 121.683 31.1506 121.339 30.4148L119.026 24.2979H121.423L122.696 28.1685C122.964 28.9557 123.249 30.045 123.249 30.045H123.283C123.283 30.045 123.517 28.9557 123.786 28.1685L124.992 24.2979H127.288L124.288 33.1132C123.635 35.0236 122.998 35.7106 121.255 35.7106H119.914V33.9198Z" fill="#0F0F0F"/>
<path d="M13.6666 27.818C13.6146 27.1713 13.601 26.5221 13.6258 25.8738L14.5513 15.3623H17.9933L17.0492 25.9657C16.8467 28.2611 17.7466 29.8971 20.0378 29.8971C22.3789 29.8971 23.6168 28.2328 23.8207 26.1965L24.7973 15.3623H28.2366L27.2862 26.0611C26.902 30.1798 24.169 33.2652 19.7524 33.2652C16.3069 33.2652 14.0847 31.0383 13.67 27.818" fill="#0B6AB7"/>
<path d="M29.029 24.2578C29.4776 19.2122 32.8824 15.0291 38.7622 15.0291C40.3648 15.0063 41.9379 15.4616 43.2805 16.3369L42.8858 20.5047C42.3791 19.8108 41.7048 19.2567 40.926 18.8941C40.1471 18.5315 39.289 18.3722 38.4319 18.4311C34.7727 18.4311 32.7642 20.9719 32.4787 24.1893C32.2023 27.3218 33.8182 29.8681 37.3626 29.8681C38.2866 29.8725 39.2012 29.6822 40.0467 29.3095C40.8922 28.9369 41.6498 28.3903 42.27 27.7054L41.885 31.9858C40.4251 32.8272 38.7744 33.2814 37.0896 33.3053C31.2705 33.3053 28.606 28.9827 29.0242 24.2578" fill="#0B6AB7"/>
<path d="M46.0275 15.3623H49.4592L48.2061 29.6352H53.1238C53.4694 29.6352 54.6444 29.6172 54.9596 29.5985C54.9416 29.7706 54.6472 32.8961 54.6472 32.8961H44.4709L46.0275 15.3623Z" fill="#0B6AB7"/>
<path d="M63.9032 21.909C64.0106 21.6721 64.0955 21.4256 64.1569 21.1729C64.1753 21.1715 64.1937 21.1715 64.2122 21.1729C64.2327 21.4236 64.2767 21.6719 64.3435 21.9145C64.5301 22.7142 65.8641 27.1529 65.8641 27.1529H61.5352C61.5352 27.1529 63.8569 22.0251 63.9032 21.9117V21.909ZM64.7838 14.561H64.546L55.1494 32.8966H58.7961L60.1169 30.1126H66.7363L67.5658 32.8939H71.2041L64.7838 14.561Z" fill="#0B6AB7"/>
</g>
<defs>
<clipPath id="clip0_234_7397">
<rect width="140" height="50" fill="white"/>
</clipPath>
</defs>
</svg>
