<svg viewBox="0 0 81 80" fill="none" xmlns="http://www.w3.org/2000/svg">
  <path d="m40.5 0 28.284 11.716L80.5 40 68.784 68.284 40.5 80 12.216 68.284.5 40l11.716-28.284L40.5 0Z" fill="#0B6AB7"/>
  <rect x="24.557" y="40.845" width="5.15" height="16.594" rx=".656" stroke="#fff" stroke-width="1.25"/>
  <rect x="-.625" y=".625" width="5.15" height="16.594" rx=".656" transform="matrix(-1 0 0 1 55.807 40.22)" stroke="#fff" stroke-width="1.25"/>
  <path d="M59.814 51.487V41.32c0-10.67-8.65-19.319-19.32-19.319s-19.32 8.65-19.32 19.32v10.167" stroke="#fff" stroke-width="1.25"/>
  <mask id="a" fill="#fff">
    <path d="M20.625 44.933a2.183 2.183 0 1 1 4.365 0v9.84s-2.296.202-3.274-.443c-.796-.525-1.057-1.836-1.088-2.006a.215.215 0 0 1-.003-.038v-7.353Z"/>
  </mask>
  <path d="m24.99 54.773.11 1.245 1.14-.1v-1.145h-1.25Zm-3.274-.443-.688 1.043.688-1.043Zm2.024-9.397v9.84h2.5v-9.84h-2.5Zm-1.865 7.353v-7.353h-2.5v7.353h2.5Zm3.115 2.487-.109-1.245h.001-.014a9.937 9.937 0 0 1-1.094.016 5.828 5.828 0 0 1-.885-.098c-.283-.057-.432-.125-.484-.16l-1.377 2.087c.436.288.941.437 1.363.523.439.09.888.13 1.275.146a12.398 12.398 0 0 0 1.395-.02l.026-.003h.011v-.001h.001l-.109-1.245Zm-2.585-1.487c-.08-.052-.224-.226-.362-.563a3.45 3.45 0 0 1-.185-.623l-2.46.447c.024.128.116.592.33 1.118.2.492.584 1.236 1.3 1.708l1.377-2.087Zm-3.03-1c0 .077.006.165.023.261l2.46-.447c.013.07.017.134.017.186h-2.5ZM22.808 44c.515 0 .932.418.932.933h2.5a3.433 3.433 0 0 0-3.432-3.433V44Zm0-2.5a3.433 3.433 0 0 0-3.433 3.433h2.5c0-.515.418-.933.933-.933v-2.5Z" fill="#fff" mask="url(#a)"/>
  <mask id="b" fill="#fff">
    <path d="M60.375 44.933a2.183 2.183 0 0 0-4.365 0v9.84s2.296.202 3.274-.443c.796-.525 1.057-1.836 1.088-2.006a.215.215 0 0 0 .003-.038v-7.353Z"/>
  </mask>
  <path d="m56.01 54.773-.11 1.245-1.14-.1v-1.145h1.25Zm3.274-.443-.689-1.044.689 1.044Zm1.088-2.006 1.23.223-1.23-.223Zm-3.112-7.391v9.84h-2.5v-9.84h2.5Zm1.865 7.353v-7.353h2.5v7.353h-2.5Zm-3.115 2.487.109-1.245h-.001.014l.06.005c.055.003.137.008.24.012.207.008.489.012.794 0 .31-.014.618-.044.885-.099.283-.057.432-.125.484-.16l1.377 2.087c-.436.288-.941.437-1.363.523-.439.09-.888.13-1.275.146a12.399 12.399 0 0 1-1.395-.02l-.026-.003h-.011v-.001H55.9l.109-1.245Zm2.585-1.487c.08-.052.224-.226.362-.563a3.45 3.45 0 0 0 .185-.623l2.46.447a5.931 5.931 0 0 1-.33 1.118c-.2.492-.584 1.236-1.3 1.708l-1.377-2.087Zm3.03-1c0 .077-.006.165-.023.261l-2.46-.447c-.013.07-.017.134-.017.186h2.5ZM58.192 44a.933.933 0 0 0-.932.933h-2.5a3.433 3.433 0 0 1 3.432-3.433V44Zm0-2.5a3.433 3.433 0 0 1 3.433 3.433h-2.5a.933.933 0 0 0-.933-.933v-2.5Z" fill="#fff" mask="url(#b)"/>
</svg>