<svg width="249" height="247" viewBox="0 0 249 247" fill="none" xmlns="http://www.w3.org/2000/svg" class="svg__molecule-3d">
<path d="M124.566 245.393L209.606 211.206L209.746 210.881M124.566 245.393L37.1772 211.206M124.566 245.393L190.343 191.802M124.566 245.393L57.38 191.802M247.193 123.89L209.606 40.2692M247.193 123.89L209.746 210.881M247.193 123.89L124.566 57.3629M247.193 123.89L190.343 191.802M209.606 40.2692L124.566 0.999955M209.606 40.2692L124.566 57.3629M124.566 0.999955L37.1772 40.2692M124.566 0.999955V57.3629M37.1772 40.2692L1 123.89M37.1772 40.2692L124.566 57.3629M1 123.89L37.1772 211.206M1 123.89L57.38 191.802M1 123.89L124.566 57.3629M37.1772 211.206L57.38 191.802M57.38 191.802H190.343M57.38 191.802L124.566 57.3629M190.343 191.802L209.746 210.881M190.343 191.802L124.566 57.3629" stroke="#0AA5FF" stroke-width="1.5" class="svg__stroke--default-cyan-03"/>
</svg>
