<svg width="81" height="81" viewBox="0 0 81 81" fill="none" xmlns="http://www.w3.org/2000/svg" class="svg__molecule-see-more">
<g opacity="0.5">
<path d="M12.7898 12.7897L40.5 1.31179L68.2103 12.7897L79.6882 40.5L68.2103 68.2103L40.5 79.6882L12.7898 68.2103L1.31179 40.5L12.7898 12.7897Z" stroke="#0B6AB7" stroke-width="1.5" class="svg__stroke--primary-blue-03"/>
</g>
<path fill-rule="evenodd" clip-rule="evenodd" d="M30.6162 33.2598C28.1843 35.4299 26.5334 37.9301 25.7711 39.2188C25.5822 39.5381 25.5822 39.9132 25.7711 40.2325C26.5334 41.5212 28.1843 44.0214 30.6162 46.1915C33.048 48.3615 36.2048 50.1534 39.9999 50.1534C43.7951 50.1534 46.9519 48.3615 49.3837 46.1915C51.8156 44.0214 53.4665 41.5212 54.2288 40.2325C54.4177 39.9132 54.4177 39.5381 54.2288 39.2188C53.4665 37.9301 51.8156 35.4299 49.3837 33.2598C46.9519 31.0898 43.7951 29.2979 39.9999 29.2979C36.2048 29.2979 33.048 31.0898 30.6162 33.2598ZM29.6175 32.1406C32.2097 29.8275 35.7075 27.7979 39.9999 27.7979C44.2924 27.7979 47.7902 29.8275 50.3824 32.1406C52.9744 34.4535 54.7169 37.0978 55.5198 38.455C55.9874 39.2454 55.9874 40.2059 55.5198 40.9962C54.7169 42.3535 52.9744 44.9978 50.3824 47.3107C47.7902 49.6238 44.2924 51.6534 39.9999 51.6534C35.7075 51.6534 32.2097 49.6238 29.6175 47.3107C27.0255 44.9978 25.283 42.3535 24.4801 40.9962C24.0125 40.2059 24.0125 39.2454 24.4801 38.455C25.283 37.0978 27.0255 34.4535 29.6175 32.1406ZM39.9988 45.2121C43.0287 45.2121 45.4849 42.7559 45.4849 39.726C45.4849 36.6961 43.0287 34.2399 39.9988 34.2399C36.9689 34.2399 34.5127 36.6961 34.5127 39.726C34.5127 42.7559 36.9689 45.2121 39.9988 45.2121ZM46.9849 39.726C46.9849 43.5843 43.8571 46.7121 39.9988 46.7121C36.1405 46.7121 33.0127 43.5843 33.0127 39.726C33.0127 35.8676 36.1405 32.7399 39.9988 32.7399C43.8571 32.7399 46.9849 35.8676 46.9849 39.726Z" fill="#0B6AB7" class="svg__fill--primary-blue-03"/>
</svg>
