<svg width="1000" height="480" viewBox="0 0 1000 480" fill="none" xmlns="http://www.w3.org/2000/svg" class="svg__molecule-placeholder">
<g clip-path="url(#clip0_4766_42722)">
<path d="M0.343468 256.541L86.6725 221.246L86.8143 220.911M0.343468 256.541L-88.3703 221.246M0.343468 256.541L67.1173 201.214M0.343468 256.541L-67.8612 201.214M124.829 131.101L86.6725 44.7721M124.829 131.101L86.8143 220.911M124.829 131.101L0.343468 62.4195M124.829 131.101L67.1173 201.214M86.6725 44.7721L0.343468 4.23083M86.6725 44.7721L0.343468 62.4195M0.343468 4.23083L-88.3703 44.7721M0.343468 4.23083V62.4195M-88.3703 44.7721L-125.096 131.101M-88.3703 44.7721L0.343468 62.4195M-125.096 131.101L-88.3703 221.246M-125.096 131.101L-67.8612 201.214M-125.096 131.101L0.343468 62.4195M-88.3703 221.246L-67.8612 201.214M-67.8612 201.214H67.1173M-67.8612 201.214L0.343468 62.4195M67.1173 201.214L86.8143 220.911M67.1173 201.214L0.343468 62.4195" stroke="#87FBE8" stroke-width="1.15119" class="svg__stroke--help-green-02"/>
<path d="M250.268 256.541L336.597 221.246L336.739 220.911M250.268 256.541L161.555 221.246M250.268 256.541L317.042 201.214M250.268 256.541L182.064 201.214M374.754 131.101L336.597 44.7721M374.754 131.101L336.739 220.911M374.754 131.101L250.268 62.4194M374.754 131.101L317.042 201.214M336.597 44.7721L250.268 4.23081M336.597 44.7721L250.268 62.4194M250.268 4.23081L161.555 44.7721M250.268 4.23081V62.4194M161.555 44.7721L124.829 131.101M161.555 44.7721L250.268 62.4194M124.829 131.101L161.555 221.246M124.829 131.101L182.064 201.214M124.829 131.101L250.268 62.4194M161.555 221.246L182.064 201.214M182.064 201.214H317.042M182.064 201.214L250.268 62.4194M317.042 201.214L336.739 220.911M317.042 201.214L250.268 62.4194" stroke="#5CD9FF" stroke-width="1.15119" class="svg__stroke--default-cyan-02"/>
<path d="M500.193 256.541L586.522 221.246L586.664 220.911M500.193 256.541L411.48 221.246M500.193 256.541L566.967 201.214M500.193 256.541L431.989 201.214M624.679 131.101L586.522 44.7721M624.679 131.101L586.664 220.911M624.679 131.101L500.193 62.4195M624.679 131.101L566.967 201.214M586.522 44.7721L500.193 4.23083M586.522 44.7721L500.193 62.4195M500.193 4.23083L411.48 44.7721M500.193 4.23083V62.4195M411.48 44.7721L374.754 131.101M411.48 44.7721L500.193 62.4195M374.754 131.101L411.48 221.246M374.754 131.101L431.989 201.214M374.754 131.101L500.193 62.4195M411.48 221.246L431.989 201.214M431.989 201.214H566.967M431.989 201.214L500.193 62.4195M566.967 201.214L586.664 220.911M566.967 201.214L500.193 62.4195" stroke="#87FBE8" stroke-width="1.15119" class="svg__stroke--help-green-02"/>
<path d="M750.118 256.541L836.447 221.246L836.589 220.911M750.118 256.541L661.404 221.246M750.118 256.541L816.892 201.214M750.118 256.541L681.914 201.214M874.604 131.101L836.447 44.7721M874.604 131.101L836.589 220.911M874.604 131.101L750.118 62.4195M874.604 131.101L816.892 201.214M836.447 44.7721L750.118 4.23083M836.447 44.7721L750.118 62.4195M750.118 4.23083L661.404 44.7721M750.118 4.23083V62.4195M661.404 44.7721L624.679 131.101M661.404 44.7721L750.118 62.4195M624.679 131.101L661.404 221.246M624.679 131.101L681.914 201.214M624.679 131.101L750.118 62.4195M661.404 221.246L681.914 201.214M681.914 201.214H816.892M681.914 201.214L750.118 62.4195M816.892 201.214L836.589 220.911M816.892 201.214L750.118 62.4195" stroke="#5CD9FF" stroke-width="1.15119" class="svg__stroke--default-cyan-02"/>
<path d="M1000.04 256.541L1086.37 221.246L1086.51 220.911M1000.04 256.541L911.329 221.246M1000.04 256.541L1066.82 201.214M1000.04 256.541L931.838 201.214M1124.53 131.101L1086.37 44.7721M1124.53 131.101L1086.51 220.911M1124.53 131.101L1000.04 62.4195M1124.53 131.101L1066.82 201.214M1086.37 44.7721L1000.04 4.23083M1086.37 44.7721L1000.04 62.4195M1000.04 4.23083L911.329 44.7721M1000.04 4.23083V62.4195M911.329 44.7721L874.604 131.101M911.329 44.7721L1000.04 62.4195M874.604 131.101L911.329 221.246M874.604 131.101L931.838 201.214M874.604 131.101L1000.04 62.4195M911.329 221.246L931.838 201.214M931.838 201.214H1066.82M931.838 201.214L1000.04 62.4195M1066.82 201.214L1086.51 220.911M1066.82 201.214L1000.04 62.4195" stroke="#87FBE8" stroke-width="1.15119" class="svg__stroke--help-green-02"/>
<path d="M125.439 478.919L211.768 443.625L211.91 443.289M125.439 478.919L36.7256 443.625M125.439 478.919L192.213 423.592M125.439 478.919L57.2347 423.592M249.925 353.48L211.768 267.151M249.925 353.48L211.91 443.289M249.925 353.48L125.439 284.798M249.925 353.48L192.213 423.592M211.768 267.151L125.439 226.61M211.768 267.151L125.439 284.798M125.439 226.61L36.7256 267.151M125.439 226.61V284.798M36.7256 267.151L0 353.48M36.7256 267.151L125.439 284.798M0 353.48L36.7256 443.625M0 353.48L57.2347 423.592M0 353.48L125.439 284.798M36.7256 443.625L57.2347 423.592M57.2347 423.592H192.213M57.2347 423.592L125.439 284.798M192.213 423.592L211.91 443.289M192.213 423.592L125.439 284.798" stroke="#E7DBFF" stroke-width="1.15119" class="svg__stroke--about-purple-02"/>
<path d="M375.364 478.919L461.693 443.625L461.835 443.289M375.364 478.919L286.65 443.625M375.364 478.919L442.138 423.592M375.364 478.919L307.16 423.592M499.85 353.48L461.693 267.151M499.85 353.48L461.835 443.289M499.85 353.48L375.364 284.798M499.85 353.48L442.138 423.592M461.693 267.151L375.364 226.61M461.693 267.151L375.364 284.798M375.364 226.61L286.65 267.151M375.364 226.61V284.798M286.65 267.151L249.925 353.48M286.65 267.151L375.364 284.798M249.925 353.48L286.65 443.625M249.925 353.48L307.16 423.592M249.925 353.48L375.364 284.798M286.65 443.625L307.16 423.592M307.16 423.592H442.138M307.16 423.592L375.364 284.798M442.138 423.592L461.835 443.289M442.138 423.592L375.364 284.798" stroke="#FFBDF4" stroke-width="1.15119" class="svg__stroke--visit-fushia-02"/>
<path d="M625.289 478.919L711.618 443.625L711.76 443.289M625.289 478.919L536.575 443.625M625.289 478.919L692.063 423.592M625.289 478.919L557.085 423.592M749.775 353.48L711.618 267.151M749.775 353.48L711.76 443.289M749.775 353.48L625.289 284.798M749.775 353.48L692.063 423.592M711.618 267.151L625.289 226.61M711.618 267.151L625.289 284.798M625.289 226.61L536.575 267.151M625.289 226.61V284.798M536.575 267.151L499.85 353.48M536.575 267.151L625.289 284.798M499.85 353.48L536.575 443.625M499.85 353.48L557.085 423.592M499.85 353.48L625.289 284.798M536.575 443.625L557.085 423.592M557.085 423.592H692.063M557.085 423.592L625.289 284.798M692.063 423.592L711.76 443.289M692.063 423.592L625.289 284.798" stroke="#E7DBFF" stroke-width="1.15119" class="svg__stroke--about-purple-02"/>
<path d="M875.214 478.919L961.543 443.625L961.685 443.289M875.214 478.919L786.5 443.625M875.214 478.919L941.988 423.592M875.214 478.919L807.009 423.592M999.7 353.48L961.543 267.151M999.7 353.48L961.685 443.289M999.7 353.48L875.214 284.798M999.7 353.48L941.988 423.592M961.543 267.151L875.214 226.61M961.543 267.151L875.214 284.798M875.214 226.61L786.5 267.151M875.214 226.61V284.798M786.5 267.151L749.775 353.48M786.5 267.151L875.214 284.798M749.775 353.48L786.5 443.625M749.775 353.48L807.009 423.592M749.775 353.48L875.214 284.798M786.5 443.625L807.009 423.592M807.009 423.592H941.988M807.009 423.592L875.214 284.798M941.988 423.592L961.685 443.289M941.988 423.592L875.214 284.798" stroke="#FFBDF4" stroke-width="1.15119" class="svg__stroke--visit-fushia-02"/>
</g>
<defs>
<clipPath id="clip0_4766_42722">
<rect width="1000" height="478.895" fill="white" transform="translate(0 0.393555)"/>
</clipPath>
</defs>
</svg>
