<svg width="2209" height="1172" viewBox="0 0 2209 1172" fill="none" xmlns="http://www.w3.org/2000/svg" class="svg__molecule-masthead">
<path d="M1579.12 1171.15L1796.81 1082.15L1797.16 1081.3M1579.12 1171.15L1355.42 1082.15M1579.12 1171.15L1747.5 1031.63M1579.12 1171.15L1407.13 1031.63M1893.02 854.837L1796.81 637.149M1893.02 854.837L1797.16 1081.3M1893.02 854.837L1579.12 681.649M1893.02 854.837L1747.5 1031.63M1796.81 637.149L1579.12 534.92M1796.81 637.149L1579.12 681.649M1579.12 534.92L1355.42 637.149M1579.12 534.92V681.649M1355.42 637.149L1262.81 854.837M1355.42 637.149L1579.12 681.649M1262.81 854.837L1355.42 1082.15M1262.81 854.837L1407.13 1031.63M1262.81 854.837L1579.12 681.649M1355.42 1082.15L1407.13 1031.63M1407.13 1031.63H1747.5M1407.13 1031.63L1579.12 681.649M1747.5 1031.63L1797.16 1081.3M1747.5 1031.63L1579.12 681.649" stroke="#FF94DB" stroke-width="1.5" class="svg__stroke--visit-fushia-03"/>
<path d="M948.212 1171.15L1165.9 1082.15L1166.26 1081.3M948.212 1171.15L724.51 1082.15M948.212 1171.15L1116.59 1031.63M948.212 1171.15L776.226 1031.63M1262.12 854.837L1165.9 637.149M1262.12 854.837L1166.26 1081.3M1262.12 854.837L948.212 681.649M1262.12 854.837L1116.59 1031.63M1165.9 637.149L948.212 534.92M1165.9 637.149L948.212 681.649M948.212 534.92L724.51 637.149M948.212 534.92V681.649M724.51 637.149L631.902 854.837M724.51 637.149L948.212 681.649M631.902 854.837L724.51 1082.15M631.902 854.837L776.226 1031.63M631.902 854.837L948.212 681.649M724.51 1082.15L776.226 1031.63M776.226 1031.63H1116.59M776.226 1031.63L948.212 681.649M1116.59 1031.63L1166.26 1081.3M1116.59 1031.63L948.212 681.649" stroke="#C099FF" stroke-width="1.5" class="svg__stroke--about-purple-03"/>
<path d="M317.309 1171.15L534.998 1082.15L535.355 1081.3M317.309 1171.15L93.6077 1082.15M317.309 1171.15L485.687 1031.63M317.309 1171.15L145.324 1031.63M631.214 854.837L534.998 637.148M631.214 854.837L535.355 1081.3M631.214 854.837L317.309 681.648M631.214 854.837L485.687 1031.63M534.998 637.148L317.309 534.919M534.998 637.148L317.309 681.648M317.309 534.919L93.6077 637.148M317.309 534.919V681.648M93.6077 637.148L1 854.837M93.6077 637.148L317.309 681.648M1 854.837L93.6077 1082.15M1 854.837L145.324 1031.63M1 854.837L317.309 681.648M93.6077 1082.15L145.324 1031.63M145.324 1031.63H485.687M145.324 1031.63L317.309 681.648M485.687 1031.63L535.355 1081.3M485.687 1031.63L317.309 681.648" stroke="#FF94DB" stroke-width="1.5" class="svg__stroke--visit-fushia-03"/>
<path d="M1263.32 637.516L1481.01 548.516L1481.36 547.671M1263.32 637.516L1039.62 548.516M1263.32 637.516L1431.69 498.003M1263.32 637.516L1091.33 498.003M1577.22 321.207L1481.01 103.518M1577.22 321.207L1481.36 547.671M1577.22 321.207L1263.32 148.018M1577.22 321.207L1431.69 498.003M1481.01 103.518L1263.32 1.28906M1481.01 103.518L1263.32 148.018M1263.32 1.28906L1039.62 103.518M1263.32 1.28906V148.018M1039.62 103.518L947.008 321.207M1039.62 103.518L1263.32 148.018M947.008 321.207L1039.62 548.516M947.008 321.207L1091.33 498.003M947.008 321.207L1263.32 148.018M1039.62 548.516L1091.33 498.003M1091.33 498.003H1431.69M1091.33 498.003L1263.32 148.018M1431.69 498.003L1481.36 547.671M1431.69 498.003L1263.32 148.018" stroke="#00E0E0" stroke-width="1.5" class="svg__stroke--help-green-03"/>
<path d="M1894.22 637.516L2111.91 548.516L2112.27 547.671M1894.22 637.516L1670.52 548.516M1894.22 637.516L2062.6 498.003M1894.22 637.516L1722.24 498.003M2208.13 321.206L2111.91 103.518M2208.13 321.206L2112.27 547.671M2208.13 321.206L1894.22 148.018M2208.13 321.206L2062.6 498.003M2111.91 103.518L1894.22 1.28858M2111.91 103.518L1894.22 148.018M1894.22 1.28858L1670.52 103.518M1894.22 1.28858V148.018M1670.52 103.518L1577.91 321.206M1670.52 103.518L1894.22 148.018M1577.91 321.206L1670.52 548.516M1577.91 321.206L1722.24 498.003M1577.91 321.206L1894.22 148.018M1670.52 548.516L1722.24 498.003M1722.24 498.003H2062.6M1722.24 498.003L1894.22 148.018M2062.6 498.003L2112.27 547.671M2062.6 498.003L1894.22 148.018" stroke="#0AA5FF" stroke-width="1.5" class="svg__stroke--default-cyan-03"/>
<path d="M632.415 637.516L850.104 548.516L850.461 547.671M632.415 637.516L408.714 548.516M632.415 637.516L800.793 498.003M632.415 637.516L460.43 498.003M946.32 321.206L850.104 103.518M946.32 321.206L850.461 547.671M946.32 321.206L632.415 148.018M946.32 321.206L800.793 498.003M850.104 103.518L632.415 1.28858M850.104 103.518L632.415 148.018M632.415 1.28858L408.714 103.518M632.415 1.28858V148.018M408.714 103.518L316.106 321.206M408.714 103.518L632.415 148.018M316.106 321.206L408.714 548.516M316.106 321.206L460.43 498.003M316.106 321.206L632.415 148.018M408.714 548.516L460.43 498.003M460.43 498.003H800.793M460.43 498.003L632.415 148.018M800.793 498.003L850.461 547.671M800.793 498.003L632.415 148.018" stroke="#0AA5FF" stroke-width="1.5" class="svg__stroke--default-cyan-03"/>
</svg>
