<svg width="80" height="80" viewBox="0 0 81 80" fill="none" xmlns="http://www.w3.org/2000/svg" class="svg__molecule-book">
  <path d="m40.5 0 28.284 11.716L80.5 40 68.784 68.284 40.5 80 12.216 68.284.5 40l11.716-28.284L40.5 0Z" fill="#0B6AB7" class="svg__fill--primary-blue-03"/>
  <path d="M52.211 22.006a.625.625 0 1 0 0-1.25v1.25Zm-.462 4.378a.625.625 0 1 0 0-1.25v1.25Zm-21.093-1.25a.625.625 0 1 0 0 1.25v-1.25Zm21.555-4.378H29.877v1.25h22.334v-1.25ZM29.877 30.762h24.084v-1.25H29.877v1.25Zm24.997.913v24.3h1.25v-24.3h-1.25Zm-3.218 27.519H29.343v1.25h22.313v-1.25Zm-25.531-3.219V25.759h-1.25v30.216h1.25Zm13.437-29.591H51.75v-1.25H39.561v1.25Zm-8.906 0h8.906v-1.25h-8.906v1.25Zm-1.313 32.81a3.219 3.219 0 0 1-3.218-3.219h-1.25c0 2.468 2 4.469 4.468 4.469v-1.25Zm25.531-3.219a3.219 3.219 0 0 1-3.218 3.219v1.25c2.468 0 4.468-2 4.468-4.469h-1.25Zm-.913-25.213c.505 0 .913.409.913.913h1.25a2.163 2.163 0 0 0-2.163-2.163v1.25Zm-24.084-1.25a3.753 3.753 0 0 1-3.752-3.753h-1.25a5.003 5.003 0 0 0 5.002 5.003v-1.25Zm0-8.756a5.003 5.003 0 0 0-5.002 5.003h1.25a3.753 3.753 0 0 1 3.752-3.753v-1.25Z" fill="#fff" class="svg__fill--white"/>
  <path d="m36.412 38.995.286-.41a.5.5 0 0 0-.57 0l.284.41ZM32.775 29.8v-.5a.5.5 0 0 0-.5.5h.5Zm7.275 0h.5a.5.5 0 0 0-.5-.5v.5ZM32.92 41.42l.285.41-.285-.41Zm6.983 0-.286.41.285-.41Zm.285-.412-3.491-2.424-.57.822 3.49 2.424.57-.822Zm-4.062-2.424-3.49 2.424.57.822 3.49-2.424-.57-.822Zm-2.852 2.759V29.8h-1v11.543h1ZM39.55 29.8v11.543h1V29.8h-1Zm-6.775.5h7.275v-1h-7.275v1Zm-.139 10.708a.407.407 0 0 1 .639.335h-1c0 .478.538.76.931.487l-.57-.822Zm6.982.822a.593.593 0 0 0 .932-.487h-1c0-.329.369-.522.639-.335l-.57.822Z" fill="#fff" class="svg__fill--white"/>
</svg>