<svg width="81" height="80" viewBox="0 0 81 80" fill="none" xmlns="http://www.w3.org/2000/svg" class="svg__molecule-headphones">
<path d="M40.5 0L68.7843 11.7157L80.5 40L68.7843 68.2843L40.5 80L12.2158 68.2843L0.5 40L12.2158 11.7157L40.5 0Z" fill="#0B6AB7" class="svg__fill--primary-blue-03"/>
<rect x="24.5566" y="40.8452" width="5.15" height="16.5937" rx="0.655858" stroke="white" stroke-width="1.25" class="svg__stroke--white"/>
<rect x="-0.625" y="0.625" width="5.14976" height="16.5937" rx="0.655858" transform="matrix(-1 0 0 1 55.8071 40.2202)" stroke="white" stroke-width="1.25" class="svg__stroke--white"/>
<path d="M60 51.25L59.9368 41.3155C59.8688 30.628 51.1858 22 40.4981 22V22C29.8075 22 21.1233 30.6325 21.0593 41.3229L21 51.25" stroke="white" stroke-width="1.25" class="svg__stroke--white"/>
<path d="M24 54.9702L24.079 55.5902L24.625 55.5206V54.9702H24ZM21.75 54.5292L21.3181 54.981L21.75 54.5292ZM21.0015 52.5255L21.6218 52.4491L21.0015 52.5255ZM23.375 44.5V54.9702H24.625V44.5H23.375ZM21.625 52.4999V44.5H20.375V52.4999H21.625ZM24 54.9702C23.921 54.3502 23.9211 54.3502 23.9213 54.3502C23.9213 54.3502 23.9214 54.3501 23.9215 54.3501C23.9216 54.3501 23.9217 54.3501 23.9218 54.3501C23.922 54.3501 23.9221 54.3501 23.9221 54.3501C23.9221 54.3501 23.9217 54.3501 23.921 54.3502C23.9195 54.3504 23.9166 54.3507 23.9124 54.3512C23.9039 54.3521 23.8901 54.3536 23.8715 54.3554C23.8342 54.3589 23.7782 54.3636 23.7082 54.3675C23.567 54.3754 23.3743 54.3797 23.166 54.3667C22.7039 54.3377 22.3445 54.2328 22.1819 54.0774L21.3181 54.981C21.8273 55.4676 22.5928 55.5832 23.0878 55.6142C23.358 55.6312 23.6019 55.6254 23.7776 55.6156C23.866 55.6107 23.9386 55.6047 23.9903 55.5997C24.0161 55.5973 24.0369 55.5951 24.0518 55.5934C24.0593 55.5925 24.0654 55.5918 24.0699 55.5913C24.0722 55.591 24.0741 55.5908 24.0756 55.5906C24.0764 55.5905 24.077 55.5904 24.0776 55.5903C24.0779 55.5903 24.0781 55.5903 24.0784 55.5902C24.0785 55.5902 24.0786 55.5902 24.0787 55.5902C24.0788 55.5902 24.079 55.5902 24 54.9702ZM22.1819 54.0774C22.0372 53.9391 21.8896 53.6214 21.7768 53.2149C21.6728 52.8401 21.6288 52.5057 21.6218 52.4491L20.3811 52.6018C20.3917 52.6872 20.4449 53.0899 20.5723 53.5491C20.6909 53.9766 20.9088 54.5897 21.3181 54.981L22.1819 54.0774ZM20.375 52.4999C20.375 52.5295 20.3764 52.5635 20.3811 52.6018L21.6218 52.4491C21.623 52.4588 21.6238 52.4684 21.6244 52.4779C21.6249 52.4872 21.625 52.4948 21.625 52.4999H20.375ZM22.5 43.625C22.9832 43.625 23.375 44.0168 23.375 44.5H24.625C24.625 43.3264 23.6736 42.375 22.5 42.375V43.625ZM22.5 42.375C21.3264 42.375 20.375 43.3264 20.375 44.5H21.625C21.625 44.0168 22.0167 43.625 22.5 43.625V42.375Z" fill="white" class="svg__fill--white"/>
<path d="M57 54.9702L56.921 55.5902L56.375 55.5206V54.9702H57ZM59.25 54.5292L58.8181 54.0774L58.8181 54.0774L59.25 54.5292ZM59.9985 52.5255L60.6189 52.6018L59.9985 52.5255ZM57.625 44.5V54.9702H56.375V44.5H57.625ZM59.375 52.4999V44.5H60.625V52.4999H59.375ZM57 54.9702C57.079 54.3502 57.0789 54.3502 57.0787 54.3502C57.0787 54.3502 57.0786 54.3501 57.0785 54.3501C57.0784 54.3501 57.0783 54.3501 57.0782 54.3501C57.078 54.3501 57.0779 54.3501 57.0779 54.3501C57.0779 54.3501 57.0783 54.3501 57.079 54.3502C57.0805 54.3504 57.0834 54.3507 57.0876 54.3512C57.0961 54.3521 57.1099 54.3536 57.1285 54.3554C57.1658 54.3589 57.2218 54.3636 57.2918 54.3675C57.433 54.3754 57.6257 54.3797 57.834 54.3667C58.2961 54.3377 58.6555 54.2328 58.8181 54.0774L59.6819 54.981C59.1727 55.4676 58.4072 55.5832 57.9122 55.6142C57.642 55.6312 57.3981 55.6254 57.2224 55.6156C57.134 55.6107 57.0614 55.6047 57.0097 55.5997C56.9839 55.5973 56.9631 55.5951 56.9482 55.5934C56.9407 55.5925 56.9346 55.5918 56.9301 55.5913C56.9278 55.591 56.9259 55.5908 56.9244 55.5906C56.9236 55.5905 56.923 55.5904 56.9224 55.5903C56.9221 55.5903 56.9219 55.5903 56.9216 55.5902C56.9215 55.5902 56.9214 55.5902 56.9213 55.5902C56.9212 55.5902 56.921 55.5902 57 54.9702ZM58.8181 54.0774C58.9628 53.9391 59.1104 53.6214 59.2232 53.2149C59.3272 52.8401 59.3712 52.5057 59.3782 52.4491L60.6189 52.6018C60.6083 52.6872 60.5551 53.0899 60.4277 53.5491C60.3091 53.9766 60.0912 54.5897 59.6819 54.981L58.8181 54.0774ZM60.625 52.4999C60.625 52.5295 60.6236 52.5635 60.6189 52.6018L59.3782 52.4491C59.377 52.4588 59.3762 52.4684 59.3756 52.4779C59.3751 52.4872 59.375 52.4948 59.375 52.4999H60.625ZM58.5 43.625C58.0168 43.625 57.625 44.0168 57.625 44.5H56.375C56.375 43.3264 57.3264 42.375 58.5 42.375V43.625ZM58.5 42.375C59.6736 42.375 60.625 43.3264 60.625 44.5H59.375C59.375 44.0168 58.9833 43.625 58.5 43.625V42.375Z" fill="white" class="svg__fill--white"/>
</svg>
