<svg width="81" height="80" viewBox="0 0 81 80" fill="none" xmlns="http://www.w3.org/2000/svg" class="svg__molecule-headphones">
<path d="M40.5 0L68.7843 11.7157L80.5 40L68.7843 68.2843L40.5 80L12.2158 68.2843L0.5 40L12.2158 11.7157L40.5 0Z" fill="#0B6AB7" class="svg__fill--primary-blue-03"/>
<rect x="24.5566" y="40.8452" width="5.15" height="16.5937" rx="0.655858" stroke="white" stroke-width="1.25" class="svg__stroke--white"/>
<rect x="-0.625" y="0.625" width="5.14976" height="16.5937" rx="0.655858" transform="matrix(-1 0 0 1 55.8071 40.2202)" stroke="white" stroke-width="1.25" class="svg__stroke--white"/>
<path d="M59.8139 51.4874V41.3195C59.8139 30.6497 51.1642 22 40.4944 22V22C29.8245 22 21.1748 30.6497 21.1748 41.3195V51.4874" stroke="white" stroke-width="1.25" class="svg__stroke--white"/>
<mask id="path-5-inside-1_360_5669" fill="white" class="svg__fill--white">
<path d="M20.625 44.9328C20.625 43.7274 21.6022 42.7502 22.8076 42.7502V42.7502C24.013 42.7502 24.9902 43.7274 24.9902 44.9328V54.7726C24.9902 54.7726 22.6937 54.9745 21.7163 54.3297C20.9205 53.8046 20.6593 52.4941 20.6282 52.3233C20.626 52.3108 20.625 52.2984 20.625 52.2857V44.9328Z"/>
</mask>
<path d="M24.9902 54.7726L25.0997 56.0178L26.2402 55.9175V54.7726H24.9902ZM21.7163 54.3297L21.0279 55.373L21.7163 54.3297ZM23.7402 44.9328V54.7726H26.2402V44.9328H23.7402ZM21.875 52.2857V44.9328H19.375V52.2857H21.875ZM24.9902 54.7726C24.8807 53.5274 24.8808 53.5274 24.881 53.5274C24.8811 53.5274 24.8812 53.5273 24.8813 53.5273C24.8815 53.5273 24.8817 53.5273 24.8818 53.5273C24.882 53.5273 24.8821 53.5273 24.8821 53.5273C24.882 53.5273 24.8815 53.5273 24.8803 53.5274C24.8781 53.5276 24.8738 53.5279 24.8676 53.5284C24.855 53.5294 24.8347 53.5309 24.8074 53.5327C24.7527 53.5363 24.6707 53.541 24.5681 53.545C24.3614 53.5529 24.0791 53.5573 23.7738 53.5441C23.4647 53.5308 23.1561 53.5003 22.8893 53.446C22.6059 53.3884 22.4572 53.321 22.4047 53.2863L21.0279 55.373C21.4641 55.6608 21.969 55.81 22.391 55.8958C22.8297 55.9851 23.2785 56.025 23.6657 56.0418C24.0567 56.0587 24.4097 56.0529 24.664 56.0431C24.792 56.0382 24.897 56.0322 24.9717 56.0273C25.0092 56.0248 25.0391 56.0226 25.0607 56.021C25.0715 56.0201 25.0802 56.0194 25.0867 56.0189C25.09 56.0186 25.0927 56.0184 25.0949 56.0182C25.096 56.0181 25.0969 56.018 25.0977 56.018C25.0981 56.0179 25.0985 56.0179 25.0988 56.0179C25.099 56.0178 25.0992 56.0178 25.0993 56.0178C25.0995 56.0178 25.0997 56.0178 24.9902 54.7726ZM22.4047 53.2863C22.3245 53.2334 22.1806 53.0601 22.0434 52.7226C21.92 52.4194 21.8658 52.1423 21.8581 52.0998L19.3984 52.5468C19.4217 52.6752 19.5137 53.1387 19.7276 53.6647C19.9277 54.1564 20.3123 54.9009 21.0279 55.373L22.4047 53.2863ZM19.375 52.2857C19.375 52.3632 19.381 52.4511 19.3984 52.5468L21.8581 52.0998C21.8709 52.1705 21.875 52.2337 21.875 52.2857H19.375ZM22.8076 44.0002C23.3226 44.0002 23.7402 44.4178 23.7402 44.9328H26.2402C26.2402 43.0371 24.7033 41.5002 22.8076 41.5002V44.0002ZM22.8076 41.5002C20.9118 41.5002 19.375 43.0371 19.375 44.9328H21.875C21.875 44.4178 22.2925 44.0002 22.8076 44.0002V41.5002Z" fill="white" mask="url(#path-5-inside-1_360_5669)"/>
<mask id="path-7-inside-2_360_5669" fill="white" class="svg__fill--white">
<path d="M60.375 44.9328C60.375 43.7274 59.3978 42.7502 58.1924 42.7502V42.7502C56.987 42.7502 56.0098 43.7274 56.0098 44.9328V54.7726C56.0098 54.7726 58.3063 54.9745 59.2837 54.3297C60.0795 53.8046 60.3407 52.4941 60.3718 52.3233C60.374 52.3108 60.375 52.2984 60.375 52.2857V44.9328Z"/>
</mask>
<path d="M56.0098 54.7726L55.9003 56.0178L54.7598 55.9175V54.7726H56.0098ZM59.2837 54.3297L58.5953 53.2863L59.2837 54.3297ZM60.3718 52.3233L61.6016 52.5468L60.3718 52.3233ZM57.2598 44.9328V54.7726H54.7598V44.9328H57.2598ZM59.125 52.2857V44.9328H61.625V52.2857H59.125ZM56.0098 54.7726C56.1193 53.5274 56.1192 53.5274 56.119 53.5274C56.1189 53.5274 56.1188 53.5273 56.1187 53.5273C56.1185 53.5273 56.1183 53.5273 56.1182 53.5273C56.118 53.5273 56.1179 53.5273 56.1179 53.5273C56.118 53.5273 56.1185 53.5273 56.1197 53.5274C56.1219 53.5276 56.1262 53.5279 56.1324 53.5284C56.145 53.5294 56.1653 53.5309 56.1926 53.5327C56.2473 53.5363 56.3293 53.541 56.4319 53.545C56.6386 53.5529 56.9209 53.5573 57.2262 53.5441C57.5353 53.5308 57.8439 53.5003 58.1107 53.446C58.3941 53.3884 58.5428 53.321 58.5953 53.2863L59.9721 55.373C59.5359 55.6608 59.031 55.81 58.609 55.8958C58.1703 55.9851 57.7215 56.025 57.3343 56.0418C56.9433 56.0587 56.5904 56.0529 56.336 56.0431C56.208 56.0382 56.103 56.0322 56.0283 56.0273C55.9908 56.0248 55.9609 56.0226 55.9393 56.021C55.9285 56.0201 55.9198 56.0194 55.9133 56.0189C55.91 56.0186 55.9073 56.0184 55.9051 56.0182C55.904 56.0181 55.9031 56.018 55.9023 56.018C55.9019 56.0179 55.9015 56.0179 55.9012 56.0179C55.901 56.0178 55.9008 56.0178 55.9007 56.0178C55.9005 56.0178 55.9003 56.0178 56.0098 54.7726ZM58.5953 53.2863C58.6755 53.2334 58.8194 53.0601 58.9566 52.7226C59.08 52.4194 59.1342 52.1423 59.1419 52.0998L61.6016 52.5468C61.5783 52.6752 61.4863 53.1387 61.2724 53.6647C61.0723 54.1564 60.6877 54.9009 59.9721 55.373L58.5953 53.2863ZM61.625 52.2857C61.625 52.3632 61.619 52.4511 61.6016 52.5468L59.1419 52.0998C59.1291 52.1705 59.125 52.2337 59.125 52.2857H61.625ZM58.1924 44.0002C57.6774 44.0002 57.2598 44.4178 57.2598 44.9328H54.7598C54.7598 43.0371 56.2967 41.5002 58.1924 41.5002V44.0002ZM58.1924 41.5002C60.0882 41.5002 61.625 43.0371 61.625 44.9328H59.125C59.125 44.4178 58.7075 44.0002 58.1924 44.0002V41.5002Z" fill="white" mask="url(#path-7-inside-2_360_5669)" class="svg__fill--white"/>
</svg>
