<svg width="2209" height="1172" viewBox="0 0 2209 1172" fill="none" xmlns="http://www.w3.org/2000/svg" class="svg__molecule-masthead-wayfinder">
<path d="M1579.12 1171.01L1796.81 1082.01L1797.16 1081.16M1579.12 1171.01L1355.42 1082.01M1579.12 1171.01L1747.5 1031.49M1579.12 1171.01L1407.13 1031.49M1893.02 854.696L1796.81 637.008M1893.02 854.696L1797.16 1081.16M1893.02 854.696L1579.12 681.507M1893.02 854.696L1747.5 1031.49M1796.81 637.008L1579.12 534.778M1796.81 637.008L1579.12 681.507M1579.12 534.778L1355.42 637.008M1579.12 534.778V681.507M1355.42 637.008L1262.81 854.696M1355.42 637.008L1579.12 681.507M1262.81 854.696L1355.42 1082.01M1262.81 854.696L1407.13 1031.49M1262.81 854.696L1579.12 681.507M1355.42 1082.01L1407.13 1031.49M1407.13 1031.49H1747.5M1407.13 1031.49L1579.12 681.507M1747.5 1031.49L1797.16 1081.16M1747.5 1031.49L1579.12 681.507" stroke="#0AA5FF" stroke-width="1.5" class="svg__stroke--default-cyan-03"/>
<path d="M948.212 1171.01L1165.9 1082.01L1166.26 1081.16M948.212 1171.01L724.51 1082.01M948.212 1171.01L1116.59 1031.49M948.212 1171.01L776.226 1031.49M1262.12 854.696L1165.9 637.008M1262.12 854.696L1166.26 1081.16M1262.12 854.696L948.212 681.507M1262.12 854.696L1116.59 1031.49M1165.9 637.008L948.212 534.778M1165.9 637.008L948.212 681.507M948.212 534.778L724.51 637.008M948.212 534.778V681.507M724.51 637.008L631.902 854.696M724.51 637.008L948.212 681.507M631.902 854.696L724.51 1082.01M631.902 854.696L776.226 1031.49M631.902 854.696L948.212 681.507M724.51 1082.01L776.226 1031.49M776.226 1031.49H1116.59M776.226 1031.49L948.212 681.507M1116.59 1031.49L1166.26 1081.16M1116.59 1031.49L948.212 681.507" stroke="#0AA5FF" stroke-width="1.5" class="svg__stroke--default-cyan-03"/>
<path d="M317.309 1171L534.998 1082L535.355 1081.16M317.309 1171L93.6077 1082M317.309 1171L485.687 1031.49M317.309 1171L145.324 1031.49M631.214 854.695L534.998 637.007M631.214 854.695L535.355 1081.16M631.214 854.695L317.309 681.506M631.214 854.695L485.687 1031.49M534.998 637.007L317.309 534.777M534.998 637.007L317.309 681.506M317.309 534.777L93.6077 637.007M317.309 534.777V681.506M93.6077 637.007L1 854.695M93.6077 637.007L317.309 681.506M1 854.695L93.6077 1082M1 854.695L145.324 1031.49M1 854.695L317.309 681.506M93.6077 1082L145.324 1031.49M145.324 1031.49H485.687M145.324 1031.49L317.309 681.506M485.687 1031.49L535.355 1081.16M485.687 1031.49L317.309 681.506" stroke="#0AA5FF" stroke-width="1.5" class="svg__stroke--default-cyan-03"/>
<path d="M1263.32 637.375L1481.01 548.375L1481.36 547.53M1263.32 637.375L1039.62 548.375M1263.32 637.375L1431.69 497.862M1263.32 637.375L1091.33 497.862M1577.22 321.065L1481.01 103.377M1577.22 321.065L1481.36 547.53M1577.22 321.065L1263.32 147.877M1577.22 321.065L1431.69 497.862M1481.01 103.377L1263.32 1.14746M1481.01 103.377L1263.32 147.877M1263.32 1.14746L1039.62 103.377M1263.32 1.14746V147.877M1039.62 103.377L947.008 321.065M1039.62 103.377L1263.32 147.877M947.008 321.065L1039.62 548.375M947.008 321.065L1091.33 497.862M947.008 321.065L1263.32 147.877M1039.62 548.375L1091.33 497.862M1091.33 497.862H1431.69M1091.33 497.862L1263.32 147.877M1431.69 497.862L1481.36 547.53M1431.69 497.862L1263.32 147.877" stroke="#0AA5FF" stroke-width="1.5" class="svg__stroke--default-cyan-03"/>
<path d="M1894.22 637.374L2111.91 548.374L2112.27 547.529M1894.22 637.374L1670.52 548.374M1894.22 637.374L2062.6 497.861M1894.22 637.374L1722.24 497.861M2208.13 321.065L2111.91 103.376M2208.13 321.065L2112.27 547.529M2208.13 321.065L1894.22 147.876M2208.13 321.065L2062.6 497.861M2111.91 103.376L1894.22 1.14697M2111.91 103.376L1894.22 147.876M1894.22 1.14697L1670.52 103.376M1894.22 1.14697V147.876M1670.52 103.376L1577.91 321.065M1670.52 103.376L1894.22 147.876M1577.91 321.065L1670.52 548.374M1577.91 321.065L1722.24 497.861M1577.91 321.065L1894.22 147.876M1670.52 548.374L1722.24 497.861M1722.24 497.861H2062.6M1722.24 497.861L1894.22 147.876M2062.6 497.861L2112.27 547.529M2062.6 497.861L1894.22 147.876" stroke="#0AA5FF" stroke-width="1.5" class="svg__stroke--default-cyan-03"/>
<path d="M632.415 637.374L850.104 548.374L850.461 547.529M632.415 637.374L408.714 548.374M632.415 637.374L800.793 497.861M632.415 637.374L460.43 497.861M946.32 321.065L850.104 103.376M946.32 321.065L850.461 547.529M946.32 321.065L632.415 147.876M946.32 321.065L800.793 497.861M850.104 103.376L632.415 1.14697M850.104 103.376L632.415 147.876M632.415 1.14697L408.714 103.376M632.415 1.14697V147.876M408.714 103.376L316.106 321.065M408.714 103.376L632.415 147.876M316.106 321.065L408.714 548.374M316.106 321.065L460.43 497.861M316.106 321.065L632.415 147.876M408.714 548.374L460.43 497.861M460.43 497.861H800.793M460.43 497.861L632.415 147.876M800.793 497.861L850.461 547.529M800.793 497.861L632.415 147.876" stroke="#0AA5FF" stroke-width="1.5" class="svg__stroke--default-cyan-03"/>
</svg>
